<?xml version="1.0" encoding="iso-8859-1"?>
<!-- Generator: Adobe Illustrator 19.0.0, SVG Export Plug-In . SVG Version: 6.00 Build 0)  -->
<svg version="1.1" id="Layer_1" xmlns="http://www.w3.org/2000/svg" xmlns:xlink="http://www.w3.org/1999/xlink" x="0px" y="0px"
	 viewBox="0 0 512 512" style="enable-background:new 0 0 512 512;" xml:space="preserve">
<path style="fill:#F2EFE2;" d="M456.348,130.853V44.522C456.348,19.933,436.414,0,411.826,0H100.174
	C75.586,0,55.652,19.933,55.652,44.522v219.896C24.718,265.876,0,291.495,0,322.783s24.718,56.907,55.652,58.365v86.331
	c0,24.588,19.933,44.522,44.522,44.522h311.652c24.588,0,44.522-19.933,44.522-44.522V247.582
	C487.281,246.124,512,220.506,512,189.217S487.281,132.311,456.348,130.853z M16.696,322.783c0-22.079,17.235-40.198,38.957-41.636
	v83.272C33.931,362.98,16.696,344.862,16.696,322.783z M456.348,230.853v-83.272c21.721,1.438,38.957,19.557,38.957,41.636
	S478.069,229.415,456.348,230.853z"/>
<path style="fill:#BFBBA3;" d="M91.826,139.13c0-4.61,3.738-8.348,8.348-8.348h100.174c4.61,0,8.348,3.738,8.348,8.348
	c0,4.61-3.738,8.348-8.348,8.348H100.174C95.564,147.478,91.826,143.741,91.826,139.13z M411.826,364.522H311.652
	c-4.61,0-8.348,3.738-8.348,8.348c0,4.61,3.738,8.348,8.348,8.348h100.174c4.61,0,8.348-3.738,8.348-8.348
	C420.174,368.259,416.436,364.522,411.826,364.522z M211.478,286.609H100.174c-4.61,0-8.348,3.738-8.348,8.348
	s3.738,8.348,8.348,8.348h111.304c4.61,0,8.348-3.738,8.348-8.348S216.088,286.609,211.478,286.609z M411.826,286.609H311.652
	c-4.61,0-8.348,3.738-8.348,8.348s3.738,8.348,8.348,8.348h100.174c4.61,0,8.348-3.738,8.348-8.348S416.436,286.609,411.826,286.609
	z M203.13,217.043c0,4.61,3.738,8.348,8.348,8.348h200.348c4.61,0,8.348-3.738,8.348-8.348c0-4.61-3.738-8.348-8.348-8.348H211.478
	C206.868,208.696,203.13,212.433,203.13,217.043z M100.174,225.391h44.522c4.61,0,8.348-3.738,8.348-8.348
	c0-4.61-3.738-8.348-8.348-8.348h-44.522c-4.61,0-8.348,3.738-8.348,8.348C91.826,221.654,95.564,225.391,100.174,225.391z
	 M176.974,208.696c-4.61,0-8.348,3.738-8.348,8.348c0,4.61,3.738,8.348,8.348,8.348h1.113c4.61,0,8.348-3.738,8.348-8.348
	c0-4.61-3.738-8.348-8.348-8.348H176.974z M245.983,286.609h-1.113c-4.61,0-8.348,3.738-8.348,8.348s3.738,8.348,8.348,8.348h1.113
	c4.61,0,8.348-3.738,8.348-8.348S250.593,286.609,245.983,286.609z M278.261,286.609h-1.113c-4.61,0-8.348,3.738-8.348,8.348
	s3.738,8.348,8.348,8.348h1.113c4.61,0,8.348-3.738,8.348-8.348S282.871,286.609,278.261,286.609z"/>
<path style="fill:#FC8059;" d="M263.87,379.08l-43.287,34.16c-2.174,1.715-5.697,1.715-7.87,0c-1.044-0.824-1.63-1.941-1.63-3.105
	v-28.918H64h-5.565C26.213,381.217,0,355.004,0,322.783c0-31.288,24.718-56.907,55.652-58.365v16.728
	c-21.721,1.439-38.957,19.557-38.957,41.637c0,23.016,18.724,41.739,41.739,41.739H64h147.083v-28.918
	c0-1.164,0.587-2.282,1.63-3.105c2.174-1.715,5.697-1.715,7.87,0l43.287,34.16C268.217,370.089,268.217,375.65,263.87,379.08z
	 M453.565,130.783H448H300.522v-28.918c0-1.164-0.587-2.282-1.629-3.105c-2.174-1.715-5.697-1.715-7.87,0l-43.287,34.16
	c-4.346,3.43-4.346,8.991,0,12.422l43.287,34.16c2.174,1.715,5.697,1.715,7.87,0c1.044-0.824,1.629-1.941,1.629-3.105v-28.918H448
	h5.565c23.016,0,41.739,18.724,41.739,41.739c0,22.079-17.235,40.198-38.957,41.636v16.728C487.281,246.123,512,220.505,512,189.216
	C512,156.996,485.787,130.783,453.565,130.783z"/>
<g>
</g>
<g>
</g>
<g>
</g>
<g>
</g>
<g>
</g>
<g>
</g>
<g>
</g>
<g>
</g>
<g>
</g>
<g>
</g>
<g>
</g>
<g>
</g>
<g>
</g>
<g>
</g>
<g>
</g>
</svg>
