<?xml version="1.0" standalone="no"?><!DOCTYPE svg PUBLIC "-//W3C//DTD SVG 1.1//EN" "http://www.w3.org/Graphics/SVG/1.1/DTD/svg11.dtd"><svg t="1516892656592" class="icon" style="" viewBox="0 0 1024 1024" version="1.1" xmlns="http://www.w3.org/2000/svg" p-id="12635" xmlns:xlink="http://www.w3.org/1999/xlink" width="200" height="200"><defs><style type="text/css"></style></defs><path d="M89.9 717.6c-15.2 0-27.5-12.3-27.5-27.5V112c0-15.2 12.3-27.5 27.5-27.5s27.5 12.3 27.5 27.5v578c0 15.2-12.3 27.6-27.5 27.6z" p-id="12636"></path><path d="M62.4 112.2v-0.4c0-15.1 12.2-27.3 27.3-27.3H933c15.1 0 27.3 12.2 27.3 27.3v0.4c0 15.1-12.2 27.3-27.3 27.3H89.7c-15.1 0-27.3-12.2-27.3-27.3zM224.1 297.8v-11.3c0-12.1 9.8-21.8 21.8-21.8h530.9c12.1 0 21.8 9.8 21.8 21.8v11.3c0 12.1-9.8 21.8-21.8 21.8H245.9c-12 0-21.8-9.7-21.8-21.8zM224.1 456v-11.3c0-12.1 9.8-21.8 21.8-21.8h530.9c12.1 0 21.8 9.8 21.8 21.8V456c0 12.1-9.8 21.8-21.8 21.8H245.9c-12 0.1-21.8-9.7-21.8-21.8zM62.4 690.1c0-15.2 12.3-27.5 27.5-27.5h276.7c15.2 0 27.5 12.3 27.5 27.5s-12.3 27.5-27.5 27.5H89.9c-15.2 0-27.5-12.4-27.5-27.5zM546.2 690.1c0-15.2 12.3-27.5 27.5-27.5h359.2c15.2 0 27.5 12.3 27.5 27.5s-12.3 27.5-27.5 27.5H573.7c-15.2 0-27.5-12.4-27.5-27.5z" p-id="12637"></path><path d="M326.9 936.7c-10.7-10.7-10.7-28.2 0-38.9L554 670.6c10.7-10.7 28.2-10.7 38.9 0s10.7 28.2 0 38.9L365.8 936.7c-10.8 10.7-28.2 10.7-38.9 0zM932.9 717.6c-15.2 0-27.5-12.3-27.5-27.5V112c0-15.2 12.3-27.5 27.5-27.5s27.5 12.3 27.5 27.5v578c0 15.2-12.4 27.6-27.5 27.6z" p-id="12638"></path></svg>