<?xml version="1.0" standalone="no"?><!DOCTYPE svg PUBLIC "-//W3C//DTD SVG 1.1//EN" "http://www.w3.org/Graphics/SVG/1.1/DTD/svg11.dtd"><svg t="1516892848447" class="icon" style="" viewBox="0 0 1024 1024" version="1.1" xmlns="http://www.w3.org/2000/svg" p-id="13318" xmlns:xlink="http://www.w3.org/1999/xlink" width="200" height="200"><defs><style type="text/css"></style></defs><path d="M521.418 814.943q19.825-19.825 79.299-79.299 14.487-14.487 32.025-14.487 67.862 0 203.585 0 12.2 0 22.112-9.912 9.15-9.15 9.15-21.35 0-151.736 0-454.445 0-12.2-9.15-21.35-9.912-9.912-22.112-9.912-218.073 0-653.455 0-12.962 0-22.112 9.912-9.15 9.15-9.15 21.35 0 38.125 0 113.611 0 10.675 0 24.4 0 12.962 0 28.975 0 16.012 0 35.075 0 93.024 0 252.385 0 12.2 9.15 21.35 9.15 9.912 22.112 9.912 67.862 0 202.823 0 18.3 0 32.787 14.487 53.374 53.374 80.824 79.299 4.575 3.812 11.437 3.812 6.862 0 10.675-3.812zM623.592 756.231q-19.825 19.825-80.062 80.824-13.725 13.725-32.787 13.725-19.825 0-33.55-13.725-26.687-26.687-80.824-80.824-5.337-5.337-10.675-5.337-67.862 0-202.823 0-25.162 0-44.225-19.062-18.3-18.3-18.3-43.462 0-32.025 0-80.062 0-48.037 0-112.849 0-16.012 0-40.412 0-24.4 0-57.187 0-66.337 0-164.698 0-25.925 18.3-44.225 19.062-18.3 44.225-18.3 218.835 0 655.743 0 25.162 0 44.225 18.3 18.3 18.3 18.3 44.225 0 151.736 0 455.207 0 25.162-18.3 43.462-19.062 19.062-44.225 19.062-67.862 0-202.823 0-9.15 2.287-12.2 5.337zM330.033 516.809q22.112 0 38.125-16.012 16.012-16.012 16.012-38.125 0-22.875-16.012-39.65-16.012-16.012-38.887-16.012-22.112 0-38.125 16.012-16.012 16.775-16.012 39.65 0 22.112 16.012 38.125 16.012 16.012 38.887 16.012zM330.033 438.272q9.912 0 16.012 6.862 6.862 6.862 6.862 16.775 0 9.912-6.862 16.775-6.1 6.862-16.012 6.862-9.912 0-16.775-6.862-6.862-6.862-6.862-16.775 0-9.912 6.862-16.775 6.862-6.862 16.775-6.862zM691.454 516.809q22.875 0 38.887-16.012t16.012-38.125q0-22.875-16.012-39.65-16.012-16.012-38.887-16.012-22.112 0-38.125 16.012-16.012 16.775-16.012 38.887 0 2.287 0 3.812 0 20.587 14.487 35.075 16.775 16.012 39.65 16.012zM691.454 438.272q9.912 0 16.775 6.862 6.862 6.862 6.862 16.775 0 9.912-6.862 16.775-6.862 6.862-16.775 6.862-9.912 0-16.012-6.862-6.862-6.862-6.862-16.775 0-9.912 6.862-16.775 6.1-6.862 16.012-6.862zM510.743 516.809q22.112 0 38.125-16.012 16.775-16.012 16.775-38.125 0-22.875-16.775-39.65-16.012-16.012-38.125-16.012-22.112 0-38.125 16.012-16.775 16.775-16.775 39.65 0 22.112 16.775 38.125 16.012 16.012 38.125 16.012zM510.743 438.272q9.912 0 16.775 6.862 6.862 6.862 6.862 16.775 0 9.912-6.862 16.775-6.862 6.862-16.775 6.862-9.912 0-16.775-6.862-6.862-6.862-6.862-16.775 0-9.912 6.862-16.775 6.862-6.862 16.775-6.862z" p-id="13319"></path></svg>