<svg xmlns="http://www.w3.org/2000/svg" viewBox="0 0 512.032 512.032"><circle cx="256" cy="256" r="216.72" fill="#e8e8e8"/><path d="M256 445.384c-104.432 0-189.384-84.952-189.384-189.384S151.568 66.608 256 66.608 445.384 151.576 445.384 256 360.432 445.384 256 445.384zm0-370.776C155.984 74.608 74.616 155.984 74.616 256S155.984 437.384 256 437.384 437.384 356.016 437.384 256 356.016 74.608 256 74.608z" fill="#999"/><circle cx="256" cy="256.56" r="155.896" fill="#fff"/><g fill="#999"><path d="M257.136 414.48l-.016-4a151.59 151.59 0 0 0 7.88-.256l.232 4c-2.68.152-5.384.24-8.096.256zm-8.088-.152c-2.72-.12-5.408-.312-8.08-.56l.376-3.984c2.608.248 5.232.432 7.872.544l-.168 4zm24.256-.776l-.44-3.984c2.632-.28 5.24-.632 7.824-1.056l.64 3.952c-2.656.424-5.328.784-8.024 1.088zm-40.384-.744a143.25 143.25 0 0 1-7.984-1.384l.784-3.92c2.568.512 5.168.96 7.784 1.352l-.584 3.952zm56.376-1.848l-.84-3.904a153.63 153.63 0 0 0 7.688-1.848l1.032 3.856a163.668 163.668 0 0 1-7.88 1.896zm-72.248-1.328c-2.632-.664-5.232-1.4-7.808-2.2l1.184-3.816c2.504.776 5.032 1.496 7.6 2.144l-.976 3.872zm87.88-2.88l-1.232-3.8a165.03 165.03 0 0 0 7.456-2.648l1.44 3.736c-2.528.976-5.08 1.88-7.664 2.712zm-103.352-1.912a149.382 149.382 0 0 1-7.504-2.984l1.56-3.68c2.408 1.032 4.84 2 7.32 2.912l-1.376 3.752zm118.504-3.904l-1.624-3.656c2.416-1.072 4.8-2.2 7.144-3.392l1.816 3.56a157.528 157.528 0 0 1-7.336 3.488zm-133.36-2.44a148.214 148.214 0 0 1-7.168-3.744l1.936-3.504a144.339 144.339 0 0 0 6.984 3.648l-1.752 3.6zm147.808-4.896l-1.984-3.472a156.536 156.536 0 0 0 6.752-4.112l2.168 3.36a139.371 139.371 0 0 1-6.936 4.224zm-161.952-2.96a159.33 159.33 0 0 1-6.768-4.464l2.296-3.28a143.43 143.43 0 0 0 6.576 4.336l-2.104 3.408zm175.584-5.816l-2.344-3.248a153.223 153.223 0 0 0 6.296-4.784l2.496 3.128a175.25 175.25 0 0 1-6.448 4.904zm-188.864-3.44a142.186 142.186 0 0 1-6.264-5.128l2.608-3.032a147.147 147.147 0 0 0 6.112 5l-2.456 3.16zm201.52-6.688l-2.656-2.984a175.277 175.277 0 0 0 5.776-5.4l2.8 2.856a160.28 160.28 0 0 1-5.92 5.528zm-213.776-3.864a168.393 168.393 0 0 1-5.72-5.744l2.904-2.752a160.04 160.04 0 0 0 5.576 5.6l-2.76 2.896zm225.312-7.496l-2.936-2.704a146.813 146.813 0 0 0 5.184-5.952l3.08 2.544a150.168 150.168 0 0 1-5.328 6.112zm-236.456-4.28a159.413 159.413 0 0 1-5.104-6.296l3.168-2.44c1.6 2.096 3.264 4.136 4.976 6.144l-3.04 2.592zm246.784-8.168l-3.2-2.392a150.902 150.902 0 0 0 4.552-6.448l3.328 2.232a166.727 166.727 0 0 1-4.68 6.608zm-256.656-4.672a176.54 176.54 0 0 1-4.44-6.784l3.408-2.112a151.784 151.784 0 0 0 4.328 6.624l-3.296 2.272zm265.656-8.776l-3.44-2.064a140.397 140.397 0 0 0 3.872-6.872l3.528 1.872a141.353 141.353 0 0 1-3.96 7.064zm-274.184-5.016a165.903 165.903 0 0 1-3.712-7.216l3.592-1.736c1.16 2.376 2.368 4.72 3.632 7.032l-3.512 1.92zm281.744-9.28l-3.624-1.688a161.37 161.37 0 0 0 3.144-7.224l3.704 1.504a152.277 152.277 0 0 1-3.224 7.408zm-288.784-5.32a169.719 169.719 0 0 1-2.96-7.552l3.768-1.36a157.877 157.877 0 0 0 2.88 7.368l-3.688 1.544zm294.848-9.68l-3.784-1.296a161.281 161.281 0 0 0 2.384-7.528l3.84 1.112a162.657 162.657 0 0 1-2.44 7.712zm-300.384-5.592a156.114 156.114 0 0 1-2.16-7.816l3.888-.952a138.924 138.924 0 0 0 2.096 7.608l-3.824 1.16zm304.88-9.968l-3.888-.904a153.995 153.995 0 0 0 1.592-7.736l3.936.704a172.072 172.072 0 0 1-1.64 7.936zm-308.76-5.728c-.52-2.648-.968-5.32-1.344-8l3.952-.56a157.93 157.93 0 0 0 1.312 7.784l-3.92.776zm311.624-10.216l-3.968-.496c.336-2.6.592-5.224.8-7.856l3.984.296c-.208 2.704-.48 5.392-.816 8.056zm-313.896-5.832a158.06 158.06 0 0 1-.512-8.08l4-.16c.104 2.648.264 5.28.496 7.872l-3.984.368zm315.104-10.304l-4-.096c.032-1.272.048-2.544.048-3.832 0-2.648-.072-5.272-.2-7.888l4-.2c.136 2.68.2 5.384.2 8.096 0 1.312-.016 2.616-.048 3.92zm-311.728-5.824l-4-.064c.04-2.712.144-5.408.304-8.088l4 .248a152.451 152.451 0 0 0-.304 7.904zm306.984-13.856c-.264-2.624-.6-5.232-1-7.832l3.952-.608c.416 2.656.752 5.328 1.032 8.032l-3.984.408zm-306-1.904l-3.968-.456c.304-2.696.68-5.368 1.128-8.016l3.936.656a156.951 156.951 0 0 0-1.096 7.816zm303.6-13.696a144.987 144.987 0 0 0-1.8-7.688l3.872-1.016c.68 2.616 1.296 5.24 1.84 7.888l-3.912.816zm-301-1.864l-3.904-.856a158.879 158.879 0 0 1 1.944-7.864l3.856 1.064a150.607 150.607 0 0 0-1.896 7.656zm297.008-13.408a162.143 162.143 0 0 0-2.592-7.488l3.752-1.408a166.831 166.831 0 0 1 2.656 7.672l-3.816 1.224zm-292.824-1.824l-3.8-1.248c.84-2.576 1.768-5.12 2.752-7.624l3.72 1.456c-.952 2.44-1.84 4.912-2.672 7.416zm287.248-12.984a145.656 145.656 0 0 0-3.352-7.16l3.576-1.8a154.435 154.435 0 0 1 3.448 7.36l-3.672 1.6zm-281.528-1.688l-3.64-1.656c1.12-2.456 2.28-4.88 3.504-7.272l3.56 1.832a156.891 156.891 0 0 0-3.424 7.096zM390.112 181a153.497 153.497 0 0 0-4.064-6.784l3.376-2.144a147.836 147.836 0 0 1 4.168 6.952l-3.48 1.976zm-267.272-1.568l-3.472-2c1.36-2.344 2.776-4.64 4.248-6.896l3.344 2.184c-1.424 2.2-2.8 4.432-4.12 6.712zm258.8-11.776a158.75 158.75 0 0 0-4.736-6.328l3.144-2.472a155.522 155.522 0 0 1 4.856 6.488l-3.264 2.312zm-250.2-1.432l-3.232-2.36a166.56 166.56 0 0 1 4.928-6.424l3.112 2.512a146.196 146.196 0 0 0-4.808 6.272zm240.416-10.96a159.573 159.573 0 0 0-5.352-5.824l2.872-2.784a168.26 168.26 0 0 1 5.496 5.96l-3.016 2.648zm-230.496-1.312l-2.984-2.672a161.29 161.29 0 0 1 5.552-5.888l2.84 2.816a153.293 153.293 0 0 0-5.408 5.744zm219.512-10.016a152.788 152.788 0 0 0-5.92-5.232l2.576-3.064a175.798 175.798 0 0 1 6.064 5.36l-2.72 2.936zm-208.4-1.2l-2.688-2.952c2-1.824 4.04-3.584 6.128-5.304l2.544 3.096a152.792 152.792 0 0 0-5.984 5.16zm196.32-8.96a150.718 150.718 0 0 0-6.408-4.6l2.248-3.312a158.893 158.893 0 0 1 6.576 4.728l-2.416 3.184zm-184.12-1.056l-2.376-3.216c2.176-1.6 4.392-3.152 6.648-4.64l2.2 3.328a173.421 173.421 0 0 0-6.472 4.528zm171.072-7.8a144.005 144.005 0 0 0-6.84-3.92l1.888-3.512a151.955 151.955 0 0 1 7.032 4.016l-2.08 3.416zm-157.888-.928l-2.048-3.44a152.722 152.722 0 0 1 7.088-3.952l1.856 3.544a161.18 161.18 0 0 0-6.896 3.848zm144.008-6.552a147.621 147.621 0 0 0-7.192-3.184l1.512-3.704a157.277 157.277 0 0 1 7.4 3.28l-1.72 3.608zm-130.024-.776l-1.656-3.64a161.843 161.843 0 0 1 7.456-3.192l1.488 3.72c-2.456.976-4.88 2.024-7.288 3.112zm115.464-5.232c-2.48-.864-4.984-1.68-7.512-2.44l1.144-3.832c2.592.776 5.168 1.6 7.704 2.496l-1.336 3.776zm-100.768-.616l-1.296-3.784a154.69 154.69 0 0 1 7.744-2.408l1.096 3.84a158.637 158.637 0 0 0-7.544 2.352zm85.624-3.864a145.549 145.549 0 0 0-7.728-1.648l.736-3.936c2.664.496 5.312 1.064 7.928 1.696l-.936 3.888zm-70.432-.424l-.888-3.904c2.624-.592 5.272-1.12 7.944-1.584l.688 3.936c-2.616.448-5.2.968-7.744 1.552zm54.92-2.472c-2.6-.352-5.208-.632-7.848-.848l.328-3.984c2.704.216 5.392.512 8.056.864l-.536 3.968zm-39.36-.232l-.488-3.968c2.664-.328 5.36-.584 8.064-.776l.28 3.984c-2.64.184-5.256.448-7.856.76zm23.632-1.056a144.21 144.21 0 0 0-7.888-.048l-.096-4a152.36 152.36 0 0 1 8.112.048l-.128 4z"/><path d="M0 248h117.232v16H0zM394.8 248h117.232v16H394.8zM248 394.8h16v117.232h-16zM248 0h16v117.232h-16z"/></g><path d="M185.968 356.88h-8v-44.512l33.264-33.264 5.656 5.656-30.92 30.92zM334.088 356.88h-8v-41.2l-30.928-30.92 5.664-5.656 33.264 33.264zM256.024 232.472c-11.808 0-21.472-9.664-21.472-21.472v-37.56c0-11.808 9.664-21.472 21.472-21.472 11.808 0 21.472 9.664 21.472 21.472V211c0 11.808-9.664 21.472-21.472 21.472zM216.92 212.688l-31.76-17.6-16.296-34.768 7.256-3.392 15.184 32.424 29.496 16.336zM190.152 261.56l-32.592-23 4.608-6.536 27.312 19.264 26.672-24.6 5.416 5.88zM295.136 212.688l-3.88-7 29.496-16.336 15.184-32.424 7.248 3.392-16.296 34.768zM321.904 261.56l-31.416-28.992 5.416-5.88 26.672 24.6 27.296-19.264 4.616 6.536z"/><path d="M256.024 346.496c-25.504 0-46.376-20.872-46.376-46.376V219c0-25.504 20.872-46.376 46.376-46.376 25.504 0 46.376 20.872 46.376 46.376v81.12c0 25.512-20.864 46.376-46.376 46.376z" fill="#e50000"/><path d="M209.648 245.76v-26.752c0-25.504 20.872-46.376 46.376-46.376 25.504 0 46.376 20.872 46.376 46.376v26.752h-92.752z" fill="red"/><path d="M288.781 148.282l-21.812 21.813-5.657-5.657 21.813-21.812zM250.772 164.442l-5.657 5.657-21.813-21.813 5.657-5.656z"/></svg>