<?xml version="1.0" encoding="iso-8859-1"?>
<!-- Generator: Adobe Illustrator 19.0.0, SVG Export Plug-In . SVG Version: 6.00 Build 0)  -->
<svg version="1.1" id="Capa_1" xmlns="http://www.w3.org/2000/svg" xmlns:xlink="http://www.w3.org/1999/xlink" x="0px" y="0px"
	 viewBox="0 0 512.032 512.032" style="enable-background:new 0 0 512.032 512.032;" xml:space="preserve">
<circle style="fill:#E8E8E8;" cx="256" cy="256" r="216.72"/>
<path style="fill:#999999;" d="M256,445.384c-104.432,0-189.384-84.952-189.384-189.384S151.568,66.608,256,66.608
	S445.384,151.576,445.384,256S360.432,445.384,256,445.384z M256,74.608C155.984,74.608,74.616,155.984,74.616,256
	S155.984,437.384,256,437.384S437.384,356.016,437.384,256S356.016,74.608,256,74.608z"/>
<circle style="fill:#FFFFFF;" cx="256" cy="256.56" r="155.896"/>
<g>
	<path style="fill:#999999;" d="M257.136,414.48l-0.016-4c2.64-0.016,5.264-0.104,7.88-0.256l0.232,4
		C262.552,414.376,259.848,414.464,257.136,414.48z M249.048,414.328c-2.72-0.12-5.408-0.312-8.08-0.56l0.376-3.984
		c2.608,0.248,5.232,0.432,7.872,0.544L249.048,414.328z M273.304,413.552l-0.44-3.984c2.632-0.28,5.24-0.632,7.824-1.056
		l0.64,3.952C278.672,412.888,276,413.248,273.304,413.552z M232.92,412.808c-2.696-0.392-5.352-0.848-7.984-1.384l0.784-3.92
		c2.568,0.512,5.168,0.96,7.784,1.352L232.92,412.808z M289.296,410.96l-0.84-3.904c2.584-0.552,5.152-1.168,7.688-1.848
		l1.032,3.856C294.568,409.76,291.944,410.392,289.296,410.96z M217.048,409.632c-2.632-0.664-5.232-1.4-7.808-2.2l1.184-3.816
		c2.504,0.776,5.032,1.496,7.6,2.144L217.048,409.632z M304.928,406.752l-1.232-3.8c2.504-0.824,4.992-1.704,7.456-2.648l1.44,3.736
		C310.064,405.016,307.512,405.92,304.928,406.752z M201.576,404.84c-2.536-0.928-5.04-1.928-7.504-2.984l1.56-3.68
		c2.408,1.032,4.84,2,7.32,2.912L201.576,404.84z M320.08,400.936l-1.624-3.656c2.416-1.072,4.8-2.2,7.144-3.392l1.816,3.56
		C325,398.672,322.552,399.84,320.08,400.936z M186.72,398.496c-2.432-1.184-4.824-2.44-7.168-3.744l1.936-3.504
		c2.288,1.272,4.616,2.496,6.984,3.648L186.72,398.496z M334.528,393.6l-1.984-3.472c2.288-1.312,4.536-2.688,6.752-4.112
		l2.168,3.36C339.192,390.856,336.88,392.256,334.528,393.6z M172.576,390.64c-2.296-1.432-4.552-2.92-6.768-4.464l2.296-3.28
		c2.152,1.504,4.344,2.952,6.576,4.336L172.576,390.64z M348.16,384.824l-2.344-3.248c2.144-1.536,4.24-3.144,6.296-4.784
		l2.496,3.128C352.496,381.6,350.352,383.24,348.16,384.824z M159.296,381.384c-2.136-1.648-4.224-3.36-6.264-5.128l2.608-3.032
		c1.992,1.72,4.024,3.384,6.112,5L159.296,381.384z M360.816,374.696l-2.656-2.984c1.968-1.76,3.888-3.552,5.776-5.4l2.8,2.856
		C364.8,371.064,362.832,372.912,360.816,374.696z M147.04,370.832c-1.952-1.864-3.856-3.784-5.72-5.744l2.904-2.752
		c1.816,1.912,3.672,3.784,5.576,5.6L147.04,370.832z M372.352,363.336l-2.936-2.704c1.784-1.936,3.504-3.92,5.184-5.952l3.08,2.544
		C375.952,359.32,374.176,361.352,372.352,363.336z M135.896,359.056c-1.76-2.056-3.456-4.16-5.104-6.296l3.168-2.44
		c1.6,2.096,3.264,4.136,4.976,6.144L135.896,359.056z M382.68,350.888l-3.2-2.392c1.568-2.112,3.096-4.256,4.552-6.448l3.328,2.232
		C385.848,346.52,384.296,348.728,382.68,350.888z M126.024,346.216c-1.528-2.216-3.008-4.488-4.44-6.784l3.408-2.112
		c1.384,2.248,2.832,4.456,4.328,6.624L126.024,346.216z M391.68,337.44l-3.44-2.064c1.352-2.248,2.64-4.536,3.872-6.872
		l3.528,1.872C394.384,332.776,393.064,335.128,391.68,337.44z M117.496,332.424c-1.296-2.376-2.536-4.784-3.712-7.216l3.592-1.736
		c1.16,2.376,2.368,4.72,3.632,7.032L117.496,332.424z M399.24,323.144l-3.624-1.688c1.104-2.376,2.152-4.784,3.144-7.224
		l3.704,1.504C401.456,318.24,400.376,320.704,399.24,323.144z M110.456,317.824c-1.048-2.496-2.032-5.008-2.96-7.552l3.768-1.36
		c0.896,2.488,1.864,4.936,2.88,7.368L110.456,317.824z M405.304,308.144l-3.784-1.296c0.856-2.488,1.648-4.992,2.384-7.528
		l3.84,1.112C407,303.024,406.176,305.592,405.304,308.144z M104.92,302.552c-0.784-2.576-1.504-5.176-2.16-7.816l3.888-0.952
		c0.624,2.552,1.328,5.096,2.096,7.608L104.92,302.552z M409.8,292.584l-3.888-0.904c0.592-2.552,1.128-5.136,1.592-7.736
		l3.936,0.704C410.952,287.32,410.408,289.96,409.8,292.584z M101.04,286.856c-0.52-2.648-0.968-5.32-1.344-8l3.952-0.56
		c0.376,2.608,0.808,5.208,1.312,7.784L101.04,286.856z M412.664,276.64l-3.968-0.496c0.336-2.6,0.592-5.224,0.8-7.856l3.984,0.296
		C413.272,271.288,413,273.976,412.664,276.64z M98.768,270.808c-0.232-2.672-0.416-5.368-0.512-8.08l4-0.16
		c0.104,2.648,0.264,5.28,0.496,7.872L98.768,270.808z M413.872,260.504l-4-0.096c0.032-1.272,0.048-2.544,0.048-3.832
		c0-2.648-0.072-5.272-0.2-7.888l4-0.2c0.136,2.68,0.2,5.384,0.2,8.096C413.92,257.896,413.904,259.2,413.872,260.504z
		 M102.144,254.68l-4-0.064c0.04-2.712,0.144-5.408,0.304-8.088l4,0.248C102.28,249.4,102.176,252.032,102.144,254.68z
		 M409.128,240.824c-0.264-2.624-0.6-5.232-1-7.832l3.952-0.608c0.416,2.656,0.752,5.328,1.032,8.032L409.128,240.824z
		 M103.128,238.92l-3.968-0.456c0.304-2.696,0.68-5.368,1.128-8.016l3.936,0.656C103.792,233.688,103.432,236.296,103.128,238.92z
		 M406.728,225.224c-0.528-2.584-1.136-5.152-1.8-7.688l3.872-1.016c0.68,2.616,1.296,5.24,1.84,7.888L406.728,225.224z
		 M105.728,223.36l-3.904-0.856c0.584-2.648,1.232-5.272,1.944-7.864l3.856,1.064C106.928,218.232,106.296,220.776,105.728,223.36z
		 M402.736,209.952c-0.808-2.52-1.664-5.016-2.592-7.488l3.752-1.408c0.944,2.528,1.832,5.088,2.656,7.672L402.736,209.952z
		 M109.912,208.128l-3.8-1.248c0.84-2.576,1.768-5.12,2.752-7.624l3.72,1.456C111.632,203.152,110.744,205.624,109.912,208.128z
		 M397.16,195.144c-1.056-2.416-2.168-4.808-3.352-7.16l3.576-1.8c1.208,2.416,2.36,4.864,3.448,7.36L397.16,195.144z
		 M115.632,193.456l-3.64-1.656c1.12-2.456,2.28-4.88,3.504-7.272l3.56,1.832C117.864,188.68,116.72,191.048,115.632,193.456z
		 M390.112,181c-1.296-2.296-2.648-4.552-4.064-6.784l3.376-2.144c1.448,2.272,2.84,4.592,4.168,6.952L390.112,181z M122.84,179.432
		l-3.472-2c1.36-2.344,2.776-4.64,4.248-6.896l3.344,2.184C125.536,174.92,124.16,177.152,122.84,179.432z M381.64,167.656
		c-1.52-2.152-3.112-4.256-4.736-6.328l3.144-2.472c1.672,2.12,3.288,4.272,4.856,6.488L381.64,167.656z M131.44,166.224
		l-3.232-2.36c1.592-2.176,3.232-4.328,4.928-6.424l3.112,2.512C134.592,162,132.984,164.088,131.44,166.224z M371.856,155.264
		c-1.736-1.984-3.512-3.92-5.352-5.824l2.872-2.784c1.88,1.944,3.712,3.928,5.496,5.96L371.856,155.264z M141.36,153.952
		l-2.984-2.672c1.808-2.016,3.656-3.976,5.552-5.888l2.84,2.816C144.92,150.072,143.12,151.984,141.36,153.952z M360.872,143.936
		c-1.928-1.8-3.904-3.536-5.92-5.232l2.576-3.064c2.064,1.744,4.088,3.528,6.064,5.36L360.872,143.936z M152.472,142.736
		l-2.688-2.952c2-1.824,4.04-3.584,6.128-5.304l2.544,3.096C156.416,139.248,154.424,140.96,152.472,142.736z M348.792,133.776
		c-2.096-1.584-4.232-3.128-6.408-4.6l2.248-3.312c2.232,1.52,4.424,3.096,6.576,4.728L348.792,133.776z M164.672,132.72
		l-2.376-3.216c2.176-1.6,4.392-3.152,6.648-4.64l2.2,3.328C168.952,129.648,166.792,131.168,164.672,132.72z M335.744,124.92
		c-2.24-1.368-4.52-2.672-6.84-3.92l1.888-3.512c2.384,1.28,4.728,2.616,7.032,4.016L335.744,124.92z M177.856,123.992l-2.048-3.44
		c2.32-1.376,4.688-2.696,7.088-3.952l1.856,3.544C182.424,121.376,180.12,122.648,177.856,123.992z M321.864,117.44
		c-2.368-1.128-4.768-2.184-7.192-3.184l1.512-3.704c2.504,1.032,4.968,2.128,7.4,3.28L321.864,117.44z M191.84,116.664l-1.656-3.64
		c2.456-1.128,4.936-2.184,7.456-3.192l1.488,3.72C196.672,114.528,194.248,115.576,191.84,116.664z M307.304,111.432
		c-2.48-0.864-4.984-1.68-7.512-2.44l1.144-3.832c2.592,0.776,5.168,1.6,7.704,2.496L307.304,111.432z M206.536,110.816
		l-1.296-3.784c2.56-0.872,5.144-1.672,7.744-2.408l1.096,3.84C211.536,109.192,209.024,109.968,206.536,110.816z M292.16,106.952
		c-2.552-0.616-5.128-1.168-7.728-1.648l0.736-3.936c2.664,0.496,5.312,1.064,7.928,1.696L292.16,106.952z M221.728,106.528
		l-0.888-3.904c2.624-0.592,5.272-1.12,7.944-1.584l0.688,3.936C226.856,105.424,224.272,105.944,221.728,106.528z M276.648,104.056
		c-2.6-0.352-5.208-0.632-7.848-0.848l0.328-3.984c2.704,0.216,5.392,0.512,8.056,0.864L276.648,104.056z M237.288,103.824
		l-0.488-3.968c2.664-0.328,5.36-0.584,8.064-0.776l0.28,3.984C242.504,103.248,239.888,103.512,237.288,103.824z M260.92,102.768
		c-2.632-0.088-5.28-0.104-7.888-0.048l-0.096-4c2.688-0.056,5.424-0.04,8.112,0.048L260.92,102.768z"/>
	<rect y="248" style="fill:#999999;" width="117.232" height="16"/>
	<rect x="394.8" y="248" style="fill:#999999;" width="117.232" height="16"/>
	<rect x="248" y="394.8" style="fill:#999999;" width="16" height="117.232"/>
	<rect x="248" style="fill:#999999;" width="16" height="117.232"/>
</g>
<polygon points="185.968,356.88 177.968,356.88 177.968,312.368 211.232,279.104 216.888,284.76 185.968,315.68 "/>
<polygon points="334.088,356.88 326.088,356.88 326.088,315.68 295.16,284.76 300.824,279.104 334.088,312.368 "/>
<path d="M256.024,232.472L256.024,232.472c-11.808,0-21.472-9.664-21.472-21.472v-37.56c0-11.808,9.664-21.472,21.472-21.472l0,0
	c11.808,0,21.472,9.664,21.472,21.472V211C277.496,222.808,267.832,232.472,256.024,232.472z"/>
<polygon points="216.92,212.688 185.16,195.088 168.864,160.32 176.12,156.928 191.304,189.352 220.8,205.688 "/>
<polygon points="190.152,261.56 157.56,238.56 162.168,232.024 189.48,251.288 216.152,226.688 221.568,232.568 "/>
<polygon points="295.136,212.688 291.256,205.688 320.752,189.352 335.936,156.928 343.184,160.32 326.888,195.088 "/>
<polygon points="321.904,261.56 290.488,232.568 295.904,226.688 322.576,251.288 349.872,232.024 354.488,238.56 "/>
<path style="fill:#E50000;" d="M256.024,346.496L256.024,346.496c-25.504,0-46.376-20.872-46.376-46.376V219
	c0-25.504,20.872-46.376,46.376-46.376l0,0c25.504,0,46.376,20.872,46.376,46.376v81.12
	C302.4,325.632,281.536,346.496,256.024,346.496z"/>
<path style="fill:#FF0000;" d="M209.648,245.76v-26.752c0-25.504,20.872-46.376,46.376-46.376l0,0
	c25.504,0,46.376,20.872,46.376,46.376v26.752H209.648z"/>
<rect x="259.62" y="152.361" transform="matrix(-0.7071 0.7071 -0.7071 -0.7071 580.0932 72.4395)" width="30.848" height="8"/>
<rect x="233.035" y="140.941" transform="matrix(-0.7071 0.7071 -0.7071 -0.7071 515.2103 99.3226)" width="8" height="30.848"/>
<g>
</g>
<g>
</g>
<g>
</g>
<g>
</g>
<g>
</g>
<g>
</g>
<g>
</g>
<g>
</g>
<g>
</g>
<g>
</g>
<g>
</g>
<g>
</g>
<g>
</g>
<g>
</g>
<g>
</g>
</svg>
