<?xml version="1.0" standalone="no"?><!DOCTYPE svg PUBLIC "-//W3C//DTD SVG 1.1//EN" "http://www.w3.org/Graphics/SVG/1.1/DTD/svg11.dtd"><svg t="1517471188659" class="icon" style="" viewBox="0 0 1024 1024" version="1.1" xmlns="http://www.w3.org/2000/svg" p-id="3106" xmlns:xlink="http://www.w3.org/1999/xlink" width="200" height="200"><defs><style type="text/css"></style></defs><path d="M366.016161 793.417391 366.016161 334.810439c0-11.524474-9.346879-20.846794-20.847817-20.846794-11.502985 0-20.846794 9.322319-20.846794 20.846794l0 458.606952c0 11.502985 9.342786 20.847817 20.846794 20.847817C356.668259 814.265208 366.016161 804.920376 366.016161 793.417391L366.016161 793.417391zM532.791535 793.417391 532.791535 334.810439c0-11.524474-9.346879-20.846794-20.850887-20.846794-11.498892 0-20.843724 9.322319-20.843724 20.846794l0 458.606952c0 11.502985 9.344832 20.847817 20.843724 20.847817C523.44261 814.265208 532.791535 804.920376 532.791535 793.417391L532.791535 793.417391zM866.334097 293.116851c-11.498892 0-20.841677 9.324366-20.841677 20.846794l0 562.835805c0 23.003923-18.671245 41.692564-41.695634 41.692564L220.089627 918.492014c-23.026436 0-41.694611-18.688641-41.694611-41.692564L178.395016 313.965691c0-11.523451-9.344832-20.845771-20.846794-20.845771-9.694803 0-17.835204 6.635117-20.160155 15.618723-0.228197-0.125867-0.462534-0.239454-0.687662-0.369414L136.700405 876.80252c0 46.047756 37.31793 83.383082 83.387175 83.383082l583.707159 0c46.050826 0 83.387175-37.335327 83.387175-83.383082L887.181915 313.965691C887.183961 302.441217 877.838106 293.116851 866.334097 293.116851L866.334097 293.116851zM928.996253 147.196457 688.912245 147.196457l-76.911694-76.908624c-4.451382-4.452405-10.330276-6.588045-16.165168-6.449899-0.170892-0.00307-0.335644-0.024559-0.506537-0.024559L428.556543 63.813375c-0.150426 0-0.297782 0.019443-0.447185 0.023536-5.816472-0.12382-11.669784 2.015913-16.104793 6.450922l-76.911694 76.908624L95.007841 147.196457c-11.501962 0-20.846794 9.325389-20.846794 20.846794 0 11.502985 9.344832 20.847817 20.846794 20.847817l250.160503 0c0.26299 0 0.51984-0.030699 0.779759-0.039909 5.933129 0.222057 11.936867-1.907443 16.463973-6.433526l76.911694-76.909647L584.680323 105.507986l76.911694 76.909647c4.52506 4.527107 10.530844 6.655584 16.461927 6.433526 0.260943 0.00921 0.51677 0.039909 0.779759 0.039909L928.992159 188.891068c11.501962 0 20.846794-9.344832 20.846794-20.847817C949.842023 156.521846 940.498214 147.196457 928.996253 147.196457L928.996253 147.196457zM699.561793 793.417391 699.561793 334.810439c0-11.524474-9.341762-20.846794-20.844747-20.846794-11.501962 0-20.847817 9.322319-20.847817 20.846794l0 458.606952c0 11.502985 9.345856 20.847817 20.847817 20.847817C690.220031 814.265208 699.561793 804.920376 699.561793 793.417391L699.561793 793.417391z" p-id="3107"></path></svg>