<svg xmlns="http://www.w3.org/2000/svg" viewBox="0 0 58 58"><path d="M56.414 7.5l-3.707 3.707a.997.997 0 0 1-1.414 0 .999.999 0 0 1 0-1.414L53.586 7.5h-4.172l-3.707 3.707a.997.997 0 0 1-1.414 0 .999.999 0 0 1 0-1.414L46.586 7.5h-4.172l-3.707 3.707a.997.997 0 0 1-1.414 0 .999.999 0 0 1 0-1.414L39.586 7.5h-4.172l-3.707 3.707a.997.997 0 0 1-1.414 0 .999.999 0 0 1 0-1.414L32.586 7.5h-4.172l-3.707 3.707a.997.997 0 0 1-1.414 0 .999.999 0 0 1 0-1.414L25.586 7.5h-4.172l-3.707 3.707a.997.997 0 0 1-1.414 0 .999.999 0 0 1 0-1.414L18.586 7.5h-4.172l-3.707 3.707a.997.997 0 0 1-1.414 0 .999.999 0 0 1 0-1.414L11.586 7.5H7.414l-3.707 3.707a.997.997 0 0 1-1.414 0 .999.999 0 0 1 0-1.414L4.586 7.5H0v43h1.586l3.707-3.707a.999.999 0 1 1 1.414 1.414L4.414 50.5h4.172l3.707-3.707a.999.999 0 1 1 1.414 1.414L11.414 50.5h4.172l3.707-3.707a.999.999 0 1 1 1.414 1.414L18.414 50.5h4.172l3.707-3.707a.999.999 0 1 1 1.414 1.414L25.414 50.5h4.172l3.707-3.707a.999.999 0 1 1 1.414 1.414L32.414 50.5h4.172l3.707-3.707a.999.999 0 1 1 1.414 1.414L39.414 50.5h4.172l3.707-3.707a.999.999 0 1 1 1.414 1.414L46.414 50.5h4.172l3.707-3.707a.999.999 0 1 1 1.414 1.414L53.414 50.5H58v-43h-1.586z" fill="#e5e5da"/><path d="M6.707 46.793a.999.999 0 0 0-1.414 0L1.586 50.5h2.828l2.293-2.293a.999.999 0 0 0 0-1.414z" fill="#7fb1c8"/><path d="M13.707 46.793a.999.999 0 0 0-1.414 0L8.586 50.5h2.828l2.293-2.293a.999.999 0 0 0 0-1.414z" fill="#e59677"/><path d="M20.707 46.793a.999.999 0 0 0-1.414 0L15.586 50.5h2.828l2.293-2.293a.999.999 0 0 0 0-1.414z" fill="#7fb1c8"/><path d="M27.707 46.793a.999.999 0 0 0-1.414 0L22.586 50.5h2.828l2.293-2.293a.999.999 0 0 0 0-1.414z" fill="#e59677"/><path d="M34.707 46.793a.999.999 0 0 0-1.414 0L29.586 50.5h2.828l2.293-2.293a.999.999 0 0 0 0-1.414z" fill="#7fb1c8"/><path d="M41.707 46.793a.999.999 0 0 0-1.414 0L36.586 50.5h2.828l2.293-2.293a.999.999 0 0 0 0-1.414z" fill="#e59677"/><path d="M48.707 46.793a.999.999 0 0 0-1.414 0L43.586 50.5h2.828l2.293-2.293a.999.999 0 0 0 0-1.414z" fill="#7fb1c8"/><path d="M55.707 46.793a.999.999 0 0 0-1.414 0L50.586 50.5h2.828l2.293-2.293a.999.999 0 0 0 0-1.414z" fill="#e59677"/><path d="M2.293 11.207a.997.997 0 0 0 1.414 0L7.414 7.5H4.586L2.293 9.793a.999.999 0 0 0 0 1.414z" fill="#7fb1c8"/><path d="M9.293 11.207a.997.997 0 0 0 1.414 0L14.414 7.5h-2.828L9.293 9.793a.999.999 0 0 0 0 1.414z" fill="#e59677"/><path d="M16.293 11.207a.997.997 0 0 0 1.414 0L21.414 7.5h-2.828l-2.293 2.293a.999.999 0 0 0 0 1.414z" fill="#7fb1c8"/><path d="M23.293 11.207a.997.997 0 0 0 1.414 0L28.414 7.5h-2.828l-2.293 2.293a.999.999 0 0 0 0 1.414z" fill="#e59677"/><path d="M30.293 11.207a.997.997 0 0 0 1.414 0L35.414 7.5h-2.828l-2.293 2.293a.999.999 0 0 0 0 1.414z" fill="#7fb1c8"/><path d="M37.293 11.207a.997.997 0 0 0 1.414 0L42.414 7.5h-2.828l-2.293 2.293a.999.999 0 0 0 0 1.414z" fill="#e59677"/><path d="M44.293 11.207a.997.997 0 0 0 1.414 0L49.414 7.5h-2.828l-2.293 2.293a.999.999 0 0 0 0 1.414z" fill="#7fb1c8"/><path d="M51.293 11.207a.997.997 0 0 0 1.414 0L56.414 7.5h-2.828l-2.293 2.293a.999.999 0 0 0 0 1.414z" fill="#e59677"/><path fill="#d75a4a" d="M43 19.5h8v8h-8z"/><path d="M27 25.5H7a1 1 0 1 1 0-2h20a1 1 0 1 1 0 2zm0 5H7a1 1 0 1 1 0-2h20a1 1 0 1 1 0 2zm-12-10H7a1 1 0 1 1 0-2h8a1 1 0 1 1 0 2z" fill="#c4c2a5"/></svg>