<svg xmlns="http://www.w3.org/2000/svg" viewBox="0 0 512 512"><path d="M481 459.5V497c0 8.399-6.599 15-15 15H46c-8.401 0-15-6.601-15-15v-30c0-41.4 33.6-75 75-75h60.3l89.399 78.6.3-.3 87.9-78.3h69.6C450.7 392 481 422.3 481 459.5z" fill="#e55639"/><path d="M481 459.5V497c0 8.399-6.599 15-15 15H256v-41.7l87.9-78.3h69.6c37.2 0 67.5 30.3 67.5 67.5z" fill="#cf4529"/><path d="M255.985 512h.03l-.015-.004z"/><path d="M343.9 392l-75.3 113.399C266.201 508.7 261.099 512 256 512c-4.799 0-9.901-3.3-12.299-6.301L166.3 392h177.6z" fill="#c35844"/><path fill="#e6eeff" d="M121 392h30v120h-30z"/><path fill="#dae2f2" d="M361 392h30v120h-30z"/><path d="M343.9 392l-75.3 113.399C266.201 508.7 261.099 512 256 512V392h87.9z" fill="#b04936"/><path d="M346 302H166c-8.291 0-15 6.709-15 15 0 57.891 47.109 105 105 105s105-47.109 105-105c0-8.291-6.709-15-15-15z" fill="#ffeacc"/><path d="M346 302h-90v120c57.891 0 105-47.109 105-105 0-8.291-6.709-15-15-15z" fill="#ffdbb2"/><path d="M346 332H166c-24.814 0-45-20.186-45-45V135C121 60.557 181.557 0 256 0s135 60.557 135 135v152c0 24.814-20.186 45-45 45z" fill="#5c5f66"/><path d="M346 332c24.814 0 45-20.186 45-45V135C391 60.557 330.443 0 256 0v332h90z" fill="#53565c"/></svg>