<?xml version="1.0" encoding="iso-8859-1"?>
<!-- Generator: Adobe Illustrator 19.0.0, SVG Export Plug-In . SVG Version: 6.00 Build 0)  -->
<svg version="1.1" id="Layer_1" xmlns="http://www.w3.org/2000/svg" xmlns:xlink="http://www.w3.org/1999/xlink" x="0px" y="0px"
	 viewBox="0 0 512.001 512.001" style="enable-background:new 0 0 512.001 512.001;" xml:space="preserve">
<g>
	<g>
		<path d="M384.834,180.699c-0.698,0-348.733,0-348.733,0l73.326-82.187c4.755-5.33,4.289-13.505-1.041-18.26
			c-5.328-4.754-13.505-4.29-18.26,1.041l-82.582,92.56c-10.059,11.278-10.058,28.282,0.001,39.557l82.582,92.561
			c2.556,2.865,6.097,4.323,9.654,4.323c3.064,0,6.139-1.083,8.606-3.282c5.33-4.755,5.795-12.93,1.041-18.26l-73.326-82.188
			c0,0,348.034,0,348.733,0c55.858,0,101.3,45.444,101.3,101.3s-45.443,101.3-101.3,101.3h-61.58
			c-7.143,0-12.933,5.791-12.933,12.933c0,7.142,5.79,12.933,12.933,12.933h61.58c70.12,0,127.166-57.046,127.166-127.166
			C512,237.745,454.954,180.699,384.834,180.699z"/>
	</g>
</g>
<g>
</g>
<g>
</g>
<g>
</g>
<g>
</g>
<g>
</g>
<g>
</g>
<g>
</g>
<g>
</g>
<g>
</g>
<g>
</g>
<g>
</g>
<g>
</g>
<g>
</g>
<g>
</g>
<g>
</g>
</svg>
