<?xml version="1.0" standalone="no"?><!DOCTYPE svg PUBLIC "-//W3C//DTD SVG 1.1//EN" "http://www.w3.org/Graphics/SVG/1.1/DTD/svg11.dtd"><svg t="1516498079881" class="icon" style="" viewBox="0 0 1024 1024" version="1.1" xmlns="http://www.w3.org/2000/svg" p-id="9302" xmlns:xlink="http://www.w3.org/1999/xlink" width="200" height="200"><defs><style type="text/css"></style></defs><path d="M887.06816 134.64576c-4.48384-4.25472-10.5728-6.64576-16.92416-6.64576L151.90912 128C138.70592 128 128 138.12864 128 150.62528l0 62.33472c0 5.33888 1.9968 10.50624 5.63072 14.58688l273.34912 306.72-1.26976 339.38688c-0.02944 8.09344 4.51072 15.58656 11.90656 19.64928 3.71072 2.03776 7.85536 3.05664 12.00128 3.05664 4.11904 0 8.24064-1.00736 11.93216-3.01952l162.37824-88.512c7.44576-4.0576 12.01664-11.58272 11.9744-19.71328l-1.25568-250.85184 273.60256-306.7072c3.63008-4.06912 5.62688-9.216 5.63968-14.5408l0.16128-62.33472C894.06848 144.66944 891.55712 138.90048 887.06816 134.64576zM846.09792 204.66176 572.43136 511.43808c-3.66464 4.11008-5.66656 9.32352-5.64096 14.70208l1.2352 246.03776-114.35136 62.33216 1.152-308.3968c0.02048-5.36576-1.97504-10.56384-5.63072-14.66624L175.81568 204.69248l0-31.4432 670.36288 0L846.09792 204.66176z" p-id="9303"></path></svg>