<?xml version="1.0" encoding="iso-8859-1"?>
<!-- Generator: Adobe Illustrator 19.0.0, SVG Export Plug-In . SVG Version: 6.00 Build 0)  -->
<svg version="1.1" id="Layer_1" xmlns="http://www.w3.org/2000/svg" xmlns:xlink="http://www.w3.org/1999/xlink" x="0px" y="0px"
	 viewBox="0 0 512.131 512.131" style="enable-background:new 0 0 512.131 512.131;" xml:space="preserve">
<path style="fill:#F3F3F3;" d="M271.949,0.131c-119.467,4.267-211.2,105.6-211.2,225.067L13.815,351.065
	c-3.2,9.6,3.2,19.2,12.8,19.2h34.133v39.467c0,16,12.8,28.8,28.8,28.8h26.667v73.6h244.267c13.867-53.333,41.6-102.4,80-144
	c36.267-39.467,58.667-91.733,58.667-149.333l0,0C499.149,96.131,396.749-4.135,271.949,0.131z"/>
<circle style="fill:#F3705A;" cx="279.415" cy="215.598" r="154.667"/>
<g>
	<path style="fill:#FFFFFF;" d="M268.749,159.065c3.2-4.267,7.467-6.4,11.733-6.4s8.533,2.133,11.733,5.333
		c3.2,3.2,4.267,7.467,4.267,12.8c0,5.333-1.067,9.6-4.267,12.8l-19.2,19.2c-6.4,6.4-9.6,11.733-11.733,14.933
		c-2.133,3.2-3.2,9.6-3.2,17.067v16h40.533v-11.733c0-5.333,1.067-8.533,2.133-10.667c1.067-2.133,4.267-5.333,7.467-9.6
		c4.267-4.267,7.467-7.467,11.733-11.733c1.067-1.067,2.133-3.2,5.333-6.4c2.133-3.2,4.267-5.333,5.333-6.4
		c1.067-1.067,2.133-4.267,4.267-7.467c2.133-3.2,3.2-8.533,3.2-16c0-16-5.333-28.8-16-38.4
		c-10.667-9.6-24.533-13.867-40.533-13.867s-30.933,5.333-41.6,14.933s-18.133,24.533-19.2,42.667h42.667
		C263.415,168.665,265.549,163.331,268.749,159.065z"/>
	<circle style="fill:#FFFFFF;" cx="279.415" cy="289.198" r="23.467"/>
</g>
<g>
</g>
<g>
</g>
<g>
</g>
<g>
</g>
<g>
</g>
<g>
</g>
<g>
</g>
<g>
</g>
<g>
</g>
<g>
</g>
<g>
</g>
<g>
</g>
<g>
</g>
<g>
</g>
<g>
</g>
</svg>
