<svg xmlns="http://www.w3.org/2000/svg" viewBox="0 0 512.131 512.131"><path d="M271.949.131c-119.467 4.267-211.2 105.6-211.2 225.067L13.815 351.065c-3.2 9.6 3.2 19.2 12.8 19.2h34.133v39.467c0 16 12.8 28.8 28.8 28.8h26.667v73.6h244.267c13.867-53.333 41.6-102.4 80-144 36.267-39.467 58.667-91.733 58.667-149.333 0-122.668-102.4-222.934-227.2-218.668z" fill="#f3f3f3"/><circle cx="279.415" cy="215.598" r="154.667" fill="#f3705a"/><g fill="#fff"><path d="M268.749 159.065c3.2-4.267 7.467-6.4 11.733-6.4s8.533 2.133 11.733 5.333c3.2 3.2 4.267 7.467 4.267 12.8 0 5.333-1.067 9.6-4.267 12.8l-19.2 19.2c-6.4 6.4-9.6 11.733-11.733 14.933-2.133 3.2-3.2 9.6-3.2 17.067v16h40.533v-11.733c0-5.333 1.067-8.533 2.133-10.667 1.067-2.133 4.267-5.333 7.467-9.6l11.733-11.733c1.067-1.067 2.133-3.2 5.333-6.4 2.133-3.2 4.267-5.333 5.333-6.4 1.067-1.067 2.133-4.267 4.267-7.467 2.133-3.2 3.2-8.533 3.2-16 0-16-5.333-28.8-16-38.4-10.667-9.6-24.533-13.867-40.533-13.867s-30.933 5.333-41.6 14.933-18.133 24.533-19.2 42.667h42.667c0-7.466 2.134-12.8 5.334-17.066z"/><circle cx="279.415" cy="289.198" r="23.467"/></g></svg>