<?xml version="1.0" encoding="iso-8859-1"?>
<!-- Generator: Adobe Illustrator 19.0.0, SVG Export Plug-In . SVG Version: 6.00 Build 0)  -->
<svg version="1.1" id="Layer_1" xmlns="http://www.w3.org/2000/svg" xmlns:xlink="http://www.w3.org/1999/xlink" x="0px" y="0px"
	 viewBox="0 0 512.001 512.001" style="enable-background:new 0 0 512.001 512.001;" xml:space="preserve">
<path style="fill:#507C5C;" d="M203.702,415.018c-5.535,0-11.025-1.772-15.668-5.244L10.507,276.981C3.83,271.985,0,264.339,0,256
	s3.83-15.985,10.507-20.981l177.527-132.793c7.991-5.978,18.5-6.915,27.425-2.448c8.924,4.47,14.469,13.446,14.469,23.427v34.365
	c0,7.392-5.992,13.383-13.383,13.383s-13.383-5.992-13.383-13.383v-33.233L27.145,256l176.016,131.663V221.838
	c0-7.392,5.992-13.383,13.383-13.383s13.383,5.992,13.383,13.383v166.956c0,9.981-5.545,18.957-14.469,23.426
	C211.719,414.095,207.699,415.018,203.702,415.018z"/>
<path style="fill:#CFF09E;" d="M295.455,123.206c0-10.554,12.044-16.586,20.495-10.264l177.527,132.794
	c6.854,5.126,6.854,15.401,0,20.527L315.95,399.058c-8.452,6.322-20.495,0.29-20.495-10.264V123.206z"/>
<path style="fill:#507C5C;" d="M308.323,415.017c-14.475,0-26.251-11.764-26.251-26.224V123.206
	c0-14.459,11.777-26.223,26.253-26.223c5.648,0,11.056,1.812,15.642,5.242l177.527,132.794c6.677,4.995,10.507,12.642,10.507,20.981
	s-3.83,15.985-10.507,20.981L323.967,409.775C319.38,413.204,313.971,415.017,308.323,415.017z M308.838,124.337v263.326
	l176.018-131.662L308.838,124.337z"/>
<g>
</g>
<g>
</g>
<g>
</g>
<g>
</g>
<g>
</g>
<g>
</g>
<g>
</g>
<g>
</g>
<g>
</g>
<g>
</g>
<g>
</g>
<g>
</g>
<g>
</g>
<g>
</g>
<g>
</g>
</svg>
