<svg xmlns="http://www.w3.org/2000/svg" viewBox="0 0 512.001 512.001"><path d="M203.702 415.018c-5.535 0-11.025-1.772-15.668-5.244L10.507 276.981C3.83 271.985 0 264.339 0 256s3.83-15.985 10.507-20.981l177.527-132.793c7.991-5.978 18.5-6.915 27.425-2.448 8.924 4.47 14.469 13.446 14.469 23.427v34.365c0 7.392-5.992 13.383-13.383 13.383s-13.383-5.992-13.383-13.383v-33.233L27.145 256l176.016 131.663V221.838c0-7.392 5.992-13.383 13.383-13.383s13.383 5.992 13.383 13.383v166.956c0 9.981-5.545 18.957-14.469 23.426a26.19 26.19 0 0 1-11.756 2.798z" fill="#507c5c"/><path d="M295.455 123.206c0-10.554 12.044-16.586 20.495-10.264l177.527 132.794c6.854 5.126 6.854 15.401 0 20.527L315.95 399.058c-8.452 6.322-20.495.29-20.495-10.264V123.206z" fill="#cff09e"/><path d="M308.323 415.017c-14.475 0-26.251-11.764-26.251-26.224V123.206c0-14.459 11.777-26.223 26.253-26.223 5.648 0 11.056 1.812 15.642 5.242l177.527 132.794c6.677 4.995 10.507 12.642 10.507 20.981s-3.83 15.985-10.507 20.981L323.967 409.775c-4.587 3.429-9.996 5.242-15.644 5.242zm.515-290.68v263.326l176.018-131.662-176.018-131.664z" fill="#507c5c"/></svg>