<?xml version="1.0" standalone="no"?><!DOCTYPE svg PUBLIC "-//W3C//DTD SVG 1.1//EN" "http://www.w3.org/Graphics/SVG/1.1/DTD/svg11.dtd"><svg t="1513322601931" class="icon" style="" viewBox="0 0 1024 1024" version="1.1" xmlns="http://www.w3.org/2000/svg" p-id="2262" xmlns:xlink="http://www.w3.org/1999/xlink" width="200" height="200"><defs><style type="text/css"></style></defs><path d="M904.16128 470.64576c-45.58336 0-84.84352 25.8816-105.05216 63.45728l-89.68704-6.58432c0.39936-5.13536 0.79872-10.2912 0.79872-15.5392 0-69.87264-36.43392-131.2768-91.22816-166.59968l47.86176-107.59168c5.8112 0.88576 11.63264 1.79712 17.69984 1.79712 66.05312 0 119.79264-53.73952 119.79264-119.79264S750.61248 0.00512 684.55936 0.00512c-66.05312 0-119.79264 53.73952-119.79264 119.79264 0 41.73824 21.52448 78.45376 53.9648 99.8912l-46.09536 103.6544A197.43232 197.43232 0 0 0 512 313.76896c-43.9296 0-84.40832 14.5408-117.30944 38.80448L222.62272 180.29056c10.55232-17.81248 16.99328-38.34368 16.99328-60.4928C239.616 53.74464 185.87648 0.00512 119.82336 0.00512S0.03584 53.74464 0.03584 119.79776s53.73952 119.79264 119.79264 119.79264c25.28768 0 48.6912-7.98208 68.07552-21.40672l169.6768 169.8816c-27.31008 33.98144-43.79136 77.056-43.79136 123.9552 0 37.14048 10.46016 71.7824 28.28288 101.54496L199.7312 721.52576c-21.23776-19.18464-49.12128-31.21664-79.93344-31.21664C53.73952 690.30912 0 744.04352 0 810.09664c0 66.05312 53.73952 119.79264 119.79264 119.79264s119.79264-53.73952 119.79264-119.79264c0-16.70656-3.4816-32.5888-9.66656-47.04256l143.90784-109.184c35.72224 34.80576 84.43904 56.36096 138.14784 56.36096 26.3424 0 51.456-5.2736 74.46016-14.65344l57.472 113.52064c-28.8512 21.89312-47.77984 56.18688-47.77984 95.104 0 66.05312 53.73952 119.79264 119.79264 119.79264s119.79264-53.73952 119.79264-119.79264-53.73952-119.79264-119.79264-119.79264c-8.7808 0-17.27488 1.08032-25.51296 2.87744l-59.32544-117.1968a198.78912 198.78912 0 0 0 67.53792-91.88352l86.40512 6.35904c-0.08704 1.9968-0.59904 3.87584-0.59904 5.89824 0 66.05312 53.73952 119.79264 119.79264 119.79264 66.05312 0 119.79264-53.73952 119.79264-119.79264-0.05632-66.07872-53.79584-119.81824-119.84896-119.81824zM119.79776 188.27264c-37.74464 0-68.47488-30.73536-68.47488-68.47488s30.73536-68.47488 68.47488-68.47488 68.47488 30.73536 68.47488 68.47488-30.73536 68.47488-68.47488 68.47488z m0 690.23744c-37.74464 0-68.47488-30.73536-68.47488-68.47488s30.73536-68.47488 68.47488-68.47488 68.47488 30.73536 68.47488 68.47488-30.73536 68.47488-68.47488 68.47488z m596.096-42.81856c37.74976 0 68.47488 30.73024 68.47488 68.47488 0 37.74464-30.73536 68.47488-68.47488 68.47488s-68.47488-30.73536-68.47488-68.47488 30.73536-68.47488 68.47488-68.47488zM616.05888 119.80288c0-37.74464 30.73536-68.47488 68.47488-68.47488s68.47488 30.73536 68.47488 68.47488-30.73536 68.47488-68.47488 68.47488-68.47488-30.73024-68.47488-68.47488zM511.97952 658.88256c-80.99328 0-146.90304-65.90976-146.90304-146.90304s65.90976-146.90304 146.90304-146.90304 146.90304 65.90976 146.90304 146.90304-65.90976 146.90304-146.90304 146.90304z m392.18176 0c-37.74464 0-68.47488-30.73536-68.47488-68.47488s30.73536-68.44928 68.47488-68.44928 68.47488 30.70464 68.47488 68.44928-30.73024 68.47488-68.47488 68.47488z" p-id="2263" fill="#d81e06"></path></svg>