<svg xmlns="http://www.w3.org/2000/svg" viewBox="0 0 55 55"><path d="M55 27.5C55 12.337 42.663 0 27.5 0S0 12.337 0 27.5c0 8.009 3.444 15.228 8.926 20.258l-.026.023.892.752c.058.049.121.089.179.137.474.393.965.766 1.465 1.127.162.117.324.234.489.348.534.368 1.082.717 1.642 1.048.122.072.245.142.368.212a27.44 27.44 0 0 0 1.88.98l.142.064a27.252 27.252 0 0 0 6.651 2.105l.184.033c.724.125 1.456.225 2.197.292.09.008.18.013.271.021.738.061 1.484.1 2.24.1.749 0 1.488-.039 2.222-.098l.279-.021a27.808 27.808 0 0 0 2.178-.287l.187-.034a27.251 27.251 0 0 0 6.557-2.055c.076-.035.153-.068.229-.104a27.639 27.639 0 0 0 2.25-1.189 27.514 27.514 0 0 0 1.581-1c.185-.126.366-.259.549-.391.439-.316.87-.642 1.289-.983.093-.075.193-.14.284-.217l.915-.764-.027-.023C51.523 42.802 55 35.55 55 27.5zm-53 0C2 13.439 13.439 2 27.5 2S53 13.439 53 27.5c0 7.577-3.325 14.389-8.589 19.063a7.494 7.494 0 0 0-.893-.537l-8.467-4.233a2.217 2.217 0 0 1-1.232-1.993v-2.957c.196-.242.403-.516.617-.817a20.378 20.378 0 0 0 2.616-5.123 3.63 3.63 0 0 0 2.085-3.289v-3.545c0-.867-.318-1.708-.887-2.369v-4.667c.052-.52.236-3.448-1.883-5.864C34.524 9.065 31.541 8 27.5 8s-7.024 1.065-8.867 3.168c-2.119 2.416-1.935 5.346-1.883 5.864v4.667a3.644 3.644 0 0 0-.887 2.369v3.545c0 1.101.494 2.128 1.34 2.821.81 3.173 2.477 5.575 3.093 6.389v2.894a2.23 2.23 0 0 1-1.162 1.958l-7.907 4.313a7.227 7.227 0 0 0-.752.476C5.276 41.792 2 35.022 2 27.5z"/></svg>