<?xml version="1.0" standalone="no"?><!DOCTYPE svg PUBLIC "-//W3C//DTD SVG 1.1//EN" "http://www.w3.org/Graphics/SVG/1.1/DTD/svg11.dtd"><svg t="1506348101389" class="icon" style="" viewBox="0 0 1024 1024" version="1.1" xmlns="http://www.w3.org/2000/svg" p-id="5138" xmlns:xlink="http://www.w3.org/1999/xlink" width="200" height="200"><defs><style type="text/css"></style></defs><path d="M1006.933333 913.066667l-162.133333-162.133333c59.733333-76.8 93.866667-174.933333 93.866667-281.6 0-260.266667-209.066667-469.333333-469.333333-469.333333C209.066667 0 0 209.066667 0 469.333333c0 260.266667 209.066667 469.333333 469.333333 469.333333 123.733333 0 234.666667-46.933333 315.733333-123.733333l162.133333 162.133333c8.533333 8.533333 21.333333 8.533333 29.866667 0l29.866667-29.866667C1015.466667 934.4 1015.466667 921.6 1006.933333 913.066667zM85.333333 469.333333c0-213.333333 170.666667-384 384-384 213.333333 0 384 170.666667 384 384 0 213.333333-170.666667 384-384 384C256 853.333333 85.333333 682.666667 85.333333 469.333333z" p-id="5139"></path><path d="M221.866667 465.066667C221.866667 465.066667 221.866667 465.066667 221.866667 465.066667c-12.8 0-21.333333-8.533333-21.333333-21.333333 0-4.266667 4.266667-93.866667 59.733333-157.866667 85.333333-98.133333 179.2-81.066667 183.466667-81.066667 12.8 4.266667 17.066667 12.8 17.066667 25.6-4.266667 12.8-12.8 17.066667-25.6 17.066667-4.266667 0-72.533333-12.8-140.8 64-46.933333 51.2-51.2 132.266667-51.2 132.266667C243.2 456.533333 234.666667 465.066667 221.866667 465.066667z" p-id="5140"></path></svg>