<svg xmlns="http://www.w3.org/2000/svg" viewBox="0 0 59.99 59.99"><path d="M29.985 51c-11.579 0-21-9.421-21-21s9.421-21 21-21 21 9.421 21 21-9.42 21-21 21" fill="#556180"/><path d="M29.985 15a1 1 0 0 1-1-1v-2a1 1 0 1 1 2 0v2a1 1 0 0 1-1 1m0 34a1 1 0 0 1-1-1v-2a1 1 0 1 1 2 0v2a1 1 0 0 1-1 1m18-18h-2a1 1 0 1 1 0-2h2a1 1 0 1 1 0 2m-34 0h-2a1 1 0 1 1 0-2h2a1 1 0 1 1 0 2m16 2c-2.206 0-4-1.794-4-4s1.794-4 4-4 4 1.794 4 4-1.793 4-4 4m0-6c-1.103 0-2 .897-2 2s.897 2 2 2 2-.897 2-2-.897-2-2-2" fill="#fff"/><path d="M29.985 27a1 1 0 0 1-1-1v-6a1 1 0 1 1 2 0v6a1 1 0 0 1-1 1m-11 14a.999.999 0 0 1-.707-1.707l8.879-8.879a.999.999 0 1 1 1.414 1.414l-8.879 8.879a.996.996 0 0 1-.707.293" fill="#fff"/><path d="M58.985 31a1 1 0 0 1-1-1c0-15.439-12.561-28-28-28-7.217 0-14.075 2.75-19.31 7.742a1.001 1.001 0 0 1-1.38-1.447C14.904 2.946 22.253 0 29.985 0c16.542 0 30 13.458 30 30a1 1 0 0 1-1 1" fill="#74be86"/><path d="M17.985 10h-9V1a1 1 0 1 1 2 0v7h7a1 1 0 1 1 0 2m11.561 49.01c-.01-.55.43-1.01.98-1.02.55-.011 1.01.43 1.02.98a.998.998 0 0 1-.98 1.02h-.02a.997.997 0 0 1-1-.98m-2.081.88v.009a1 1 0 0 1-.91-1.089c.04-.55.53-.96 1.08-.911a1.002 1.002 0 1 1-.09 2c-.02 0-.05 0-.08-.009m5.081-.991a.997.997 0 0 1 .87-1.109.986.986 0 0 1 1.11.87c.07.55-.32 1.05-.87 1.12v-.01c-.04.01-.08.01-.12.01a.994.994 0 0 1-.99-.881m-8.15.58c-.55-.109-.9-.629-.8-1.169a1 1 0 0 1 1.17-.8c.54.099.9.63.8 1.17-.1.48-.52.81-.99.81-.061 0-.12 0-.18-.011m11.119-.989a.992.992 0 0 1 .75-1.2c.54-.12 1.07.21 1.2.75.12.54-.22 1.08-.75 1.2-.08.02-.15.02-.23.02-.45 0-.87-.31-.97-.77m-14.139.25c-.53-.16-.82-.72-.67-1.25.16-.52.72-.82 1.25-.66.53.149.83.71.67 1.239a1.005 1.005 0 0 1-1.25.671m17.049-.97c-.18-.53.1-1.1.62-1.27a.993.993 0 0 1 1.27.62c.18.52-.1 1.09-.62 1.27-.11.03-.22.049-.33.049a.998.998 0 0 1-.94-.669m-19.969-.07a.995.995 0 0 1-.53-1.31c.21-.51.79-.75 1.3-.54.51.21.75.799.54 1.31-.16.38-.53.61-.92.61-.131 0-.26-.02-.39-.07m22.789-.96a.986.986 0 0 1 .49-1.32.982.982 0 0 1 1.32.479.993.993 0 0 1-.9 1.42.995.995 0 0 1-.91-.579m-25.579-.39a.996.996 0 1 1 .95-1.75c.49.259.67.87.4 1.35a.987.987 0 0 1-.88.529c-.16 0-.32-.04-.47-.129m28.279-.92a.997.997 0 0 1 .34-1.37c.48-.28 1.09-.121 1.37.35a.995.995 0 0 1-.85 1.51.982.982 0 0 1-.86-.49m-30.93-.701a.997.997 0 0 1-.25-1.389.997.997 0 1 1 .82 1.559c-.2 0-.39-.049-.57-.17m33.48-.879c-.33-.44-.24-1.07.2-1.4a.996.996 0 0 1 1.4.21.996.996 0 0 1-.8 1.59.96.96 0 0 1-.8-.4m-35.94-1.01a1 1 0 1 1 .65.24c-.229 0-.46-.08-.65-.24m38.31-.82a1 1 0 0 1 .06-1.42v.009a.988.988 0 0 1 1.41.061.997.997 0 0 1-.73 1.67 1.03 1.03 0 0 1-.74-.32m-40.56-1.31a.996.996 0 1 1 1.44-1.38.987.987 0 0 1-.03 1.41c-.19.19-.44.28-.69.28a.97.97 0 0 1-.72-.31m42.73-.76c-.41-.37-.45-1-.08-1.41.36-.42.99-.45 1.41-.09.41.369.45 1 .08 1.409a.975.975 0 0 1-.75.341.993.993 0 0 1-.66-.25m-44.76-1.591a.992.992 0 0 1 .18-1.399.992.992 0 0 1 1.4.18 1 1 0 0 1-.17 1.4c-.19.14-.4.21-.62.21a.998.998 0 0 1-.79-.391m46.71-.689c-.45-.32-.55-.95-.23-1.4.32-.44.95-.55 1.4-.23a1.006 1.006 0 0 1-.59 1.819.982.982 0 0 1-.58-.189m-48.48-1.851a1.005 1.005 0 0 1 .32-1.38 1.003 1.003 0 0 1 1.06 1.701c-.17.1-.35.15-.53.15-.33 0-.66-.17-.85-.471m50.19-.619a.988.988 0 0 1-.37-1.36h-.01c.28-.481.89-.651 1.37-.38a1.002 1.002 0 0 1-.99 1.74m-51.69-2.091a1.003 1.003 0 0 1 1.8-.88 1.004 1.004 0 0 1-.9 1.441c-.37 0-.73-.21-.9-.561m53.13-.54a.988.988 0 0 1-.51-1.319c.22-.5.81-.73 1.32-.51.5.22.73.81.51 1.32-.17.37-.53.6-.92.6-.13 0-.27-.03-.4-.091M1.796 40.25a.994.994 0 1 1 1.87-.681.993.993 0 0 1-.94 1.341.984.984 0 0 1-.93-.66m55.5-.44c-.52-.17-.81-.741-.64-1.26a.989.989 0 0 1 1.25-.651 1 1 0 0 1 .65 1.261c-.14.42-.53.69-.95.69-.101 0-.21-.01-.31-.04M.885 37.29a.989.989 0 0 1 .72-1.21c.54-.141 1.08.19 1.22.72.13.54-.2 1.08-.73 1.22a1.003 1.003 0 0 1-1.21-.73m57.281-.36a.988.988 0 0 1-.77-1.18.988.988 0 0 1 1.18-.771.99.99 0 0 1 .77 1.181c-.09.47-.51.79-.97.79-.071 0-.141 0-.21-.02M.285 34.24c-.08-.54.3-1.051.85-1.131.54-.079 1.05.301 1.13.851.08.55-.3 1.05-.85 1.13-.05.01-.09.01-.14.01-.49 0-.919-.36-.99-.86m58.441-.25a1 1 0 1 1 .21-1.99c.55.05.95.55.89 1.09-.05.519-.49.9-.99.9h-.11zM.005 31.16a.998.998 0 0 1 .96-1.04c.55-.02 1.02.41 1.04.96.02.55-.41 1.02-.96 1.04h-.04a1.01 1.01 0 0 1-1-.96M57.985 30c0-.55.45-1 1-1s1 .45 1 1-.45 1-1 1c-.549 0-1-.45-1-1" fill="#74be86"/></svg>