<svg xmlns="http://www.w3.org/2000/svg" viewBox="0 0 58 58"><path d="M55 .5H3c-1.65 0-3 1.35-3 3s1.35 3 3 3v-3h52v3c1.65 0 3-1.35 3-3s-1.35-3-3-3z" fill="#3d465b"/><path fill="#f0ede0" d="M5 51.5l6 6 6-6 6 6 6-6 6 6 6-6 6 6 6-6 2 2v-50H3v50z"/><path d="M43 41.5H28a1 1 0 1 1 0-2h15a1 1 0 1 1 0 2zM48 41.5c-.26 0-.52-.11-.71-.29-.18-.19-.29-.45-.29-.71 0-.271.11-.521.29-.71.38-.37 1.04-.37 1.42 0 .18.189.29.439.29.71 0 .26-.11.52-.29.71-.19.18-.45.29-.71.29zM48 27.5H33a1 1 0 1 1 0-2h15a1 1 0 1 1 0 2zM48 34.5H38a1 1 0 1 1 0-2h10a1 1 0 1 1 0 2zM30 34.5h-2a1 1 0 1 1 0-2h2a1 1 0 1 1 0 2zM43 20.5H28a1 1 0 1 1 0-2h15a1 1 0 1 1 0 2zM48 20.5c-.26 0-.52-.11-.71-.29-.18-.19-.29-.45-.29-.71 0-.271.11-.521.29-.71.37-.37 1.05-.37 1.42 0 .18.189.29.45.29.71s-.11.52-.29.71c-.19.18-.44.29-.71.29zM29 27.5c-.26 0-.52-.11-.71-.29-.18-.19-.29-.44-.29-.71 0-.271.11-.521.29-.71.38-.37 1.05-.37 1.42 0 .18.189.29.439.29.71 0 .27-.11.52-.29.71-.19.18-.45.29-.71.29zM34 34.5c-.26 0-.52-.11-.71-.29-.18-.19-.29-.45-.29-.71s.11-.521.29-.71c.38-.37 1.05-.37 1.42 0a1.013 1.013 0 0 1 0 1.42c-.19.18-.45.29-.71.29z" fill="#d4c3a5"/><path d="M18 25.5a1 1 0 1 0 2 0 5.01 5.01 0 0 0-4-4.899V19.5a1 1 0 1 0-2 0v1.104a4.985 4.985 0 0 0-2.818 1.668 3.438 3.438 0 0 0-.794 2.603 3.65 3.65 0 0 0 1.383 2.491L14 29.1v5.438a2.996 2.996 0 0 1-2-2.816 1 1 0 1 0-2 0 5.01 5.01 0 0 0 4 4.899v.879a1 1 0 1 0 2 0v-.882a4.991 4.991 0 0 0 2.819-1.668 3.444 3.444 0 0 0 .793-2.605 3.646 3.646 0 0 0-1.383-2.488L16 28.123v-5.438c1.161.413 2 1.513 2 2.815zm-.999 5.935c.349.271.576.68.622 1.118.043.41-.075.803-.331 1.105a2.988 2.988 0 0 1-1.292.875v-3.878l1.001.78zm-4.002-5.647a1.642 1.642 0 0 1-.622-1.12 1.46 1.46 0 0 1 .331-1.104A2.988 2.988 0 0 1 14 22.689v3.877l-1.001-.778z" fill="#24ae5f"/><g fill="#a5a5a4"><path d="M6 11.5c-.26 0-.52-.11-.71-.29-.18-.19-.29-.45-.29-.71s.11-.521.29-.71c.38-.37 1.05-.37 1.42 0 .18.189.29.45.29.71s-.11.52-.29.71c-.19.18-.45.29-.71.29zM47.17 10.5c0-.55.44-1 1-1 .55 0 1 .45 1 1s-.45 1-1 1c-.56 0-1-.45-1-1zm-3.84 0c0-.55.45-1 1-1 .56 0 1 .45 1 1s-.44 1-1 1c-.55 0-1-.45-1-1zm-3.83 0c0-.55.45-1 1-1s1 .45 1 1-.45 1-1 1-1-.45-1-1zm-3.83 0c0-.55.44-1 1-1 .55 0 1 .45 1 1s-.45 1-1 1c-.56 0-1-.45-1-1zm-3.84 0c0-.55.45-1 1-1 .56 0 1 .45 1 1s-.44 1-1 1c-.55 0-1-.45-1-1zm-3.83 0c0-.55.45-1 1-1s1 .45 1 1-.45 1-1 1-1-.45-1-1zm-3.83 0c0-.55.44-1 1-1 .55 0 1 .45 1 1s-.45 1-1 1c-.56 0-1-.45-1-1zm-3.84 0c0-.55.45-1 1-1 .56 0 1 .45 1 1s-.44 1-1 1c-.55 0-1-.45-1-1zm-3.83 0c0-.55.45-1 1-1s1 .45 1 1-.45 1-1 1-1-.45-1-1zm-3.83 0c0-.55.44-1 1-1 .55 0 1 .45 1 1s-.45 1-1 1c-.56 0-1-.45-1-1zm-3.84 0c0-.55.45-1 1-1 .56 0 1 .45 1 1s-.44 1-1 1c-.55 0-1-.45-1-1zM52 11.5a1.009 1.009 0 0 1-1-1c0-.26.11-.521.29-.71.36-.37 1.04-.37 1.42 0 .18.189.29.45.29.71s-.11.52-.29.71c-.19.18-.45.29-.71.29z"/></g></svg>