<svg xmlns="http://www.w3.org/2000/svg" viewBox="0 0 512 512"><path d="M330.842 129.599c-10.398-9.106-12.322-24.539-4.462-35.909 21.8-31.536 57.755-89.469 30.714-93.46C338.452-2.521 297.226 20.305 256 20.305S173.548-2.522 154.905.23c-27.04 3.991 8.914 61.924 30.714 93.46 7.86 11.37 5.937 26.803-4.462 35.909-45.042 39.446-153.901 146.753-141.895 253.318C54.355 516.891 256 511.977 256 511.977s201.645 4.914 216.738-129.06c12.006-106.565-96.853-213.872-141.896-253.318z" fill="#ff4c4c"/><path d="M330.842 129.599c-10.399-9.106-12.322-24.539-4.462-35.909 21.8-31.536 57.755-89.469 30.714-93.46-3.443-.508-7.66-.14-12.5.792-9.428 24.112-49.343 69.526-65.341 92.668-7.86 11.37-5.937 26.803 4.462 35.909 45.044 39.446 153.902 146.753 141.897 253.318-11.888 105.525-139.51 124.884-193.175 128.347 14.468.934 23.564.713 23.564.713s201.645 4.914 216.738-129.06c12.005-106.565-96.854-213.872-141.897-253.318z" fill="#f33939"/><g fill="#ffb125"><circle cx="256" cy="319.76" r="114.78"/><path d="M336.746 134.402H175.254c-8.802 0-15.938-7.135-15.938-15.938 0-8.802 7.135-15.938 15.938-15.938h161.492c8.802 0 15.938 7.135 15.938 15.938s-7.136 15.938-15.938 15.938z"/></g><g fill="#ff901d"><path d="M336.746 120.364H175.254c-6.28 0-11.695-3.641-14.292-8.919a15.85 15.85 0 0 0-1.645 7.019c0 8.802 7.135 15.938 15.938 15.938h161.492c8.802 0 15.938-7.135 15.938-15.938a15.85 15.85 0 0 0-1.645-7.019c-2.599 5.278-8.014 8.919-14.294 8.919zM337.161 400.925c44.824-44.824 44.824-117.498 0-162.322L174.839 400.925c44.824 44.824 117.498 44.824 162.322 0z"/></g><path d="M253.028 387.638c-22.335-.361-37.464-12.429-37.464-21.254 0-4.323 3.782-10.267 8.285-10.267 5.944 0 10.807 12.609 29.179 14.049v-42.328c-16.21-5.764-34.222-12.248-34.222-35.303 0-22.695 17.111-31.701 34.222-33.502v-5.223c0-2.162 2.162-4.143 5.224-4.143 2.702 0 5.403 1.981 5.403 4.143v4.863c12.248.36 29.539 4.143 29.539 12.969 0 3.422-2.522 10.267-7.925 10.267-4.323 0-9.005-5.764-21.614-6.664v36.564c15.67 5.764 32.782 13.689 32.782 38.185 0 22.155-13.329 34.403-32.782 37.104v6.124c0 2.162-2.702 4.143-5.403 4.143-3.062 0-5.224-1.981-5.224-4.143v-5.584zm1.081-79.253v-32.781c-10.087 1.261-17.291 5.763-17.291 15.13-.001 10.266 7.744 14.049 17.291 17.651zm8.465 23.416v38.005c9.726-1.801 15.85-7.565 15.85-17.832.001-11.348-7.024-16.391-15.85-20.173z" fill="#dd7219"/></svg>