<?xml version="1.0" standalone="no"?><!DOCTYPE svg PUBLIC "-//W3C//DTD SVG 1.1//EN" "http://www.w3.org/Graphics/SVG/1.1/DTD/svg11.dtd"><svg t="1516893505382" class="icon" style="" viewBox="0 0 1032 1024" version="1.1" xmlns="http://www.w3.org/2000/svg" p-id="17714" xmlns:xlink="http://www.w3.org/1999/xlink" width="201.5625" height="200"><defs><style type="text/css"></style></defs><path d="M335.36 448l-79.36 0 0-64 48.64 0 111.36-139.232 0-116.768c0-70.592 57.408-128 128-128s128 57.408 128 128l-64 0c0-35.296-28.704-64-64-64s-64 28.704-64 64l0 139.232-144.64 180.768z" p-id="17715"></path><path d="M889.984 1024l-354.784-1.248-219.68-62.752-59.52 0 0-64 72.8 1.248 219.68 62.752 291.456 0 112.768-454.08-344.704-62.176 0-315.744 64 0 0 262.24 359.296 64.832z" p-id="17716"></path><path d="M192 960l-192 0 0-576 192 0 0 576zM64 896l64 0 0-448-64 0 0 448z" p-id="17717"></path></svg>