<?xml version="1.0" standalone="no"?><!DOCTYPE svg PUBLIC "-//W3C//DTD SVG 1.1//EN" "http://www.w3.org/Graphics/SVG/1.1/DTD/svg11.dtd"><svg t="1516451841704" class="icon" style="" viewBox="0 0 1024 1024" version="1.1" xmlns="http://www.w3.org/2000/svg" p-id="1681" xmlns:xlink="http://www.w3.org/1999/xlink" width="200" height="200"><defs><style type="text/css"></style></defs><path d="M561.088 665.376c-41.632 0-83.264-15.84-114.944-47.52l24.128-24.128c50.112 50.112 131.584 50.08 181.696 0l214.88-214.912c50.08-50.08 50.08-131.552 0-181.664l-40.032-40c-50.08-50.08-131.584-50.08-181.664 0l-151.648 151.648-24.128-24.128 151.648-151.648c63.36-63.392 166.496-63.424 229.92 0l40.032 40c63.36 63.392 63.36 166.528 0 229.92l-214.88 214.88c-31.68 31.68-73.344 47.52-114.976 47.52z" p-id="1682"></path><path d="M288.032 938.528c-43.424 0-84.256-16.896-114.944-47.616l-40.032-40c-63.392-63.424-63.392-166.528 0-229.92l214.912-214.912c63.36-63.36 166.56-63.36 229.92 0l40.032 40.032-24.128 24.128-40.032-40.032c-50.08-50.08-131.584-50.08-181.664 0l-214.912 214.912c-50.048 50.048-50.048 131.552 0 181.664l40.032 40c24.256 24.256 56.512 37.632 90.816 37.632s66.56-13.376 90.816-37.632l143.008-143.008 24.128 24.128-143.008 143.008c-30.688 30.72-71.52 47.616-114.944 47.616z" p-id="1683"></path></svg>