<?xml version="1.0" encoding="iso-8859-1"?>
<!-- Generator: Adobe Illustrator 19.0.0, SVG Export Plug-In . SVG Version: 6.00 Build 0)  -->
<svg version="1.1" id="Layer_1" xmlns="http://www.w3.org/2000/svg" xmlns:xlink="http://www.w3.org/1999/xlink" x="0px" y="0px"
	 viewBox="0 0 501.333 501.333" style="enable-background:new 0 0 501.333 501.333;" xml:space="preserve">
<path style="fill:#E0E0DF;" d="M483.2,140.8H18.133C8.533,140.8,0,149.333,0,158.933V483.2c0,9.6,8.533,18.133,18.133,18.133H483.2
	c9.6,0,18.133-8.533,18.133-18.133V158.933C501.333,149.333,492.8,140.8,483.2,140.8z"/>
<g>
	<circle style="fill:#637888;" cx="152.533" cy="275.2" r="52.267"/>
	<path style="fill:#637888;" d="M253.867,420.267c-17.067-39.467-55.467-67.2-101.333-67.2S68.267,380.8,51.2,420.267H253.867z"/>
	<rect x="315.733" y="248.533" style="fill:#637888;" width="134.4" height="14.933"/>
	<rect x="315.733" y="313.6" style="fill:#637888;" width="134.4" height="14.933"/>
	<rect x="315.733" y="378.667" style="fill:#637888;" width="134.4" height="14.933"/>
</g>
<rect x="179.2" y="163.2" style="fill:#E14A4A;" width="144" height="22.4"/>
<rect x="201.6" style="fill:#F16D6E;" width="97.067" height="173.867"/>
<g>
</g>
<g>
</g>
<g>
</g>
<g>
</g>
<g>
</g>
<g>
</g>
<g>
</g>
<g>
</g>
<g>
</g>
<g>
</g>
<g>
</g>
<g>
</g>
<g>
</g>
<g>
</g>
<g>
</g>
</svg>
