<?xml version="1.0" encoding="iso-8859-1"?>
<!-- Generator: Adobe Illustrator 19.0.0, SVG Export Plug-In . SVG Version: 6.00 Build 0)  -->
<svg version="1.1" id="Layer_1" xmlns="http://www.w3.org/2000/svg" xmlns:xlink="http://www.w3.org/1999/xlink" x="0px" y="0px"
	 viewBox="0 0 512 512" style="enable-background:new 0 0 512 512;" xml:space="preserve">
<path style="fill:#A66300;" d="M333.411,188.132c-6.534-6.534-17.132-6.534-23.666,0L14.443,483.433
	c-6.535,6.535-6.535,17.131,0,23.666c3.268,3.268,7.551,4.902,11.834,4.901c4.283,0,8.566-1.634,11.832-4.901l295.302-295.301
	C339.947,205.263,339.946,194.666,333.411,188.132z"/>
<path style="fill:#875100;" d="M333.411,188.132c-0.297-0.297-0.611-0.566-0.925-0.836L13.607,506.175
	c0.27,0.312,0.539,0.627,0.836,0.924c3.268,3.268,7.551,4.902,11.834,4.901c4.283,0,8.566-1.634,11.832-4.901l295.302-295.301
	C339.947,205.263,339.946,194.666,333.411,188.132z"/>
<path style="fill:#FACE17;" d="M454.32,219.728l-38.766-51.947l20.816-61.386c2.046-6.032,0.489-12.704-4.015-17.208
	c-4.504-4.504-11.175-6.061-17.208-4.015l-61.385,20.816l-51.95-38.766c-5.103-3.809-11.929-4.392-17.605-1.499
	c-5.676,2.893-9.217,8.756-9.136,15.125l0.829,64.815l-52.924,37.426c-5.201,3.678-7.863,9.989-6.867,16.282
	c0.996,6.291,5.479,11.471,11.561,13.363l61.898,19.241l19.24,61.897c1.891,6.082,7.071,10.565,13.363,11.561
	c0.876,0.138,1.75,0.206,2.622,0.206c5.375,0,10.494-2.595,13.66-7.072l37.426-52.924l64.815,0.828
	c6.322,0.051,12.233-3.462,15.125-9.136C458.713,231.661,458.13,224.833,454.32,219.728z"/>
<polygon style="fill:#E6BD15;" points="160.014,42.848 173.373,67.274 197.799,80.633 173.373,93.991 160.014,118.417 
	146.656,93.991 122.23,80.633 146.656,67.274 "/>
<g>
	<polygon style="fill:#FACE17;" points="352.14,364.732 362.946,384.489 382.703,395.294 362.946,406.1 352.14,425.857 
		341.335,406.1 321.577,395.294 341.335,384.489 	"/>
	<polygon style="fill:#FACE17;" points="367.337,0 378.142,19.757 397.9,30.563 378.142,41.368 367.337,61.126 356.531,41.368 
		336.775,30.563 356.531,19.757 	"/>
	<polygon style="fill:#FACE17;" points="484.168,130.689 490.635,142.514 502.459,148.98 490.635,155.447 484.168,167.271 
		477.702,155.447 465.877,148.98 477.702,142.514 	"/>
</g>
<g>
	<polygon style="fill:#E6BD15;" points="492.627,294.117 484.792,320.866 492.627,347.615 465.877,339.78 439.129,347.615 
		446.963,320.866 439.129,294.117 465.877,301.951 	"/>
	<path style="fill:#E6BD15;" d="M455.82,237.334c2.892-5.675,2.311-12.501-1.499-17.606l-38.766-51.947l20.816-61.387
		c2.046-6.032,0.49-12.704-4.014-17.208c-0.296-0.296-0.6-0.576-0.914-0.846L288.228,231.555l1.343,0.417l19.24,61.898
		c1.891,6.082,7.071,10.565,13.363,11.561c0.876,0.138,1.75,0.206,2.622,0.206c5.375,0,10.494-2.595,13.66-7.072l37.426-52.924
		l64.815,0.828C447.017,246.522,452.928,243.009,455.82,237.334z"/>
</g>
<g>
</g>
<g>
</g>
<g>
</g>
<g>
</g>
<g>
</g>
<g>
</g>
<g>
</g>
<g>
</g>
<g>
</g>
<g>
</g>
<g>
</g>
<g>
</g>
<g>
</g>
<g>
</g>
<g>
</g>
</svg>
