<?xml version="1.0" encoding="iso-8859-1"?>
<!-- Generator: Adobe Illustrator 18.0.0, SVG Export Plug-In . SVG Version: 6.00 Build 0)  -->
<!DOCTYPE svg PUBLIC "-//W3C//DTD SVG 1.1//EN" "http://www.w3.org/Graphics/SVG/1.1/DTD/svg11.dtd">
<svg version="1.1" id="Capa_1" xmlns="http://www.w3.org/2000/svg" xmlns:xlink="http://www.w3.org/1999/xlink" x="0px" y="0px"
	 viewBox="0 0 58 58" style="enable-background:new 0 0 58 58;" xml:space="preserve">
<g>
	<path style="fill:#E5E5DA;" d="M56.414,7.5l-3.707,3.707C52.512,11.402,52.256,11.5,52,11.5s-0.512-0.098-0.707-0.293
		c-0.391-0.391-0.391-1.023,0-1.414L53.586,7.5h-4.172l-3.707,3.707C45.512,11.402,45.256,11.5,45,11.5s-0.512-0.098-0.707-0.293
		c-0.391-0.391-0.391-1.023,0-1.414L46.586,7.5h-4.172l-3.707,3.707C38.512,11.402,38.256,11.5,38,11.5s-0.512-0.098-0.707-0.293
		c-0.391-0.391-0.391-1.023,0-1.414L39.586,7.5h-4.172l-3.707,3.707C31.512,11.402,31.256,11.5,31,11.5s-0.512-0.098-0.707-0.293
		c-0.391-0.391-0.391-1.023,0-1.414L32.586,7.5h-4.172l-3.707,3.707C24.512,11.402,24.256,11.5,24,11.5s-0.512-0.098-0.707-0.293
		c-0.391-0.391-0.391-1.023,0-1.414L25.586,7.5h-4.172l-3.707,3.707C17.512,11.402,17.256,11.5,17,11.5s-0.512-0.098-0.707-0.293
		c-0.391-0.391-0.391-1.023,0-1.414L18.586,7.5h-4.172l-3.707,3.707C10.512,11.402,10.256,11.5,10,11.5s-0.512-0.098-0.707-0.293
		c-0.391-0.391-0.391-1.023,0-1.414L11.586,7.5H7.414l-3.707,3.707C3.512,11.402,3.256,11.5,3,11.5s-0.512-0.098-0.707-0.293
		c-0.391-0.391-0.391-1.023,0-1.414L4.586,7.5H0v0.104V50.5h1.586l3.707-3.707c0.391-0.391,1.023-0.391,1.414,0s0.391,1.023,0,1.414
		L4.414,50.5h4.172l3.707-3.707c0.391-0.391,1.023-0.391,1.414,0s0.391,1.023,0,1.414L11.414,50.5h4.172l3.707-3.707
		c0.391-0.391,1.023-0.391,1.414,0s0.391,1.023,0,1.414L18.414,50.5h4.172l3.707-3.707c0.391-0.391,1.023-0.391,1.414,0
		s0.391,1.023,0,1.414L25.414,50.5h4.172l3.707-3.707c0.391-0.391,1.023-0.391,1.414,0s0.391,1.023,0,1.414L32.414,50.5h4.172
		l3.707-3.707c0.391-0.391,1.023-0.391,1.414,0s0.391,1.023,0,1.414L39.414,50.5h4.172l3.707-3.707c0.391-0.391,1.023-0.391,1.414,0
		s0.391,1.023,0,1.414L46.414,50.5h4.172l3.707-3.707c0.391-0.391,1.023-0.391,1.414,0s0.391,1.023,0,1.414L53.414,50.5H58V7.604
		V7.5H56.414z"/>
	<path style="fill:#7FB1C8;" d="M6.707,46.793c-0.391-0.391-1.023-0.391-1.414,0L1.586,50.5h2.828l2.293-2.293
		C7.098,47.816,7.098,47.184,6.707,46.793z"/>
	<path style="fill:#E59677;" d="M13.707,46.793c-0.391-0.391-1.023-0.391-1.414,0L8.586,50.5h2.828l2.293-2.293
		C14.098,47.816,14.098,47.184,13.707,46.793z"/>
	<path style="fill:#7FB1C8;" d="M20.707,46.793c-0.391-0.391-1.023-0.391-1.414,0L15.586,50.5h2.828l2.293-2.293
		C21.098,47.816,21.098,47.184,20.707,46.793z"/>
	<path style="fill:#E59677;" d="M27.707,46.793c-0.391-0.391-1.023-0.391-1.414,0L22.586,50.5h2.828l2.293-2.293
		C28.098,47.816,28.098,47.184,27.707,46.793z"/>
	<path style="fill:#7FB1C8;" d="M34.707,46.793c-0.391-0.391-1.023-0.391-1.414,0L29.586,50.5h2.828l2.293-2.293
		C35.098,47.816,35.098,47.184,34.707,46.793z"/>
	<path style="fill:#E59677;" d="M41.707,46.793c-0.391-0.391-1.023-0.391-1.414,0L36.586,50.5h2.828l2.293-2.293
		C42.098,47.816,42.098,47.184,41.707,46.793z"/>
	<path style="fill:#7FB1C8;" d="M48.707,46.793c-0.391-0.391-1.023-0.391-1.414,0L43.586,50.5h2.828l2.293-2.293
		C49.098,47.816,49.098,47.184,48.707,46.793z"/>
	<path style="fill:#E59677;" d="M55.707,46.793c-0.391-0.391-1.023-0.391-1.414,0L50.586,50.5h2.828l2.293-2.293
		C56.098,47.816,56.098,47.184,55.707,46.793z"/>
	<path style="fill:#7FB1C8;" d="M2.293,11.207C2.488,11.402,2.744,11.5,3,11.5s0.512-0.098,0.707-0.293L7.414,7.5H4.586L2.293,9.793
		C1.902,10.184,1.902,10.816,2.293,11.207z"/>
	<path style="fill:#E59677;" d="M9.293,11.207C9.488,11.402,9.744,11.5,10,11.5s0.512-0.098,0.707-0.293L14.414,7.5h-2.828
		L9.293,9.793C8.902,10.184,8.902,10.816,9.293,11.207z"/>
	<path style="fill:#7FB1C8;" d="M16.293,11.207C16.488,11.402,16.744,11.5,17,11.5s0.512-0.098,0.707-0.293L21.414,7.5h-2.828
		l-2.293,2.293C15.902,10.184,15.902,10.816,16.293,11.207z"/>
	<path style="fill:#E59677;" d="M23.293,11.207C23.488,11.402,23.744,11.5,24,11.5s0.512-0.098,0.707-0.293L28.414,7.5h-2.828
		l-2.293,2.293C22.902,10.184,22.902,10.816,23.293,11.207z"/>
	<path style="fill:#7FB1C8;" d="M30.293,11.207C30.488,11.402,30.744,11.5,31,11.5s0.512-0.098,0.707-0.293L35.414,7.5h-2.828
		l-2.293,2.293C29.902,10.184,29.902,10.816,30.293,11.207z"/>
	<path style="fill:#E59677;" d="M37.293,11.207C37.488,11.402,37.744,11.5,38,11.5s0.512-0.098,0.707-0.293L42.414,7.5h-2.828
		l-2.293,2.293C36.902,10.184,36.902,10.816,37.293,11.207z"/>
	<path style="fill:#7FB1C8;" d="M44.293,11.207C44.488,11.402,44.744,11.5,45,11.5s0.512-0.098,0.707-0.293L49.414,7.5h-2.828
		l-2.293,2.293C43.902,10.184,43.902,10.816,44.293,11.207z"/>
	<path style="fill:#E59677;" d="M51.293,11.207C51.488,11.402,51.744,11.5,52,11.5s0.512-0.098,0.707-0.293L56.414,7.5h-2.828
		l-2.293,2.293C50.902,10.184,50.902,10.816,51.293,11.207z"/>
	<rect x="43" y="19.5" style="fill:#D75A4A;" width="8" height="8"/>
	<path style="fill:#C4C2A5;" d="M27,25.5H7c-0.552,0-1-0.447-1-1s0.448-1,1-1h20c0.552,0,1,0.447,1,1S27.552,25.5,27,25.5z"/>
	<path style="fill:#C4C2A5;" d="M27,30.5H7c-0.552,0-1-0.447-1-1s0.448-1,1-1h20c0.552,0,1,0.447,1,1S27.552,30.5,27,30.5z"/>
	<path style="fill:#C4C2A5;" d="M15,20.5H7c-0.552,0-1-0.447-1-1s0.448-1,1-1h8c0.552,0,1,0.447,1,1S15.552,20.5,15,20.5z"/>
</g>
<g>
</g>
<g>
</g>
<g>
</g>
<g>
</g>
<g>
</g>
<g>
</g>
<g>
</g>
<g>
</g>
<g>
</g>
<g>
</g>
<g>
</g>
<g>
</g>
<g>
</g>
<g>
</g>
<g>
</g>
</svg>
