<svg xmlns="http://www.w3.org/2000/svg" viewBox="0 0 512 512"><path fill="#fee191" d="M512 128.819V512l-128-45.511-34.133-191.591L384 83.308z"/><path fill="#ffd24d" d="M384 83.308v383.181L256 512l-22.756-191.59L256 128.819z"/><path fill="#fee191" d="M256 128.819V512l-128-45.511-34.133-191.591L128 83.308z"/><path fill="#ffd24d" d="M128 83.308v383.181L0 512V128.819z"/><path d="M435.61 115.61c0 92.573-104.507 178.309-104.507 178.309-6.106 5.01-16.1 5.01-22.206 0 0 0-104.507-85.736-104.507-178.309C204.389 51.761 256.15 0 320 0s115.61 51.761 115.61 115.61z" fill="#f14742"/><path d="M320 173.774c-32.072 0-58.164-26.093-58.164-58.164S287.928 57.446 320 57.446s58.164 26.093 58.164 58.164-26.092 58.164-58.164 58.164z" fill="#fff"/></svg>