<?xml version="1.0" standalone="no"?><!DOCTYPE svg PUBLIC "-//W3C//DTD SVG 1.1//EN" "http://www.w3.org/Graphics/SVG/1.1/DTD/svg11.dtd"><svg t="1517132272666" class="icon" style="" viewBox="0 0 1024 1024" version="1.1" xmlns="http://www.w3.org/2000/svg" p-id="1372" xmlns:xlink="http://www.w3.org/1999/xlink" width="200" height="200"><defs><style type="text/css"></style></defs><path d="M895.318 192 128.682 192C93.008 192 64 220.968 64 256.616l0 510.698C64 802.986 93.008 832 128.682 832l766.636 0C930.992 832 960 802.986 960 767.312L960 256.616C960 220.968 930.992 192 895.318 192zM568.046 704l-112.096 0 0-192-84.08 107.756L287.826 512l0 192L175.738 704 175.738 320l112.088 0 84.044 135.96 84.08-135.96 112.096 0L568.046 704 568.046 704zM735.36 704l-139.27-192 84 0 0-192 112.086 0 0 192 84.054 0-140.906 192L735.36 704z" p-id="1373"></path></svg>