<svg xmlns="http://www.w3.org/2000/svg" viewBox="0 0 501.333 501.333"><path d="M483.2 140.8H18.133C8.533 140.8 0 149.333 0 158.933V483.2c0 9.6 8.533 18.133 18.133 18.133H483.2c9.6 0 18.133-8.533 18.133-18.133V158.933c0-9.6-8.533-18.133-18.133-18.133z" fill="#e0e0df"/><g fill="#637888"><circle cx="152.533" cy="275.2" r="52.267"/><path d="M253.867 420.267c-17.067-39.467-55.467-67.2-101.333-67.2S68.267 380.8 51.2 420.267h202.667zM315.733 248.533h134.4v14.933h-134.4zM315.733 313.6h134.4v14.933h-134.4zM315.733 378.667h134.4V393.6h-134.4z"/></g><path fill="#e14a4a" d="M179.2 163.2h144v22.4h-144z"/><path fill="#f16d6e" d="M201.6 0h97.067v173.867H201.6z"/></svg>