<svg xmlns="http://www.w3.org/2000/svg" viewBox="0 0 512 512"><path d="M367.178 314.667H308.82c-9.223 0-16.697-7.474-16.697-16.697 0-9.223 7.474-16.697 16.697-16.697h58.358c9.223 0 16.697 7.474 16.697 16.697 0 9.224-7.474 16.697-16.697 16.697z" fill="#e65c64"/><path d="M214.366 220.219c-9.223 0-16.697-7.474-16.697-16.697v-58.358c0-9.223 7.474-16.697 16.697-16.697 9.223 0 16.697 7.474 16.697 16.697v58.358c0 9.223-7.474 16.697-16.697 16.697z" fill="#f26d76"/><path d="M241.006 14.693c-19.48-19.591-51.314-19.591-70.794 0-19.48 19.48-19.48 51.315 0 70.795 9.461 9.462 22.04 14.693 35.396 14.693s25.937-5.232 35.397-14.693c19.594-19.479 19.594-51.315.001-70.795zm-23.547 47.116c-6.78 6.78-17.183 6.508-23.632.07-6.392-6.392-6.392-17.186 0-23.578 6.564-6.59 17.102-6.49 23.502-.066 6.798 6.766 6.433 17.311.13 23.574z" fill="#ffc033"/><circle cx="426.886" cy="203.525" r="16.697" fill="#43bfbf"/><circle cx="308.816" cy="85.455" r="16.697" fill="#36d9d9"/><circle cx="426.886" cy="392.424" r="16.697" fill="#43bfbf"/><circle cx="119.918" cy="85.455" r="16.697" fill="#36d9d9"/><path d="M443.585 52.059c-9.223 0-16.697-7.474-16.697-16.697V18.665c0-9.223 7.474-16.697 16.697-16.697 9.223 0 16.697 7.474 16.697 16.697v16.697c0 9.223-7.473 16.697-16.697 16.697z" fill="#ffc033"/><path d="M443.585 135.544c-9.223 0-16.697-7.474-16.697-16.697V102.15c0-9.223 7.474-16.697 16.697-16.697 9.223 0 16.697 7.474 16.697 16.697v16.697c0 9.223-7.473 16.697-16.697 16.697z" fill="#f9a926"/><path d="M410.191 85.453h-16.697c-9.223 0-16.697-7.474-16.697-16.697s7.474-16.697 16.697-16.697h16.697c9.223 0 16.697 7.474 16.697 16.697s-7.473 16.697-16.697 16.697z" fill="#ffc033"/><path d="M493.676 85.453h-16.697c-9.223 0-16.697-7.474-16.697-16.697s7.474-16.697 16.697-16.697h16.697c9.218 0 16.697 7.474 16.697 16.697s-7.479 16.697-16.697 16.697zm3.351 174.13c-19.48-19.591-51.314-19.591-70.794 0-19.48 19.48-19.48 51.315 0 70.795 9.461 9.462 22.04 14.693 35.397 14.693s25.937-5.232 35.397-14.693c19.592-19.48 19.592-51.316 0-70.795zm-23.547 47.11c-6.752 6.763-17.152 6.545-23.632.076-6.392-6.392-6.392-17.186 0-23.578 6.564-6.59 17.102-6.49 23.502-.066 6.77 6.746 6.462 17.276.13 23.568z" fill="#f9a926"/><path d="M268.512 260.527a16.643 16.643 0 0 1-11.805-4.892c-6.522-6.516-6.522-17.093 0-23.611l104.232-104.232c6.522-6.522 17.089-6.522 23.611 0 6.522 6.516 6.522 17.093 0 23.611L280.318 255.634a16.644 16.644 0 0 1-11.806 4.893z" fill="#ffc033"/><path d="M256.706 255.634a16.645 16.645 0 0 0 11.805 4.892c4.271 0 8.544-1.631 11.805-4.892l104.232-104.232c6.522-6.516 6.522-17.093 0-23.611L256.706 255.634z" fill="#f9a926"/><path d="M129.919 426.074v47.141L22.557 511.017c-6.601 2.326-13.068.323-17.32-3.907-4.286-4.263-6.311-10.764-3.974-17.398l37.847-107.24h47.252l21.739 21.762 21.818 21.84z" fill="#f26d76"/><path d="M129.919 426.074v47.141L22.557 511.017c-6.601 2.326-13.068.323-17.32-3.907l102.865-102.876 21.817 21.84z" fill="#e65c64"/><path d="M82.274 319.365l110.819 110.861h58.73l62.54-22.04c8.706-3.125 13.243-12.584 10.24-21.372L125.465 187.786c-8.66-3.109-18.251 1.434-21.261 10.13l-21.93 62.132v59.318z" fill="#f26d76"/><path d="M193.093 430.226h58.73l62.54-22.04c8.706-3.125 13.243-12.584 10.24-21.372l-99.565-99.511-87.423 87.423 55.478 55.5z" fill="#e65c64"/><path d="M82.162 260.25L39.086 382.473l90.831 90.72.334-.111 121.776-42.967L82.162 260.25z" fill="#ffc033"/><path fill="#f9a926" d="M129.917 473.193l.334-.111 121.775-42.967-84.899-84.9-82.623 82.621z"/><path d="M332.436 432.736a16.643 16.643 0 0 1-11.805-4.892L84.496 191.712c-6.522-6.516-6.522-17.093 0-23.611 6.522-6.522 17.089-6.522 23.611 0L344.24 404.234c6.522 6.516 6.522 17.093 0 23.611a16.644 16.644 0 0 1-11.804 4.891z" fill="#36d9d9"/><path d="M320.63 427.844c3.261 3.261 7.534 4.892 11.805 4.892s8.544-1.631 11.805-4.892c6.522-6.516 6.522-17.093 0-23.611L226.174 286.168l-23.611 23.611L320.63 427.844z" fill="#43bfbf"/></svg>