<?xml version="1.0" encoding="iso-8859-1"?>
<!-- Generator: Adobe Illustrator 19.0.0, SVG Export Plug-In . SVG Version: 6.00 Build 0)  -->
<svg version="1.1" id="Layer_1" xmlns="http://www.w3.org/2000/svg" xmlns:xlink="http://www.w3.org/1999/xlink" x="0px" y="0px"
	 viewBox="0 0 504.123 504.123" style="enable-background:new 0 0 504.123 504.123;" xml:space="preserve">
<rect x="118.823" y="134.64" style="fill:#00233F;" width="50.885" height="78.848"/>
<polygon style="fill:#0C537A;" points="172.142,111.269 243.665,136.019 254.173,213.488 147.023,213.488 "/>
<polygon style="fill:#00233F;" points="172.142,111.269 227.659,142.966 240.16,213.488 147.023,213.488 "/>
<polygon style="fill:#037193;" points="115.373,111.269 43.859,136.019 33.343,213.488 140.493,213.488 "/>
<polygon style="fill:#0C537A;" points="106.441,155.735 43.859,136.019 33.343,213.488 140.493,213.488 "/>
<g>
	<polygon style="fill:#00233F;" points="115.373,111.269 59.849,142.966 47.364,213.488 140.493,213.488 	"/>
	<path style="fill:#00233F;" d="M182.091,33.138c0,18.267-13.769,33.107-30.759,33.107h-15.139
		c-16.998,0-30.775-14.84-30.775-33.107l0,0C105.417,14.832,119.194,0,136.192,0h15.139C168.322,0,182.091,14.832,182.091,33.138
		L182.091,33.138z"/>
</g>
<polygon style="fill:#F9BDA0;" points="171.268,125.046 116.248,125.046 119.926,79.455 167.597,79.455 "/>
<polygon style="fill:#E28F71;" points="171.268,125.046 143.667,125.046 116.248,79.455 167.597,79.455 "/>
<path style="fill:#FCCCB9;" d="M180.909,42.984c0,32.327-16.282,61.55-37.14,61.55c-20.866,0-37.155-29.231-37.155-61.55
	S122.896,5.285,143.77,5.285C164.62,5.285,180.909,10.665,180.909,42.984z"/>
<path style="fill:#F9BDA0;" d="M143.77,5.285c20.85,0,37.14,5.38,37.14,37.699s-16.282,61.55-37.14,61.55"/>
<polygon style="fill:#1BCDEA;" points="142.864,190.157 109.978,145.534 98.107,113.703 114.838,106.701 143.77,124.991 
	172.686,106.701 189.416,113.703 177.546,145.534 144.66,190.157 143.738,191.724 "/>
<polyline style="fill:#039DC1;" points="143.77,124.991 172.686,106.701 189.416,113.703 177.546,145.534 144.66,190.157 
	143.738,191.724 142.864,190.157 "/>
<g>
	<polygon style="fill:#33ECFF;" points="114.838,106.701 142.887,125.566 109.985,142.832 	"/>
	<polygon style="fill:#33ECFF;" points="172.686,106.701 144.636,125.566 177.53,142.832 	"/>
</g>
<g>
	<path style="fill:#00233F;" d="M106.827,38.085c-1.985-0.859-1.583-6.727,0.158-10.689c1.741-3.954,4.758-6.459,6.727-5.593
		c1.985,0.859,3.623,5.821,0.417,8.743"/>
	<path style="fill:#00233F;" d="M180.681,37.99c1.985-0.859,1.615-6.719-0.126-10.681c-1.741-3.954-4.742-6.451-6.727-5.585
		c-1.969,0.866-3.631,5.845-0.441,8.751"/>
	<path style="fill:#00233F;" d="M123.195,85.528c-0.095-0.102-0.142-0.165-0.142-0.165S123.085,85.457,123.195,85.528z"/>
	<path style="fill:#00233F;" d="M164.328,85.528c0.095-0.102,0.142-0.165,0.142-0.165S164.431,85.457,164.328,85.528z"/>
	<polygon style="fill:#00233F;" points="146.826,130.064 154.955,198.498 143.25,210.991 131.568,198.498 139.705,130.064 	"/>
</g>
<polygon style="fill:#0C537A;" points="145.597,127.086 152.97,138.524 143.25,145.573 133.537,138.524 140.918,127.086 "/>
<g>
	<polyline style="fill:#00233F;" points="140.918,127.086 145.597,127.086 152.97,138.524 143.25,145.573 	"/>
	<path style="fill:#00233F;" d="M165.581,14.068c0,0-14.588,24.623-52.886,16.408l-4.781-3.647c0,0,2.962-30.767,43.985-23.93
		l16.195,4.781L165.581,14.068z"/>
	<path style="fill:#00233F;" d="M148.708,18.18c0,0,15.518,18.684,31.925,14.58c0,0-1.142-14.36-3.639-16.872
		c-2.513-2.505-10.272-10.027-10.272-10.027l-3.868,0.465L148.708,18.18z"/>
</g>
<rect x="299.662" y="172.316" style="fill:#F9BDA0;" width="165.022" height="41.047"/>
<path style="fill:#542F08;" d="M341.441,63.85l32.524-6.664l1.961,45.08l-12.154,14.115l1.835,15.604c0,0-14.454,8.68-19.07-0.268
	c-4.624-8.964-6.632-63.283-7.223-64.449C338.739,66.119,341.441,63.85,341.441,63.85z"/>
<path style="fill:#3D1F03;" d="M339.314,67.277c-0.575-1.158,2.127-3.426,2.127-3.426l32.524-6.664l1.961,45.08l-12.154,14.115
	l1.835,15.604"/>
<path style="fill:#542F08;" d="M423.723,63.85l-32.532-6.664l-1.969,45.08l12.162,14.115l-1.843,15.604
	c0,0,14.454,8.68,19.078-0.268c4.616-8.964,6.632-63.283,7.207-64.449C426.394,66.119,423.723,63.85,423.723,63.85z"/>
<path style="fill:#3D1F03;" d="M425.826,67.277c0.567-1.158-2.103-3.426-2.103-3.426l-32.532-6.664l-1.969,45.08l12.162,14.115
	l-1.843,15.604"/>
<rect x="362.181" y="89.6" style="fill:#F9BDA0;" width="40.771" height="86.646"/>
<polygon style="fill:#EAA78C;" points="402.952,131.426 402.952,89.6 362.181,89.6 382.905,148.575 "/>
<path style="fill:#FCCCB9;" d="M415.059,54.264c0,31.311-15.888,59.636-32.477,59.636c-16.605,0-32.508-28.333-32.508-59.636
	s15.904-36.533,32.508-36.533C399.179,17.731,415.059,22.953,415.059,54.264z"/>
<g>
	<path style="fill:#F9BDA0;" d="M382.582,17.731c16.589,0,32.477,5.222,32.477,36.533S399.171,113.9,382.582,113.9"/>
	<polygon style="fill:#F9BDA0;" points="363.378,134.089 295.676,154.931 299.158,213.362 381.054,192.622 	"/>
</g>
<polyline style="fill:#FCCCB9;" points="295.676,154.931 299.158,213.362 381.054,192.622 "/>
<polygon style="fill:#F9BDA0;" points="401.762,134.089 469.441,154.931 465.983,213.362 384.063,192.622 "/>
<polyline style="fill:#EAA78C;" points="469.441,154.931 465.983,213.362 384.063,192.622 "/>
<path style="fill:#663D0C;" d="M375.217,11.681c0,0,10.075,49.892,50.846,54.949c0,0,1.331-30.641-9.972-43.985
	C404.787,9.303,387.3,10.925,387.3,10.925L375.217,11.681z"/>
<path style="fill:#894D0C;" d="M397.903,11.713c0,0,8.239,39.093-58.801,57.242c0,0-5.096-32.933,8.239-47.041
	c13.32-14.115,37.234-11.768,37.234-11.768L397.903,11.713z"/>
<path style="fill:#663D0C;" d="M384.567,10.145l13.328,1.568c0,0,8.239,39.093-58.801,57.242"/>
<rect x="299.662" y="172.316" style="fill:#22C6E0;" width="165.022" height="41.047"/>
<rect x="299.662" y="177.089" style="fill:#039DC1;" width="165.022" height="36.265"/>
<polygon style="fill:#037193;" points="379.967,213.488 359.07,134.9 295.448,154.931 297.291,213.488 "/>
<polygon style="fill:#0C537A;" points="379.967,213.488 359.07,134.9 295.448,154.931 304.223,213.488 "/>
<g>
	<polygon style="fill:#00233F;" points="379.967,213.488 359.07,134.9 295.448,154.931 318.086,213.488 	"/>
	<polygon style="fill:#00233F;" points="385.158,213.488 406.063,134.9 469.685,154.931 467.858,213.488 	"/>
</g>
<rect x="19.354" y="239.781" style="fill:#177ADD;" width="465.447" height="264.342"/>
<polyline style="fill:#085BBF;" points="19.354,239.781 484.777,239.781 484.777,504.123 "/>
<rect x="12.075" y="207.935" style="fill:#177ADD;" width="479.972" height="42.441"/>
<rect x="12.075" y="207.935" style="fill:#56A6E8;" width="479.972" height="18.637"/>
<g>
	<path style="fill:#CFE7E8;" d="M104.464,294.195c1.772-2.024,2.647-4.198,2.647-6.624c0-6.057-4.766-10.799-10.862-10.799H79.651
		c-0.906,0-1.646,0.733-1.646,1.654v34.178c0,0.89,0.74,1.638,1.646,1.638h16.817c6.396,0,11.808-5.372,11.808-11.737
		C108.268,299.236,106.858,296.204,104.464,294.195z M88.245,299.402h6.672c1.331,0,2.458,1.134,2.458,2.497
		c0,1.418-1.063,2.505-2.458,2.505h-6.672V299.402z M94.649,289.863h-6.396v-3.411h6.396c0.937,0,1.788,0.756,1.788,1.701
		C96.429,289.083,95.586,289.863,94.649,289.863z"/>
	<path style="fill:#CFE7E8;" d="M142.431,276.771H127.37c-0.906,0-1.607,0.733-1.607,1.654v34.178c0,0.89,0.701,1.638,1.607,1.638
		h6.995c0.898,0,1.646-0.748,1.646-1.638v-8.397h2.938c4.198,0,6.128,4.057,6.128,6.806v1.591c0,0.89,0.756,1.638,1.654,1.638h6.987
		c0.914,0,1.662-0.748,1.662-1.638v-1.953c0-3.458-1.205-7.696-4.38-10.327c2.702-2.788,4.38-6.743,4.38-10.563
		C155.38,282.6,149.551,276.771,142.431,276.771z M136.011,286.452h4.608c2.206,0,4.049,1.827,4.049,4.017
		c0,2.253-1.82,4.049-4.049,4.049h-4.608V286.452z"/>
	<path style="fill:#CFE7E8;" d="M195.261,304.412h-11.91v-4.852h10.917c0.898,0,1.607-0.748,1.607-1.646v-6.412
		c0-0.89-0.709-1.638-1.607-1.638h-10.917v-3.269h11.603c0.922,0,1.67-0.748,1.67-1.646v-6.522c0-0.922-0.748-1.654-1.67-1.654
		h-20.22c-0.866,0-1.615,0.733-1.615,1.654v34.178c0,0.89,0.748,1.638,1.615,1.638h20.527c0.906,0,1.646-0.748,1.646-1.638v-6.546
		C196.907,305.152,196.167,304.412,195.261,304.412z"/>
	<path style="fill:#CFE7E8;" d="M229.793,276.858c-0.26-0.575-0.843-0.969-1.497-0.969c-0.63,0-1.237,0.394-1.473,0.969
		l-15.518,35.084c-0.228,0.48-0.165,1.095,0.11,1.544c0.331,0.473,0.835,0.748,1.386,0.748h7.357c0.662,0,1.245-0.394,1.505-1
		l2.111-5.049h9.121l2.032,5.049c0.26,0.575,0.874,1,1.552,1h7.31h0.047c0.882,0,1.631-0.748,1.631-1.638
		c0-0.331-0.095-0.654-0.276-0.937L229.793,276.858z M228.289,296.322l1.024,2.426h-2.056L228.289,296.322z"/>
	<path style="fill:#CFE7E8;" d="M279.221,293.62l10.508-14.257c0.354-0.496,0.41-1.158,0.126-1.725
		c-0.26-0.52-0.835-0.874-1.441-0.874h-7.877c-0.504,0-1.04,0.252-1.315,0.717l-7.381,10.437v-9.5c0-0.922-0.725-1.654-1.623-1.654
		h-6.995c-0.874,0-1.623,0.733-1.623,1.654v34.178c0,0.89,0.748,1.638,1.623,1.638h6.995c0.898,0,1.623-0.748,1.623-1.638v-9.129
		l1.008-1.308l7.822,11.374c0.284,0.441,0.796,0.701,1.323,0.701h8.83c0.567,0,1.166-0.347,1.426-0.874
		c0.268-0.544,0.244-1.189-0.11-1.717L279.221,293.62z"/>
	<path style="fill:#CFE7E8;" d="M316.849,276.771h-6.979c-0.906,0-1.654,0.733-1.654,1.654v34.178c0,0.89,0.748,1.638,1.654,1.638
		h6.979c0.914,0,1.654-0.748,1.654-1.638v-34.178C318.503,277.496,317.763,276.771,316.849,276.771z"/>
	<path style="fill:#CFE7E8;" d="M367.703,276.771h-6.53c-0.906,0-1.654,0.733-1.654,1.654v12.997l-12.02-14.076
		c-0.323-0.37-0.756-0.575-1.252-0.575h-6.105c-0.906,0-1.623,0.733-1.623,1.654v34.178c0,0.89,0.717,1.638,1.623,1.638h6.577
		c0.874,0,1.623-0.748,1.623-1.638v-19.85l18.148,21.78c0.323,0.37,0.772,0.575,1.221,0.575c0.213,0,0.386-0.031,0.583-0.102
		c0.638-0.221,1.055-0.827,1.055-1.512v-35.068C369.341,277.496,368.648,276.771,367.703,276.771z"/>
	<path style="fill:#CFE7E8;" d="M425.882,292.683c-0.134-0.788-0.835-1.371-1.623-1.371h-18.416c-0.898,0-1.599,0.733-1.599,1.646
		v6.404c0,0.882,0.701,1.623,1.599,1.623h8.121c-1.481,2.292-4.017,4.222-7.688,4.222c-5.112,0-9.129-4.183-9.129-9.57
		c0-5.419,4.017-9.641,9.129-9.641c2.985,0,5.742,1.434,7.381,3.789c0.276,0.37,0.662,0.607,1.079,0.701
		c0.457,0.079,0.882-0.039,1.245-0.299l5.742-4.222c0.354-0.252,0.583-0.638,0.646-1.063c0.087-0.441-0.047-0.866-0.291-1.229
		c-3.734-5.041-9.192-7.719-15.801-7.719c-10.902,0-19.763,8.822-19.763,19.684c0,10.799,8.862,19.606,19.763,19.606
		c10.933,0,19.834-8.806,19.834-19.606C426.118,294.621,426.023,293.667,425.882,292.683z"/>
	<path style="fill:#CFE7E8;" d="M156.144,334.139h-13.123c-1.78,0-3.206,1.434-3.206,3.214V388.6l-43.213-53.287
		c-0.646-0.748-1.56-1.174-2.521-1.174H81.187c-1.757,0-3.182,1.434-3.182,3.214v95.713c0,1.796,1.434,3.245,3.182,3.245h13.154
		c1.788,0,3.222-1.457,3.222-3.245v-63.354l56.123,67.048c0.638,0.772,1.512,1.158,2.458,1.158c0.394,0,0.748-0.032,1.103-0.173
		c1.26-0.473,2.111-1.686,2.111-3.025v-97.367C159.35,335.573,157.917,334.139,156.144,334.139z"/>
</g>
<g>
	<path style="fill:#B0D3D6;" d="M232.598,416.185h-39.463v-25.954h36.683c1.804,0,3.253-1.441,3.253-3.237v-13.139
		c0-1.772-1.457-3.182-3.253-3.182h-36.675v-16.699h38.621c1.788,0,3.222-1.441,3.222-3.237v-13.375
		c0-1.788-1.441-3.214-3.222-3.214H175.97c-1.757,0-3.214,1.434-3.214,3.214v95.713c0,1.796,1.465,3.245,3.214,3.245h56.627
		c1.757,0,3.198-1.457,3.198-3.245v-13.666C235.804,417.627,234.354,416.185,232.598,416.185z"/>
	<path style="fill:#B0D3D6;" d="M346.325,334.139h-14.604c-1.308,0-2.497,0.796-3.009,2.016l-21.756,53.5l-21.756-53.5
		c-0.512-1.221-1.694-2.016-2.962-2.016h-14.659c-1.079,0-2.08,0.528-2.694,1.402c-0.575,0.89-0.701,2.009-0.276,3.009
		l18.519,46.104l-2.111,5.081l-21.819-53.571c-0.496-1.221-1.662-2.016-2.962-2.016h-14.675c-1.063,0-2.048,0.528-2.631,1.402
		c-0.591,0.89-0.733,2.009-0.323,3.025l39.369,97.359c0.488,1.221,1.678,2.001,2.977,2.001l0,0c1.3,0,2.497-0.78,3.009-2.001
		l10.019-24.671l9.996,24.671c0.48,1.221,1.662,2.001,2.977,2.001l0,0c1.284,0,2.473-0.78,3.009-2.001l39.353-97.359
		c0.402-1.016,0.291-2.135-0.307-3.025C348.404,334.667,347.412,334.139,346.325,334.139z"/>
	<path style="fill:#B0D3D6;" d="M395.839,375.028h-14.068c-5.939,0-10.736-4.813-10.736-10.721c0-5.908,4.797-10.744,10.736-10.744
		h28.822c1.78,0,3.222-1.434,3.222-3.214v-12.989c0-1.788-1.449-3.214-3.222-3.214h-30.484c-16.392,0-29.727,13.391-29.727,29.869
		c0,16.573,13.603,30.586,29.727,30.586h13.296c6.538,0,11.524,4.671,11.524,10.878c0,6.105-4.986,10.713-11.524,10.713h-34.643
		c-1.78,0-3.19,1.441-3.19,3.214v13.666c0,1.796,1.418,3.245,3.19,3.245h37.077c16.683,0,30.279-13.911,30.279-30.996
		C426.118,388.608,412.522,375.028,395.839,375.028z"/>
</g>
<g>
	<path style="fill:#CFE7E8;" d="M259.206,336.156c-0.496-1.221-1.662-2.016-2.962-2.016h-14.675c-1.063,0-2.048,0.528-2.631,1.402
		c-0.591,0.89-0.733,2.009-0.323,3.025l11.965,29.546l15.384-15.368L259.206,336.156z"/>
	<path style="fill:#CFE7E8;" d="M282.246,334.139h-14.659c-1.079,0-2.08,0.528-2.694,1.402c-0.575,0.89-0.701,2.009-0.276,3.009
		l4.458,11.067l14.927-14.943C283.483,334.344,282.86,334.139,282.246,334.139z"/>
	<path style="fill:#CFE7E8;" d="M229.825,370.672h-36.683v-16.699h38.621c1.788,0,3.222-1.441,3.222-3.237v-13.375
		c0-1.788-1.441-3.214-3.222-3.214H175.97c-1.757,0-3.214,1.434-3.214,3.214v95.713c0,1.796,1.465,3.245,3.214,3.245h6.428
		l20.11-20.133h-9.366v-25.954h35.32l4.616-4.6v-11.776C233.078,372.082,231.621,370.672,229.825,370.672z"/>
</g>
<g>
</g>
<g>
</g>
<g>
</g>
<g>
</g>
<g>
</g>
<g>
</g>
<g>
</g>
<g>
</g>
<g>
</g>
<g>
</g>
<g>
</g>
<g>
</g>
<g>
</g>
<g>
</g>
<g>
</g>
</svg>
