<svg xmlns="http://www.w3.org/2000/svg" viewBox="0 0 504.123 504.123"><path fill="#00233f" d="M118.823 134.64h50.885v78.848h-50.885z"/><path fill="#0c537a" d="M172.142 111.269l71.523 24.75 10.508 77.469h-107.15z"/><path fill="#00233f" d="M172.142 111.269l55.517 31.697 12.501 70.522h-93.137z"/><path fill="#037193" d="M115.373 111.269l-71.514 24.75-10.516 77.469h107.15z"/><path fill="#0c537a" d="M106.441 155.735l-62.582-19.716-10.516 77.469h107.15z"/><g fill="#00233f"><path d="M115.373 111.269l-55.524 31.697-12.485 70.522h93.129zM182.091 33.138c0 18.267-13.769 33.107-30.759 33.107h-15.139c-16.998 0-30.775-14.84-30.775-33.107C105.417 14.832 119.194 0 136.192 0h15.139c16.991 0 30.76 14.832 30.76 33.138z"/></g><path fill="#f9bda0" d="M171.268 125.046h-55.02l3.678-45.591h47.671z"/><path fill="#e28f71" d="M171.268 125.046h-27.601l-27.419-45.591h51.349z"/><path d="M180.909 42.984c0 32.327-16.282 61.55-37.14 61.55-20.866 0-37.155-29.231-37.155-61.55S122.896 5.285 143.77 5.285c20.85 0 37.139 5.38 37.139 37.699z" fill="#fcccb9"/><path d="M143.77 5.285c20.85 0 37.14 5.38 37.14 37.699s-16.282 61.55-37.14 61.55" fill="#f9bda0"/><path fill="#1bcdea" d="M142.864 190.157l-32.886-44.623-11.871-31.831 16.731-7.002 28.932 18.29 28.916-18.29 16.73 7.002-11.87 31.831-32.886 44.623-.922 1.567z"/><path fill="#039dc1" d="M143.77 124.991l28.916-18.29 16.73 7.002-11.87 31.831-32.886 44.623-.922 1.567-.874-1.567"/><g fill="#33ecff"><path d="M114.838 106.701l28.049 18.865-32.902 17.266zM172.686 106.701l-28.05 18.865 32.894 17.266z"/></g><g fill="#00233f"><path d="M106.827 38.085c-1.985-.859-1.583-6.727.158-10.689 1.741-3.954 4.758-6.459 6.727-5.593 1.985.859 3.623 5.821.417 8.743M180.681 37.99c1.985-.859 1.615-6.719-.126-10.681-1.741-3.954-4.742-6.451-6.727-5.585-1.969.866-3.631 5.845-.441 8.751M123.195 85.528c-.095-.102-.142-.165-.142-.165s.032.094.142.165zM164.328 85.528c.095-.102.142-.165.142-.165s-.039.094-.142.165zM146.826 130.064l8.129 68.434-11.705 12.493-11.682-12.493 8.137-68.434z"/></g><path fill="#0c537a" d="M145.597 127.086l7.373 11.438-9.72 7.049-9.713-7.049 7.381-11.438z"/><g fill="#00233f"><path d="M140.918 127.086h4.679l7.373 11.438-9.72 7.049M165.581 14.068s-14.588 24.623-52.886 16.408l-4.781-3.647s2.962-30.767 43.985-23.93l16.195 4.781-2.513 6.388z"/><path d="M148.708 18.18s15.518 18.684 31.925 14.58c0 0-1.142-14.36-3.639-16.872-2.513-2.505-10.272-10.027-10.272-10.027l-3.868.465-14.146 11.854z"/></g><path fill="#f9bda0" d="M299.662 172.316h165.022v41.047H299.662z"/><path d="M341.441 63.85l32.524-6.664 1.961 45.08-12.154 14.115 1.835 15.604s-14.454 8.68-19.07-.268c-4.624-8.964-6.632-63.283-7.223-64.449-.575-1.149 2.127-3.418 2.127-3.418z" fill="#542f08"/><path d="M339.314 67.277c-.575-1.158 2.127-3.426 2.127-3.426l32.524-6.664 1.961 45.08-12.154 14.115 1.835 15.604" fill="#3d1f03"/><path d="M423.723 63.85l-32.532-6.664-1.969 45.08 12.162 14.115-1.843 15.604s14.454 8.68 19.078-.268c4.616-8.964 6.632-63.283 7.207-64.449.568-1.149-2.103-3.418-2.103-3.418z" fill="#542f08"/><path d="M425.826 67.277c.567-1.158-2.103-3.426-2.103-3.426l-32.532-6.664-1.969 45.08 12.162 14.115-1.843 15.604" fill="#3d1f03"/><path fill="#f9bda0" d="M362.181 89.6h40.771v86.646h-40.771z"/><path fill="#eaa78c" d="M402.952 131.426V89.6h-40.771l20.724 58.975z"/><path d="M415.059 54.264c0 31.311-15.888 59.636-32.477 59.636-16.605 0-32.508-28.333-32.508-59.636s15.904-36.533 32.508-36.533c16.597 0 32.477 5.222 32.477 36.533z" fill="#fcccb9"/><g fill="#f9bda0"><path d="M382.582 17.731c16.589 0 32.477 5.222 32.477 36.533S399.171 113.9 382.582 113.9M363.378 134.089l-67.702 20.842 3.482 58.431 81.896-20.74z"/></g><path fill="#fcccb9" d="M295.676 154.931l3.482 58.431 81.896-20.74"/><path fill="#f9bda0" d="M401.762 134.089l67.679 20.842-3.458 58.431-81.92-20.74z"/><path fill="#eaa78c" d="M469.441 154.931l-3.458 58.431-81.92-20.74"/><path d="M375.217 11.681s10.075 49.892 50.846 54.949c0 0 1.331-30.641-9.972-43.985-11.304-13.342-28.791-11.72-28.791-11.72l-12.083.756z" fill="#663d0c"/><path d="M397.903 11.713s8.239 39.093-58.801 57.242c0 0-5.096-32.933 8.239-47.041 13.32-14.115 37.234-11.768 37.234-11.768l13.328 1.567z" fill="#894d0c"/><path d="M384.567 10.145l13.328 1.568s8.239 39.093-58.801 57.242" fill="#663d0c"/><path fill="#22c6e0" d="M299.662 172.316h165.022v41.047H299.662z"/><path fill="#039dc1" d="M299.662 177.089h165.022v36.265H299.662z"/><path fill="#037193" d="M379.967 213.488L359.07 134.9l-63.622 20.031 1.843 58.557z"/><path fill="#0c537a" d="M379.967 213.488L359.07 134.9l-63.622 20.031 8.775 58.557z"/><g fill="#00233f"><path d="M379.967 213.488L359.07 134.9l-63.622 20.031 22.638 58.557zM385.158 213.488l20.905-78.588 63.622 20.031-1.827 58.557z"/></g><path fill="#177add" d="M19.354 239.781h465.447v264.342H19.354z"/><path fill="#085bbf" d="M19.354 239.781h465.423v264.342"/><path fill="#177add" d="M12.075 207.935h479.972v42.441H12.075z"/><path fill="#56a6e8" d="M12.075 207.935h479.972v18.637H12.075z"/><g fill="#cfe7e8"><path d="M104.464 294.195c1.772-2.024 2.647-4.198 2.647-6.624 0-6.057-4.766-10.799-10.862-10.799H79.651c-.906 0-1.646.733-1.646 1.654v34.178c0 .89.74 1.638 1.646 1.638h16.817c6.396 0 11.808-5.372 11.808-11.737-.008-3.269-1.418-6.301-3.812-8.31zm-16.219 5.207h6.672c1.331 0 2.458 1.134 2.458 2.497 0 1.418-1.063 2.505-2.458 2.505h-6.672v-5.002zm6.404-9.539h-6.396v-3.411h6.396c.937 0 1.788.756 1.788 1.701-.008.93-.851 1.71-1.788 1.71zM142.431 276.771H127.37c-.906 0-1.607.733-1.607 1.654v34.178c0 .89.701 1.638 1.607 1.638h6.995c.898 0 1.646-.748 1.646-1.638v-8.397h2.938c4.198 0 6.128 4.057 6.128 6.806v1.591c0 .89.756 1.638 1.654 1.638h6.987c.914 0 1.662-.748 1.662-1.638v-1.953c0-3.458-1.205-7.696-4.38-10.327 2.702-2.788 4.38-6.743 4.38-10.563 0-7.16-5.829-12.989-12.949-12.989zm-6.42 9.681h4.608c2.206 0 4.049 1.827 4.049 4.017a4.043 4.043 0 0 1-4.049 4.049h-4.608v-8.066zM195.261 304.412h-11.91v-4.852h10.917c.898 0 1.607-.748 1.607-1.646v-6.412c0-.89-.709-1.638-1.607-1.638h-10.917v-3.269h11.603c.922 0 1.67-.748 1.67-1.646v-6.522c0-.922-.748-1.654-1.67-1.654h-20.22c-.866 0-1.615.733-1.615 1.654v34.178c0 .89.748 1.638 1.615 1.638h20.527c.906 0 1.646-.748 1.646-1.638v-6.546a1.65 1.65 0 0 0-1.646-1.647zM229.793 276.858a1.652 1.652 0 0 0-1.497-.969c-.63 0-1.237.394-1.473.969l-15.518 35.084c-.228.48-.165 1.095.11 1.544.331.473.835.748 1.386.748h7.357c.662 0 1.245-.394 1.505-1l2.111-5.049h9.121l2.032 5.049c.26.575.874 1 1.552 1H243.836c.882 0 1.631-.748 1.631-1.638 0-.331-.095-.654-.276-.937l-15.398-34.801zm-1.504 19.464l1.024 2.426h-2.056l1.032-2.426zM279.221 293.62l10.508-14.257c.354-.496.41-1.158.126-1.725a1.634 1.634 0 0 0-1.441-.874h-7.877c-.504 0-1.04.252-1.315.717l-7.381 10.437v-9.5c0-.922-.725-1.654-1.623-1.654h-6.995c-.874 0-1.623.733-1.623 1.654v34.178c0 .89.748 1.638 1.623 1.638h6.995c.898 0 1.623-.748 1.623-1.638v-9.129l1.008-1.308 7.822 11.374c.284.441.796.701 1.323.701h8.83c.567 0 1.166-.347 1.426-.874a1.703 1.703 0 0 0-.11-1.717l-12.919-18.023zM316.849 276.771h-6.979c-.906 0-1.654.733-1.654 1.654v34.178c0 .89.748 1.638 1.654 1.638h6.979c.914 0 1.654-.748 1.654-1.638v-34.178c0-.929-.74-1.654-1.654-1.654zM367.703 276.771h-6.53c-.906 0-1.654.733-1.654 1.654v12.997l-12.02-14.076a1.626 1.626 0 0 0-1.252-.575h-6.105c-.906 0-1.623.733-1.623 1.654v34.178c0 .89.717 1.638 1.623 1.638h6.577c.874 0 1.623-.748 1.623-1.638v-19.85l18.148 21.78c.323.37.772.575 1.221.575.213 0 .386-.031.583-.102a1.584 1.584 0 0 0 1.055-1.512v-35.068c-.008-.93-.701-1.655-1.646-1.655zM425.882 292.683a1.661 1.661 0 0 0-1.623-1.371h-18.416c-.898 0-1.599.733-1.599 1.646v6.404c0 .882.701 1.623 1.599 1.623h8.121c-1.481 2.292-4.017 4.222-7.688 4.222-5.112 0-9.129-4.183-9.129-9.57 0-5.419 4.017-9.641 9.129-9.641 2.985 0 5.742 1.434 7.381 3.789.276.37.662.607 1.079.701a1.62 1.62 0 0 0 1.245-.299l5.742-4.222c.354-.252.583-.638.646-1.063.087-.441-.047-.866-.291-1.229-3.734-5.041-9.192-7.719-15.801-7.719-10.902 0-19.763 8.822-19.763 19.684 0 10.799 8.862 19.606 19.763 19.606 10.933 0 19.834-8.806 19.834-19.606.007-1.017-.088-1.971-.229-2.955zM156.144 334.139h-13.123a3.2 3.2 0 0 0-3.206 3.214V388.6l-43.213-53.287a3.33 3.33 0 0 0-2.521-1.174H81.187c-1.757 0-3.182 1.434-3.182 3.214v95.713c0 1.796 1.434 3.245 3.182 3.245h13.154c1.788 0 3.222-1.457 3.222-3.245v-63.354l56.123 67.048a3.121 3.121 0 0 0 2.458 1.158c.394 0 .748-.032 1.103-.173a3.253 3.253 0 0 0 2.111-3.025v-97.367a3.217 3.217 0 0 0-3.214-3.214z"/></g><g fill="#b0d3d6"><path d="M232.598 416.185h-39.463v-25.954h36.683a3.235 3.235 0 0 0 3.253-3.237v-13.139c0-1.772-1.457-3.182-3.253-3.182h-36.675v-16.699h38.621a3.219 3.219 0 0 0 3.222-3.237v-13.375a3.209 3.209 0 0 0-3.222-3.214H175.97a3.222 3.222 0 0 0-3.214 3.214v95.713c0 1.796 1.465 3.245 3.214 3.245h56.627c1.757 0 3.198-1.457 3.198-3.245v-13.666a3.21 3.21 0 0 0-3.197-3.224zM346.325 334.139h-14.604a3.275 3.275 0 0 0-3.009 2.016l-21.756 53.5-21.756-53.5c-.512-1.221-1.694-2.016-2.962-2.016h-14.659c-1.079 0-2.08.528-2.694 1.402a3.214 3.214 0 0 0-.276 3.009l18.519 46.104-2.111 5.081-21.819-53.571a3.201 3.201 0 0 0-2.962-2.016h-14.675a3.158 3.158 0 0 0-2.631 1.402 3.247 3.247 0 0 0-.323 3.025l39.369 97.359a3.2 3.2 0 0 0 2.977 2.001c1.3 0 2.497-.78 3.009-2.001l10.019-24.671 9.996 24.671c.48 1.221 1.662 2.001 2.977 2.001 1.284 0 2.473-.78 3.009-2.001l39.353-97.359a3.247 3.247 0 0 0-.307-3.025 3.236 3.236 0 0 0-2.684-1.411zM395.839 375.028h-14.068c-5.939 0-10.736-4.813-10.736-10.721s4.797-10.744 10.736-10.744h28.822a3.214 3.214 0 0 0 3.222-3.214V337.36a3.214 3.214 0 0 0-3.222-3.214h-30.484c-16.392 0-29.727 13.391-29.727 29.869 0 16.573 13.603 30.586 29.727 30.586h13.296c6.538 0 11.524 4.671 11.524 10.878 0 6.105-4.986 10.713-11.524 10.713h-34.643a3.192 3.192 0 0 0-3.19 3.214v13.666c0 1.796 1.418 3.245 3.19 3.245h37.077c16.683 0 30.279-13.911 30.279-30.996 0-16.713-13.596-30.293-30.279-30.293z"/></g><g fill="#cfe7e8"><path d="M259.206 336.156a3.201 3.201 0 0 0-2.962-2.016h-14.675a3.158 3.158 0 0 0-2.631 1.402 3.247 3.247 0 0 0-.323 3.025l11.965 29.546 15.384-15.368-6.758-16.589zM282.246 334.139h-14.659c-1.079 0-2.08.528-2.694 1.402a3.214 3.214 0 0 0-.276 3.009l4.458 11.067 14.927-14.943c-.519-.33-1.142-.535-1.756-.535zM229.825 370.672h-36.683v-16.699h38.621a3.219 3.219 0 0 0 3.222-3.237v-13.375a3.209 3.209 0 0 0-3.222-3.214H175.97a3.222 3.222 0 0 0-3.214 3.214v95.713c0 1.796 1.465 3.245 3.214 3.245h6.428l20.11-20.133h-9.366v-25.954h35.32l4.616-4.6v-11.776c0-1.774-1.457-3.184-3.253-3.184z"/></g></svg>