<?xml version="1.0" standalone="no"?><!DOCTYPE svg PUBLIC "-//W3C//DTD SVG 1.1//EN" "http://www.w3.org/Graphics/SVG/1.1/DTD/svg11.dtd"><svg t="1517199082708" class="icon" style="" viewBox="0 0 1024 1024" version="1.1" xmlns="http://www.w3.org/2000/svg" p-id="8820" xmlns:xlink="http://www.w3.org/1999/xlink" width="200" height="200"><defs><style type="text/css"></style></defs><path d="M1009.958875 203.133087 931.303034 284.122856 778.815127 135.781082 859.03126 58.428194C859.03126 58.428194 895.424755 40.220193 931.133013 55.622437 968.476403 71.72673 1009.917387 121.03723 1020.226857 156.683933 1023.385402 167.59485 1009.958875 203.133087 1009.958875 203.133087ZM474.788125 733.349629 318.074635 580.715564 748.274756 161.312741 896.087485 313.941112 474.788125 733.349629ZM433.758229 761.239622 197.931169 853.166611 300.2704 621.865858 433.758229 761.239622ZM104.325931 207.255627C79.273965 207.255627 58.964426 227.558659 58.964426 252.598965L58.964426 930.349749C58.964426 955.392767 79.273965 975.692815 104.325931 975.692815L812.937876 975.692815C837.989842 975.692815 858.297755 955.392767 858.297755 930.349749L858.297755 448.551298 912.006029 393.171012 912.006029 978.653951C912.006029 1003.696969 891.698117 1024 866.646151 1024L52.145408 1024C27.093441 1024 3.673625 1003.696969 3.673625 978.653951L3.673625 196.982765C3.673625 171.94273 27.093441 151.639698 52.145408 151.639698L672.929312 151.639698 628.337105 207.255627 104.325931 207.255627Z" p-id="8821"></path></svg>