<svg xmlns="http://www.w3.org/2000/svg" viewBox="0 0 512 512"><path d="M406.069 512H105.931c-19.501 0-35.31-15.809-35.31-35.31V70.621c0-19.501 15.809-35.31 35.31-35.31h300.138c19.501 0 35.31 15.809 35.31 35.31V476.69c0 19.501-15.809 35.31-35.31 35.31z" fill="#e1c3a0"/><path d="M406.069 61.793H105.931a8.829 8.829 0 0 0-8.828 8.828V476.69a8.829 8.829 0 0 0 8.828 8.828h238.345l70.621-70.621V70.621a8.829 8.829 0 0 0-8.828-8.828z" fill="#eff2fa"/><path d="M308.966 35.31h-26.483v-8.828C282.483 11.857 270.626 0 256 0s-26.483 11.857-26.483 26.483v8.828h-26.483c-9.75 0-17.655 7.904-17.655 17.655v17.655H326.62V52.966c.001-9.752-7.904-17.656-17.654-17.656zm-52.966 0a8.829 8.829 0 1 1 .001-17.657A8.829 8.829 0 0 1 256 35.31z" fill="#c7cfe2"/><path d="M326.621 79.448H185.379a8.829 8.829 0 0 1 0-17.656H326.62a8.829 8.829 0 0 1 8.828 8.828 8.827 8.827 0 0 1-8.827 8.828z" fill="#afb9d2"/><path d="M194.207 353.103h-52.966a8.829 8.829 0 0 1 0-17.656h52.966a8.829 8.829 0 0 1 0 17.656z" fill="#c7cfe2"/><g fill="#d7deed"><path d="M370.759 353.103H229.517a8.829 8.829 0 0 1 0-17.656h141.241a8.829 8.829 0 0 1 8.828 8.828 8.827 8.827 0 0 1-8.827 8.828zM282.483 406.069h-52.966a8.829 8.829 0 0 1 0-17.656h52.966a8.829 8.829 0 0 1 8.828 8.828 8.83 8.83 0 0 1-8.828 8.828zM300.138 441.379h-70.621a8.829 8.829 0 0 1 0-17.656h70.621a8.828 8.828 0 0 1 0 17.656z"/></g><g fill="#c7cfe2"><path d="M194.207 211.862h-52.966a8.829 8.829 0 0 1 0-17.656h52.966a8.829 8.829 0 0 1 0 17.656zM300.138 247.172h-26.483a8.829 8.829 0 0 1 0-17.656h26.483a8.828 8.828 0 0 1 0 17.656z"/></g><g fill="#d7deed"><path d="M370.759 247.172h-35.31a8.829 8.829 0 0 1 0-17.656h35.31a8.829 8.829 0 0 1 0 17.656zM370.759 211.862H229.517a8.829 8.829 0 0 1 0-17.656h141.241a8.829 8.829 0 0 1 8.828 8.828 8.827 8.827 0 0 1-8.827 8.828z"/></g><path d="M370.759 158.897h-70.621a8.829 8.829 0 0 1 0-17.656h70.621a8.829 8.829 0 0 1 8.828 8.828 8.83 8.83 0 0 1-8.828 8.828z" fill="#c7cfe2"/><path d="M264.828 158.897h-17.655a8.829 8.829 0 0 1 0-17.656h17.655a8.829 8.829 0 0 1 8.828 8.828 8.83 8.83 0 0 1-8.828 8.828z" fill="#d7deed"/><g fill="#c7cfe2"><path d="M370.759 123.586h-52.966a8.829 8.829 0 0 1 0-17.656h52.966a8.829 8.829 0 0 1 0 17.656zM229.517 282.483h-88.276a8.829 8.829 0 0 1 0-17.656h88.276a8.829 8.829 0 0 1 0 17.656z"/></g><g fill="#d7deed"><path d="M370.759 282.483H264.828a8.829 8.829 0 0 1 0-17.656h105.931a8.829 8.829 0 0 1 8.828 8.828 8.83 8.83 0 0 1-8.828 8.828zM238.345 247.172h-97.103a8.829 8.829 0 0 1 0-17.656h97.103a8.829 8.829 0 0 1 0 17.656z"/></g><path d="M282.483 317.793h-70.621a8.829 8.829 0 0 1 0-17.656h70.621a8.829 8.829 0 0 1 0 17.656z" fill="#c7cfe2"/><g fill="#d7deed"><path d="M370.759 317.793h-52.966a8.829 8.829 0 0 1 0-17.656h52.966a8.829 8.829 0 0 1 0 17.656zM176.552 317.793h-35.31a8.829 8.829 0 0 1 0-17.656h35.31a8.829 8.829 0 0 1 0 17.656z"/></g><path d="M167.724 450.207c-19.47 0-35.31-15.84-35.31-35.31s15.84-35.31 35.31-35.31 35.31 15.84 35.31 35.31-15.841 35.31-35.31 35.31zm0-52.966c-9.737 0-17.655 7.918-17.655 17.655 0 9.737 7.918 17.655 17.655 17.655s17.655-7.918 17.655-17.655c0-9.736-7.918-17.655-17.655-17.655z" fill="#b4e1fa"/><path d="M344.276 485.517v-61.793a8.829 8.829 0 0 1 8.828-8.828h61.793l-70.621 70.621z" fill="#d7deed"/></svg>