<?xml version="1.0" encoding="iso-8859-1"?>
<!-- Generator: Adobe Illustrator 19.0.0, SVG Export Plug-In . SVG Version: 6.00 Build 0)  -->
<svg version="1.1" id="Layer_1" xmlns="http://www.w3.org/2000/svg" xmlns:xlink="http://www.w3.org/1999/xlink" x="0px" y="0px"
	 viewBox="0 0 512 512" style="enable-background:new 0 0 512 512;" xml:space="preserve">
<path style="fill:#E1C3A0;" d="M406.069,512H105.931c-19.501,0-35.31-15.809-35.31-35.31V70.621c0-19.501,15.809-35.31,35.31-35.31
	h300.138c19.501,0,35.31,15.809,35.31,35.31V476.69C441.379,496.191,425.57,512,406.069,512z"/>
<path style="fill:#EFF2FA;" d="M406.069,61.793H105.931c-4.875,0-8.828,3.953-8.828,8.828V476.69c0,4.875,3.953,8.828,8.828,8.828
	h238.345l70.621-70.621V70.621C414.897,65.746,410.944,61.793,406.069,61.793z"/>
<path style="fill:#C7CFE2;" d="M308.966,35.31h-26.483v-8.828C282.483,11.857,270.626,0,256,0s-26.483,11.857-26.483,26.483v8.828
	h-26.483c-9.75,0-17.655,7.904-17.655,17.655v17.655h141.241V52.966C326.621,43.214,318.716,35.31,308.966,35.31z M256,35.31
	c-4.875,0-8.828-3.953-8.828-8.828s3.953-8.828,8.828-8.828s8.828,3.953,8.828,8.828S260.875,35.31,256,35.31z"/>
<path style="fill:#AFB9D2;" d="M326.621,79.448H185.379c-4.875,0-8.828-3.953-8.828-8.828l0,0c0-4.875,3.953-8.828,8.828-8.828
	h141.241c4.875,0,8.828,3.953,8.828,8.828l0,0C335.448,75.496,331.496,79.448,326.621,79.448z"/>
<path style="fill:#C7CFE2;" d="M194.207,353.103h-52.966c-4.875,0-8.828-3.953-8.828-8.828l0,0c0-4.875,3.953-8.828,8.828-8.828
	h52.966c4.875,0,8.828,3.953,8.828,8.828l0,0C203.034,349.151,199.082,353.103,194.207,353.103z"/>
<g>
	<path style="fill:#D7DEED;" d="M370.759,353.103H229.517c-4.875,0-8.828-3.953-8.828-8.828l0,0c0-4.875,3.953-8.828,8.828-8.828
		h141.241c4.875,0,8.828,3.953,8.828,8.828l0,0C379.586,349.151,375.634,353.103,370.759,353.103z"/>
	<path style="fill:#D7DEED;" d="M282.483,406.069h-52.966c-4.875,0-8.828-3.953-8.828-8.828l0,0c0-4.875,3.953-8.828,8.828-8.828
		h52.966c4.875,0,8.828,3.953,8.828,8.828l0,0C291.31,402.116,287.358,406.069,282.483,406.069z"/>
	<path style="fill:#D7DEED;" d="M300.138,441.379h-70.621c-4.875,0-8.828-3.953-8.828-8.828l0,0c0-4.875,3.953-8.828,8.828-8.828
		h70.621c4.875,0,8.828,3.953,8.828,8.828l0,0C308.966,437.427,305.013,441.379,300.138,441.379z"/>
</g>
<g>
	<path style="fill:#C7CFE2;" d="M194.207,211.862h-52.966c-4.875,0-8.828-3.953-8.828-8.828l0,0c0-4.875,3.953-8.828,8.828-8.828
		h52.966c4.875,0,8.828,3.953,8.828,8.828l0,0C203.034,207.91,199.082,211.862,194.207,211.862z"/>
	<path style="fill:#C7CFE2;" d="M300.138,247.172h-26.483c-4.875,0-8.828-3.953-8.828-8.828l0,0c0-4.875,3.953-8.828,8.828-8.828
		h26.483c4.875,0,8.828,3.953,8.828,8.828l0,0C308.966,243.22,305.013,247.172,300.138,247.172z"/>
</g>
<g>
	<path style="fill:#D7DEED;" d="M370.759,247.172h-35.31c-4.875,0-8.828-3.953-8.828-8.828l0,0c0-4.875,3.953-8.828,8.828-8.828
		h35.31c4.875,0,8.828,3.953,8.828,8.828l0,0C379.586,243.22,375.634,247.172,370.759,247.172z"/>
	<path style="fill:#D7DEED;" d="M370.759,211.862H229.517c-4.875,0-8.828-3.953-8.828-8.828l0,0c0-4.875,3.953-8.828,8.828-8.828
		h141.241c4.875,0,8.828,3.953,8.828,8.828l0,0C379.586,207.91,375.634,211.862,370.759,211.862z"/>
</g>
<path style="fill:#C7CFE2;" d="M370.759,158.897h-70.621c-4.875,0-8.828-3.953-8.828-8.828l0,0c0-4.875,3.953-8.828,8.828-8.828
	h70.621c4.875,0,8.828,3.953,8.828,8.828l0,0C379.586,154.944,375.634,158.897,370.759,158.897z"/>
<path style="fill:#D7DEED;" d="M264.828,158.897h-17.655c-4.875,0-8.828-3.953-8.828-8.828l0,0c0-4.875,3.953-8.828,8.828-8.828
	h17.655c4.875,0,8.828,3.953,8.828,8.828l0,0C273.655,154.944,269.703,158.897,264.828,158.897z"/>
<g>
	<path style="fill:#C7CFE2;" d="M370.759,123.586h-52.966c-4.875,0-8.828-3.953-8.828-8.828l0,0c0-4.875,3.953-8.828,8.828-8.828
		h52.966c4.875,0,8.828,3.953,8.828,8.828l0,0C379.586,119.634,375.634,123.586,370.759,123.586z"/>
	<path style="fill:#C7CFE2;" d="M229.517,282.483h-88.276c-4.875,0-8.828-3.953-8.828-8.828l0,0c0-4.875,3.953-8.828,8.828-8.828
		h88.276c4.875,0,8.828,3.953,8.828,8.828l0,0C238.345,278.53,234.392,282.483,229.517,282.483z"/>
</g>
<g>
	<path style="fill:#D7DEED;" d="M370.759,282.483H264.828c-4.875,0-8.828-3.953-8.828-8.828l0,0c0-4.875,3.953-8.828,8.828-8.828
		h105.931c4.875,0,8.828,3.953,8.828,8.828l0,0C379.586,278.53,375.634,282.483,370.759,282.483z"/>
	<path style="fill:#D7DEED;" d="M238.345,247.172h-97.103c-4.875,0-8.828-3.953-8.828-8.828l0,0c0-4.875,3.953-8.828,8.828-8.828
		h97.103c4.875,0,8.828,3.953,8.828,8.828l0,0C247.172,243.22,243.22,247.172,238.345,247.172z"/>
</g>
<path style="fill:#C7CFE2;" d="M282.483,317.793h-70.621c-4.875,0-8.828-3.953-8.828-8.828l0,0c0-4.875,3.953-8.828,8.828-8.828
	h70.621c4.875,0,8.828,3.953,8.828,8.828l0,0C291.31,313.841,287.358,317.793,282.483,317.793z"/>
<g>
	<path style="fill:#D7DEED;" d="M370.759,317.793h-52.966c-4.875,0-8.828-3.953-8.828-8.828l0,0c0-4.875,3.953-8.828,8.828-8.828
		h52.966c4.875,0,8.828,3.953,8.828,8.828l0,0C379.586,313.841,375.634,317.793,370.759,317.793z"/>
	<path style="fill:#D7DEED;" d="M176.552,317.793h-35.31c-4.875,0-8.828-3.953-8.828-8.828l0,0c0-4.875,3.953-8.828,8.828-8.828
		h35.31c4.875,0,8.828,3.953,8.828,8.828l0,0C185.379,313.841,181.427,317.793,176.552,317.793z"/>
</g>
<path style="fill:#B4E1FA;" d="M167.724,450.207c-19.47,0-35.31-15.84-35.31-35.31s15.84-35.31,35.31-35.31s35.31,15.84,35.31,35.31
	S187.193,450.207,167.724,450.207z M167.724,397.241c-9.737,0-17.655,7.918-17.655,17.655c0,9.737,7.918,17.655,17.655,17.655
	s17.655-7.918,17.655-17.655C185.379,405.16,177.461,397.241,167.724,397.241z"/>
<path style="fill:#D7DEED;" d="M344.276,485.517v-61.793c0-4.875,3.953-8.828,8.828-8.828h61.793L344.276,485.517z"/>
<g>
</g>
<g>
</g>
<g>
</g>
<g>
</g>
<g>
</g>
<g>
</g>
<g>
</g>
<g>
</g>
<g>
</g>
<g>
</g>
<g>
</g>
<g>
</g>
<g>
</g>
<g>
</g>
<g>
</g>
</svg>
