<svg xmlns="http://www.w3.org/2000/svg" viewBox="0 0 512 512"><path d="M61.793 17.655v476.69c0 9.754 7.901 17.655 17.655 17.655h353.103c9.754 0 17.655-7.901 17.655-17.655V17.655C450.207 7.901 442.306 0 432.552 0H79.448c-9.754 0-17.655 7.901-17.655 17.655" fill="#ece8d8"/><g fill="#c9b693"><path d="M353.121 46h-.009c-9.746 0-17.664 7.91-17.664 17.646s7.918 17.655 17.655 17.655c9.737 0 17.655-7.918 17.655-17.655 0-4.714-1.836-9.145-5.173-12.482A17.52 17.52 0 0 0 353.121 46m-.018 52.956c-19.474 0-35.31-15.837-35.31-35.31 0-19.465 15.837-35.302 35.31-35.302h.018c9.419 0 18.282 3.672 24.947 10.337 6.674 6.674 10.346 15.537 10.346 24.964 0 19.475-15.837 35.311-35.311 35.311"/><path d="M397.241 185.379a8.826 8.826 0 0 1-8.828-8.828v-42.275c0-19.474-15.837-35.31-35.31-35.31s-35.31 15.837-35.31 35.31v42.275c0 4.882-3.955 8.828-8.828 8.828s-8.828-3.946-8.828-8.828v-42.275c0-29.21 23.755-52.966 52.966-52.966 29.21 0 52.966 23.755 52.966 52.966v42.275a8.826 8.826 0 0 1-8.828 8.828M397.241 238.345H114.759c-4.873 0-8.828-3.946-8.828-8.828s3.955-8.828 8.828-8.828h282.483c4.873 0 8.828 3.946 8.828 8.828s-3.956 8.828-8.829 8.828M397.241 361.931H114.759a8.826 8.826 0 0 1-8.828-8.828 8.826 8.826 0 0 1 8.828-8.828h282.483a8.826 8.826 0 0 1 8.828 8.828 8.827 8.827 0 0 1-8.829 8.828M308.966 282.483h-44.138c-4.873 0-8.828-3.946-8.828-8.828s3.955-8.828 8.828-8.828h44.138c4.873 0 8.828 3.946 8.828 8.828s-3.956 8.828-8.828 8.828M353.103 282.483h-8.828c-4.873 0-8.828-3.946-8.828-8.828s3.955-8.828 8.828-8.828h8.828c4.873 0 8.828 3.946 8.828 8.828s-3.955 8.828-8.828 8.828M388.414 282.483c-1.148 0-2.295-.265-3.354-.706a10.182 10.182 0 0 1-2.913-1.854 10.35 10.35 0 0 1-1.854-2.913c-.441-1.059-.706-2.207-.706-3.354s.265-2.295.706-3.354c.441-1.148 1.059-2.03 1.854-2.913 3.266-3.266 9.181-3.266 12.535 0a10.225 10.225 0 0 1 1.854 2.913c.53 1.059.706 2.207.706 3.354s-.177 2.295-.706 3.354a10.292 10.292 0 0 1-1.854 2.913c-1.678 1.668-3.885 2.56-6.268 2.56M264.828 441.379c-1.148 0-2.295-.265-3.354-.706a10.182 10.182 0 0 1-2.913-1.854 10.35 10.35 0 0 1-1.854-2.913c-.441-1.059-.706-2.207-.706-3.354 0-2.295.971-4.599 2.56-6.268 2.472-2.472 6.356-3.266 9.622-1.854a10.182 10.182 0 0 1 2.913 1.854c1.589 1.668 2.56 3.972 2.56 6.268 0 1.148-.265 2.295-.706 3.354a10.292 10.292 0 0 1-1.854 2.913c-1.678 1.669-3.885 2.56-6.268 2.56M291.31 317.793h-26.483a8.826 8.826 0 0 1-8.828-8.828 8.826 8.826 0 0 1 8.828-8.828h26.483a8.826 8.826 0 0 1 8.828 8.828 8.826 8.826 0 0 1-8.828 8.828M388.414 317.793h-61.793a8.826 8.826 0 0 1-8.828-8.828 8.826 8.826 0 0 1 8.828-8.828h61.793a8.826 8.826 0 0 1 8.828 8.828 8.826 8.826 0 0 1-8.828 8.828M158.897 282.483h-44.138c-4.873 0-8.828-3.946-8.828-8.828s3.955-8.828 8.828-8.828h44.138c4.873 0 8.828 3.946 8.828 8.828s-3.956 8.828-8.828 8.828M203.034 282.483h-8.828c-4.873 0-8.828-3.946-8.828-8.828s3.955-8.828 8.828-8.828h8.828c4.873 0 8.828 3.946 8.828 8.828s-3.955 8.828-8.828 8.828M291.31 406.069h-26.483a8.826 8.826 0 0 1-8.828-8.828 8.826 8.826 0 0 1 8.828-8.828h26.483a8.826 8.826 0 0 1 8.828 8.828 8.826 8.826 0 0 1-8.828 8.828M388.414 406.069h-61.793a8.826 8.826 0 0 1-8.828-8.828 8.826 8.826 0 0 1 8.828-8.828h61.793a8.826 8.826 0 0 1 8.828 8.828 8.826 8.826 0 0 1-8.828 8.828M326.621 441.379h-26.483a8.826 8.826 0 0 1-8.828-8.828 8.826 8.826 0 0 1 8.828-8.828h26.483a8.826 8.826 0 0 1 8.828 8.828 8.826 8.826 0 0 1-8.828 8.828M388.414 441.379h-26.483a8.826 8.826 0 0 1-8.828-8.828 8.826 8.826 0 0 1 8.828-8.828h26.483a8.826 8.826 0 0 1 8.828 8.828 8.826 8.826 0 0 1-8.828 8.828M158.897 406.069h-44.138a8.826 8.826 0 0 1-8.828-8.828 8.826 8.826 0 0 1 8.828-8.828h44.138a8.826 8.826 0 0 1 8.828 8.828 8.827 8.827 0 0 1-8.828 8.828M203.034 406.069h-8.828a8.826 8.826 0 0 1-8.828-8.828 8.826 8.826 0 0 1 8.828-8.828h8.828a8.826 8.826 0 0 1 8.828 8.828 8.826 8.826 0 0 1-8.828 8.828M176.552 79.448h-61.793a8.826 8.826 0 0 1-8.828-8.828 8.826 8.826 0 0 1 8.828-8.828h61.793a8.826 8.826 0 0 1 8.828 8.828 8.826 8.826 0 0 1-8.828 8.828M176.552 150.069h-61.793c-4.873 0-8.828-3.946-8.828-8.828s3.955-8.828 8.828-8.828h61.793c4.873 0 8.828 3.946 8.828 8.828s-3.955 8.828-8.828 8.828M220.69 79.448h-8.828a8.826 8.826 0 0 1-8.828-8.828 8.826 8.826 0 0 1 8.828-8.828h8.828a8.826 8.826 0 0 1 8.828 8.828 8.827 8.827 0 0 1-8.828 8.828M256 79.448c-1.148 0-2.295-.265-3.354-.706a10.182 10.182 0 0 1-2.913-1.854c-1.677-1.677-2.56-3.884-2.56-6.268 0-2.295.971-4.599 2.56-6.268 3.354-3.266 9.181-3.266 12.535 0 .794.883 1.412 1.854 1.854 2.913s.706 2.207.706 3.354c0 2.383-.883 4.59-2.56 6.268-1.678 1.67-3.885 2.561-6.268 2.561M256 114.759h-44.138a8.826 8.826 0 0 1-8.828-8.828 8.826 8.826 0 0 1 8.828-8.828H256a8.826 8.826 0 0 1 8.828 8.828 8.826 8.826 0 0 1-8.828 8.828M220.69 150.069h-8.828c-4.873 0-8.828-3.946-8.828-8.828s3.955-8.828 8.828-8.828h8.828c4.873 0 8.828 3.946 8.828 8.828s-3.956 8.828-8.828 8.828M256 150.069c-2.383 0-4.59-.892-6.268-2.648-1.677-1.589-2.56-3.796-2.56-6.179 0-1.148.265-2.295.706-3.354a10.182 10.182 0 0 1 1.854-2.913c3.354-3.266 9.181-3.266 12.535 0a10.225 10.225 0 0 1 1.854 2.913c.441 1.059.706 2.207.706 3.354 0 2.383-.883 4.59-2.56 6.179-1.677 1.756-3.884 2.648-6.267 2.648M256 185.379h-44.138c-4.873 0-8.828-3.946-8.828-8.828s3.955-8.828 8.828-8.828H256c4.873 0 8.828 3.946 8.828 8.828s-3.955 8.828-8.828 8.828"/></g></svg>