<?xml version="1.0" encoding="iso-8859-1"?>
<!-- Generator: Adobe Illustrator 19.0.0, SVG Export Plug-In . SVG Version: 6.00 Build 0)  -->
<svg version="1.1" id="Layer_1" xmlns="http://www.w3.org/2000/svg" xmlns:xlink="http://www.w3.org/1999/xlink" x="0px" y="0px"
	 viewBox="0 0 512 512" style="enable-background:new 0 0 512 512;" xml:space="preserve">
<g>
	<path style="fill:#ECE8D8;" d="M61.793,17.655v476.69c0,9.754,7.901,17.655,17.655,17.655h353.103
		c9.754,0,17.655-7.901,17.655-17.655V17.655C450.207,7.901,442.306,0,432.552,0H79.448C69.694,0,61.793,7.901,61.793,17.655"/>
	<g>
		<path style="fill:#C9B693;" d="M353.121,46h-0.009c-9.746,0-17.664,7.91-17.664,17.646s7.918,17.655,17.655,17.655
			c9.737,0,17.655-7.918,17.655-17.655c0-4.714-1.836-9.145-5.173-12.482C362.258,47.836,357.826,46,353.121,46 M353.103,98.956
			c-19.474,0-35.31-15.837-35.31-35.31c0-19.465,15.837-35.302,35.31-35.302h0.018c9.419,0,18.282,3.672,24.947,10.337
			c6.674,6.674,10.346,15.537,10.346,24.964C388.414,83.12,372.577,98.956,353.103,98.956"/>
		<path style="fill:#C9B693;" d="M397.241,185.379c-4.873,0-8.828-3.946-8.828-8.828v-42.275c0-19.474-15.837-35.31-35.31-35.31
			s-35.31,15.837-35.31,35.31v42.275c0,4.882-3.955,8.828-8.828,8.828s-8.828-3.946-8.828-8.828v-42.275
			c0-29.21,23.755-52.966,52.966-52.966c29.21,0,52.966,23.755,52.966,52.966v42.275
			C406.069,181.433,402.114,185.379,397.241,185.379"/>
		<path style="fill:#C9B693;" d="M397.241,238.345H114.759c-4.873,0-8.828-3.946-8.828-8.828s3.955-8.828,8.828-8.828h282.483
			c4.873,0,8.828,3.946,8.828,8.828S402.114,238.345,397.241,238.345"/>
		<path style="fill:#C9B693;" d="M397.241,361.931H114.759c-4.873,0-8.828-3.946-8.828-8.828c0-4.882,3.955-8.828,8.828-8.828
			h282.483c4.873,0,8.828,3.946,8.828,8.828C406.069,357.985,402.114,361.931,397.241,361.931"/>
		<path style="fill:#C9B693;" d="M308.966,282.483h-44.138c-4.873,0-8.828-3.946-8.828-8.828s3.955-8.828,8.828-8.828h44.138
			c4.873,0,8.828,3.946,8.828,8.828S313.838,282.483,308.966,282.483"/>
		<path style="fill:#C9B693;" d="M353.103,282.483h-8.828c-4.873,0-8.828-3.946-8.828-8.828s3.955-8.828,8.828-8.828h8.828
			c4.873,0,8.828,3.946,8.828,8.828S357.976,282.483,353.103,282.483"/>
		<path style="fill:#C9B693;" d="M388.414,282.483c-1.148,0-2.295-0.265-3.354-0.706c-1.059-0.441-2.03-1.059-2.913-1.854
			c-0.794-0.892-1.412-1.854-1.854-2.913c-0.441-1.059-0.706-2.207-0.706-3.354s0.265-2.295,0.706-3.354
			c0.441-1.148,1.059-2.03,1.854-2.913c3.266-3.266,9.181-3.266,12.535,0c0.794,0.883,1.412,1.854,1.854,2.913
			c0.53,1.059,0.706,2.207,0.706,3.354s-0.177,2.295-0.706,3.354c-0.441,1.059-1.059,2.022-1.854,2.913
			C393.004,281.591,390.797,282.483,388.414,282.483"/>
		<path style="fill:#C9B693;" d="M264.828,441.379c-1.148,0-2.295-0.265-3.354-0.706c-1.059-0.441-2.03-1.059-2.913-1.854
			c-0.794-0.892-1.412-1.854-1.854-2.913c-0.441-1.059-0.706-2.207-0.706-3.354c0-2.295,0.971-4.599,2.56-6.268
			c2.472-2.472,6.356-3.266,9.622-1.854c1.059,0.441,2.03,1.059,2.913,1.854c1.589,1.668,2.56,3.972,2.56,6.268
			c0,1.148-0.265,2.295-0.706,3.354c-0.441,1.059-1.059,2.022-1.854,2.913C269.418,440.488,267.211,441.379,264.828,441.379"/>
		<path style="fill:#C9B693;" d="M291.31,317.793h-26.483c-4.873,0-8.828-3.946-8.828-8.828c0-4.882,3.955-8.828,8.828-8.828h26.483
			c4.873,0,8.828,3.946,8.828,8.828C300.138,313.847,296.183,317.793,291.31,317.793"/>
		<path style="fill:#C9B693;" d="M388.414,317.793h-61.793c-4.873,0-8.828-3.946-8.828-8.828c0-4.882,3.955-8.828,8.828-8.828
			h61.793c4.873,0,8.828,3.946,8.828,8.828C397.241,313.847,393.287,317.793,388.414,317.793"/>
		<path style="fill:#C9B693;" d="M158.897,282.483h-44.138c-4.873,0-8.828-3.946-8.828-8.828s3.955-8.828,8.828-8.828h44.138
			c4.873,0,8.828,3.946,8.828,8.828S163.769,282.483,158.897,282.483"/>
		<path style="fill:#C9B693;" d="M203.034,282.483h-8.828c-4.873,0-8.828-3.946-8.828-8.828s3.955-8.828,8.828-8.828h8.828
			c4.873,0,8.828,3.946,8.828,8.828S207.907,282.483,203.034,282.483"/>
		<path style="fill:#C9B693;" d="M291.31,406.069h-26.483c-4.873,0-8.828-3.946-8.828-8.828c0-4.882,3.955-8.828,8.828-8.828h26.483
			c4.873,0,8.828,3.946,8.828,8.828C300.138,402.123,296.183,406.069,291.31,406.069"/>
		<path style="fill:#C9B693;" d="M388.414,406.069h-61.793c-4.873,0-8.828-3.946-8.828-8.828c0-4.882,3.955-8.828,8.828-8.828
			h61.793c4.873,0,8.828,3.946,8.828,8.828C397.241,402.123,393.287,406.069,388.414,406.069"/>
		<path style="fill:#C9B693;" d="M326.621,441.379h-26.483c-4.873,0-8.828-3.946-8.828-8.828c0-4.882,3.955-8.828,8.828-8.828
			h26.483c4.873,0,8.828,3.946,8.828,8.828C335.448,437.433,331.494,441.379,326.621,441.379"/>
		<path style="fill:#C9B693;" d="M388.414,441.379h-26.483c-4.873,0-8.828-3.946-8.828-8.828c0-4.882,3.955-8.828,8.828-8.828
			h26.483c4.873,0,8.828,3.946,8.828,8.828C397.241,437.433,393.287,441.379,388.414,441.379"/>
		<path style="fill:#C9B693;" d="M158.897,406.069h-44.138c-4.873,0-8.828-3.946-8.828-8.828c0-4.882,3.955-8.828,8.828-8.828
			h44.138c4.873,0,8.828,3.946,8.828,8.828C167.724,402.123,163.769,406.069,158.897,406.069"/>
		<path style="fill:#C9B693;" d="M203.034,406.069h-8.828c-4.873,0-8.828-3.946-8.828-8.828c0-4.882,3.955-8.828,8.828-8.828h8.828
			c4.873,0,8.828,3.946,8.828,8.828C211.862,402.123,207.907,406.069,203.034,406.069"/>
		<path style="fill:#C9B693;" d="M176.552,79.448h-61.793c-4.873,0-8.828-3.946-8.828-8.828c0-4.882,3.955-8.828,8.828-8.828h61.793
			c4.873,0,8.828,3.946,8.828,8.828C185.379,75.502,181.425,79.448,176.552,79.448"/>
		<path style="fill:#C9B693;" d="M176.552,150.069h-61.793c-4.873,0-8.828-3.946-8.828-8.828s3.955-8.828,8.828-8.828h61.793
			c4.873,0,8.828,3.946,8.828,8.828S181.425,150.069,176.552,150.069"/>
		<path style="fill:#C9B693;" d="M220.69,79.448h-8.828c-4.873,0-8.828-3.946-8.828-8.828c0-4.882,3.955-8.828,8.828-8.828h8.828
			c4.873,0,8.828,3.946,8.828,8.828C229.517,75.502,225.562,79.448,220.69,79.448"/>
		<path style="fill:#C9B693;" d="M256,79.448c-1.148,0-2.295-0.265-3.354-0.706c-1.059-0.441-2.03-1.059-2.913-1.854
			c-1.677-1.677-2.56-3.884-2.56-6.268c0-2.295,0.971-4.599,2.56-6.268c3.354-3.266,9.181-3.266,12.535,0
			c0.794,0.883,1.412,1.854,1.854,2.913s0.706,2.207,0.706,3.354c0,2.383-0.883,4.59-2.56,6.268
			C260.59,78.557,258.383,79.448,256,79.448"/>
		<path style="fill:#C9B693;" d="M256,114.759h-44.138c-4.873,0-8.828-3.946-8.828-8.828c0-4.882,3.955-8.828,8.828-8.828H256
			c4.873,0,8.828,3.946,8.828,8.828C264.828,110.813,260.873,114.759,256,114.759"/>
		<path style="fill:#C9B693;" d="M220.69,150.069h-8.828c-4.873,0-8.828-3.946-8.828-8.828s3.955-8.828,8.828-8.828h8.828
			c4.873,0,8.828,3.946,8.828,8.828S225.562,150.069,220.69,150.069"/>
		<path style="fill:#C9B693;" d="M256,150.069c-2.383,0-4.59-0.892-6.268-2.648c-1.677-1.589-2.56-3.796-2.56-6.179
			c0-1.148,0.265-2.295,0.706-3.354c0.441-1.059,1.059-2.03,1.854-2.913c3.354-3.266,9.181-3.266,12.535,0
			c0.794,0.883,1.412,1.854,1.854,2.913c0.441,1.059,0.706,2.207,0.706,3.354c0,2.383-0.883,4.59-2.56,6.179
			C260.59,149.177,258.383,150.069,256,150.069"/>
		<path style="fill:#C9B693;" d="M256,185.379h-44.138c-4.873,0-8.828-3.946-8.828-8.828s3.955-8.828,8.828-8.828H256
			c4.873,0,8.828,3.946,8.828,8.828S260.873,185.379,256,185.379"/>
	</g>
</g>
<g>
</g>
<g>
</g>
<g>
</g>
<g>
</g>
<g>
</g>
<g>
</g>
<g>
</g>
<g>
</g>
<g>
</g>
<g>
</g>
<g>
</g>
<g>
</g>
<g>
</g>
<g>
</g>
<g>
</g>
</svg>
