<?xml version="1.0" standalone="no"?><!DOCTYPE svg PUBLIC "-//W3C//DTD SVG 1.1//EN" "http://www.w3.org/Graphics/SVG/1.1/DTD/svg11.dtd"><svg t="1517197429354" class="icon" style="" viewBox="0 0 1024 1024" version="1.1" xmlns="http://www.w3.org/2000/svg" p-id="1396" xmlns:xlink="http://www.w3.org/1999/xlink" width="200" height="200"><defs><style type="text/css"></style></defs><path d="M1009.462108 393.546891 692.222089 639.872026C682.598414 649.495701 666.558955 639.872026 666.558955 627.108712L666.558955 463.91575C416.61641 463.91575 320.516163 540.700393 189.129108 761.430647 189.129108 761.430647 205.168566 255.94881 666.558955 255.94881L666.558955 105.587416C666.558955 92.755849 682.598414 83.200427 692.222089 92.755849L1009.462108 339.149237C1028.641205 351.912551 1028.641205 380.715324 1009.462108 393.546891ZM336.555622 44.773979 89.820969 44.773979C64.157835 44.773979 44.910485 63.953076 44.910485 89.547957L44.910485 937.386923C44.910485 962.981804 64.157835 982.229154 89.820969 982.229154L890.906619 982.229154C916.5015 982.229154 935.74885 962.981804 935.74885 937.386923L935.74885 758.222755C935.74885 745.459441 945.372525 735.835766 958.204093 735.835766 970.967407 735.835766 980.591082 742.25155 980.591082 755.083117L980.591082 934.247284C980.591082 982.229154 938.956742 1023.795241 890.906619 1023.795241L89.820969 1023.795241C41.702593 1023.795241 0.068253 982.229154 0.068253 934.247284L0.068253 89.547957C0.068253 41.566087 41.702593 0 89.820969 0L333.34773 0C349.318936 0 358.942611 9.623675 358.942611 22.386989 358.942611 35.218556 349.318936 44.773979 336.555622 44.773979Z" p-id="1397"></path></svg>