<svg class="icon" viewBox="0 0 1024 1024" xmlns="http://www.w3.org/2000/svg" width="200" height="200"><defs><style/></defs><path d="M122.505 845.06c0 40.876 33.137 74.014 74.014 74.014 40.876 0 74.014-33.137 74.014-74.014 0-40.876-33.137-74.014-74.014-74.014-40.876 0-74.014 33.138-74.014 74.014zM448.163 178.94c0 40.876 33.138 74.014 74.014 74.014s74.014-33.138 74.014-74.014-33.138-74.014-74.014-74.014-74.014 33.137-74.014 74.014zM773.821 845.06c0 40.876 33.137 74.014 74.014 74.014 40.876 0 74.014-33.137 74.014-74.014 0-40.876-33.137-74.014-74.014-74.014-40.876 0-74.014 33.138-74.014 74.014z"/></svg>