<?xml version="1.0" encoding="iso-8859-1"?>
<!-- Generator: Adobe Illustrator 19.0.0, SVG Export Plug-In . SVG Version: 6.00 Build 0)  -->
<svg version="1.1" id="Capa_1" xmlns="http://www.w3.org/2000/svg" xmlns:xlink="http://www.w3.org/1999/xlink" x="0px" y="0px"
	 viewBox="0 0 60 60" style="enable-background:new 0 0 60 60;" xml:space="preserve">
<g>
	<g>
		<path style="fill:#E6E6E6;" d="M30,50c11.028,0,20-8.972,20-20s-8.972-20-20-20c-3.593,0-7.136,0.984-10.246,2.846
			c-0.474,0.284-0.628,0.897-0.344,1.372c0.284,0.474,0.898,0.628,1.372,0.344C23.581,12.886,26.769,12,30,12
			c9.925,0,18,8.075,18,18s-8.075,18-18,18s-18-8.075-18-18c0-3.719,1.137-7.297,3.288-10.349c0.318-0.451,0.21-1.075-0.241-1.394
			c-0.453-0.318-1.076-0.21-1.394,0.241C11.263,21.889,10,25.866,10,30C10,41.028,18.972,50,30,50z"/>
		<path style="fill:#E6E6E6;" d="M54.712,12.997c-0.314-0.456-0.938-0.57-1.391-0.256c-0.455,0.313-0.569,0.936-0.256,1.391
			C56.294,18.814,58,24.301,58,30c0,15.439-12.561,28-28,28c-6.399,0-12.426-2.108-17.431-6.096
			c-0.431-0.343-1.06-0.273-1.405,0.159c-0.344,0.432-0.273,1.061,0.159,1.405C16.685,57.741,23.144,60,30,60
			c16.542,0,30-13.458,30-30C60,23.894,58.171,18.014,54.712,12.997z"/>
		<path style="fill:#E6E6E6;" d="M2,30C2,14.561,14.561,2,30,2c5.216,0,10.309,1.448,14.728,4.188
			c0.468,0.29,1.085,0.146,1.377-0.323c0.291-0.469,0.146-1.086-0.323-1.377C41.045,1.552,35.588,0,30,0C13.458,0,0,13.458,0,30
			c0,6.328,1.954,12.385,5.651,17.516c0.196,0.271,0.502,0.416,0.813,0.416c0.202,0,0.407-0.061,0.583-0.188
			c0.448-0.323,0.55-0.948,0.227-1.396C3.824,41.559,2,35.906,2,30z"/>
	</g>
	<circle style="fill:#F0C419;" cx="30" cy="30" r="9"/>
	<circle style="fill:#4482C3;" cx="50" cy="9" r="6"/>
	<circle style="fill:#F0785A;" cx="17" cy="16" r="4"/>
	<circle style="fill:#AF8066;" cx="9" cy="50" r="4"/>
	<circle style="fill:#E57E25;" cx="35" cy="36" r="1"/>
	<circle style="fill:#E57E25;" cx="37" cy="34" r="1"/>
	<circle style="fill:#E57E25;" cx="33" cy="34" r="1"/>
	<circle style="fill:#E57E25;" cx="35" cy="32" r="1"/>
	<circle style="fill:#E57E25;" cx="37" cy="30" r="1"/>
	<circle style="fill:#F3D55B;" cx="55" cy="56" r="1"/>
	<circle style="fill:#F3D55B;" cx="58" cy="50" r="1"/>
	<circle style="fill:#F3D55B;" cx="5" cy="9" r="1"/>
	<circle style="fill:#F3D55B;" cx="4" cy="2" r="1"/>
	<circle style="fill:#F3D55B;" cx="12" cy="2" r="1"/>
	<circle style="fill:#F3D55B;" cx="2" cy="57" r="1"/>
	<circle style="fill:#F3D55B;" cx="45" cy="1" r="1"/>
	<circle style="fill:#F3D55B;" cx="32" cy="6" r="1"/>
	<circle style="fill:#F3D55B;" cx="53" cy="41" r="1"/>
	<circle style="fill:#F3D55B;" cx="6" cy="29" r="1"/>
	<circle style="fill:#E57E25;" cx="31" cy="36" r="1"/>
	<circle style="fill:#E57E25;" cx="33" cy="30" r="1"/>
</g>
<g>
</g>
<g>
</g>
<g>
</g>
<g>
</g>
<g>
</g>
<g>
</g>
<g>
</g>
<g>
</g>
<g>
</g>
<g>
</g>
<g>
</g>
<g>
</g>
<g>
</g>
<g>
</g>
<g>
</g>
</svg>
