<?xml version="1.0" encoding="iso-8859-1"?>
<!-- Generator: Adobe Illustrator 19.0.0, SVG Export Plug-In . SVG Version: 6.00 Build 0)  -->
<svg version="1.1" id="Layer_1" xmlns="http://www.w3.org/2000/svg" xmlns:xlink="http://www.w3.org/1999/xlink" x="0px" y="0px"
	 viewBox="0 0 512 512" style="enable-background:new 0 0 512 512;" xml:space="preserve">
<path style="fill:#4ACFD9;" d="M501.215,340.577H106.146c-4.702,0-8.514,3.812-8.514,8.514v136.231c0,4.702,3.812,8.514,8.514,8.514
	h395.069c4.702,0,8.514-3.812,8.514-8.514V349.091C509.729,344.389,505.917,340.577,501.215,340.577z"/>
<path style="fill:#365558;" d="M237.836,340.577h-131.69c-4.702,0-8.514,3.812-8.514,8.514v136.231c0,4.702,3.812,8.514,8.514,8.514
	h131.69c4.702,0,8.514-3.812,8.514-8.514V349.091C246.35,344.389,242.538,340.577,237.836,340.577z"/>
<path style="fill:#0295AA;" d="M369.525,340.577h-131.69c-4.702,0-8.514,3.812-8.514,8.514v136.231c0,4.702,3.812,8.514,8.514,8.514
	h131.69c4.702,0,8.514-3.812,8.514-8.514V349.091C378.04,344.389,374.228,340.577,369.525,340.577z"/>
<path style="fill:#CDD4D5;" d="M435.697,170.362l-96.33-96.33c-1.596-1.597-3.762-2.494-6.02-2.494c-2.258,0-4.424,0.897-6.02,2.494
	L47.971,353.388c-3.325,3.325-3.325,8.716,0,12.04l96.329,96.33c1.662,1.662,3.842,2.494,6.02,2.494c2.179,0,4.358-0.831,6.02-2.494
	l279.356-279.356c1.597-1.596,2.494-3.762,2.494-6.02C438.191,174.124,437.295,171.958,435.697,170.362z"/>
<path style="fill:#687F82;" d="M249.46,356.598l-96.33-96.33c-3.325-3.325-8.716-3.325-12.041,0l-93.118,93.119
	c-3.325,3.325-3.325,8.716,0,12.04l96.329,96.33c1.662,1.662,3.842,2.494,6.02,2.494c2.179,0,4.358-0.831,6.02-2.494l93.118-93.118
	C252.785,365.315,252.785,359.923,249.46,356.598z"/>
<path style="fill:#9BAAAB;" d="M342.579,263.48l-96.33-96.33c-1.596-1.597-3.762-2.494-6.02-2.494c-2.258,0-4.424,0.897-6.02,2.494
	l-93.118,93.118c-3.325,3.325-3.325,8.716,0,12.041l96.33,96.329c1.662,1.663,3.842,2.494,6.02,2.494
	c2.179,0,4.358-0.831,6.02-2.494l93.118-93.118c1.597-1.596,2.494-3.762,2.494-6.02C345.072,267.242,344.175,265.077,342.579,263.48
	z"/>
<path style="fill:#FF8C29;" d="M160.639,0H24.408c-4.702,0-8.514,3.812-8.514,8.514v395.069c0,4.702,3.812,8.514,8.514,8.514
	h136.231c4.702,0,8.514-3.812,8.514-8.514V8.514C169.153,3.812,165.341,0,160.639,0z"/>
<path style="fill:#F0353D;" d="M160.639,263.379H24.408c-4.702,0-8.514,3.812-8.514,8.514v131.69c0,4.702,3.812,8.514,8.514,8.514
	h136.231c4.702,0,8.514-3.812,8.514-8.514v-131.69C169.153,267.191,165.341,263.379,160.639,263.379z"/>
<path style="fill:#FD6A33;" d="M160.639,131.69H24.408c-4.702,0-8.514,3.812-8.514,8.514v131.69c0,4.702,3.812,8.514,8.514,8.514
	h136.231c4.702,0,8.514-3.812,8.514-8.514v-131.69C169.153,135.502,165.341,131.69,160.639,131.69z"/>
<path style="fill:#FFD1A9;" d="M97.064,322.412c-52.269,0-94.794,42.524-94.794,94.794S44.795,512,97.064,512
	s94.794-42.524,94.794-94.794S149.334,322.412,97.064,322.412z"/>
<path style="fill:#FF8C29;" d="M2.271,417.206C2.271,469.476,44.795,512,97.064,512V322.412
	C44.795,322.412,2.271,364.937,2.271,417.206z"/>
<path style="fill:#687F82;" d="M97.064,358.741c-32.238,0-58.466,26.228-58.466,58.466s26.228,58.466,58.466,58.466
	s58.466-26.228,58.466-58.466S129.302,358.741,97.064,358.741z"/>
<path style="fill:#365558;" d="M97.064,358.741c-32.238,0-58.466,26.228-58.466,58.466s26.228,58.466,58.466,58.466V358.741z"/>
<path style="fill:#FFFFFF;" d="M122.04,425.721c-4.702,0-8.514-3.812-8.514-8.514c0-9.076-7.385-16.461-16.461-16.461
	c-4.702,0-8.514-3.812-8.514-8.514c0-4.702,3.812-8.514,8.514-8.514c18.466,0,33.49,15.024,33.49,33.49
	C130.554,421.908,126.742,425.721,122.04,425.721z"/>
<g>
</g>
<g>
</g>
<g>
</g>
<g>
</g>
<g>
</g>
<g>
</g>
<g>
</g>
<g>
</g>
<g>
</g>
<g>
</g>
<g>
</g>
<g>
</g>
<g>
</g>
<g>
</g>
<g>
</g>
</svg>
