<svg xmlns="http://www.w3.org/2000/svg" viewBox="0 0 512 512"><path d="M501.215 340.577H106.146a8.514 8.514 0 0 0-8.514 8.514v136.231a8.514 8.514 0 0 0 8.514 8.514h395.069a8.514 8.514 0 0 0 8.514-8.514V349.091a8.514 8.514 0 0 0-8.514-8.514z" fill="#4acfd9"/><path d="M237.836 340.577h-131.69a8.514 8.514 0 0 0-8.514 8.514v136.231a8.514 8.514 0 0 0 8.514 8.514h131.69a8.514 8.514 0 0 0 8.514-8.514V349.091a8.514 8.514 0 0 0-8.514-8.514z" fill="#365558"/><path d="M369.525 340.577h-131.69a8.514 8.514 0 0 0-8.514 8.514v136.231a8.514 8.514 0 0 0 8.514 8.514h131.69a8.514 8.514 0 0 0 8.514-8.514V349.091a8.513 8.513 0 0 0-8.514-8.514z" fill="#0295aa"/><path d="M435.697 170.362l-96.33-96.33a8.511 8.511 0 0 0-12.04 0L47.971 353.388a8.513 8.513 0 0 0 0 12.04l96.329 96.33a8.49 8.49 0 0 0 6.02 2.494 8.484 8.484 0 0 0 6.02-2.494l279.356-279.356a8.511 8.511 0 0 0 .001-12.04z" fill="#cdd4d5"/><path d="M249.46 356.598l-96.33-96.33a8.514 8.514 0 0 0-12.041 0l-93.118 93.119a8.513 8.513 0 0 0 0 12.04l96.329 96.33a8.49 8.49 0 0 0 6.02 2.494 8.484 8.484 0 0 0 6.02-2.494l93.118-93.118a8.513 8.513 0 0 0 .002-12.041z" fill="#687f82"/><path d="M342.579 263.48l-96.33-96.33a8.511 8.511 0 0 0-12.04 0l-93.118 93.118a8.514 8.514 0 0 0 0 12.041l96.33 96.329a8.486 8.486 0 0 0 6.02 2.494 8.484 8.484 0 0 0 6.02-2.494l93.118-93.118a8.511 8.511 0 0 0 0-12.04z" fill="#9baaab"/><path d="M160.639 0H24.408a8.514 8.514 0 0 0-8.514 8.514v395.069a8.514 8.514 0 0 0 8.514 8.514h136.231a8.514 8.514 0 0 0 8.514-8.514V8.514A8.514 8.514 0 0 0 160.639 0z" fill="#ff8c29"/><path d="M160.639 263.379H24.408a8.514 8.514 0 0 0-8.514 8.514v131.69a8.514 8.514 0 0 0 8.514 8.514h136.231a8.514 8.514 0 0 0 8.514-8.514v-131.69a8.514 8.514 0 0 0-8.514-8.514z" fill="#f0353d"/><path d="M160.639 131.69H24.408a8.514 8.514 0 0 0-8.514 8.514v131.69a8.514 8.514 0 0 0 8.514 8.514h136.231a8.514 8.514 0 0 0 8.514-8.514v-131.69a8.514 8.514 0 0 0-8.514-8.514z" fill="#fd6a33"/><path d="M97.064 322.412c-52.269 0-94.794 42.524-94.794 94.794S44.795 512 97.064 512s94.794-42.524 94.794-94.794-42.524-94.794-94.794-94.794z" fill="#ffd1a9"/><path d="M2.271 417.206c0 52.27 42.524 94.794 94.793 94.794V322.412c-52.269 0-94.793 42.525-94.793 94.794z" fill="#ff8c29"/><path d="M97.064 358.741c-32.238 0-58.466 26.228-58.466 58.466s26.228 58.466 58.466 58.466 58.466-26.228 58.466-58.466-26.228-58.466-58.466-58.466z" fill="#687f82"/><path d="M97.064 358.741c-32.238 0-58.466 26.228-58.466 58.466s26.228 58.466 58.466 58.466V358.741z" fill="#365558"/><path d="M122.04 425.721a8.514 8.514 0 0 1-8.514-8.514c0-9.076-7.385-16.461-16.461-16.461a8.514 8.514 0 0 1 0-17.028c18.466 0 33.49 15.024 33.49 33.49a8.516 8.516 0 0 1-8.515 8.513z" fill="#fff"/></svg>