<?xml version="1.0" standalone="no"?><!DOCTYPE svg PUBLIC "-//W3C//DTD SVG 1.1//EN" "http://www.w3.org/Graphics/SVG/1.1/DTD/svg11.dtd"><svg t="1517198917889" class="icon" style="" viewBox="0 0 1024 1024" version="1.1" xmlns="http://www.w3.org/2000/svg" p-id="8264" xmlns:xlink="http://www.w3.org/1999/xlink" width="200" height="200"><defs><style type="text/css"></style></defs><path d="M496 0c-273.952 0-496 222.048-496 496s222.048 496 496 496 496-222.048 496-496-222.048-496-496-496zM927.2 480l-191.872 0c-1.76-70.88-14.368-138.592-36.736-200.576 43.2-18.016 83.136-41.984 119.552-70.304 64.736 72.672 105.216 167.04 109.056 270.88zM478.304 927.104c-53.184-44.288-97.792-101.792-130.432-168.576 41.888-13.088 86.272-20.256 132.128-21.728l0 190.368c-0.576 0-1.12-0.032-1.696-0.064zM513.632 64.896c60.352 50.24 109.6 117.536 142.912 196.032-45.632 15.584-94.112 24.64-144.576 26.24l0-222.368c0.608 0.032 1.12 0.064 1.664 0.096zM566.944 70.336c88.32 14.688 167.552 55.936 229.248 115.648-33.504 25.696-70.112 47.456-109.696 63.936-29.12-69.024-69.984-130.048-119.552-179.584zM480 64.8l0 222.368c-50.464-1.632-98.976-10.656-144.576-26.24 33.312-78.496 82.56-145.792 142.912-196.032 0.576-0.032 1.088-0.064 1.664-0.096zM305.472 249.952c-39.52-16.48-76.16-38.24-109.664-63.936 61.664-59.712 140.928-100.96 229.248-115.648-49.6 49.504-90.432 110.528-119.584 179.584zM323.36 290.432c49.344 17.12 101.92 27.104 156.64 28.768l0 160.8-191.328 0c1.728-67.008 13.6-131.04 34.688-189.568zM480 512l0 192.8c-50.464 1.536-99.264 9.792-145.248 24.608-27.712-65.984-44.064-139.488-46.08-217.408l191.328 0zM425.056 921.664c-79.136-13.152-151.008-47.616-209.44-97.664 31.52-21.856 65.6-40.352 102.016-54.4 27.904 57.856 64.416 109.216 107.424 152.064zM512 927.2l0-190.368c45.824 1.472 90.24 8.64 132.128 21.728-32.672 66.784-77.248 124.288-130.432 168.576-0.544 0-1.12 0.032-1.696 0.064zM674.368 769.6c36.384 14.048 70.432 32.576 102.016 54.4-58.432 50.016-130.304 84.512-209.44 97.664 43.008-42.848 79.488-94.208 107.424-152.064zM657.248 729.408c-46.016-14.816-94.816-23.072-145.248-24.608l0-192.8 191.328 0c-2.016 77.92-18.4 151.424-46.08 217.408zM512 480l0-160.8c54.688-1.664 107.264-11.616 156.64-28.736 21.056 58.528 32.928 122.56 34.688 189.568l-191.328 0zM173.888 209.12c36.416 28.32 76.352 52.288 119.52 70.304-22.368 61.984-34.976 129.696-36.736 200.576l-191.872 0c3.84-103.84 44.32-198.208 109.088-270.88zM64.8 512l191.872 0c1.984 81.76 19.072 158.976 48.096 228.384-40.544 15.808-78.336 36.864-113.216 61.792-75.136-74.784-122.56-177.024-126.752-290.176zM800.448 802.144c-34.88-24.896-72.672-45.984-113.248-61.792 29.056-69.408 46.112-146.624 48.128-228.384l191.872 0c-4.192 113.184-51.648 215.424-126.752 290.176z" p-id="8265"></path></svg>