<?xml version="1.0" encoding="iso-8859-1"?>
<!-- Generator: Adobe Illustrator 19.0.0, SVG Export Plug-In . SVG Version: 6.00 Build 0)  -->
<svg xmlns="http://www.w3.org/2000/svg" xmlns:xlink="http://www.w3.org/1999/xlink" version="1.1" id="Capa_1" x="0px" y="0px" viewBox="0 0 460 460" style="enable-background:new 0 0 460 460;" xml:space="preserve" width="512" height="512">
<g id="XMLID_1618_">
	<path id="XMLID_482_" style="fill:#798751;" d="M450,382.5H10c-5.523,0-10-4.477-10-10v-300c0-5.523,4.477-10,10-10h440   c5.523,0,10,4.477,10,10v300C460,378.023,455.523,382.5,450,382.5z"/>
	<path id="XMLID_481_" style="fill:#283215;" d="M250,382.5h-40v-320h40V382.5z"/>
	<path id="XMLID_479_" style="fill:#ACA082;" d="M440,302.5v50c0,5.523-4.477,10-10,10H260c-16.569,0-30-13.431-30-30   c0,16.569-13.431,30-30,30H30c-5.523,0-10-4.477-10-10v-50h180c16.569,0,30,13.431,30,30c0-16.568,13.431-30,30-30H440z"/>
	<path id="XMLID_449_" style="fill:#D5C9AB;" d="M440,42.5v290H230H20v-290c0-5.523,4.477-10,10-10h170c16.569,0,30,13.431,30,30   c0-16.569,13.431-30,30-30h170C435.523,32.5,440,36.977,440,42.5z"/>
	<path id="XMLID_2813_" style="fill:#B2AA92;" d="M415,72.5H295c-2.761,0-5-2.239-5-5v0c0-2.761,2.239-5,5-5h120   c2.761,0,5,2.239,5,5v0C420,70.261,417.761,72.5,415,72.5z M420,87.5L420,87.5c0-2.761-2.239-5-5-5H295c-2.761,0-5,2.239-5,5v0   c0,2.761,2.239,5,5,5h120C417.761,92.5,420,90.261,420,87.5z M420,107.5L420,107.5c0-2.761-2.239-5-5-5H255c-2.761,0-5,2.239-5,5v0   c0,2.761,2.239,5,5,5h160C417.761,112.5,420,110.261,420,107.5z M400,147.5L400,147.5c0-2.761-2.239-5-5-5H255   c-2.761,0-5,2.239-5,5l0,0c0,2.761,2.239,5,5,5h140C397.761,152.5,400,150.261,400,147.5z M420,167.5L420,167.5   c0-2.761-2.239-5-5-5H255c-2.761,0-5,2.239-5,5l0,0c0,2.761,2.239,5,5,5h160C417.761,172.5,420,170.261,420,167.5z M410,187.5   L410,187.5c0-2.761-2.239-5-5-5H255c-2.761,0-5,2.239-5,5l0,0c0,2.761,2.239,5,5,5h150C407.761,192.5,410,190.261,410,187.5z    M420,207.5L420,207.5c0-2.761-2.239-5-5-5H255c-2.761,0-5,2.239-5,5l0,0c0,2.761,2.239,5,5,5h160   C417.761,212.5,420,210.261,420,207.5z M400,227.5L400,227.5c0-2.761-2.239-5-5-5H255c-2.761,0-5,2.239-5,5l0,0   c0,2.761,2.239,5,5,5h140C397.761,232.5,400,230.261,400,227.5z M420,247.5L420,247.5c0-2.761-2.239-5-5-5H255   c-2.761,0-5,2.239-5,5l0,0c0,2.761,2.239,5,5,5h160C417.761,252.5,420,250.261,420,247.5z M410,267.5L410,267.5   c0-2.761-2.239-5-5-5H255c-2.761,0-5,2.239-5,5l0,0c0,2.761,2.239,5,5,5h150C407.761,272.5,410,270.261,410,267.5z M280,87.5v-20   c0-2.761-2.239-5-5-5h-20c-2.761,0-5,2.239-5,5v20c0,2.761,2.239,5,5,5h20C277.761,92.5,280,90.261,280,87.5z M415,302.5h-10   c-2.761,0-5,2.239-5,5l0,0c0,2.761,2.239,5,5,5h10c2.761,0,5-2.239,5-5l0,0C420,304.739,417.761,302.5,415,302.5z"/>
	<path id="XMLID_478_" style="fill:#958B71;" d="M310,352.5c-33.137,0-60-2.239-60-5s26.863-5,60-5s60,2.239,60,5   S343.137,352.5,310,352.5z"/>
	<path id="XMLID_453_" style="fill:#B04230;" d="M340,427.5l-30-10l-30,10v-76c0-2.209,1.791-4,4-4h52c2.209,0,4,1.791,4,4V427.5z"/>
	<path id="XMLID_464_" style="fill:#D8C8A7;" d="M230,332.5L230,332.5c0,16.569-13.431,30-30,30H30c-5.523,0-10-4.477-10-10v-50h180   C216.569,302.5,230,315.931,230,332.5z"/>
	<path id="XMLID_341_" style="fill:#F2E3C0;" d="M230,62.5v270H20v-290c0-5.523,4.477-10,10-10h170   C216.569,32.5,230,45.931,230,62.5z"/>
	<path id="XMLID_340_" style="fill:#CFC4A6;" d="M205,72.5H85c-2.761,0-5-2.239-5-5v0c0-2.761,2.239-5,5-5h120c2.761,0,5,2.239,5,5   v0C210,70.261,207.761,72.5,205,72.5z M210,87.5L210,87.5c0-2.761-2.239-5-5-5H85c-2.761,0-5,2.239-5,5v0c0,2.761,2.239,5,5,5h120   C207.761,92.5,210,90.261,210,87.5z M210,107.5L210,107.5c0-2.761-2.239-5-5-5H45c-2.761,0-5,2.239-5,5v0c0,2.761,2.239,5,5,5h160   C207.761,112.5,210,110.261,210,107.5z M190,127.5L190,127.5c0-2.761-2.239-5-5-5H45c-2.761,0-5,2.239-5,5v0c0,2.761,2.239,5,5,5   h140C187.761,132.5,190,130.261,190,127.5z M210,147.5L210,147.5c0-2.761-2.239-5-5-5H45c-2.761,0-5,2.239-5,5l0,0   c0,2.761,2.239,5,5,5h160C207.761,152.5,210,150.261,210,147.5z M200,167.5L200,167.5c0-2.761-2.239-5-5-5H45c-2.761,0-5,2.239-5,5   l0,0c0,2.761,2.239,5,5,5h150C197.761,172.5,200,170.261,200,167.5z M210,207.5L210,207.5c0-2.761-2.239-5-5-5H45   c-2.761,0-5,2.239-5,5l0,0c0,2.761,2.239,5,5,5h160C207.761,212.5,210,210.261,210,207.5z M190,227.5L190,227.5   c0-2.761-2.239-5-5-5H45c-2.761,0-5,2.239-5,5l0,0c0,2.761,2.239,5,5,5h140C187.761,232.5,190,230.261,190,227.5z M210,247.5   L210,247.5c0-2.761-2.239-5-5-5H45c-2.761,0-5,2.239-5,5l0,0c0,2.761,2.239,5,5,5h160C207.761,252.5,210,250.261,210,247.5z    M200,267.5L200,267.5c0-2.761-2.239-5-5-5H45c-2.761,0-5,2.239-5,5l0,0c0,2.761,2.239,5,5,5h150   C197.761,272.5,200,270.261,200,267.5z M70,87.5v-20c0-2.761-2.239-5-5-5H45c-2.761,0-5,2.239-5,5v20c0,2.761,2.239,5,5,5h20   C67.761,92.5,70,90.261,70,87.5z M55,302.5H45c-2.761,0-5,2.239-5,5l0,0c0,2.761,2.239,5,5,5h10c2.761,0,5-2.239,5-5l0,0   C60,304.739,57.761,302.5,55,302.5z"/>
</g>















</svg>
