<svg xmlns="http://www.w3.org/2000/svg" viewBox="0 0 460 460" width="512" height="512"><path d="M450 382.5H10c-5.523 0-10-4.477-10-10v-300c0-5.523 4.477-10 10-10h440c5.523 0 10 4.477 10 10v300c0 5.523-4.477 10-10 10z" fill="#798751"/><path d="M250 382.5h-40v-320h40v320z" fill="#283215"/><path d="M440 302.5v50c0 5.523-4.477 10-10 10H260c-16.569 0-30-13.431-30-30 0 16.569-13.431 30-30 30H30c-5.523 0-10-4.477-10-10v-50h180c16.569 0 30 13.431 30 30 0-16.568 13.431-30 30-30h180z" fill="#aca082"/><path d="M440 42.5v290H20v-290c0-5.523 4.477-10 10-10h170c16.569 0 30 13.431 30 30 0-16.569 13.431-30 30-30h170c5.523 0 10 4.477 10 10z" fill="#d5c9ab"/><path d="M415 72.5H295a5 5 0 0 1 0-10h120a5 5 0 0 1 0 10zm5 15a5 5 0 0 0-5-5H295a5 5 0 0 0 0 10h120a5 5 0 0 0 5-5zm0 20a5 5 0 0 0-5-5H255a5 5 0 0 0 0 10h160a5 5 0 0 0 5-5zm-20 40a5 5 0 0 0-5-5H255a5 5 0 0 0 0 10h140a5 5 0 0 0 5-5zm20 20a5 5 0 0 0-5-5H255a5 5 0 0 0 0 10h160a5 5 0 0 0 5-5zm-10 20a5 5 0 0 0-5-5H255a5 5 0 0 0 0 10h150a5 5 0 0 0 5-5zm10 20a5 5 0 0 0-5-5H255a5 5 0 0 0 0 10h160a5 5 0 0 0 5-5zm-20 20a5 5 0 0 0-5-5H255a5 5 0 0 0 0 10h140a5 5 0 0 0 5-5zm20 20a5 5 0 0 0-5-5H255a5 5 0 0 0 0 10h160a5 5 0 0 0 5-5zm-10 20a5 5 0 0 0-5-5H255a5 5 0 0 0 0 10h150a5 5 0 0 0 5-5zm-130-180v-20a5 5 0 0 0-5-5h-20a5 5 0 0 0-5 5v20a5 5 0 0 0 5 5h20a5 5 0 0 0 5-5zm135 215h-10a5 5 0 0 0 0 10h10a5 5 0 0 0 0-10z" fill="#b2aa92"/><path d="M310 352.5c-33.137 0-60-2.239-60-5s26.863-5 60-5 60 2.239 60 5-26.863 5-60 5z" fill="#958b71"/><path d="M340 427.5l-30-10-30 10v-76a4 4 0 0 1 4-4h52a4 4 0 0 1 4 4v76z" fill="#b04230"/><path d="M230 332.5c0 16.569-13.431 30-30 30H30c-5.523 0-10-4.477-10-10v-50h180c16.569 0 30 13.431 30 30z" fill="#d8c8a7"/><path d="M230 62.5v270H20v-290c0-5.523 4.477-10 10-10h170c16.569 0 30 13.431 30 30z" fill="#f2e3c0"/><path d="M205 72.5H85a5 5 0 0 1 0-10h120a5 5 0 0 1 0 10zm5 15a5 5 0 0 0-5-5H85a5 5 0 0 0 0 10h120a5 5 0 0 0 5-5zm0 20a5 5 0 0 0-5-5H45a5 5 0 0 0 0 10h160a5 5 0 0 0 5-5zm-20 20a5 5 0 0 0-5-5H45a5 5 0 0 0 0 10h140a5 5 0 0 0 5-5zm20 20a5 5 0 0 0-5-5H45a5 5 0 0 0 0 10h160a5 5 0 0 0 5-5zm-10 20a5 5 0 0 0-5-5H45a5 5 0 0 0 0 10h150a5 5 0 0 0 5-5zm10 40a5 5 0 0 0-5-5H45a5 5 0 0 0 0 10h160a5 5 0 0 0 5-5zm-20 20a5 5 0 0 0-5-5H45a5 5 0 0 0 0 10h140a5 5 0 0 0 5-5zm20 20a5 5 0 0 0-5-5H45a5 5 0 0 0 0 10h160a5 5 0 0 0 5-5zm-10 20a5 5 0 0 0-5-5H45a5 5 0 0 0 0 10h150a5 5 0 0 0 5-5zM70 87.5v-20a5 5 0 0 0-5-5H45a5 5 0 0 0-5 5v20a5 5 0 0 0 5 5h20a5 5 0 0 0 5-5zm-15 215H45a5 5 0 0 0 0 10h10a5 5 0 0 0 0-10z" fill="#cfc4a6"/></svg>