<?xml version="1.0" standalone="no"?><!DOCTYPE svg PUBLIC "-//W3C//DTD SVG 1.1//EN" "http://www.w3.org/Graphics/SVG/1.1/DTD/svg11.dtd"><svg t="1516871422032" class="icon" style="" viewBox="0 0 1024 1024" version="1.1" xmlns="http://www.w3.org/2000/svg" p-id="1820" xmlns:xlink="http://www.w3.org/1999/xlink" width="200" height="200"><defs><style type="text/css"></style></defs><path d="M695.984 103.984l-400.16 0c-53.008 0-96 42.992-96 96l0 288c0 1.04 0.128 2.048 0.16 3.088l0 423.184 297.904-133.328 294.096 133.328L791.984 487.984l0-64 0-224C791.984 146.976 748.992 103.984 695.984 103.984zM759.984 423.984l0 135.408 0 298.896-262.096-118.112-265.904 112.768L231.984 559.536l0-85.264 0-50.288 0-16 0-208c0-35.344 28.656-64 64-64l399.632 0c35.344 0 64 28.656 64 64l0 208 0.368 0L759.984 423.984z" p-id="1821"></path><path d="M589.68 596.8l-99.76-52.576-98.128 55.568 19.568-110.432-83.568-75.456 111.84-15.68 46.48-102.192 49.584 100.752 112.288 12.288-81.216 77.952L589.68 596.8z" p-id="1822"></path></svg>