<?xml version="1.0" standalone="no"?><!DOCTYPE svg PUBLIC "-//W3C//DTD SVG 1.1//EN" "http://www.w3.org/Graphics/SVG/1.1/DTD/svg11.dtd"><svg t="1516873883353" class="icon" style="" viewBox="0 0 1037 1024" version="1.1" xmlns="http://www.w3.org/2000/svg" p-id="5021" xmlns:xlink="http://www.w3.org/1999/xlink" width="202.5390625" height="200"><defs><style type="text/css"></style></defs><path d="M824.623 143.567c-91.054-23.148-219.141 0-300.937 131.177-83.337-131.177-209.884-154.327-300.937-131.177-108.028 27.779-211.422 128.090-200.624 293.221 15.435 243.835 212.972 456.807 490.755 530.879 3.087 0 4.626 1.541 7.714 1.541 1.541 0 3.087 0 3.087 0 1.541 0 3.087 0 3.087 0 3.087 0 4.626 0 7.714-1.541 41.667-10.803 75.62-20.064 118.828-40.124 15.435-7.714 21.605-26.235 15.435-41.667s-26.235-21.605-41.667-15.435c-37.036 16.978-66.358 26.235-103.396 35.498-250.007-67.901-427.485-257.725-441.371-473.775-7.714-128.090 72.534-208.336 154.327-228.401 123.463-32.409 214.515 55.558 254.637 140.435 6.174 12.346 18.521 18.521 32.409 16.978 12.346 1.541 26.235-4.626 32.409-16.978 40.124-84.876 131.177-172.846 254.637-140.435 83.337 21.605 163.586 100.313 154.327 228.401-9.261 143.52-87.964 274.701-220.686 370.38-13.89 9.261-16.978 29.322-7.714 43.212 6.174 7.714 15.435 12.346 24.691 12.346 6.174 0 12.346-1.541 18.521-6.174 148.153-106.482 236.118-254.637 246.922-416.679 9.261-162.043-95.679-263.898-202.167-291.675z" p-id="5022"></path></svg>