<?xml version="1.0" standalone="no"?><!DOCTYPE svg PUBLIC "-//W3C//DTD SVG 1.1//EN" "http://www.w3.org/Graphics/SVG/1.1/DTD/svg11.dtd"><svg t="1516874101227" class="icon" style="" viewBox="0 0 1024 1024" version="1.1" xmlns="http://www.w3.org/2000/svg" p-id="11493" xmlns:xlink="http://www.w3.org/1999/xlink" width="200" height="200"><defs><style type="text/css"></style></defs><path d="M872.96 448.1536l-91.8528-46.592a234.5472 234.5472 0 0 0 12.4416-33.792 20.48 20.48 0 0 0-39.424-11.1104C721.92 470.6304 606.4128 511.0784 517.12 511.0784s-204.8-40.448-237.0048-154.368A20.48 20.48 0 1 0 240.64 367.8208a234.5472 234.5472 0 0 0 12.3904 33.7408L151.04 453.2736a20.48 20.48 0 1 0 18.5344 36.5056l102.7072-52.0704 0.9728-0.6144a245.4016 245.4016 0 0 0 65.5872 64.256L274.432 592.7424a20.48 20.48 0 1 0 33.4848 23.6032l64.2048-91.136a20.48 20.48 0 0 0 2.0992-3.7888 323.328 323.328 0 0 0 113.92 29.44L476.16 659.5072a20.48 20.48 0 0 0 18.1248 22.5792h2.2528a20.48 20.48 0 0 0 20.48-18.2272l12.288-112.1792a338.4832 338.4832 0 0 0 105.3696-19.712 20.48 20.48 0 0 0 1.8944 3.328l64.2048 91.136a20.48 20.48 0 1 0 33.4848-23.6032l-61.7984-87.808a250.88 250.88 0 0 0 88.576-77.9776l93.5424 47.4624a20.48 20.48 0 0 0 18.5344-36.5056z" fill="" p-id="11494"></path></svg>