<svg xmlns="http://www.w3.org/2000/svg" viewBox="0 0 512 512"><g fill="#a67eff"><path d="M438.659 52.656c27.872 0 50.466 22.594 50.466 50.455 0 27.872-22.594 50.466-50.466 50.466h-.198c-27.768-.104-50.257-22.656-50.257-50.466-.001-27.861 22.593-50.455 50.455-50.455zM480.122 342.109v117.235h-82.917V342.109h-.01c-17.597 0-31.878-14.27-31.878-31.877v-82.229c0-40.598 32.535-74.311 73.143-74.426h.198c20.268 0 38.585 8.209 51.864 21.478C503.791 188.323 512 206.65 512 226.908v83.324c0 17.607-14.27 31.877-31.878 31.877z"/></g><g fill="#52dbff"><path d="M365.596 52.656c27.872 0 50.466 22.594 50.466 50.455 0 27.872-22.594 50.466-50.466 50.466h-.198c-27.768-.104-50.257-22.656-50.257-50.466 0-27.861 22.594-50.455 50.455-50.455zM407.06 342.109v117.235h-82.917V342.109h-.01c-17.597 0-31.878-14.27-31.878-31.877v-82.229c0-40.598 32.535-74.311 73.143-74.426h.198c20.268 0 38.585 8.209 51.864 21.478 13.268 13.268 21.478 31.596 21.478 51.853v83.324c-.001 17.607-14.27 31.877-31.878 31.877z"/></g><g fill="#00dcab"><path d="M292.532 52.656c27.872 0 50.466 22.594 50.466 50.455 0 27.872-22.594 50.466-50.466 50.466h-.198c-27.768-.104-50.257-22.656-50.257-50.466 0-27.861 22.594-50.455 50.455-50.455zM333.996 342.109v117.235h-82.917V342.109h-.01c-17.597 0-31.878-14.27-31.878-31.877v-82.229c0-40.598 32.535-74.311 73.143-74.426h.198c20.268 0 38.585 8.209 51.864 21.478 13.268 13.268 21.478 31.596 21.478 51.853v83.324c0 17.607-14.27 31.877-31.878 31.877z"/></g><g fill="#fd0"><path d="M219.469 52.656c27.872 0 50.466 22.594 50.466 50.455 0 27.872-22.594 50.466-50.466 50.466h-.198c-27.768-.104-50.257-22.656-50.257-50.466-.001-27.861 22.593-50.455 50.455-50.455zM260.932 342.109v117.235h-82.917V342.109h-.01c-17.597 0-31.878-14.27-31.878-31.877v-82.229c0-40.598 32.535-74.311 73.143-74.426h.198c20.268 0 38.585 8.209 51.864 21.478 13.268 13.268 21.478 31.596 21.478 51.853v83.324c0 17.607-14.27 31.877-31.878 31.877z"/></g><g fill="#ff8522"><path d="M146.406 52.656c27.872 0 50.466 22.594 50.466 50.455 0 27.872-22.594 50.466-50.466 50.466h-.198c-27.768-.104-50.257-22.656-50.257-50.466 0-27.861 22.593-50.455 50.455-50.455zM187.87 342.109v117.235h-82.917V342.109h-.01c-17.597 0-31.877-14.27-31.877-31.877v-82.229c0-40.598 32.535-74.311 73.143-74.426h.198c20.268 0 38.585 8.209 51.864 21.478 13.268 13.268 21.478 31.596 21.478 51.853v83.324c-.002 17.607-14.272 31.877-31.879 31.877z"/></g><g fill="#fa496e"><path d="M73.341 52.656c27.872 0 50.466 22.594 50.466 50.455 0 27.872-22.594 50.466-50.466 50.466h-.198c-27.768-.104-50.257-22.656-50.257-50.466 0-27.861 22.594-50.455 50.455-50.455z"/><path d="M114.805 342.109v117.235H31.888V342.109h-.01C14.28 342.109 0 327.839 0 310.231v-82.229c0-40.598 32.535-74.311 73.143-74.426h.198c20.268 0 38.585 8.209 51.864 21.478 13.268 13.268 21.478 31.596 21.478 51.853v83.324c-.001 17.608-14.27 31.878-31.878 31.878z"/></g></svg>