<?xml version="1.0" encoding="iso-8859-1"?>
<!-- Generator: Adobe Illustrator 19.0.0, SVG Export Plug-In . SVG Version: 6.00 Build 0)  -->
<svg version="1.1" id="Layer_1" xmlns="http://www.w3.org/2000/svg" xmlns:xlink="http://www.w3.org/1999/xlink" x="0px" y="0px"
	 viewBox="0 0 512 512" style="enable-background:new 0 0 512 512;" xml:space="preserve">
<g>
	<path style="fill:#A67EFF;" d="M438.659,52.656c27.872,0,50.466,22.594,50.466,50.455c0,27.872-22.594,50.466-50.466,50.466
		c-0.063,0-0.136,0-0.198,0c-27.768-0.104-50.257-22.656-50.257-50.466C388.203,75.25,410.797,52.656,438.659,52.656z"/>
	<path style="fill:#A67EFF;" d="M480.122,342.109v117.235h-41.464h-41.453V342.109h-0.01c-17.597,0-31.878-14.27-31.878-31.877
		v-82.229c0-40.598,32.535-74.311,73.143-74.426c0.063,0,0.136,0,0.198,0c20.268,0,38.585,8.209,51.864,21.478
		C503.791,188.323,512,206.65,512,226.908v83.324C512,327.839,497.73,342.109,480.122,342.109z"/>
</g>
<g>
	<path style="fill:#52DBFF;" d="M365.596,52.656c27.872,0,50.466,22.594,50.466,50.455c0,27.872-22.594,50.466-50.466,50.466
		c-0.063,0-0.136,0-0.198,0c-27.768-0.104-50.257-22.656-50.257-50.466C315.141,75.25,337.735,52.656,365.596,52.656z"/>
	<path style="fill:#52DBFF;" d="M407.06,342.109v117.235h-41.464h-41.453V342.109h-0.01c-17.597,0-31.878-14.27-31.878-31.877
		v-82.229c0-40.598,32.535-74.311,73.143-74.426c0.063,0,0.136,0,0.198,0c20.268,0,38.585,8.209,51.864,21.478
		c13.268,13.268,21.478,31.596,21.478,51.853v83.324C438.937,327.839,424.668,342.109,407.06,342.109z"/>
</g>
<g>
	<path style="fill:#00DCAB;" d="M292.532,52.656c27.872,0,50.466,22.594,50.466,50.455c0,27.872-22.594,50.466-50.466,50.466
		c-0.063,0-0.136,0-0.198,0c-27.768-0.104-50.257-22.656-50.257-50.466C242.077,75.25,264.671,52.656,292.532,52.656z"/>
	<path style="fill:#00DCAB;" d="M333.996,342.109v117.235h-41.464h-41.453V342.109h-0.01c-17.597,0-31.878-14.27-31.878-31.877
		v-82.229c0-40.598,32.535-74.311,73.143-74.426c0.063,0,0.136,0,0.198,0c20.268,0,38.585,8.209,51.864,21.478
		c13.268,13.268,21.478,31.596,21.478,51.853v83.324C365.874,327.839,351.604,342.109,333.996,342.109z"/>
</g>
<g>
	<path style="fill:#FFDD00;" d="M219.469,52.656c27.872,0,50.466,22.594,50.466,50.455c0,27.872-22.594,50.466-50.466,50.466
		c-0.063,0-0.136,0-0.198,0c-27.768-0.104-50.257-22.656-50.257-50.466C169.013,75.25,191.607,52.656,219.469,52.656z"/>
	<path style="fill:#FFDD00;" d="M260.932,342.109v117.235h-41.464h-41.453V342.109h-0.01c-17.597,0-31.878-14.27-31.878-31.877
		v-82.229c0-40.598,32.535-74.311,73.143-74.426c0.063,0,0.136,0,0.198,0c20.268,0,38.585,8.209,51.864,21.478
		c13.268,13.268,21.478,31.596,21.478,51.853v83.324C292.81,327.839,278.54,342.109,260.932,342.109z"/>
</g>
<g>
	<path style="fill:#FF8522;" d="M146.406,52.656c27.872,0,50.466,22.594,50.466,50.455c0,27.872-22.594,50.466-50.466,50.466
		c-0.063,0-0.136,0-0.198,0c-27.768-0.104-50.257-22.656-50.257-50.466C95.951,75.25,118.544,52.656,146.406,52.656z"/>
	<path style="fill:#FF8522;" d="M187.87,342.109v117.235h-41.464h-41.453V342.109h-0.01c-17.597,0-31.877-14.27-31.877-31.877
		v-82.229c0-40.598,32.535-74.311,73.143-74.426c0.063,0,0.136,0,0.198,0c20.268,0,38.585,8.209,51.864,21.478
		c13.268,13.268,21.478,31.596,21.478,51.853v83.324C219.747,327.839,205.477,342.109,187.87,342.109z"/>
</g>
<g>
	<path style="fill:#FA496E;" d="M73.341,52.656c27.872,0,50.466,22.594,50.466,50.455c0,27.872-22.594,50.466-50.466,50.466
		c-0.063,0-0.136,0-0.198,0c-27.768-0.104-50.257-22.656-50.257-50.466C22.886,75.25,45.48,52.656,73.341,52.656z"/>
	<path style="fill:#FA496E;" d="M114.805,342.109v117.235H73.341H31.888V342.109h-0.01C14.28,342.109,0,327.839,0,310.231v-82.229
		c0-40.598,32.535-74.311,73.143-74.426c0.063,0,0.136,0,0.198,0c20.268,0,38.585,8.209,51.864,21.478
		c13.268,13.268,21.478,31.596,21.478,51.853v83.324C146.682,327.839,132.413,342.109,114.805,342.109z"/>
</g>
<g>
</g>
<g>
</g>
<g>
</g>
<g>
</g>
<g>
</g>
<g>
</g>
<g>
</g>
<g>
</g>
<g>
</g>
<g>
</g>
<g>
</g>
<g>
</g>
<g>
</g>
<g>
</g>
<g>
</g>
</svg>
