<svg xmlns="http://www.w3.org/2000/svg" viewBox="0 0 53 53"><path fill="#556080" d="M.5 0h52v53H.5z"/><path fill="#fff" d="M23.5 25V11l11 7z"/><path fill="#424a60" d="M.5 34.941h52V53H.5z"/><path d="M46.5 45h-30a1 1 0 1 1 0-2h30a1 1 0 1 1 0 2z" fill="#2a303d"/><path d="M6.5 48a1 1 0 0 1-1-1v-6a1 1 0 1 1 2 0v6a1 1 0 0 1-1 1zm4 0a1 1 0 0 1-1-1v-6a1 1 0 1 1 2 0v6a1 1 0 0 1-1 1z" fill="#fff"/><path d="M21.5 43h-5a1 1 0 1 0 0 2h5v-2z" fill="#dd352e"/><path d="M21.5 48a1 1 0 0 1-1-1v-6a1 1 0 1 1 2 0v6a1 1 0 0 1-1 1z" fill="#fff"/></svg>