<?xml version="1.0" standalone="no"?><!DOCTYPE svg PUBLIC "-//W3C//DTD SVG 1.1//EN" "http://www.w3.org/Graphics/SVG/1.1/DTD/svg11.dtd"><svg t="1516874081195" class="icon" style="" viewBox="0 0 1024 1024" version="1.1" xmlns="http://www.w3.org/2000/svg" p-id="11362" xmlns:xlink="http://www.w3.org/1999/xlink" width="200" height="200"><defs><style type="text/css"></style></defs><path d="M938.666667 501.333333c0-2.133333 0-2.133333-2.133334-4.266666-91.733333-142.933333-256-232.533333-426.666666-232.533334-177.066667 0-337.066667 89.6-428.8 243.2-2.133333 2.133333-2.133333 4.266667-2.133334 6.4v8.533334c0 2.133333 0 4.266667 2.133334 6.4C174.933333 680.533333 334.933333 770.133333 512 770.133333c66.133333 0 66.133333 0 145.066667-12.8 10.666667-2.133333 19.2-12.8 17.066666-23.466666-2.133333-10.666667-12.8-19.2-23.466666-17.066667-74.666667 12.8-74.666667 12.8-136.533334 12.8-157.866667 0-300.8-78.933333-386.133333-211.2 85.333333-132.266667 228.266667-211.2 386.133333-211.2 153.6 0 302.933333 81.066667 386.133334 209.066667-23.466667 38.4-32 46.933333-70.4 87.466666-8.533333 8.533333-8.533333 21.333333 0 29.866667 4.266667 4.266667 10.666667 6.4 14.933333 6.4 6.4 0 10.666667-2.133333 14.933333-6.4 44.8-44.8 51.2-53.333333 83.2-106.666667 4.266667-8.533333 2.133333-19.2-4.266666-25.6z" fill="#666666" p-id="11363"></path><path d="M377.6 514.133333c0 74.666667 61.866667 136.533333 136.533333 136.533334s136.533333-61.866667 136.533334-136.533334-61.866667-136.533333-136.533334-136.533333-136.533333 61.866667-136.533333 136.533333z m232.533333 0c0 51.2-42.666667 93.866667-93.866666 93.866667-51.2 0-93.866667-42.666667-93.866667-93.866667s42.666667-93.866667 93.866667-93.866666c51.2 0 93.866667 42.666667 93.866666 93.866666z" fill="#666666" p-id="11364"></path><path d="M757.333333 686.933333m-32 0a32 32 0 1 0 64 0 32 32 0 1 0-64 0Z" fill="#666666" p-id="11365"></path></svg>