<svg class="icon" viewBox="0 0 1024 1024" xmlns="http://www.w3.org/2000/svg" width="200" height="200"><defs><style/></defs><path d="M512.034 1.108C229.894 1.108 1 229.726 1 512.042c0 282.148 228.894 510.852 511.034 510.852 282.13 0 510.966-228.704 510.966-510.852C1023 229.726 794.164 1.108 512.034 1.108zM407.08 758.942c-16.55 3.444-34.466 15.57-44.67 23.372-1.088-.798-2.17-1.58-3.236-2.378l11.81-20.992s16.642-17.7 52.748-17.7c36.104 0 63.808 14.904 63.808 14.904s-50.958-3.394-80.46 2.794zm282.896-344.784l25.942-17.898 33.95 169.852-254.202 57.028 4.184 7.51c7.952 5.09 28.544 19.006 42.008 34.724 17.01 19.802 53.794 36.844 84.952 70.794 31.156 33.958 59.452 118.908 59.452 118.908s-16.976 31.124-39.616 45.27c-22.638 14.182-42.474 19.846-42.474 19.846l-83.104-182.808c-27.656-5.406-61.622-10.214-91.672-9.15-64.266 2.246-77.796 22.374-77.796 22.374l-8.06 16.542a249.53 249.53 0 0 1-37.328-41.468l-66.428 26.79-44.422-55 88.102-10.606a217.448 217.448 0 0 1-2.844-6.27l-95.346-.558-22.506-74.894 102.75 28.344a259.904 259.904 0 0 1-1.73-8.948l-110.084-43.566 6.954-87.794 99.838 74.356c.216-3.918.516-7.81.922-11.678l-105.934-89.342 38.284-89.626 81.948 118.036a248.724 248.724 0 0 1 4.224-10.562l-80.226-158.14 90.224-86.978 36.404 173.826a263.762 263.762 0 0 1 5.814-6.062l-16.202-200.858L444.81 155.01l-36.994 199.976a251.934 251.934 0 0 1 12.092-4.958l65.746-219.92 156.178-1.116-126.712 205.08c5.24.15 10.438.482 15.594.964L676.246 128.64l164.236 53.828L623.53 362.766a249.474 249.474 0 0 1 66.446 51.392zM469.592 366.5l14.18 4.26s-118.868 47.306-151.496 128.79c-42.474 106.208 45.27 209.566 45.27 209.566l-36.812 12.682s-2.146-2.744-5.532-7.808l7.086-2.854-18.614-16.076c-21.008-37.852-50.51-111.092-21.192-188.416C345.06 394.846 469.592 366.5 469.592 366.5z" fill="#eebe70"/></svg>