<?xml version="1.0" standalone="no"?><!DOCTYPE svg PUBLIC "-//W3C//DTD SVG 1.1//EN" "http://www.w3.org/Graphics/SVG/1.1/DTD/svg11.dtd"><svg t="1508820619358" class="icon" style="" viewBox="0 0 1024 1024" version="1.1" xmlns="http://www.w3.org/2000/svg" p-id="5337" xmlns:xlink="http://www.w3.org/1999/xlink" width="200" height="200"><defs><style type="text/css"></style></defs><path d="M512 84.565333a431.744 431.744 0 0 0-431.786667 431.786667A431.744 431.744 0 0 0 512 948.053333 431.744 431.744 0 0 0 943.786667 516.266667 431.744 431.744 0 0 0 512 84.608z m53.504 103.338667c38.826667 0 70.272 11.136 94.421333 33.28 24.362667 22.101333 36.565333 50.688 36.565334 85.888 0 37.930667-13.610667 71.381333-40.917334 100.266667-27.306667 28.885333-58.709333 43.306667-94.165333 43.306666-20.736 0-37.973333-5.077333-51.754667-15.232-13.525333-10.154667-20.309333-22.698667-20.309333-37.546666 0-9.045333 2.56-17.066667 7.722667-24.021334 5.418667-6.997333 11.690667-10.496 18.688-10.496 6.784 0 10.154667 3.925333 10.154666 11.818667 0 6.997333 2.56 12.373333 7.765334 16.213333 5.162667 3.84 11.136 5.802667 17.92 5.802667 18.048 0 35.328-12.373333 51.84-36.949333 16.682667-24.832 25.045333-51.285333 25.045333-79.488 0-19.84-6.442667-36.010667-19.328-48.426667-12.842667-12.629333-29.44-18.986667-49.749333-18.986667-30.464 0-59.989333 13.568-88.661334 40.661334-28.416 27.093333-51.669333 62.72-69.76 106.922666-17.792 43.989333-26.752 85.930667-26.752 125.653334 0 36.565333 7.893333 65.706667 23.68 87.338666 15.786667 21.461333 36.821333 32.170667 63.018667 32.170667 44.245333 0 86.485333-31.317333 126.890667-93.866667l63.701333-9.045333c7.893333-1.109333 11.818667 0.768 11.818667 5.76 0 2.261333-3.072 11.946667-9.173334 29.056-6.101333 17.152-14.378667 45.824-25.002666 86.016 34.986667-20.309333 62.08-42.794667 81.237333-67.413333v38.997333c-15.36 17.834667-44.629333 37.888-87.978667 60.245333-9.045333 60.032-29.098667 106.368-59.989333 139.093334-30.933333 32.938667-65.706667 49.493333-104.277333 49.493333-18.474667 0-33.066667-4.352-43.648-12.928-10.368-8.533333-15.573333-20.352-15.573334-35.498667 0-41.984 40.746667-82.773333 122.24-122.24 8.533333-30.464 16.853333-57.856 25.002667-82.261333-14.208 20.565333-34.858667 38.698667-61.909333 54.528-27.093333 15.786667-52.266667 23.637333-75.52 23.637333-37.930667 0-69.461333-16.341333-94.72-49.066666-25.088-32.938667-37.589333-74.581333-37.589334-124.928 0-53.034667 14.208-103.253333 42.666667-150.656a330.538667 330.538667 0 0 1 112-114.090667c46.250667-28.672 91.050667-43.008 134.4-43.008zM513.28 707.925333c-58.666667 29.312-87.978667 58.24-87.978667 86.656 0 15.104 7.210667 22.741333 21.674667 22.741334 28.416 0 50.517333-36.522667 66.304-109.397334z" fill="#26C6DA" p-id="5338"></path></svg>