<svg class="icon" viewBox="0 0 1024 1024" xmlns="http://www.w3.org/2000/svg" width="200" height="200"><defs><style/></defs><path d="M512 84.565A431.744 431.744 0 0 0 80.213 516.352 431.744 431.744 0 0 0 512 948.053a431.744 431.744 0 0 0 431.787-431.786A431.744 431.744 0 0 0 512 84.608zm53.504 103.339c38.827 0 70.272 11.136 94.421 33.28 24.363 22.101 36.566 50.688 36.566 85.888 0 37.93-13.611 71.381-40.918 100.267-27.306 28.885-58.709 43.306-94.165 43.306-20.736 0-37.973-5.077-51.755-15.232-13.525-10.154-20.309-22.698-20.309-37.546 0-9.046 2.56-17.067 7.723-24.022 5.418-6.997 11.69-10.496 18.688-10.496 6.784 0 10.154 3.926 10.154 11.819 0 6.997 2.56 12.373 7.766 16.213 5.162 3.84 11.136 5.803 17.92 5.803 18.048 0 35.328-12.373 51.84-36.95 16.682-24.831 25.045-51.285 25.045-79.487 0-19.84-6.443-36.011-19.328-48.427-12.843-12.63-29.44-18.987-49.75-18.987-30.463 0-59.989 13.568-88.66 40.662-28.417 27.093-51.67 62.72-69.76 106.922-17.793 43.99-26.753 85.931-26.753 125.654 0 36.565 7.894 65.706 23.68 87.338 15.787 21.462 36.822 32.171 63.019 32.171 44.245 0 86.485-31.317 126.89-93.867l63.702-9.045c7.893-1.11 11.819.768 11.819 5.76 0 2.261-3.072 11.947-9.174 29.056-6.101 17.152-14.378 45.824-25.002 86.016 34.986-20.31 62.08-42.795 81.237-67.413v38.997c-15.36 17.835-44.63 37.888-87.979 60.245-9.045 60.032-29.098 106.368-59.989 139.094-30.933 32.938-65.707 49.493-104.277 49.493-18.475 0-33.067-4.352-43.648-12.928-10.368-8.533-15.574-20.352-15.574-35.499 0-41.984 40.747-82.773 122.24-122.24 8.534-30.464 16.854-57.856 25.003-82.261-14.208 20.565-34.859 38.699-61.91 54.528-27.093 15.787-52.266 23.637-75.52 23.637-37.93 0-69.46-16.341-94.72-49.066-25.087-32.939-37.589-74.582-37.589-124.928 0-53.035 14.208-103.254 42.667-150.656a330.539 330.539 0 0 1 112-114.091c46.25-28.672 91.05-43.008 134.4-43.008zM513.28 707.925c-58.667 29.312-87.979 58.24-87.979 86.656 0 15.104 7.211 22.742 21.675 22.742 28.416 0 50.517-36.523 66.304-109.398z" fill="#26C6DA"/></svg>