<?xml version="1.0" standalone="no"?><!DOCTYPE svg PUBLIC "-//W3C//DTD SVG 1.1//EN" "http://www.w3.org/Graphics/SVG/1.1/DTD/svg11.dtd"><svg t="1508819629489" class="icon" style="" viewBox="0 0 1024 1024" version="1.1" xmlns="http://www.w3.org/2000/svg" p-id="1017" xmlns:xlink="http://www.w3.org/1999/xlink" width="200" height="200"><defs><style type="text/css"></style></defs><path d="M526.08 245.162667a276.608 272.256 0 0 0-276.565333 272.256 276.608 272.256 0 0 0 276.565333 272.213333 276.608 272.256 0 0 0 276.650667-272.213333 276.608 272.256 0 0 0-276.650667-272.213334z m79.36 81.749333a99.370667 97.792 0 0 1 99.413333 97.834667 99.370667 97.792 0 0 1-99.413333 97.749333 99.370667 97.792 0 0 1-99.370667-97.706667 99.370667 97.792 0 0 1 99.328-97.877333z" fill="#42A5F5" p-id="1018"></path><path d="M738.218667 196.906667a99.370667 97.792 0 1 0 198.741333 0 99.370667 97.792 0 1 0-198.741333 0Z" fill="#42A5F5" p-id="1019"></path></svg>