<svg width="166" height="145" viewBox="0 0 166 145" xmlns="http://www.w3.org/2000/svg"><title>colour-logo-white</title><defs><linearGradient x1="1.785%" y1=".016%" x2="1.785%" y2="18.116%" id="a"><stop stop-color="#F29100" offset="0%"/><stop stop-color="#EC670F" offset="100%"/></linearGradient></defs><g fill="none"><path d="M86.085 127c-.209-1.424.197-2.841-.232-4.177-.367-1.166-1.209-1.273-1.762-2.221-1.457-2.487-2.963-5.709-3.102-8.754-.127-2.735-1.133-5.206-1.27-7.917-.066-1.308.088-2.657.041-3.952a12.383 12.383 0 0 0-.186-1.86c-.031-.169-.143-.865-.195-1.144l.34-.848c-.15-.291 2.902-.194 3.812-.188 1.545.019 2.998.099 4.539.173 3.148.156 6.016.117 9.082-.356 6.832-1.055 9.973-3.845 11.58-5.005 6.273-4.523 9.146-11.918 9.146-11.918 1.035-2.31 1.031-6.431 3.25-8.276 2.615-2.179 7.006-2.022 10.008-3.359 1.756-.777 3.023-1.205 4.818-.833 1.332.278 3.73 1.821 4.281-.345-.445-.287-.619-.812-.857-1.103 2.475-.245.047-5.986-.932-7.133-1.512-1.77-4.035-2.581-6.719-3.293-3.188-.845-6.08-1.82-9.082-1.231-5.242 1.026-4.85-1.974-7.939-1.974-3.707 0-10.303.182-11.443 3.786-.531 1.683-1.078 1.753-1.998 3.044-.787 1.106.137 2.082-.258 3.344-.408 1.297-1.007 5.865-1.632 7.459-1.057 2.697-2.317 6.065-4.643 6.065-3.261.39-5.824.515-8.469-.445-1.592-.578-4.26-1.483-5.58-2.039-6.088-2.563-7.088-5.367-7.088-5.367-.653-1.08-2.374-2.821-3.018-5.093-.708-2.502-1.903-4.589-2.387-5.891-.501-1.349-1.699-3.51-2.64-5.846-1.205-2.991-2.9-5.223-4.141-6.331-1.896-1.69-3.646-4.306-7.495-3.546-.688.136-3.188.249-5.104 1.856-1.299 1.09-1.709 3.339-2.912 5.236-.695 1.096-1.917 4.24-3.038 6.863-.777 1.818-1.139 3.181-1.979 3.85-.657.524-1.471 1.201-2.456.832-.611-.229-1.264-.617-1.923-1.132-.89-.695-2.913-4.138-4.156-6.681-1.077-2.205-3.376-5.502-4.706-7.287-1.914-2.568-3.036-3.219-5.864-3.219-6.067 0-6.526 3.397-9.195 8.337-1.172 2.17-1.599 5.614-3.952 8.313-1.345 1.544-5.637 7.893-8.621 8.972v-.031L0 66.366v45.257l.008.063v-.284c.193-.59.398-1.156.631-1.662 1.154-2.459 3.832-4.741 5.32-7.266.809-1.376 1.732-2.724 2.268-4.168.461-1.244.688-3.099 1.354-4.178.816-1.323 2.094-1.773 3.406-1.987 2.055-.339 3.801 2.954 6.43 4.166 1.121.515 6.281 2.342 7.83 2.717 2.551.61 5.381 1.119 7.971 1.642 1.387.28 2.713.443 4.141.588 1.281.128 6.08.287 6.377.634-2.439 1.244-3.869 4.736-4.785 7.207-.955 2.575-1.621 5.441-2.775 7.96-1.279 2.783-3.961 3.941-3.641 7.184.123 1.294.359 2.651.143 4.075-.23 1.499-.836 2.669-1.277 4.137-.566 1.915-1.24 8.1-2.113 9.918l5.337-.669.009-.003c.583-1.386 1.12-7.237 1.309-7.794.998-2.934 2.322-5.348 4.359-7.617 1.986-2.211 1.883-5.061 3.043-7.637 1.256-2.8 2.945-5.039 4.539-7.671 2.881-4.759 4.781-10.767 10.906-11.989.654-.135 4.404 2.569 6.068 4.177 1.906 1.832 3.988 3.954 5.24 6.48 2.424 4.896 4.48 11.988 5.258 15.899.447 2.246.803 2.38 2.322 4.159.699.815 2.094 3.362 2.553 4.34.482 1.044 1.215 3.42 1.799 4.633.344.722 1.236 2.94 1.885 4.856l4.987-.156c.018.042.109-.012.13.027.002 0 .005 0 .007-.002-.021-.038-.04-.082-.058-.123-2.485-4.987-4.075-10.757-4.896-16.279z" fill="#FFF"/><path d="M82.919 97.901l.023-.061c-.034-.154-.046-.189-.023.061z" fill="#484444"/><path d="M83.453 98.402l.023-.061c-.034-.154-.046-.189-.023.061z" fill="url(#a)" transform="translate(-.534 -.501)"/><path d="M84.031 138.674c-.584-1.213-1.316-3.589-1.799-4.633-.459-.978-1.854-3.524-2.553-4.34-1.52-1.779-1.875-1.913-2.322-4.159-.777-3.911-2.834-11.004-5.258-15.899-1.252-2.526-3.334-4.648-5.24-6.48-1.664-1.607-5.414-4.312-6.068-4.177-6.125 1.223-8.025 7.23-10.906 11.989-1.594 2.632-3.283 4.871-4.539 7.671-1.16 2.575-1.057 5.426-3.043 7.637-2.037 2.27-3.361 4.684-4.359 7.617-.189.557-.726 6.408-1.309 7.794l-.001.003 9.104-.641c8.482.578 6.033 3.829 19.273 3.121l20.906-.647c-.65-1.916-1.542-4.134-1.886-4.856z" fill="#F08006"/><path d="M144.695 0H20.865C9.347 0 .01 9.339.01 20.857v45.507c2.984-1.079 7.276-7.428 8.621-8.972 2.353-2.7 2.78-6.144 3.952-8.313 2.669-4.94 3.128-8.337 9.195-8.337 2.828 0 3.951.652 5.864 3.219 1.331 1.785 3.63 5.083 4.706 7.287 1.242 2.544 3.266 5.986 4.156 6.681.659.516 1.312.903 1.923 1.132.984.369 1.798-.308 2.456-.832.84-.669 1.202-2.032 1.979-3.85 1.122-2.623 2.343-5.766 3.038-6.863 1.203-1.896 1.613-4.146 2.912-5.236 1.916-1.607 4.416-1.72 5.104-1.856 3.849-.76 5.599 1.856 7.495 3.546 1.241 1.108 2.937 3.34 4.141 6.331.941 2.336 2.139 4.497 2.64 5.846.484 1.302 1.679 3.389 2.387 5.891.643 2.272 2.364 4.013 3.018 5.093 0 0 1.001 2.804 7.088 5.367 1.32.556 3.988 1.46 5.58 2.039 2.645.961 5.207.836 8.469.445 2.326 0 3.586-3.368 4.643-6.065.625-1.594 1.224-6.162 1.632-7.459.395-1.262-.529-2.238.258-3.344.92-1.291 1.467-1.361 1.998-3.044 1.141-3.604 7.736-3.786 11.443-3.786 3.09 0 2.697 3 7.939 1.974 3.002-.589 5.895.387 9.082 1.231 2.684.712 5.207 1.523 6.719 3.293.979 1.146 3.406 6.888.932 7.133.238.291.412.816.857 1.103-.551 2.166-2.949.623-4.281.345-1.795-.372-3.062.056-4.818.833-3.002 1.337-7.393 1.181-10.008 3.359-2.219 1.846-2.215 5.967-3.25 8.276 0 0-2.873 7.394-9.146 11.918-1.607 1.16-4.748 3.95-11.58 5.005-3.066.474-5.934.513-9.082.356-1.541-.074-2.994-.153-4.539-.173-.91-.007-3.963-.104-3.812.188l-.34.848c.053.279.164.976.195 1.144.125.685.16 1.231.186 1.86.047 1.295-.107 2.645-.041 3.952.137 2.711 1.143 5.182 1.27 7.917.139 3.045 1.645 6.267 3.102 8.754.553.947 1.395 1.055 1.762 2.221.43 1.336.023 2.753.232 4.177.82 5.521 2.41 11.292 4.896 16.275.017.043.037.085.059.125 3.07-.516 6.146-1.62 10.135-2.21 7.314-1.085 17.486-.526 24.02-1.138 16.533-1.554 25.506 6.781 40.355 3.365V20.858C165.55 9.339 156.216 0 144.695 0zM82.919 97.901c-.023-.25-.012-.215.023-.061l-.023.061z" fill="#F08006"/><path d="M38.175 117.053c1.154-2.518 1.82-5.385 2.775-7.96.916-2.471 2.346-5.963 4.785-7.207-.297-.347-5.096-.506-6.377-.634-1.428-.145-2.754-.308-4.141-.588-2.59-.523-5.42-1.031-7.971-1.642-1.549-.375-6.709-2.202-7.83-2.717-2.629-1.212-4.375-4.505-6.43-4.166-1.312.214-2.59.664-3.406 1.987-.666 1.079-.893 2.933-1.354 4.178-.535 1.444-1.459 2.792-2.268 4.168-1.488 2.524-4.166 4.807-5.32 7.266a15.896 15.896 0 0 0-.631 1.662v28.113c1.346.23 2.754.513 4.33.934 11.631 3.104 14.469 3.366 25.877 2.062l1.07-.142v-.001c.873-1.818 1.547-8.003 2.113-9.918.441-1.468 1.047-2.638 1.277-4.137.217-1.424-.02-2.781-.143-4.075-.317-3.242 2.365-4.4 3.644-7.183z" fill="#F08006"/></g></svg>