<?xml version="1.0" standalone="no"?><!DOCTYPE svg PUBLIC "-//W3C//DTD SVG 1.1//EN" "http://www.w3.org/Graphics/SVG/1.1/DTD/svg11.dtd"><svg t="1508823215607" class="icon" style="" viewBox="0 0 1024 1024" version="1.1" xmlns="http://www.w3.org/2000/svg" p-id="11694" xmlns:xlink="http://www.w3.org/1999/xlink" width="200" height="200"><defs><style type="text/css"></style></defs><path d="M531.460515 426.920347v151.634665l50.352057 50.359771v0.005142l-145.512921 145.515492a22.509817 22.509817 0 0 0 0 31.840271l61.880787 61.880786 18.174974 18.172403a13.798994 13.798994 0 0 0 19.527363 0c18.745754-18.745754 18.745754-49.143649 0-67.884261l-30.590726-30.590726 133.364561-102.061645 0.002571 0.002571 0.015427-0.015427v-0.002571c27.443722-27.441151 44.418002-65.349175 44.418001-107.224377 0.002571-83.747833-67.884261-151.632094-151.632094-151.632094zM302.598279 868.783818h-44.57998L235.858149 702.933644c43.356145-61.243158 73.592062-132.418403 86.684008-209.432574h-167.094578v208.789804l45.616126 176.815836v28.978658a22.512388 22.512388 0 0 0 22.514959 22.514959h113.214997a13.804136 13.804136 0 0 0 13.809278-13.806706c0-26.512991-21.49424-48.009802-48.00466-48.009803z" fill="#dd6572" p-id="11695"></path><path d="M964.829134 157.159919h-43.857506c-13.930119-32.513895-46.207474-55.301389-83.819824-55.301389-50.346915 0-91.155119 40.815917-91.155118 91.155119v42.376563c0 41.129589-24.805793 76.448533-60.263576 91.862166a146.173689 146.173689 0 0 0-7.258163-15.135956l-92.494652-167.760488c-37.455513-67.951109-98.760377-67.951109-136.21589 0l-53.298517 96.672659-53.295946-96.672659c-37.460655-67.951109-98.760377-67.951109-136.223603 0l-92.486939 167.760488a140.784702 140.784702 0 0 0-9.284175 20.434954 146.417941 146.417941 0 0 0-22.805491 36.792175C33.907421 390.850646 0.002571 439.400376 0.002571 495.750766v94.656931a15.521618 15.521618 0 1 0 31.038094 0v-94.656931c0-33.807149 15.742731-63.986502 40.263134-83.652703a148.19713 148.19713 0 0 0-0.776466 14.88399v66.521588l-18.329239 208.789804 22.574094 176.815836v28.978658a22.512388 22.512388 0 0 0 22.51496 22.514959h113.214996a13.806707 13.806707 0 0 0 13.806707-13.806706c0-26.512991-21.491669-48.007231-48.002089-48.007232H131.729354l0.88188-165.850174h0.005143c24.800651-35.038697 51.298215-73.32724 71.890006-114.099448 48.405749 27.466862 104.337053 43.207022 163.965571 43.207022 67.272344 0 129.852464-19.997871 182.209965-54.311523h9.327883l0.326528 330.355673a22.512388 22.512388 0 0 0 22.514959 22.51496h113.217568a13.806707 13.806707 0 0 0 13.806707-13.806707c0-26.512991-21.49424-48.007231-48.00466-48.007231h-43.263586l22.047022-165.788469 1.694343-0.025711a510.403358 510.403358 0 0 0 74.723337-166.940312c115.786078-42.625958 205.151724-139.882253 236.83516-260.525104h10.916811c32.683586 0 59.17858-26.494993 59.17858-59.176008 0.002571-32.688728-26.489851-59.176009-59.173437-59.176009z" fill="#dd6572" p-id="11696"></path><path d="M988.6682 191.596983a13.166508 13.166508 0 0 0-26.330444 0h26.330444z" fill="#dd6572" p-id="11697"></path><path d="M863.649369 157.159919m-12.696 0a12.696 12.696 0 1 0 25.392 0 12.696 12.696 0 1 0-25.392 0Z" fill="#dd6572" p-id="11698"></path><path d="M732.935592 117.655254a17.159397 17.159397 0 0 0-1.159557 24.240155l20.905462 22.998323a17.156826 17.156826 0 1 0 25.394571-23.075455l-20.900321-23.000894a17.16711 17.16711 0 0 0-24.240155-1.162129z" fill="#dd6572" p-id="11699"></path><path d="M742.67742 128.374092a6.875072 6.875072 0 0 0-0.465366 9.710975l15.094819 16.611756a6.875072 6.875072 0 0 0 10.178911-9.245608l-15.094819-16.614328a6.877643 6.877643 0 0 0-9.713545-0.462795z" fill="#dd6572" p-id="11700"></path></svg>