<?xml version="1.0" standalone="no"?><!DOCTYPE svg PUBLIC "-//W3C//DTD SVG 1.1//EN" "http://www.w3.org/Graphics/SVG/1.1/DTD/svg11.dtd"><svg t="1508820821611" class="icon" style="" viewBox="0 0 1024 1024" version="1.1" xmlns="http://www.w3.org/2000/svg" p-id="7135" xmlns:xlink="http://www.w3.org/1999/xlink" width="200" height="200"><defs><style type="text/css"></style></defs><path d="M359.6288 527.477029l0 267.351771L215.127771 794.8288 215.127771 126.478629l285.403429 0c151.7568 4.856686 228.790857 62.6688 231.2192 173.407086-2.428343 86.688914-48.186514 140.9024-137.274514 162.581943l0 3.627886c65.038629 7.226514 104.769829 56.612571 119.222857 148.128914 0 7.226514 1.170286 14.453029 3.598629 21.650286 4.798171 81.92 16.822857 134.904686 36.132571 158.983314l-155.384686 0c-14.423771-57.812114-22.908343-117.9648-25.278171-180.6336-7.226514-57.812114-27.706514-86.718171-61.410743-86.718171L359.6288 527.506286zM359.6288 238.474971l0 177.005714 119.222857 0c65.038629 0 98.7136-31.275886 101.141943-93.915429-2.428343-55.383771-36.103314-83.090286-101.141943-83.090286L359.6288 238.474971z" p-id="7136" fill="#1296db"></path></svg>