<?xml version="1.0" standalone="no"?><!DOCTYPE svg PUBLIC "-//W3C//DTD SVG 1.1//EN" "http://www.w3.org/Graphics/SVG/1.1/DTD/svg11.dtd"><svg t="1580050327551" class="icon" viewBox="0 0 1024 1024" version="1.1" xmlns="http://www.w3.org/2000/svg" p-id="6563" xmlns:xlink="http://www.w3.org/1999/xlink" width="200" height="200"><defs><style type="text/css"></style></defs><path d="M578.46784 291.06176l145.77152 145.82272 79.66208 79.65184-310.50752 310.50752c-73.50272 16.03584-89.31328-20.30592-79.6672-79.62112-75.04384-10.31168-130.69824-43.88352-143.75936-128.55296l209.34656-203.01824-18.81088-19.35872-215.0656 208.54784c-54.25664 4.12672-65.80736-30.37696-57.16992-83.0976 103.50592-103.53152 206.98112-207.04768 310.51264-310.51264l79.68768 79.63136zM135.30624 709.31456l-37.67808 164.87936 60.88192 60.88192 165.0176-37.51936-188.22144-188.24192zM837.61664 482.81088l62.85824-62.7968c34.53952-34.55488 34.5088-91.0592 0-125.57312l-179.61984-179.58912c-34.59584-34.56512-91.04384-34.56512-125.50656 0.0256l-62.85824 62.75072 305.1264 305.18272z" p-id="6564"></path></svg>