<?xml version="1.0" standalone="no"?><!DOCTYPE svg PUBLIC "-//W3C//DTD SVG 1.1//EN" "http://www.w3.org/Graphics/SVG/1.1/DTD/svg11.dtd"><svg t="1602212907634" class="icon" viewBox="0 0 1024 1024" version="1.1" xmlns="http://www.w3.org/2000/svg" p-id="25177" xmlns:xlink="http://www.w3.org/1999/xlink" width="200" height="200"><defs><style type="text/css"></style></defs><path d="M727.7696 116.032a81.056 81.056 0 0 0-9.1072-14.0096c-11.2128-13.312-25.216-25.216-41.3312-35.7312-16.8192-9.8048-30.8224-16.8128-42.7392-19.6096-5.6-0.704-12.608-1.4016-19.6096-2.1056-7.008 0-14.7136 0.6976-21.7216 2.8032-7.7056 1.4016-14.7136 4.2048-21.7216 8.4032-7.008 4.9024-13.3056 10.5088-18.2144 17.5104-4.9088 6.304-9.8048 14.0096-16.1152 24.5184-6.304 9.8112-11.2064 18.2144-16.1152 25.2224l177.9392 102.976c2.8032-4.2048 5.6064-8.4032 9.1072-13.312 2.1056-4.9024 5.6064-9.8048 9.1136-15.4112 3.5008-5.6 7.0016-12.608 11.904-20.3136 3.5072-7.7056 6.304-14.7136 7.008-21.7152 0.6976-7.7056 0-14.0096-1.4016-21.0176-2.0928-6.2976-4.1984-12.6016-6.9952-18.208zM376.096 373.1392l-44.1344 77.056-40.6336 70.0544c-11.9104 21.0176-21.7216 38.5344-30.1248 52.544-7.7056 14.0032-13.312 23.1104-15.4112 27.3216-4.9024 8.4032-8.4032 16.1152-10.5088 23.1168-2.8032 7.008-4.2048 14.0096-5.6064 21.7216-0.6976 5.6-2.0992 14.7072-2.8032 27.3216-0.704 13.312-1.4016 28.0192-2.1056 43.4304 0 15.4112-0.6976 30.1248-0.6976 44.1344s0 25.216 0.6976 32.224c2.1056 14.0096 5.6 22.4192 11.2064 27.3216 6.304 4.2048 16.1152 3.5072 28.7232-1.4016 6.304-2.8032 15.4112-7.7056 28.0192-14.7136s25.2224-15.4112 38.528-23.8208a1211.4368 1211.4368 0 0 0 38.5344-25.92c12.6144-9.1072 21.7216-15.4112 28.0256-21.0112 5.6-4.9088 11.904-11.2128 16.8128-17.5168 4.9024-7.008 9.8048-13.3056 13.3056-18.912 1.408-2.0992 6.304-9.8048 14.0096-23.1168s17.5104-30.1248 28.7232-51.136c11.904-20.32 25.216-42.7392 39.9296-67.9552l44.1344-77.056 118.3936-204.5632-178.6368-103.68-118.3808 204.5568zM870.6816 895.744c0 24.5184-20.32 44.8384-44.8384 44.8384H197.4528c-24.5184 0-44.1344-20.32-44.1344-44.8384 0-24.5184 19.616-44.8384 44.1344-44.8384h628.3904c24.5184 0 44.8384 20.32 44.8384 44.8384zM870.6816 750.7328c0 24.5184-20.32 44.832-44.8384 44.832H549.8304c-24.5184 0-44.8384-20.3136-44.8384-44.832a44.704 44.704 0 0 1 44.8384-44.8384h276.0128a44.704 44.704 0 0 1 44.8384 44.8384z" p-id="25178"></path></svg>