<?xml version="1.0" standalone="no"?><!DOCTYPE svg PUBLIC "-//W3C//DTD SVG 1.1//EN" "http://www.w3.org/Graphics/SVG/1.1/DTD/svg11.dtd"><svg t="1602212576682" class="icon" viewBox="0 0 1024 1024" version="1.1" xmlns="http://www.w3.org/2000/svg" p-id="20867" xmlns:xlink="http://www.w3.org/1999/xlink" width="200" height="200"><defs><style type="text/css"></style></defs><path d="M256 384V64h402.746L768 173.254V384h64V160a31.99 31.99 0 0 0-9.374-22.626l-128-128A31.99 31.99 0 0 0 672 0H224c-17.672 0-32 14.328-32 32v352h64z m763.422 463.568l0.018-0.032L856.518 576H960V448H64v128h103.482L4.58 847.57C1.69 852.376 0 857.984 0 864v128c0 17.674 14.328 32 32 32h960c17.674 0 32-14.326 32-32V864c0-6.016-1.69-11.624-4.578-16.432zM672 576h64c17.674 0 32 14.328 32 32s-14.326 32-32 32h-64c-17.674 0-32-14.328-32-32s14.326-32 32-32z m0 128h64c17.674 0 32 14.326 32 32s-14.326 32-32 32h-64c-17.674 0-32-14.326-32-32s14.326-32 32-32zM480 576h64c17.674 0 32 14.328 32 32s-14.326 32-32 32h-64c-17.672 0-32-14.328-32-32s14.328-32 32-32z m0 128h64c17.674 0 32 14.326 32 32s-14.326 32-32 32h-64c-17.672 0-32-14.326-32-32s14.328-32 32-32zM288 576h64c17.672 0 32 14.328 32 32s-14.328 32-32 32h-64c-17.672 0-32-14.328-32-32s14.328-32 32-32z m0 128h64c17.672 0 32 14.326 32 32s-14.328 32-32 32h-64c-17.672 0-32-14.326-32-32s14.328-32 32-32z m576 192H160c-17.672 0-32-14.326-32-32s14.328-32 32-32h704c17.674 0 32 14.326 32 32s-14.326 32-32 32zM352 192h256c17.674 0 32-14.328 32-32s-14.326-32-32-32H352c-17.672 0-32 14.328-32 32s14.328 32 32 32z m320 64H352c-17.672 0-32 14.328-32 32s14.328 32 32 32h320c17.674 0 32-14.328 32-32s-14.326-32-32-32z" p-id="20868"></path></svg>