<?xml version="1.0" standalone="no"?><!DOCTYPE svg PUBLIC "-//W3C//DTD SVG 1.1//EN" "http://www.w3.org/Graphics/SVG/1.1/DTD/svg11.dtd"><svg t="1601295362054" class="icon" viewBox="0 0 1024 1024" version="1.1" xmlns="http://www.w3.org/2000/svg" p-id="36515" xmlns:xlink="http://www.w3.org/1999/xlink" width="200" height="200"><defs><style type="text/css"></style></defs><path d="M193.92384 540.04352c40.2048-58.34624 101.67168-130.68544 170.944-153.42464-27.37408 47.9616-41.5488 91.99872-46.66624 119.92704-48.89472 2.9952-91.04 17.20576-124.27776 33.4976zM492.82816 838.77888c16.28544-33.23776 30.54336-75.3344 33.4976-124.18688 27.8848-5.09824 71.97696-19.27424 119.90272-46.6112-22.78784 69.13792-95.09632 130.5984-153.40032 170.79808z" p-id="36516"></path><path d="M885.47968 126.26176c-109.47584 0-206.97728 18.60352-289.96608 55.21792-68.38656 30.20672-126.94272 72.5568-174.07232 125.9584a479.61984 479.61984 0 0 0-24.46848 30.15936c-36.36608 2.40512-73.5744 16.87552-110.69952 43.03104-31.43552 22.10688-62.98624 52.72704-93.87264 90.99264-51.89632 64.2816-83.78496 127.69024-85.13408 130.34112-4.59776 9.23904-1.8496 20.4608 6.49728 26.49344a20.98944 20.98944 0 0 0 12.36096 4.00768c5.40032 0 10.80064-2.0672 14.89152-6.11712 0.2112-0.20992 20.37632-20.0384 54.76608-39.4816 28.34432-16.03712 72.05632-34.88896 124.91648-38.2208 13.36704 34.21312 51.63776 75.1296 69.99552 93.48096 18.35264 18.34496 59.27424 56.61056 93.49376 69.98272-3.33312 52.85504-22.19648 96.55552-38.2272 124.90496-19.49184 34.41408-39.28192 54.54208-39.45088 54.71104-7.29856 7.29216-8.22144 18.85312-2.20032 27.24736a21.14048 21.14048 0 0 0 17.13408 8.7744c3.2128 0 6.4192-0.71808 9.41312-2.23616 2.65216-1.3504 66.06592-33.24416 130.36672-85.12768 38.25792-30.87488 68.88576-62.432 91.00416-93.85472 26.1504-37.16736 40.57856-74.32832 43.01952-110.6944a466.44224 466.44224 0 0 0 30.1696-24.46208c53.4144-47.11808 95.76448-105.66784 125.9712-174.048 36.62464-82.93504 55.1872-180.50304 55.1872-289.96608v-21.0944h-21.09568zM632.39168 505.95456c-58.13504 0-105.46816-47.328-105.46816-105.45664s47.33312-105.46304 105.46816-105.46304c58.13376 0 105.47456 47.33312 105.47456 105.46304s-47.3408 105.45664-105.47456 105.45664z" p-id="36517"></path><path d="M129.26848 903.54816c4.04992 4.00128 19.78624 5.77408 22.14912 4.93568 163.10272-59.31648 192.70016-61.35296 206.78528-124.96512 4.47232-20.24448 3.36896-50.83008-27.33184-81.53728-19.45472-19.40608-40.9344-29.27744-63.92064-29.27744-69.6576 0-77.64864 30.26048-142.56896 208.73088-2.83264 7.68-0.89216 16.32768 4.88704 22.11328z" p-id="36518"></path><path d="M266.9504 714.8928c11.55328 0 22.69184 5.52064 34.08768 16.91136 14.01216 14.00576 19.23712 27.96416 15.98976 42.56128-3.25376 14.59584-16.58624 38.51776-61.6 69.4336-32.52608 9.0944-53.45792 21.1968-89.96736 20.39552 3.55584-36.86656 19.77344-53.68064 30.44096-96.4096 25.61408-34.63168 50.16064-52.89216 71.04896-52.89216z" p-id="36519"></path></svg>