<?xml version="1.0" standalone="no"?><!DOCTYPE svg PUBLIC "-//W3C//DTD SVG 1.1//EN" "http://www.w3.org/Graphics/SVG/1.1/DTD/svg11.dtd"><svg t="1602208811442" class="icon" viewBox="0 0 1024 1024" version="1.1" xmlns="http://www.w3.org/2000/svg" p-id="20579" xmlns:xlink="http://www.w3.org/1999/xlink" width="200" height="200"><defs><style type="text/css"></style></defs><path d="M624 768h32a16 16 0 0 0 16-16v-32a16 16 0 0 0-16-16h-32a16 16 0 0 0-16 16v32a16 16 0 0 0 16 16z m128 0h32a16 16 0 0 0 16-16v-32a16 16 0 0 0-16-16h-32a16 16 0 0 0-16 16v32a16 16 0 0 0 16 16z m-512 0h32a16 16 0 0 0 16-16v-32a16 16 0 0 0-16-16h-32a16 16 0 0 0-16 16v32a16 16 0 0 0 16 16z m720-384h-64v-165.46a64.14 64.14 0 0 0-18.76-45.3L722.76 18.76A64 64 0 0 0 677.5 0H224a96 96 0 0 0-96 96v288H64a64 64 0 0 0-64 64v128a64 64 0 0 0 64 64v256a128 128 0 0 0 128 128h640a128 128 0 0 0 128-128V640a64 64 0 0 0 64-64v-128a64 64 0 0 0-64-64zM704 90.5L805.5 192H704zM192 96a32 32 0 0 1 32-32h416v128a64 64 0 0 0 64 64h128v128h-101.5a64 64 0 0 0-45.24 18.74l-26.52 26.52a64 64 0 0 1-45.24 18.74h-203a64 64 0 0 1-45.24-18.74l-26.52-26.52a64 64 0 0 0-45.24-18.74H192z m704 800a64 64 0 0 1-64 64H192a64 64 0 0 1-64-64V640h768z m64-320H64v-128h229.5L320 474.5A127.16 127.16 0 0 0 410.5 512h203A127.16 127.16 0 0 0 704 474.5L730.5 448H960zM288 880a16 16 0 0 0 16 16h416a16 16 0 0 0 16-16v-32a16 16 0 0 0-16-16H304a16 16 0 0 0-16 16z m80-112h32a16 16 0 0 0 16-16v-32a16 16 0 0 0-16-16h-32a16 16 0 0 0-16 16v32a16 16 0 0 0 16 16z m128 0h32a16 16 0 0 0 16-16v-32a16 16 0 0 0-16-16h-32a16 16 0 0 0-16 16v32a16 16 0 0 0 16 16z" p-id="20580"></path></svg>