<svg xmlns="http://www.w3.org/2000/svg" viewBox="0 0 32 32"><title>file_type_meteor</title><path d="M2 2.273l23.979 25.4a1.119 1.119 0 0 0 1.442-.1 1.064 1.064 0 0 0 .144-1.344L2 2.273zM9.593 4.674l18.26 19.686a1.119 1.119 0 0 0 1.442-.1 1.064 1.064 0 0 0 .144-1.344L9.593 4.674zM4.259 9.811L22.519 29.5a1.119 1.119 0 0 0 1.442-.1 1.064 1.064 0 0 0 .144-1.344L4.259 9.811zM16.011 6.738l12.758 13.754a.782.782 0 0 0 1.007-.067.743.743 0 0 0 .1-.939L16.011 6.738zM6.016 15.765l12.757 13.753a.782.782 0 0 0 1.007-.067.743.743 0 0 0 .1-.939L6.016 15.765zM22.567 9.715l5.782 6.252a.4.4 0 0 0 .5-.031.335.335 0 0 0 .05-.44l-6.33-5.781zM9.208 22.1l5.782 6.252a.4.4 0 0 0 .5-.031.335.335 0 0 0 .05-.44L9.208 22.1z" fill="#df4f4f"/></svg>