<?xml version="1.0" standalone="no"?><!DOCTYPE svg PUBLIC "-//W3C//DTD SVG 1.1//EN" "http://www.w3.org/Graphics/SVG/1.1/DTD/svg11.dtd"><svg t="1617514480504" class="icon" viewBox="0 0 1025 1024" version="1.1" xmlns="http://www.w3.org/2000/svg" p-id="16682" xmlns:xlink="http://www.w3.org/1999/xlink" width="200.1953125" height="200"><defs><style type="text/css"></style></defs><path d="M505.67047 0.046126C222.958318 3.828468-3.223704 236.124765 0.558639 518.913794c3.777217 282.589149 236.078639 508.842923 518.79079 505.04008 282.717277-3.782342 508.889049-236.078639 505.116957-518.867668C1020.73017 222.450931 788.387748-3.736216 505.67047 0.046126z m56.760761 170.635916c52.02002 0 67.385145 30.166486 67.385145 64.70983 0 43.153554-34.568969 83.037277-93.497657 83.037277-49.303704 0-72.756276-24.820981-71.367368-65.780981 0.035876-34.543343 28.972332-81.966126 97.47988-81.966126zM428.967848 832.002563c-35.563243 0-61.609129-21.602402-36.736897-116.540221l40.785746-168.293733c7.072673-26.994034 8.241201-37.792673 0-37.792673-10.62951 0-56.832513 18.655455-84.134054 37.008528l-17.753434-29.11071c86.553113-72.233514 186.047167-114.633674 228.688208-114.633674 35.547868 0 41.446887 42.082402 23.698579 106.781982l-46.736016 176.980821c-8.241201 31.283764-4.679239 42.077277 3.556837 42.077277 10.62951 0 45.639239-12.92044 80.018578-39.9606l20.090491 26.994034c-84.087928 84.082803-175.853293 116.488969-211.478038 116.488969z" p-id="16683"></path></svg>