<?xml version="1.0" standalone="no"?><!DOCTYPE svg PUBLIC "-//W3C//DTD SVG 1.1//EN" "http://www.w3.org/Graphics/SVG/1.1/DTD/svg11.dtd"><svg t="1607863209389" class="icon" viewBox="0 0 1024 1024" version="1.1" xmlns="http://www.w3.org/2000/svg" p-id="10506" xmlns:xlink="http://www.w3.org/1999/xlink" width="200" height="200"><defs><style type="text/css"></style></defs><path d="M538.666667 872.07619s-0.609524 0 0 0c-20.571429 0-38.704762-13.561905-44.8-33.371428l-144.457143-483.961905-68.419048 207.847619c-6.247619 19.2-24.07619 32-44.342857 32H91.733333c-12.342857 0-24.228571-4.87619-32.914285-13.714286-8.838095-8.838095-13.714286-20.571429-13.714286-32.914285 0.304762-25.6 21.028571-46.47619 46.628571-46.628572h111.085715l104.838095-317.257143c6.247619-19.2 24.990476-31.542857 45.257143-32 20.266667 0.457143 38.247619 14.019048 44.038095 33.371429l142.628571 478.628571L647.619048 310.704762c5.790476-18.590476 22.704762-31.695238 42.209523-32.914286 19.657143-0.457143 37.790476 10.209524 45.257143 28.495238L816.761905 501.790476h115.504762c25.447619 0 46.628571 21.028571 46.628571 46.628572s-20.571429 46.628571-46.628571 46.628571h-146.590477c-18.895238 0-35.657143-11.12381-43.123809-28.495238L698.209524 461.714286l-115.352381 377.904762c-6.247619 19.047619-24.228571 32.152381-44.190476 32.457142z" p-id="10507"></path></svg>