<?xml version="1.0" standalone="no"?><!DOCTYPE svg PUBLIC "-//W3C//DTD SVG 1.1//EN" "http://www.w3.org/Graphics/SVG/1.1/DTD/svg11.dtd"><svg t="1605883472374" class="icon" viewBox="0 0 1024 1024" version="1.1" xmlns="http://www.w3.org/2000/svg" p-id="9580" xmlns:xlink="http://www.w3.org/1999/xlink" width="200" height="200"><defs><style type="text/css"></style></defs><path d="M992.102 319.534h-0.062c-17.634 0-31.929 14.252-31.96 31.872v608.662l-896.16-1.934V63.869h481.46c17.665 0 31.96-14.283 31.96-31.935S563.045 0 545.38 0H31.96C14.295 0 0 14.283 0 31.935v958.072c0 17.62 14.263 33.962 31.898 33.993h958.893a32 32 0 0 0 22.565-9.294c5.993-5.988 10.612-14.096 10.643-22.579V351.531c0.032-17.651-14.231-31.966-31.897-31.997z" p-id="9581"></path><path d="M544.413 320.439c0.031-17.62-14.232-31.966-31.898-31.997h-0.062c-17.603 0-31.929 14.252-31.96 31.872v158.863H320.068c-17.634 0.094-31.898 16.217-31.804 33.868 0.094 17.589 14.388 30.001 31.96 30.001h160.268V703.53c-0.031 17.62 13.296 31.966 30.961 31.997h0.062c17.603 0 32.865-14.252 32.896-31.872V543.046H703.9c17.634-0.094 31.898-14.439 31.804-32.091-0.094-17.589-14.388-31.779-31.96-31.779H544.413V320.439z" p-id="9582"></path></svg>