<svg t="1630657616189" class="icon" viewBox="0 0 1024 1024" version="1.1" xmlns="http://www.w3.org/2000/svg" p-id="6608" xmlns:xlink="http://www.w3.org/1999/xlink" width="200" height="200"><defs><style type="text/css"></style></defs><path d="M256 768c0 23.466667 19.2 42.666667 42.666667 42.666667h42.666666v149.333333c0 35.413333 28.586667 64 64 64s64-28.586667 64-64V810.666667h85.333334v149.333333c0 35.413333 28.586667 64 64 64s64-28.586667 64-64V810.666667h42.666666c23.466667 0 42.666667-19.2 42.666667-42.666667V341.333333H256v426.666667zM149.333333 341.333333C113.92 341.333333 85.333333 369.92 85.333333 405.333333v298.666667c0 35.413333 28.586667 64 64 64S213.333333 739.413333 213.333333 704v-298.666667C213.333333 369.92 184.746667 341.333333 149.333333 341.333333z m725.333334 0c-35.413333 0-64 28.586667-64 64v298.666667c0 35.413333 28.586667 64 64 64s64-28.586667 64-64v-298.666667c0-35.413333-28.586667-64-64-64z m-212.053334-249.173333l55.466667-55.466667c8.533333-8.533333 8.533333-21.76 0-30.293333-8.533333-8.533333-21.76-8.533333-30.293333 0l-63.146667 63.146667A249.173333 249.173333 0 0 0 512 42.666667c-40.96 0-79.36 9.813333-113.493333 26.88L334.933333 6.4c-8.533333-8.533333-21.76-8.533333-30.293333 0-8.533333 8.533333-8.533333 21.76 0 30.293333l55.893333 55.893334A255.274667 255.274667 0 0 0 256 298.666667h512c0-84.906667-41.386667-160-105.386667-206.506667zM426.666667 213.333333H384V170.666667h42.666667v42.666666z m213.333333 0h-42.666667V170.666667h42.666667v42.666666z" p-id="6609"></path></svg>