<?xml version="1.0" standalone="no"?><!DOCTYPE svg PUBLIC "-//W3C//DTD SVG 1.1//EN" "http://www.w3.org/Graphics/SVG/1.1/DTD/svg11.dtd"><svg t="1604931682036" class="icon" viewBox="0 0 1024 1024" version="1.1" xmlns="http://www.w3.org/2000/svg" p-id="18293" xmlns:xlink="http://www.w3.org/1999/xlink" width="200" height="200"><defs><style type="text/css"></style></defs><path d="M918.016 292.864c0-0.512 0-0.512 0 0zM918.528 295.936v-1.024 1.024zM919.04 298.496c0-1.024-0.512-1.536-0.512-2.56 0 1.024 0 1.536 0.512 2.56-5.12-29.184-24.576-55.296-51.2-69.12-6.656-3.584-10.24-2.048-10.24-9.728 0-7.168-1.024-14.848-3.072-21.504-4.096-15.36-11.776-29.184-22.016-41.472-19.968-23.552-50.176-39.424-81.408-39.424-8.704 0-16.384 4.608-20.992-2.56-4.096-6.144-8.704-11.776-14.336-16.896-10.752-10.24-23.552-17.92-37.888-22.528-53.248-16.896-110.08 21.504-99.84 80.384 4.608 26.112 9.216 52.224 13.824 78.848-57.856-15.36-119.808-10.24-174.08 13.824-42.496 18.944-74.752 49.152-104.448 83.968-29.696 34.816-55.808 69.12-69.632 113.152-18.944 60.416-14.336 127.488 11.776 185.344-39.936 0-99.84-11.264-131.072 19.968-32.768 32.768-22.528 86.016 7.68 116.224 7.168 7.168 14.848 12.8 24.064 17.408 6.656 3.584 10.24 2.048 10.24 9.728 0 5.632 0.512 10.752 1.536 16.384 4.608 23.552 18.432 44.544 36.864 59.904 17.408 14.848 39.424 24.576 61.952 26.112 8.192 0.512 16.384 0 24.576-1.536 5.632 9.728 12.8 17.92 20.992 25.088 30.72 26.112 79.872 32.768 111.616 5.12 39.936-35.328 16.384-99.328 8.192-143.872 57.856 15.36 119.808 10.752 174.592-13.824 42.496-18.944 74.752-49.152 104.448-83.968 29.184-34.816 55.808-69.12 69.12-113.152 18.944-61.44 14.336-129.024-12.288-186.88 25.088 0 50.176 0.512 74.752 0.512 48.128-0.512 83.968-36.864 76.288-85.504 0 0.512 0 1.536 0.512 2.048-0.512-0.512-0.512-1.024-0.512-2.048zM390.144 882.688c-0.512 1.024-1.024 1.024-1.536 1.536-0.512 0.512-0.512 0.512 0 0l1.536-1.536c-17.92 21.504-52.224 7.68-66.048-10.752-9.728-12.8-10.752-30.208-13.312-45.568-5.632 6.656-11.264 15.36-18.944 19.968-18.432 11.264-43.008 2.048-57.856-10.752-14.336-11.776-26.112-31.744-21.504-51.2 2.56-10.24 11.264-18.432 17.92-26.112-17.408 0-35.84 2.048-51.712-7.68-23.04-14.848-39.424-64-0.512-70.144 28.16-4.608 59.392 0 88.064 0 13.824 0 14.336 7.168 23.04 17.92 11.776 14.848 25.6 28.16 40.448 39.424 13.824 10.752 28.16 19.456 44.032 27.136 9.216 4.096 7.68 14.848 9.216 24.576 2.56 13.312 4.608 26.624 7.168 39.424 3.584 16.384 11.776 39.936 0 53.76 1.536-1.536 2.56-3.072 0 0z m301.568-255.488c-15.36 17.92-29.696 37.376-46.592 53.76-32.768 31.744-76.288 51.2-121.856 55.808-97.792 10.24-193.536-50.688-226.304-143.36-14.848-41.472-16.384-87.04-4.608-129.536 10.24-34.816 29.696-62.976 52.736-90.624 22.016-26.112 43.52-50.688 73.216-68.096 40.96-23.552 89.6-32.768 136.192-25.6 75.264 11.264 141.312 63.488 169.472 134.144 29.696 71.68 17.408 154.624-32.256 213.504zM865.28 324.096c-0.512 0.512-0.512 1.024-1.536 1.536-2.56 3.072-1.536 1.536 0 0-11.776 13.824-36.864 9.728-52.736 9.728h-40.96c-5.632 0-17.92 2.56-23.04 0-10.752-16.384-24.064-30.72-38.4-44.032-13.824-12.8-29.696-24.064-46.08-33.28-12.288-6.656-18.944-6.144-21.504-19.456-5.12-27.648-11.776-55.808-14.848-83.968-6.656-38.4 40.448-40.96 62.464-23.552 18.432 14.336 19.968 35.328 23.552 56.832 5.632-6.656 11.264-15.872 18.944-20.48 18.432-11.264 43.52-2.048 58.88 10.752 14.336 12.288 26.624 32.256 22.016 51.712-2.56 10.24-11.776 18.432-18.432 26.624 14.336 0 30.208-2.048 44.032 3.584 23.04 9.216 45.568 43.52 26.112 66.56 0.512-1.536 1.024-2.048 1.536-2.56 0.512-0.512 0.512-0.512 0 0zM918.528 295.936z" fill="" p-id="18294"></path><path d="M918.016 294.912c0-1.024-0.512-1.536-0.512-2.048 0.512 0 0.512 1.024 0.512 2.048zM919.552 302.08c0 0.512 0 1.536 0.512 2.048-0.512-0.512-0.512-1.024-0.512-2.048zM919.552 304.128c0.512 0 0.512 0 0 0 0.512 0 0.512 0 0 0zM919.04 300.544v1.536c0.512-0.512 0.512-1.024 0-1.536zM920.064 304.128v0zM668.672 507.392c-16.896-14.336-30.208 5.632-39.936 16.896-15.36 17.92-30.72 36.352-46.08 54.272-15.36 18.432-31.232 36.864-46.592 55.296-9.728 11.776-29.184 29.184-11.776 44.032 16.896 14.336 30.208-5.632 39.936-16.896 15.36-17.92 30.72-36.352 46.08-54.272 15.36-18.432 31.232-36.864 46.592-55.296 9.728-11.776 29.184-29.184 11.776-44.032-8.704-7.168 8.192 7.168 0 0z" fill="" p-id="18295"></path></svg>