<?xml version="1.0" standalone="no"?><!DOCTYPE svg PUBLIC "-//W3C//DTD SVG 1.1//EN" "http://www.w3.org/Graphics/SVG/1.1/DTD/svg11.dtd"><svg t="1605925861894" class="icon" viewBox="0 0 1024 1024" version="1.1" xmlns="http://www.w3.org/2000/svg" p-id="50226" xmlns:xlink="http://www.w3.org/1999/xlink" width="200" height="200"><defs><style type="text/css"></style></defs><path d="M762.08 968.096H180.32c-81.792 0-148.32-66.24-148.32-147.696V203.6c0-81.456 66.528-147.696 148.32-147.696h329.52c21.264 0 38.496 17.232 38.496 38.496s-17.232 38.496-38.496 38.496H180.32c-39.312 0-71.328 31.728-71.328 70.704v616.8c0 38.976 32.016 70.704 71.328 70.704h581.76c39.312 0 71.328-31.728 71.328-70.704V569.6c0-21.264 17.232-38.496 38.496-38.496s38.496 17.232 38.496 38.496v250.8c0.048 81.456-66.528 147.696-148.32 147.696z" p-id="50227"></path><path d="M398.24 718.928c-28.272-28.128-28.272-73.728 0-101.808l470.208-467.52c28.272-28.128 74.112-28.128 102.432 0 28.272 28.128 28.272 73.728 0 101.808l-470.208 467.52c-28.272 28.128-74.16 28.128-102.432 0z"  p-id="50228"></path><path d="M500.72 718.928c-28.272 28.128-74.112 28.128-102.432 0L200.288 522.08c-28.272-28.128-28.272-73.728 0-101.808 28.272-28.128 74.112-28.128 102.432 0l198 196.848a71.7024 71.7024 0 0 1 0 101.808z" p-id="50229"></path></svg>