<?xml version="1.0" standalone="no"?><!DOCTYPE svg PUBLIC "-//W3C//DTD SVG 1.1//EN" "http://www.w3.org/Graphics/SVG/1.1/DTD/svg11.dtd"><svg t="1604667159472" class="icon" viewBox="0 0 1024 1024" version="1.1" xmlns="http://www.w3.org/2000/svg" p-id="4679" xmlns:xlink="http://www.w3.org/1999/xlink" width="200" height="200"><defs><style type="text/css"></style></defs><path d="M950.784 328.576c-40.384 0-73.152 32.896-73.152 73.344 0 23.616 11.2 44.608 28.352 57.984l-195.584 151.68L537.216 282.24C565.184 272 585.088 244.992 585.088 213.376c0-40.512-32.704-73.344-73.088-73.344-40.384 0-73.216 32.832-73.216 73.344 0 31.616 19.968 58.624 48 68.864L313.472 611.648l-195.648-151.68C135.168 446.592 146.24 425.6 146.24 401.984c0-40.512-32.768-73.344-73.088-73.344C32.704 328.576 0 361.472 0 401.984s32.768 73.344 73.216 73.344c6.592 0 12.992-0.896 18.944-2.496l64.576 295.744c0 63.68 159.04 115.328 355.264 115.328 196.096 0 355.264-51.648 355.264-115.328l64.512-295.744c6.272 1.536 12.416 2.496 19.072 2.496C991.232 475.328 1024 442.496 1024 401.984S991.232 328.576 950.784 328.576L950.784 328.576zM950.784 328.576" p-id="4680"></path></svg>