<?xml version="1.0" standalone="no"?><!DOCTYPE svg PUBLIC "-//W3C//DTD SVG 1.1//EN" "http://www.w3.org/Graphics/SVG/1.1/DTD/svg11.dtd"><svg t="1605162872182" class="icon" viewBox="0 0 1024 1024" version="1.1" xmlns="http://www.w3.org/2000/svg" p-id="5660" xmlns:xlink="http://www.w3.org/1999/xlink" width="200" height="200"><defs><style type="text/css"></style></defs><path d="M546.816 161.684211c8.973474 0 17.946947 2.748632 24.683789 10.967578l253.763369 309.894737c13.473684 16.437895 13.473684 41.094737 0 57.559579l-253.763369 309.894737c-13.473684 16.437895-33.684211 16.437895-47.157894 0a46.08 46.08 0 0 1 0-57.613474l229.052631-279.713684-231.289263-282.435368a46.08 46.08 0 0 1 0-57.586527c8.973474-8.218947 17.973895-10.967579 24.710737-10.967578z"  p-id="5661"></path><path d="M248.373895 161.684211c9.027368 0 18.081684 2.748632 24.872421 10.967578l255.514947 309.894737a45.810526 45.810526 0 0 1 0 57.559579l-255.514947 309.894737c-13.581474 16.437895-33.926737 16.437895-47.481263 0a45.810526 45.810526 0 0 1 0-57.613474l230.669473-279.713684-230.669473-282.435368a45.810526 45.810526 0 0 1 0-57.586527c6.763789-8.218947 15.818105-10.967579 22.608842-10.967578z" p-id="5662"></path></svg>