<?xml version="1.0" standalone="no"?><!DOCTYPE svg PUBLIC "-//W3C//DTD SVG 1.1//EN" "http://www.w3.org/Graphics/SVG/1.1/DTD/svg11.dtd"><svg t="1628307757973" class="icon" viewBox="0 0 1024 1024" version="1.1" xmlns="http://www.w3.org/2000/svg" p-id="12733" xmlns:xlink="http://www.w3.org/1999/xlink" width="200" height="200"><defs><style type="text/css"></style></defs><path d="M512 341.333333a42.666667 42.666667 0 0 1 42.666667 42.666667 42.666667 42.666667 0 0 0 85.333333 0 128 128 0 1 0-214.101333 94.72c0.426667 0.426667 6.912 7.253333 8.277333 9.216a42.154667 42.154667 0 0 1 0 47.744 42.666667 42.666667 0 1 0 70.314667 48.213333 127.274667 127.274667 0 0 0-0.213334-144.554666 303.957333 303.957333 0 0 0-20.906666-23.765334 45.013333 45.013333 0 0 1-6.826667-7.722666A42.666667 42.666667 0 0 1 512 341.333333z m0-256a298.666667 298.666667 0 0 0-288.512 375.978667 42.666667 42.666667 0 0 0 82.432-22.101333A213.333333 213.333333 0 1 1 725.333333 384a218.197333 218.197333 0 0 1-30.08 109.525333L543.146667 810.666667A85.546667 85.546667 0 0 1 469.333333 853.333333a86.485333 86.485333 0 0 1-85.333333-85.333333 84.992 84.992 0 0 1 11.477333-42.624 42.666667 42.666667 0 0 0-73.941333-42.752 170.624 170.624 0 1 0 297.088 167.850667l152.021333-317.141334A298.666667 298.666667 0 0 0 512 85.333333z" p-id="12734"></path></svg>