<?xml version="1.0" standalone="no"?><!DOCTYPE svg PUBLIC "-//W3C//DTD SVG 1.1//EN" "http://www.w3.org/Graphics/SVG/1.1/DTD/svg11.dtd"><svg t="1618835969171" class="icon" viewBox="0 0 1024 1024" version="1.1" xmlns="http://www.w3.org/2000/svg" p-id="146528" xmlns:xlink="http://www.w3.org/1999/xlink" width="200" height="200"><defs><style type="text/css"></style></defs><path d="M477.416727 939.752727l276.945455-273.966545a49.338182 49.338182 0 0 1 69.259636 0 48.128 48.128 0 0 1 0 68.514909l-276.945454 273.966545a49.338182 49.338182 0 0 1-69.259637 0 48.128 48.128 0 0 1 0-68.514909zM200.471273 665.786182a49.338182 49.338182 0 0 1 69.259636 0l276.945455 273.966545a48.128 48.128 0 0 1 0 68.514909 49.338182 49.338182 0 0 1-69.259637 0L200.471273 734.301091a48.128 48.128 0 0 1 0-68.514909z m0-377.669818L477.416727 14.149818a49.338182 49.338182 0 0 1 69.259637 0 48.128 48.128 0 0 1 0 68.514909L269.730909 356.631273a49.245091 49.245091 0 0 1-69.259636 0 48.128 48.128 0 0 1 0-68.514909zM477.416727 14.149818a49.338182 49.338182 0 0 1 69.259637 0l276.945454 273.966546a48.128 48.128 0 0 1 0 68.514909 49.245091 49.245091 0 0 1-69.259636 0L477.416727 82.571636a48.034909 48.034909 0 0 1 0-68.421818z" p-id="146529"></path></svg>