<?xml version="1.0" standalone="no"?><!DOCTYPE svg PUBLIC "-//W3C//DTD SVG 1.1//EN" "http://www.w3.org/Graphics/SVG/1.1/DTD/svg11.dtd"><svg t="1606100010613" class="icon" viewBox="0 0 1024 1024" version="1.1" xmlns="http://www.w3.org/2000/svg" p-id="37982" xmlns:xlink="http://www.w3.org/1999/xlink" width="200" height="200"><defs><style type="text/css"></style></defs><path d="M213.333333 341.333333a38.4 38.4 0 0 1-29.866666-12.8l-85.333334-85.333333a42.666667 42.666667 0 0 1 0-59.733333 42.666667 42.666667 0 0 1 59.733334 0L213.333333 238.933333l140.8-140.8a42.666667 42.666667 0 0 1 59.733334 0 42.666667 42.666667 0 0 1 0 59.733334l-170.666667 170.666666A38.4 38.4 0 0 1 213.333333 341.333333z" p-id="37983"></path><path d="M469.333333 170.666667m42.666667 0l384 0q42.666667 0 42.666667 42.666666l0 85.333334q0 42.666667-42.666667 42.666666l-384 0q-42.666667 0-42.666667-42.666666l0-85.333334q0-42.666667 42.666667-42.666666Z" p-id="37984"></path><path d="M469.333333 469.333333m42.666667 0l384 0q42.666667 0 42.666667 42.666667l0 85.333333q0 42.666667-42.666667 42.666667l-384 0q-42.666667 0-42.666667-42.666667l0-85.333333q0-42.666667 42.666667-42.666667Z" opacity=".4" p-id="37985"></path><path d="M469.333333 725.333333m42.666667 0l384 0q42.666667 0 42.666667 42.666667l0 85.333333q0 42.666667-42.666667 42.666667l-384 0q-42.666667 0-42.666667-42.666667l0-85.333333q0-42.666667 42.666667-42.666667Z" opacity=".4" p-id="37986"></path><path d="M170.666667 469.333333m42.666666 0l85.333334 0q42.666667 0 42.666666 42.666667l0 85.333333q0 42.666667-42.666666 42.666667l-85.333334 0q-42.666667 0-42.666666-42.666667l0-85.333333q0-42.666667 42.666666-42.666667Z" opacity=".4" p-id="37987"></path><path d="M170.666667 725.333333m42.666666 0l85.333334 0q42.666667 0 42.666666 42.666667l0 85.333333q0 42.666667-42.666666 42.666667l-85.333334 0q-42.666667 0-42.666666-42.666667l0-85.333333q0-42.666667 42.666666-42.666667Z" opacity=".4" p-id="37988"></path></svg>