<?xml version="1.0" standalone="no"?><!DOCTYPE svg PUBLIC "-//W3C//DTD SVG 1.1//EN" "http://www.w3.org/Graphics/SVG/1.1/DTD/svg11.dtd"><svg t="1605193660768" class="icon" viewBox="0 0 1024 1024" version="1.1" xmlns="http://www.w3.org/2000/svg" p-id="58952" xmlns:xlink="http://www.w3.org/1999/xlink" width="200" height="200"><defs><style type="text/css"></style></defs><path d="M975.927 207.49c12.593 10.768 14.073 29.704 3.305 42.297L565.515 733.633 358.343 542.879 58.548 842.674c-11.716 11.715-30.711 11.715-42.427 0-11.715-11.716-11.715-30.711 0-42.427L356.629 459.74l203.736 187.591 373.266-436.536c5.933-6.94 14.347-10.505 22.814-10.505 6.897 0 13.83 2.366 19.482 7.2z" p-id="58953"></path><path d="M1021 197.277v254.086c0 16.568-13.432 30-30 30s-30-13.432-30-30V227.277H725.81c-16.568 0-30-13.432-30-30s13.432-30 30-30H991c16.569 0 30 13.432 30 30z"  p-id="58954"></path></svg>