<?xml version="1.0" standalone="no"?><!DOCTYPE svg PUBLIC "-//W3C//DTD SVG 1.1//EN" "http://www.w3.org/Graphics/SVG/1.1/DTD/svg11.dtd"><svg t="1619492937520" class="icon" viewBox="0 0 1024 1024" version="1.1" xmlns="http://www.w3.org/2000/svg" p-id="9929" xmlns:xlink="http://www.w3.org/1999/xlink" width="200" height="200"><defs><style type="text/css"></style></defs><path d="M451.141 923.232c-12.257-16.822-24.515-33.651-37.682-51.717-58.222 22.666-74.41 13.345-81.388-51.579-45.611 12.407-75.66 14.525-83.078-61.459-10.029 2.228-20.989 8.177-29.755 5.854-15.924-4.227-36.438-9.596-44.055-21.511-7.613-11.892-8.953-39.677-0.617-47.891 43.194-42.559 31.385-77.062-5.869-114.851-7.932-8.037-3.901-27.87-5.384-42.272 3.74-1.149 7.488-2.292 11.23-3.441 15.939 19.607 30.658 40.41 48.319 58.312 9.166 9.3 23.227 18.192 35.624 19.017 31.258 2.08 45.749 18.011 46.332 47.025 0.426 21.191 9.827 26.295 29.452 31.225 15.27 3.835 32.622 19.15 38.996 33.756 8.637 19.795 18.576 28.402 39.432 33.117 13.681 3.093 25.524 17.011 36.722 27.637 10.914 10.347 19.011 23.706 30.084 33.834 11.974 10.958 25.529 20.381 39.212 29.198 10.194 6.567 21.452 14.688 32.676 15.42 8.842 0.578 21.267-7.108 26.424-14.896 2.898-4.365-3.395-19.095-9.612-24.449-21.233-18.299-44.86-33.822-66.213-51.994-5.61-4.77-6.309-15.309-9.259-23.198 8.573 0.45 19.225-2.223 25.383 1.87 38.982 25.869 77.149 52.98 115.211 80.203 17.816 12.738 36.236 20.591 51.598-0.597 15.49-21.369 5.513-38.553-14.181-52.512-39.885-28.265-79.827-56.513-118.503-86.375-7.727-5.97-9.9-19.129-14.637-28.98 10.061 1.763 22.118 0.575 29.848 5.79 45.696 30.815 90.374 63.119 135.396 94.927 5.094 3.597 10.008 7.487 15.273 10.812 16.48 10.427 33.425 14.604 46.8-3.694 13.685-18.733 7.821-35.366-9.886-48.345-52.837-38.769-105.811-77.346-158.729-116.002-5.877-4.292-13.154-7.632-17.129-13.278-3.532-5.023-3.384-12.636-4.856-19.109 5.804-1.297 12.388-4.966 17.234-3.369 8.616 2.848 16.564 8.343 24.116 13.684 53.49 37.847 107.001 75.668 160.085 114.075 20.713 14.982 40.757 22.254 60.563 0.031 16.977-19.056 14.027-41.007-10.049-62.2-88.218-77.682-176.594-155.203-265.811-231.741-35.574-30.52-86.072-14.312-98.854 31.137-11.963 42.533-36.543 72.997-79.632 83.308-15.614 3.731-34.839-0.716-50.409-6.668-7.351-2.812-15.12-18.753-13.831-27.425 4.831-32.417 12.643-64.455 20.719-96.288 4.76-18.755 12.122-36.858 19.775-59.607h-89.095c3.232-31.848 17.452-43.291 45.684-40.624 20.63 1.946 41.863 2.513 62.333-0.125 31.29-4.027 63.406-7.746 92.918-18.048 51.387-17.952 101.498-16.413 153.012-3.363 34.087 8.633 68.963 14.162 102.997 22.953 9.337 2.417 20.659 9.72 24.747 17.931 40.765 81.829 80.35 164.246 119.725 246.759 3.294 6.898 6.458 18.089 3.22 23.156-17.312 27.108-9.929 51.505 0.867 78.759 12.993 32.801-7.313 70.11-43.161 80.539-18.533 5.39-25.91 14.117-30.555 32.003-9.766 37.58-41.131 45.728-74.24 47.886-21.456 55.119-42.504 64.689-98.909 48.517-7.121-2.038-17.023 4.191-25.218 7.596-18.413 7.653-39.618 26.255-54.198 21.93-35.626-10.571-53.341 7.152-72.217 29.346-8.336-0.002-16.664-0.002-24.996-0.002M176.278 186.098c19.851 10.891 39.501 22.173 59.614 32.552 16.809 8.676 21.834 19.996 13.252 37.817-46.648 96.907-92.912 193.995-139.261 291.039-9.006 18.863-23.497 22.588-40.979 13.507-22.851-11.867-45.053-24.997-67.536-37.58V504.69c27.867-53.754 56.015-107.371 83.515-161.314 26.644-52.251 52.63-104.834 78.903-157.278h12.493m680.914 0c10.256 16.579 21.812 32.492 30.54 49.837 42.46 84.381 83.413 169.524 126.558 253.546 13.821 26.919 8.323 40.815-18.716 53.117-65.705 29.905-65.34 30.81-97.497-34.79-39.751-81.091-79.013-162.418-119.386-243.192-11.561-23.123-9.687-38.367 15.809-49.545 17.583-7.718 33.521-19.177 50.194-28.972h12.498m0-0.001z" p-id="9930"></path></svg>