<?xml version="1.0" standalone="no"?><!DOCTYPE svg PUBLIC "-//W3C//DTD SVG 1.1//EN" "http://www.w3.org/Graphics/SVG/1.1/DTD/svg11.dtd"><svg t="1603159947742" class="icon" viewBox="0 0 1024 1024" version="1.1" xmlns="http://www.w3.org/2000/svg" p-id="4199" xmlns:xlink="http://www.w3.org/1999/xlink" width="200" height="200"><defs><style type="text/css"></style></defs><path d="M1021.8928 317.896C1019.7952 181.3792 918.68 76.112 785.6336 60.928c-105.6848-12.0608-210.8048 40.4928-270.3904 126.2544-50.984-82.656-151.6112-125.4992-248.5664-127.4816C118.352 56.6608 12.3008 172.4176 2.6672 315.192c-10.5808 156.76 121.1296 314.7184 217.8128 423.6528 54.1472 61.0128 113.4352 118.0864 177.2112 168.9664 28.6992 22.888 64.5936 54.9792 102.8096 63.3104 3.6896 1.4864 8.0192 2.2048 12.9872 1.8864 4.912 0.3232 9.1968-0.36 12.8576-1.7984 36.8528-7.7632 71.424-37.0224 99.736-58.5728 61.7664-47.0064 118.32-100.5872 171.0992-157.4144C903.9984 640.2096 1024.4336 483.2848 1021.8928 317.896L1021.8928 317.896zM1021.8928 317.896" p-id="4200"></path></svg>