<?xml version="1.0" standalone="no"?><!DOCTYPE svg PUBLIC "-//W3C//DTD SVG 1.1//EN" "http://www.w3.org/Graphics/SVG/1.1/DTD/svg11.dtd"><svg t="1607234895678" class="icon" viewBox="0 0 1040 1024" version="1.1" xmlns="http://www.w3.org/2000/svg" p-id="12994" xmlns:xlink="http://www.w3.org/1999/xlink" width="203.125" height="200"><defs><style type="text/css"></style></defs><path d="M607.601 925.363H317.392c-85.506 0-155.468-69.962-155.468-155.468V540.581H75.123c-10.365 0-20.731-6.479-24.615-16.842s-1.294-22.026 6.479-28.502L513.024 91.023c10.365-9.068 24.615-9.068 34.981 0l456.037 404.214c7.773 7.773 10.365 18.139 6.479 28.502s-12.955 16.842-24.615 16.842h-86.801v229.314c0 54.414-27.204 102.352-72.553 132.146-11.662 7.773-28.502 3.888-36.274-7.773-7.773-11.662-3.888-28.502 7.773-36.274 29.798-19.435 47.936-51.826 47.936-88.098V514.669c0-14.253 11.662-25.908 25.908-25.908h45.342l-388.67-343.325-388.67 343.325h45.342c14.253 0 25.908 11.662 25.908 25.908v255.227c0 57.005 46.64 103.645 103.645 103.645h290.209c14.253 0 25.908 11.662 25.908 25.908s-9.068 25.908-23.323 25.908z" p-id="12995"></path><path d="M607.601 925.363c-14.253 0-25.908-11.662-25.908-25.908s11.662-25.908 25.908-25.908c22.026 0 38.866-16.842 38.866-38.866V646.825c0-22.026-16.842-38.866-38.866-38.866H456.019c-22.026 0-38.866 16.842-38.866 38.866v120.49c0 14.253-11.662 25.908-25.908 25.908s-25.908-11.662-25.908-25.908v-120.49c0-50.528 40.161-90.691 90.691-90.691H607.61c50.528 0 90.691 40.161 90.691 90.691v187.856c0 49.23-40.161 90.691-90.691 90.691z" p-id="12996"></path></svg>