<?xml version="1.0" standalone="no"?><!DOCTYPE svg PUBLIC "-//W3C//DTD SVG 1.1//EN" "http://www.w3.org/Graphics/SVG/1.1/DTD/svg11.dtd"><svg t="1607256624349" class="icon" viewBox="0 0 1024 1024" version="1.1" xmlns="http://www.w3.org/2000/svg" p-id="15749" xmlns:xlink="http://www.w3.org/1999/xlink" width="200" height="200"><defs><style type="text/css"></style></defs><path d="M512 268.67712c-134.144 0-243.3024 109.1584-243.3024 243.32288S377.856 755.32288 512 755.32288c134.18496 0 243.34336-109.1584 243.34336-243.32288S646.18496 268.67712 512 268.67712z m0 426.65984c-101.08928 0-183.31648-82.24768-183.31648-183.33696s82.2272-183.33696 183.31648-183.33696c101.08928 0 183.33696 82.24768 183.33696 183.33696s-82.24768 183.33696-183.31648 183.33696z" p-id="15750"></path><path d="M512 378.63424A133.5296 133.5296 0 0 0 378.61376 512 133.5296 133.5296 0 0 0 512 645.36576 133.5296 133.5296 0 0 0 645.36576 512 133.5296 133.5296 0 0 0 512 378.63424z" p-id="15751"></path><path d="M932.10624 481.9968C917.36064 273.6128 750.3872 106.63936 542.0032 91.89376V0h-60.0064v91.89376C273.6128 106.63936 106.63936 273.6128 91.89376 481.9968H0v60.0064h91.89376c14.7456 208.384 181.71904 375.35744 390.10304 390.10304V1024h60.0064v-91.89376c208.384-14.7456 375.35744-181.71904 390.10304-390.10304H1024v-60.0064h-91.89376z m-60.19072 60.0064c-14.45888 175.26784-154.624 315.43296-329.9328 329.9328v-48.37376h-59.98592v48.35328c-175.26784-14.45888-315.43296-154.624-329.9328-329.9328h48.37376v-59.98592H152.064c14.49984-175.26784 154.66496-315.43296 329.9328-329.9328v48.37376h60.0064V152.064c175.26784 14.49984 315.43296 154.66496 329.9328 329.9328h-48.37376v60.0064h48.35328z"  p-id="15752"></path></svg>