<?xml version="1.0" standalone="no"?><!DOCTYPE svg PUBLIC "-//W3C//DTD SVG 1.1//EN" "http://www.w3.org/Graphics/SVG/1.1/DTD/svg11.dtd"><svg t="1607256330717" class="icon" viewBox="0 0 1024 1024" version="1.1" xmlns="http://www.w3.org/2000/svg" p-id="14246" xmlns:xlink="http://www.w3.org/1999/xlink" width="200" height="200"><defs><style type="text/css"></style></defs><path d="M511.634547 566.452534a54.817987 54.817987 0 1 0 0-109.635974 54.817987 54.817987 0 0 0 0 109.635974z m410.550178-104.154176a412.011991 412.011991 0 0 0-117.968308-242.149322 412.596717 412.596717 0 0 0-242.076231-117.968308V50.140186a50.067095 50.067095 0 0 0-49.920914-49.920914 50.067095 50.067095 0 0 0-49.920914 49.920914v52.040542a412.011991 412.011991 0 0 0-242.149322 117.968308 412.596717 412.596717 0 0 0-117.968308 242.149322h-51.894361a50.067095 50.067095 0 0 0-49.920914 49.920914c0 27.408994 22.365739 49.920914 49.847823 49.920914H102.326909a412.011991 412.011991 0 0 0 117.968309 242.149321 412.596717 412.596717 0 0 0 242.149322 117.895218v51.163455c0 27.408994 22.365739 49.920914 49.847823 49.920914a50.067095 50.067095 0 0 0 49.920913-49.920914v-51.163455a410.76945 410.76945 0 0 0 242.076231-117.968308 412.596717 412.596717 0 0 0 118.041399-242.076231h51.017274A50.067095 50.067095 0 0 0 1023.269094 512.219272a50.286367 50.286367 0 0 0-49.994005-49.920914h-51.090364z m-360.044539 280.375732a50.067095 50.067095 0 0 0-49.920914-49.920914 50.067095 50.067095 0 0 0-49.920914 49.920914v86.977873A322.183583 322.183583 0 0 1 194.567309 562.067095h87.050964a50.067095 50.067095 0 0 0 49.920913-49.920914 50.067095 50.067095 0 0 0-49.920913-49.920913h-86.977873a322.183583 322.183583 0 0 1 267.657958-267.657959v86.977873c0 27.482084 22.365739 49.920914 49.920914 49.920914a50.067095 50.067095 0 0 0 49.920914-49.847823V194.421128a322.183583 322.183583 0 0 1 267.657958 267.657958h-86.977873a50.067095 50.067095 0 0 0-49.920913 49.920914c0 27.408994 22.365739 49.920914 49.847823 49.920914h87.050963a322.183583 322.183583 0 0 1-267.657958 267.731049V742.600999z" p-id="14247"></path></svg>