<?xml version="1.0" standalone="no"?><!DOCTYPE svg PUBLIC "-//W3C//DTD SVG 1.1//EN" "http://www.w3.org/Graphics/SVG/1.1/DTD/svg11.dtd"><svg t="1603249507832" class="icon" viewBox="0 0 1024 1024" version="1.1" xmlns="http://www.w3.org/2000/svg" p-id="49888" xmlns:xlink="http://www.w3.org/1999/xlink" width="200" height="200"><defs><style type="text/css"></style></defs><path d="M370.592 866.016c20.128 0 36.416-15.424 36.416-35.584V194.016a36.032 36.032 0 0 0-36.032-36h-0.384c-20.16 0-36.864 15.84-36.864 36v636.448c0 20.16 16.704 35.552 36.864 35.552z m283.264 0c20.128 0 36.416-15.424 36.416-35.584V194.016a36.032 36.032 0 0 0-36.032-36h-0.384c-20.16 0-36.864 15.84-36.864 36v636.448c0 20.16 16.704 35.552 36.864 35.552z" p-id="49889"></path></svg>