<?xml version="1.0" standalone="no"?><!DOCTYPE svg PUBLIC "-//W3C//DTD SVG 1.1//EN" "http://www.w3.org/Graphics/SVG/1.1/DTD/svg11.dtd"><svg t="1603724543542" class="icon" viewBox="0 0 1706 1024" version="1.1" xmlns="http://www.w3.org/2000/svg" p-id="4846" xmlns:xlink="http://www.w3.org/1999/xlink" width="333.203125" height="200"><defs><style type="text/css"></style></defs><path d="M185.52550286 95.89841237h1350.01848264a147.94723101 147.94723101 0 0 1 147.947231 147.94723101v553.76648647a147.94723101 147.94723101 0 0 1-147.947231 147.947231H185.52550286a147.94723101 147.94723101 0 0 1-147.947231-147.947231V243.84564338a147.94723101 147.94723101 0 0 1 147.947231-147.94723101z m18.4934036 36.98680832a129.45382741 129.45382741 0 0 0-129.45382742 129.45382742v517.81530851a129.45382741 129.45382741 0 0 0 129.45382742 129.45382628h1313.03167544a129.45382741 129.45382741 0 0 0 129.45382742-129.45382628V262.33904811a129.45382741 129.45382741 0 0 0-129.45382742-129.45382742H204.01890646z" p-id="4847"></path><path d="M499.91336846 521.24670179m-92.46701909 0a92.46701909 92.46701909 0 1 0 184.93403819 0 92.46701909 92.46701909 0 1 0-184.93403819 0Z" p-id="4848"></path><path d="M888.27484957 521.24670179m-92.46701909 0a92.46701909 92.46701909 0 1 0 184.93403932 0 92.46701909 92.46701909 0 1 0-184.93403932 0Z" p-id="4849"></path><path d="M1258.14292822 521.24670179m-92.46702024 0a92.46701909 92.46701909 0 1 0 184.93403933 0 92.46701909 92.46701909 0 1 0-184.93403933 0Z" p-id="4850"></path></svg>