<?xml version="1.0" standalone="no"?><!DOCTYPE svg PUBLIC "-//W3C//DTD SVG 1.1//EN" "http://www.w3.org/Graphics/SVG/1.1/DTD/svg11.dtd"><svg t="1605494233100" class="icon" viewBox="0 0 1024 1024" version="1.1" xmlns="http://www.w3.org/2000/svg" p-id="7070" xmlns:xlink="http://www.w3.org/1999/xlink" width="200" height="200"><defs><style type="text/css"></style></defs><path d="M799.552 929.728H146.112a28.672 28.672 0 1 1 0-57.472h653.44c56.704 0 102.848-46.144 102.848-102.848V400.448a103.04 103.04 0 0 0-102.848-102.848H111.936a28.736 28.736 0 1 1 0-57.536h687.616A160.64 160.64 0 0 1 960 400.448v368.896a160.64 160.64 0 0 1-160.448 160.384z" p-id="7071"></path><path d="M219.264 443.52a28.672 28.672 0 0 1-21.76-9.984L70.976 287.232a28.864 28.864 0 0 1 0.064-37.76l126.528-145.408a28.672 28.672 0 0 1 40.576-2.752 28.672 28.672 0 0 1 2.816 40.576L130.816 268.48l110.208 127.424a28.8 28.8 0 0 1-21.76 47.616z" p-id="7072"></path></svg>