<?xml version="1.0" standalone="no"?><!DOCTYPE svg PUBLIC "-//W3C//DTD SVG 1.1//EN" "http://www.w3.org/Graphics/SVG/1.1/DTD/svg11.dtd"><svg t="1606740821147" class="icon" viewBox="0 0 1024 1024" version="1.1" xmlns="http://www.w3.org/2000/svg" p-id="34185" xmlns:xlink="http://www.w3.org/1999/xlink" width="200" height="200"><defs><style type="text/css"></style></defs><path d="M957.71428531 68.57142875C927.99999969 38.85714312 884.57142875 32 825.1428575 45.71428531c-18.28571437 4.57142813-29.71428562 22.8571425-25.1428575 41.14285782 4.57142813 18.28571437 22.8571425 29.71428562 41.14285688 25.14285656 31.99999969-6.85714313 57.14285719-6.85714313 68.57142843 4.57142906 43.42857188 43.42857188-50.28571406 258.28571437-290.28571406 500.57142844-98.28571406 98.28571406-192 171.42857156-269.71428563 219.42857156C228.57142813 777.1428575 146.28571437 653.71428594 146.28571437 512c0-201.14285719 164.57142844-365.71428563 365.71428563-365.71428563 66.28571437 0 132.57142875 18.28571437 189.71428594 52.57142813 16.00000031 9.14285719 36.57142875 4.57142813 48-11.42857125 9.14285719-16.00000031 4.57142813-36.57142875-11.42857125-48C669.71428531 98.28571437 591.99999969 77.71428594 512 77.71428594 272 77.71428594 77.71428594 272 77.71428594 512c0 57.14285719 11.42857125 112.00000031 31.99999968 162.28571437C32 809.14285719 18.28571469 907.42857125 68.57142875 957.71428531c20.57142844 20.57142844 48 29.71428562 79.99999969 29.71428656 54.85714313 0 125.71428563-27.42857156 203.42857125-70.85714343 50.28571406 20.57142844 102.85714313 29.71428562 160.00000031 29.71428562 240 0 434.28571406-194.28571406 434.28571406-434.28571406 0-54.85714313-11.42857125-107.42857125-29.71428562-160.00000031 70.8571425-121.1428575 96-228.57142875 41.14285687-283.42857094zM116.57142875 909.71428531c-18.28571437-18.28571437-13.71428531-73.1428575 31.99999969-159.99999937 34.28571469 52.57142812 77.71428563 96 130.28571468 130.28571375-82.28571469 38.85714281-141.71428594 50.28571406-162.28571437 29.71428562zM877.71428563 512c0 201.14285719-164.57142844 365.71428563-365.71428563 365.71428563-29.71428562 0-57.14285719-4.57142813-84.57142875-9.14285719 79.99999969-54.85714313 162.28571437-125.71428563 237.71428594-201.14285719 75.42857156-75.42857156 146.28571406-157.71428531 201.14285718-237.71428594 6.85714313 25.1428575 11.42857125 54.85714313 11.42857126 82.28571469z" p-id="34186"></path><path d="M512 306.28571469m-68.57142844 0a68.57142844 68.57142844 0 1 0 137.14285688 0 68.57142844 68.57142844 0 1 0-137.14285688 0Z" p-id="34187"></path><path d="M294.8571425 523.42857125m-34.28571375 0a34.28571469 34.28571469 0 1 0 68.57142844 0 34.28571469 34.28571469 0 1 0-68.57142844 0Z" p-id="34188"></path></svg>