<?xml version="1.0" standalone="no"?><!DOCTYPE svg PUBLIC "-//W3C//DTD SVG 1.1//EN" "http://www.w3.org/Graphics/SVG/1.1/DTD/svg11.dtd"><svg t="1617514228460" class="icon" viewBox="0 0 1024 1024" version="1.1" xmlns="http://www.w3.org/2000/svg" p-id="12040" xmlns:xlink="http://www.w3.org/1999/xlink" width="200" height="200"><defs><style type="text/css"></style></defs><path d="M512 102.4c-225.28 0-409.6 184.32-409.6 409.6s184.32 409.6 409.6 409.6 409.6-184.32 409.6-409.6-184.32-409.6-409.6-409.6z m51.2 665.6H460.8v-102.4h102.4v102.4z m0-204.8H460.8v-10.24c0-40.96 15.36-76.8 51.2-92.16 20.48-10.24 51.2-30.72 51.2-51.2 0-25.6-25.6-51.2-51.2-51.2s-51.2 25.6-51.2 51.2H358.4c0-87.04 66.56-153.6 153.6-153.6s153.6 51.2 153.6 153.6-102.4 112.64-102.4 153.6z" p-id="12041"></path></svg>