<?xml version="1.0" standalone="no"?><!DOCTYPE svg PUBLIC "-//W3C//DTD SVG 1.1//EN" "http://www.w3.org/Graphics/SVG/1.1/DTD/svg11.dtd"><svg t="1618839967724" class="icon" viewBox="0 0 1027 1024" version="1.1" xmlns="http://www.w3.org/2000/svg" p-id="205319" xmlns:xlink="http://www.w3.org/1999/xlink" width="200.5859375" height="200"><defs><style type="text/css"></style></defs><path d="M876.8 476.8h-147.2c0-121.6 99.2-220.8 220.8-220.8C992 256 1024 224 1024 182.4c0-41.6-32-73.6-73.6-73.6-201.6 0-364.8 163.2-364.8 364.8V768c0 80 64 147.2 147.2 147.2h147.2c80 0 147.2-64 147.2-147.2v-147.2c-3.2-80-67.2-144-150.4-144zM364.8 256c41.6 0 73.6-32 73.6-73.6 0-41.6-32-73.6-73.6-73.6C163.2 108.8 0 272 0 476.8V768c0 80 64 147.2 147.2 147.2h147.2c80 0 147.2-64 147.2-147.2v-147.2c0-80-64-147.2-147.2-147.2H147.2c0-118.4 96-217.6 217.6-217.6z" p-id="205320"></path></svg>