<?xml version="1.0" standalone="no"?><!DOCTYPE svg PUBLIC "-//W3C//DTD SVG 1.1//EN" "http://www.w3.org/Graphics/SVG/1.1/DTD/svg11.dtd"><svg t="1605494308187" class="icon" viewBox="0 0 1024 1024" version="1.1" xmlns="http://www.w3.org/2000/svg" p-id="8679" xmlns:xlink="http://www.w3.org/1999/xlink" width="200" height="200"><defs><style type="text/css"></style></defs><path d="M732.128 266.336v72.384c64.608 54.688 105.568 133.76 105.568 221.856 0 164.608-142.048 298.528-316.672 298.528s-316.672-133.92-316.672-298.528 142.048-298.528 316.672-298.528c10.176 0 20.224 0.544 30.176 1.44V206.656a408 408 0 0 0-30.176-1.44C313.12 205.216 144 364.64 144 560.576s169.12 355.36 376.992 355.36 376.992-159.424 376.992-355.36c0.032-122.272-65.824-230.272-165.856-294.24z" p-id="8680"></path><path d="M490.848 112.32l143.808 135.552-143.808 135.52V220.736z" p-id="8681"></path></svg>