<?xml version="1.0" standalone="no"?><!DOCTYPE svg PUBLIC "-//W3C//DTD SVG 1.1//EN" "http://www.w3.org/Graphics/SVG/1.1/DTD/svg11.dtd"><svg t="1606739240628" class="icon" viewBox="0 0 1024 1024" version="1.1" xmlns="http://www.w3.org/2000/svg" p-id="18175" xmlns:xlink="http://www.w3.org/1999/xlink" width="200" height="200"><defs><style type="text/css"></style></defs><path d="M876.608 239.488a12.8 12.8 0 0 0-20.096-2.56L684.16 409.344 616.32 341.44l172.352-172.416a12.8 12.8 0 0 0-2.56-20.032 256.384 256.384 0 0 0-377.728 287.104l-292.992 292.992a7.744 7.744 0 0 0 0.32 11.008l169.664 169.728c3.136 3.072 8.128 3.264 11.008 0.256l292.928-292.864a256.384 256.384 0 0 0 287.36-377.728zM785.92 499.84a184.32 184.32 0 0 1-214.592 33.6l-8.768 8.832-0.128-0.128-273.984 274.112-79.232-79.168L439.424 506.88l0.064 0.128 52.8-52.8a184.32 184.32 0 0 1 177.6-268.16L537.024 318.976a32 32 0 0 0 0 45.312l124.48 124.48a32 32 0 0 0 45.312 0l132.8-132.8a184.448 184.448 0 0 1-53.632 143.872z"  p-id="18176"></path></svg>