<?xml version="1.0" standalone="no"?><!DOCTYPE svg PUBLIC "-//W3C//DTD SVG 1.1//EN" "http://www.w3.org/Graphics/SVG/1.1/DTD/svg11.dtd"><svg t="1617371589964" class="icon" viewBox="0 0 1024 1024" version="1.1" xmlns="http://www.w3.org/2000/svg" p-id="3331" xmlns:xlink="http://www.w3.org/1999/xlink" width="200" height="200"><defs><style type="text/css"></style></defs><path d="M980.48 227.84c-27.776-49.408-57.92-58.496-119.296-61.952C799.872 161.728 645.696 160 512.128 160c-133.824 0-288.064 1.728-349.312 5.824-61.248 3.52-91.456 12.544-119.488 62.016C14.72 277.184 0 362.176 0 511.808v0.512c0 148.992 14.72 234.624 43.328 283.456 28.032 49.408 58.176 58.368 119.424 62.528C224.064 861.888 378.304 864 512.128 864c133.568 0 287.744-2.112 349.12-5.632 61.376-4.16 91.52-13.12 119.296-62.528C1009.408 747.008 1024 661.376 1024 512.384v-0.32-0.192c0-149.696-14.592-234.688-43.52-284.032zM384 704V320l320 192-320 192z" p-id="3332"></path></svg>