<?xml version="1.0" standalone="no"?><!DOCTYPE svg PUBLIC "-//W3C//DTD SVG 1.1//EN" "http://www.w3.org/Graphics/SVG/1.1/DTD/svg11.dtd"><svg t="1603349293811" class="icon" viewBox="0 0 1024 1024" version="1.1" xmlns="http://www.w3.org/2000/svg" p-id="7185" xmlns:xlink="http://www.w3.org/1999/xlink" width="200" height="200"><defs><style type="text/css"></style></defs><path d="M891.072 421.952c0-28.928-23.136-52.352-51.68-52.352H460.32a52.032 52.032 0 0 1-51.712-52.384v-34.88c0-28.928-23.136-52.384-51.68-52.384H184.608c-28.544 0-51.68 23.456-51.68 52.352v459.648c0 28.928 23.136 52.352 51.68 52.352h654.784c28.544 0 51.68-23.424 51.68-52.352v-320z m68.928 0v320c0 67.104-54.4 122.176-120.64 122.176H184.64C118.08 863.872 64.224 809.312 64 741.952V282.304c0-67.072 54.4-122.176 120.64-122.176h172.288c66.24 0 120.64 55.104 120.64 122.176v17.472H839.36c66.24 0 120.608 55.072 120.608 122.176z" p-id="7186"></path></svg>