<?xml version="1.0" standalone="no"?><!DOCTYPE svg PUBLIC "-//W3C//DTD SVG 1.1//EN" "http://www.w3.org/Graphics/SVG/1.1/DTD/svg11.dtd"><svg t="1603349630101" class="icon" viewBox="0 0 1024 1024" version="1.1" xmlns="http://www.w3.org/2000/svg" p-id="21872" xmlns:xlink="http://www.w3.org/1999/xlink" width="200" height="200"><defs><style type="text/css"></style></defs><path d="M785.198545 784.128h-108.334545l1.256727 0.814545C413.975273 784.942545 220.276364 884.363636 220.276364 884.363636v-99.421091c0.069818-0.930909 0.232727-1.698909 0.302545-2.629818C148.805818 773.352727 93.090909 713.425455 93.090909 640V330.333091C93.090909 250.717091 158.324364 186.181818 238.778182 186.181818h546.443636C865.652364 186.181818 930.909091 250.717091 930.909091 330.333091V640c0 79.592727-65.233455 144.128-145.710546 144.128zM336.686545 430.545455c-30.161455 0-54.644364 23.691636-54.644363 52.922181s24.482909 52.922182 54.644363 52.922182c30.184727 0 54.644364-23.691636 54.644364-52.922182S366.871273 430.545455 336.686545 430.545455z m188.974546 0c-29.556364 0-53.504 23.691636-53.504 52.922181s23.970909 52.922182 53.504 52.922182c29.556364 0 53.504-23.691636 53.504-52.922182s-23.970909-52.922182-53.527273-52.922181z m188.974545 0c-30.184727 0-54.644364 23.691636-54.644363 52.922181s24.436364 52.922182 54.621091 52.922182 54.644364-23.691636 54.644363-52.922182-24.459636-52.922182-54.644363-52.922181z" p-id="21873"></path></svg>