<?xml version="1.0" standalone="no"?><!DOCTYPE svg PUBLIC "-//W3C//DTD SVG 1.1//EN" "http://www.w3.org/Graphics/SVG/1.1/DTD/svg11.dtd"><svg t="1602073497137" class="icon" viewBox="0 0 1024 1024" version="1.1" xmlns="http://www.w3.org/2000/svg" p-id="40180" xmlns:xlink="http://www.w3.org/1999/xlink" width="200" height="200"><defs><style type="text/css"></style></defs><path d="M512 0a512 512 0 1 0 0 1024A512 512 0 0 0 512 0z m145.294222 512a144.896 144.896 0 0 1-136.419555 144.440889l-175.786667 151.722667-22.812444-13.255112 58.197333-222.037333A143.758222 143.758222 0 0 1 366.705778 512a144.896 144.896 0 0 1 136.362666-144.384l175.786667-151.722667 22.869333 13.141334-58.254222 222.094222c8.647111 18.545778 13.824 39.082667 13.824 60.871111zM445.952 512a66.048 66.048 0 1 0 132.096 0 66.048 66.048 0 0 0-132.096 0z" p-id="40181"></path></svg>