<?xml version="1.0" standalone="no"?><!DOCTYPE svg PUBLIC "-//W3C//DTD SVG 1.1//EN" "http://www.w3.org/Graphics/SVG/1.1/DTD/svg11.dtd"><svg t="1602072774616" class="icon" viewBox="0 0 1204 1024" version="1.1" xmlns="http://www.w3.org/2000/svg" p-id="18743" xmlns:xlink="http://www.w3.org/1999/xlink" width="235.15625" height="200"><defs><style type="text/css"></style></defs><path d="M834.826937 527.131478h367.835623V607.735458h-367.835623zM834.826937 702.413149h367.835623v80.60398h-367.835623zM834.826937 863.621109h367.835623v80.60398h-367.835623z" p-id="18744"></path><path d="M1063.20488 26.235316a49.897702 49.897702 0 0 0-44.779989-26.228279H49.257988a49.897702 49.897702 0 0 0-44.779989 26.867993 42.860847 42.860847 0 0 0 7.676569 48.618274l394.703617 369.115052v416.453897a45.419703 45.419703 0 0 0 27.507708 40.941704l155.450533 116.427971a53.096273 53.096273 0 0 0 47.338845 0 45.419703 45.419703 0 0 0 23.669423-37.743133V446.527498l394.063903-369.754766a42.860847 42.860847 0 0 0 8.316283-50.537416z" p-id="18745"></path></svg>