<?xml version="1.0" standalone="no"?><!DOCTYPE svg PUBLIC "-//W3C//DTD SVG 1.1//EN" "http://www.w3.org/Graphics/SVG/1.1/DTD/svg11.dtd"><svg t="1602073879334" class="icon" viewBox="0 0 1024 1024" version="1.1" xmlns="http://www.w3.org/2000/svg" p-id="45363" xmlns:xlink="http://www.w3.org/1999/xlink" width="200" height="200"><defs><style type="text/css"></style></defs><path d="M886.376573 264.411065 917.817656 107.495246l-156.915819 31.43699L625.015983 65.667605l-27.886117 167.310563-125.482923 97.600899 153.373133 69.713758 69.709665 153.373133 97.600899-125.487016 167.314657-27.886117L886.376573 264.411065zM490.561735 448.77298 82.746586 856.589153c-23.396873 23.400966-23.396873 61.331857 0 84.72873 23.400966 23.396873 61.331857 23.396873 84.724637 0L575.286372 533.50171c23.400966-23.396873 23.400966-61.327764 0-84.72873C551.894615 425.381224 513.962701 425.381224 490.561735 448.77298zM370.313024 227.983411c33.686217 0 61.002352-27.313066 61.002352-61.002352s-27.317159-61.002352-61.002352-61.002352c-33.69338 0-61.006446 27.313066-61.006446 61.002352S336.619644 227.983411 370.313024 227.983411zM654.988622 675.333996c-33.686217 0-60.998259 27.317159-60.998259 61.006446 0 33.69031 27.313066 61.002352 60.998259 61.002352 33.694403 0 61.006446-27.313066 61.006446-61.002352C715.996091 702.651155 688.683025 675.333996 654.988622 675.333996zM309.306578 390.658398c22.465664 0 40.668235-18.207687 40.668235-40.668235s-18.203594-40.668235-40.668235-40.668235c-22.457478 0-40.668235 18.207687-40.668235 40.668235S286.8491 390.658398 309.306578 390.658398zM878.66596 553.328267c-22.457478 0-40.668235 18.21178-40.668235 40.668235 0 22.465664 18.21178 40.668235 40.668235 40.668235 22.461571 0 40.668235-18.203594 40.668235-40.668235C919.334195 571.539025 901.126508 553.328267 878.66596 553.328267z" p-id="45364"></path></svg>