<?xml version="1.0" standalone="no"?><!DOCTYPE svg PUBLIC "-//W3C//DTD SVG 1.1//EN" "http://www.w3.org/Graphics/SVG/1.1/DTD/svg11.dtd"><svg t="1602478496706" class="icon" viewBox="0 0 1024 1024" version="1.1" xmlns="http://www.w3.org/2000/svg" p-id="7727" xmlns:xlink="http://www.w3.org/1999/xlink" width="200" height="200"><defs><style type="text/css"></style></defs><path d="M1024 634.434783c0 24.486957-20.034783 44.521739-44.521739 44.521739H770.226087c-18.921739 0-35.617391-10.017391-42.295652-28.939131l-33.391305-93.495652-109.07826 368.417391c-5.565217 18.921739-23.373913 32.278261-42.295653 32.278261h-1.113043c-20.034783-1.113043-37.843478-14.469565-42.295652-34.504348L356.173913 300.521739l-86.817391 346.156522c-4.452174 20.034783-22.26087 32.278261-43.408696 32.278261H44.521739c-24.486957 0-44.521739-20.034783-44.521739-44.521739s20.034783-44.521739 44.521739-44.52174h146.921739L314.991304 99.06087c4.452174-20.034783 23.373913-32.278261 43.408696-32.278261 20.034783 0 37.843478 14.469565 43.408696 34.504348l146.921739 636.660869 100.173913-338.365217c5.565217-18.921739 22.26087-32.278261 41.182609-32.278261 18.921739-1.113043 36.730435 11.130435 43.408695 28.93913L801.391304 589.913043h178.086957c24.486957 0 44.521739 20.034783 44.521739 44.52174z" p-id="7728"></path></svg>