<?xml version="1.0" standalone="no"?><!DOCTYPE svg PUBLIC "-//W3C//DTD SVG 1.1//EN" "http://www.w3.org/Graphics/SVG/1.1/DTD/svg11.dtd"><svg t="1603361040418" class="icon" viewBox="0 0 1024 1024" version="1.1" xmlns="http://www.w3.org/2000/svg" p-id="28105" xmlns:xlink="http://www.w3.org/1999/xlink" width="200" height="200"><defs><style type="text/css"></style></defs><path d="M915.017143 286.281143a360.155429 360.155429 0 0 0-95.817143-112.274286C736.987429 108.909714 627.785143 73.142857 512 73.142857c-115.785143 0-224.987429 35.84-307.346286 100.937143-40.96 32.329143-73.142857 70.070857-95.744 112.274286A294.838857 294.838857 0 0 0 73.142857 426.788571c0 62.537143 20.48 124.050286 59.172572 177.737143a394.020571 394.020571 0 0 0 117.613714 106.057143 31.158857 31.158857 0 0 1 15.140571 26.843429v177.517714c0 19.821714 16.018286 35.913143 35.84 35.913143h70.802286v-111.542857a33.792 33.792 0 1 1 67.584 0V950.857143h39.058286v-111.542857a33.792 33.792 0 1 1 67.584 0V950.857143h39.058285v-111.542857a33.792 33.792 0 1 1 67.657143 0V950.857143h70.729143a35.84 35.84 0 0 0 35.84-35.84v-177.590857c0-10.971429 5.778286-21.211429 15.140572-26.843429a392.777143 392.777143 0 0 0 117.686857-106.057143c38.619429-53.686857 59.099429-115.2 59.099428-177.737143a299.373714 299.373714 0 0 0-36.205714-140.507428zM362.788571 512a85.357714 85.357714 0 1 1 0-170.715429A85.357714 85.357714 0 0 1 362.788571 512z m298.422858 0a85.357714 85.357714 0 1 1 0-170.715429A85.357714 85.357714 0 0 1 661.211429 512z" p-id="28106"></path></svg>