<?xml version="1.0" standalone="no"?><!DOCTYPE svg PUBLIC "-//W3C//DTD SVG 1.1//EN" "http://www.w3.org/Graphics/SVG/1.1/DTD/svg11.dtd"><svg t="1602478093861" class="icon" viewBox="0 0 1024 1024" version="1.1" xmlns="http://www.w3.org/2000/svg" p-id="3276" xmlns:xlink="http://www.w3.org/1999/xlink" width="200" height="200"><defs><style type="text/css"></style></defs><path d="M940.571 852.693l-214.475-214.722c44.778-60.855 69.263-134.077 69.263-211.012 0-95.732-37.354-185.78-104.889-253.311-67.781-67.536-157.825-104.889-253.557-104.889s-185.78 37.354-253.311 104.889c-139.518 139.518-139.518 366.859 0 506.626 67.536 67.536 157.579 104.889 253.311 104.889 77.18 0 150.155-24.487 211.257-69.263l214.475 214.722c21.52 21.52 56.403 21.52 77.676 0 21.77-21.52 21.77-56.403 0.25-77.921zM252.866 611.256c-101.425-101.673-101.425-266.916 0-368.342 49.227-49.227 114.535-76.192 184.295-76.192 69.511 0 134.819 26.966 184.047 76.192 49.227 49.227 76.443 114.535 76.443 184.295 0 69.762-27.211 135.065-76.443 184.295-49.227 49.227-114.535 76.192-184.047 76.192-69.762-0.25-135.065-27.211-184.295-76.443z" p-id="3277"></path></svg>