<?xml version="1.0" standalone="no"?><!DOCTYPE svg PUBLIC "-//W3C//DTD SVG 1.1//EN" "http://www.w3.org/Graphics/SVG/1.1/DTD/svg11.dtd"><svg t="1603348891625" class="icon" viewBox="0 0 1024 1024" version="1.1" xmlns="http://www.w3.org/2000/svg" p-id="12164" xmlns:xlink="http://www.w3.org/1999/xlink" width="200" height="200"><defs><style type="text/css"></style></defs><path d="M849.717358 10.68476c90.915199 33.212233 137.712341 133.833195 104.500108 224.753657-33.212233 90.909936-133.843721 137.707078-224.753657 104.500108-90.920463-33.212233-137.712341-133.833195-104.500108-224.748394C658.175934 24.274932 758.796895-22.516947 849.717358 10.68476zM272.124513 373.845531C356.055143 404.494474 399.236309 497.393986 368.587366 581.303562c-30.648944 83.920103-123.553719 127.106533-207.473822 96.468116C77.198705 647.117471 34.007011 554.217959 64.650691 470.308383 95.310162 386.388281 188.199147 343.20185 272.124513 373.845531zM871.734279 736.348373c76.94606 28.106708 116.532305 113.253189 88.430861 190.183459-28.101444 76.925006-113.242663 116.532305-190.183459 88.425598-76.94606-28.111971-116.532305-113.242663-88.436124-190.178196C709.657528 747.843701 794.788219 708.252192 871.734279 736.348373zM277.977445 576.2033l29.269925-45.291802 510.957841 330.138021-29.269925 45.286538L277.977445 576.2033zM800.904323 119.706153l30.454197 44.481234L257.176376 557.291802l-30.45946-44.47597L800.904323 119.706153z" p-id="12165"></path></svg>