<?xml version="1.0" standalone="no"?><!DOCTYPE svg PUBLIC "-//W3C//DTD SVG 1.1//EN" "http://www.w3.org/Graphics/SVG/1.1/DTD/svg11.dtd"><svg t="1604553895294" class="icon" viewBox="0 0 1024 1024" version="1.1" xmlns="http://www.w3.org/2000/svg" p-id="10770" xmlns:xlink="http://www.w3.org/1999/xlink" width="200" height="200"><defs><style type="text/css"></style></defs><path d="M960 220.352c0 35.2-28.8 64-64 64L128 284.352c-35.2 0-64-28.8-64-64l0 0c0-35.2 28.8-64 64-64l768 0C931.2 156.352 960 185.152 960 220.352L960 220.352z" p-id="10771"></path><path d="M960 512c0 35.2-28.8 64-64 64L128 576C92.8 576 64 547.2 64 512l0 0c0-35.2 28.8-64 64-64l768 0C931.2 448 960 476.8 960 512L960 512z" p-id="10772"></path><path d="M960 803.648c0 35.2-28.8 64-64 64L128 867.648c-35.2 0-64-28.8-64-64l0 0c0-35.2 28.8-64 64-64l768 0C931.2 739.648 960 768.448 960 803.648L960 803.648z" p-id="10773"></path></svg>