<?xml version="1.0" standalone="no"?><!DOCTYPE svg PUBLIC "-//W3C//DTD SVG 1.1//EN" "http://www.w3.org/Graphics/SVG/1.1/DTD/svg11.dtd"><svg t="1603349684672" class="icon" viewBox="0 0 1024 1024" version="1.1" xmlns="http://www.w3.org/2000/svg" p-id="24393" xmlns:xlink="http://www.w3.org/1999/xlink" width="200" height="200"><defs><style type="text/css"></style></defs><path d="M512 874.666667C252.8 874.666667 42.666667 711.893333 42.666667 512S252.8 149.333333 512 149.333333s469.333333 162.773333 469.333333 362.666667-210.133333 362.666667-469.333333 362.666667z m0-640c-212.266667 0-384 124.373333-384 277.333333s172.586667 277.333333 384 277.333333 384-124.373333 384-277.333333-170.666667-277.333333-384-277.333333z" p-id="24394"></path><path d="M512 512m-192 0a192 192 0 1 0 384 0 192 192 0 1 0-384 0Z" p-id="24395"></path><path d="M512 405.333333a106.666667 106.666667 0 1 1-106.666667 106.666667 106.666667 106.666667 0 0 1 106.666667-106.666667m0-85.333333a192 192 0 1 0 192 192 192 192 0 0 0-192-192z" p-id="24396"></path></svg>