<?xml version="1.0" standalone="no"?><!DOCTYPE svg PUBLIC "-//W3C//DTD SVG 1.1//EN" "http://www.w3.org/Graphics/SVG/1.1/DTD/svg11.dtd"><svg t="1601294852685" class="icon" viewBox="0 0 1024 1024" version="1.1" xmlns="http://www.w3.org/2000/svg" p-id="35494" xmlns:xlink="http://www.w3.org/1999/xlink" width="200" height="200"><defs><style type="text/css"></style></defs><path d="M631.584 64.128a51.2 51.2 0 0 1 68.032 76.528L339.472 460.8H921.6c51.936 0 70.864 68.384 26.336 95.104a128 128 0 0 0 0 219.392c44.528 26.72 25.6 95.104-26.336 95.104H204.8a51.2 51.2 0 0 1-26.336-7.296 230.4 230.4 0 0 1-4.336-392.352zM807.424 563.2h-587.2a128 128 0 0 0 0 204.8h587.2a230.24 230.24 0 0 1 0-204.8z" p-id="35495"></path></svg>