<?xml version="1.0" standalone="no"?><!DOCTYPE svg PUBLIC "-//W3C//DTD SVG 1.1//EN" "http://www.w3.org/Graphics/SVG/1.1/DTD/svg11.dtd"><svg t="1550380995893" class="icon" style="" viewBox="0 0 1280 1024" version="1.1" xmlns="http://www.w3.org/2000/svg" p-id="3014" xmlns:xlink="http://www.w3.org/1999/xlink" width="250" height="200"><defs><style type="text/css"></style></defs><path d="M890.88 317.44h20.48C875.52 138.24 686.08 0 455.68 0 204.8 0 0 168.96 0 373.76c0 122.88 71.68 230.4 179.2 296.96l5.12 5.12-46.08 133.12L307.2 721.92h10.24c46.08 10.24 92.16 20.48 143.36 20.48h30.72c-10.24-30.72-15.36-56.32-15.36-87.04-5.12-189.44 184.32-337.92 414.72-337.92zM614.4 184.32c35.84 0 66.56 25.6 66.56 61.44S650.24 307.2 614.4 307.2s-66.56-25.6-66.56-61.44 30.72-61.44 66.56-61.44zM296.96 307.2c-35.84 0-61.44-30.72-61.44-61.44 0-35.84 30.72-61.44 66.56-61.44 35.84 0 66.56 25.6 66.56 61.44S332.8 307.2 296.96 307.2zM1280 655.36c0-174.08-174.08-312.32-384-312.32S512 486.4 512 655.36s174.08 312.32 384 312.32c40.96 0 81.92-5.12 122.88-15.36h5.12l138.24 71.68-35.84-112.64h5.12c87.04-61.44 148.48-153.6 148.48-256z m-522.24-56.32c-30.72 0-56.32-20.48-56.32-51.2s25.6-51.2 56.32-51.2c30.72 0 56.32 20.48 56.32 51.2s-25.6 51.2-56.32 51.2z m271.36 0c-30.72 0-56.32-20.48-56.32-51.2s25.6-51.2 56.32-51.2 56.32 20.48 56.32 51.2-25.6 51.2-56.32 51.2z" p-id="3015"></path></svg>