<svg t="1629022932883" class="icon" viewBox="0 0 1024 1024" version="1.1" xmlns="http://www.w3.org/2000/svg" p-id="6744" xmlns:xlink="http://www.w3.org/1999/xlink" width="200" height="200"><defs><style type="text/css"></style></defs><path d="M767.854865 991.725604s-307.414074-254.711927-150.758982-361.930409c90.346538-61.682375 149.216923 48.620225 149.216923 48.620226s58.779675-110.39331 149.216923-48.529516c156.655092 107.127773-147.674864 361.930409-147.674864 361.930409z" fill="" p-id="6745"></path><path d="M497.722344 64.312947C633.695698 64.312947 743.81688 177.064701 743.81688 316.031465c0 139.148182-110.211891 251.809227-246.275954 251.809227-135.973354 0-246.185246-112.751754-246.185246-251.809227 0-139.057473 110.211891-251.809227 246.185246-251.809227z" fill="" p-id="6746"></path><path d="M457.084544 567.387145c-119.736376-0.907094-205.093898 183.05152-259.519524 407.466515-12.155056 49.799447-92.342144-31.385444-101.594501 6.712494C193.029551 581.809936 351.317412 511.963716 544.256254 554.95996c-22.314506 2.721281-87.081001 12.517894-87.081001 12.517894z" fill="" p-id="6747"></path></svg>