<svg xmlns="http://www.w3.org/2000/svg" viewBox="0 0 32 32"><title>dart</title><path d="M9.715 9.623L7.9 7.813l.008 13.081.022.611a4.314 4.314 0 0 0 .151.949l14.34 5.056 3.584-1.588-16.3-16.3" fill="#00d2b8"/><path d="M8.086 22.455a.134.134 0 0 1 0-.019.05.05 0 0 0 0 .018zm17.924 3.468l-3.584 1.588-14.339-5.055a6.844 6.844 0 0 0 1.533 2.878l4.68 4.653L24.7 30l1.307-4.081z" fill="#55ddca"/><path d="M2.332 16.231c-.463.495-.233 1.515.513 2.266l3.218 3.244 2.023.712a4.314 4.314 0 0 1-.151-.949l-.022-.611L7.9 7.813z" fill="#0081c6"/><path d="M22.543 7.981a4.479 4.479 0 0 0-.952-.148l-.646-.022H7.905l18.108 18.108 1.59-3.588-5.06-14.35" fill="#0079b3"/><path d="M22.527 7.978h.017-.016zm2.893 1.54a6.75 6.75 0 0 0-2.876-1.536L27.6 22.331l-1.59 3.588 3.89-1.242.008-10.655-4.488-4.5z" fill="#00a4e4"/><path d="M21.834 5.97l-3.243-3.22c-.75-.743-1.771-.974-2.264-.512L7.9 7.812h13.04l.646.022a4.479 4.479 0 0 1 .952.148l-.704-2.012z" fill="#00d2b8"/></svg>