<svg class="icon" viewBox="0 0 1024 1024" xmlns="http://www.w3.org/2000/svg" width="200" height="200"><defs><style/></defs><path d="M526.08 245.163a276.608 272.256 0 0 0-276.565 272.256A276.608 272.256 0 0 0 526.08 789.632a276.608 272.256 0 0 0 276.65-272.213 276.608 272.256 0 0 0-276.65-272.214zm79.36 81.749a99.37 97.792 0 0 1 99.413 97.835 99.37 97.792 0 0 1-99.413 97.749 99.37 97.792 0 0 1-99.37-97.707 99.37 97.792 0 0 1 99.327-97.877zm132.779-130.005a99.37 97.792 0 1 0 198.741 0 99.37 97.792 0 1 0-198.741 0z" fill="#42A5F5"/></svg>