<svg class="icon" viewBox="0 0 1024 1024" xmlns="http://www.w3.org/2000/svg" width="200" height="200"><defs><style/></defs><path d="M350.72 104.448c39.424-19.968 84.48-25.6 128-27.648 31.744-3.072 63.488 0 94.72 2.56 39.936 5.12 81.408 14.336 114.176 38.912 20.48 15.872 36.864 39.424 36.864 66.048-.512 68.096 0 136.192-.512 204.288 0 29.696-11.264 59.904-33.792 79.872-22.016 18.944-50.688 28.16-79.36 29.696H392.704c-28.672.512-58.368 8.704-79.872 29.184-26.112 24.576-37.376 61.44-36.352 96.768 0 33.792.512 67.584 0 101.376-26.112 0-52.224.512-78.336 0-34.816-1.536-65.024-23.552-83.968-51.712-27.648-43.008-35.328-94.72-37.376-144.896 0-8.192-2.56-17.408 1.536-25.6-3.072-5.632-1.024-12.8-1.024-18.944 2.56-47.616 11.776-97.792 41.984-136.192 23.552-31.232 63.488-49.152 102.912-47.104 96.768.512 193.536 0 289.792 0V273.92H301.568c0-35.328-.512-70.656-.512-105.984 2.56-29.184 25.6-50.688 49.664-63.488m29.696 43.52c-26.112 9.216-31.232 48.64-8.192 64 22.016 16.896 57.856 0 58.368-27.648 3.072-25.6-26.624-47.104-50.176-36.352z" fill="#3774A7"/><path d="M750.592 294.912h65.024c31.744-2.56 63.488 12.288 84.48 35.84 32.768 37.376 42.496 87.552 48.64 135.168v85.504c-5.632 47.104-17.408 97.28-51.712 132.096-23.04 22.528-55.296 36.352-87.552 34.816-98.304-.512-196.608 0-295.424 0v27.136H724.48c0 34.304 0 68.096.512 102.4 1.024 27.136-18.944 49.152-40.96 62.464-41.472 24.576-91.136 28.672-137.728 32.768h-55.296c-48.128-4.096-98.816-9.216-141.312-35.328-26.112-15.36-46.592-43.008-47.616-73.728.512-68.096-.512-136.192.512-204.288.512-28.16 10.24-56.832 31.232-76.288 23.04-21.504 54.784-31.232 86.016-32.768h215.04c29.696 0 60.416-9.728 80.896-31.232 23.04-23.04 33.28-55.808 34.304-88.064.512-34.816 0-70.656.512-106.496m-128 507.904c-9.216 3.072-17.92 9.216-22.528 17.92-10.24 18.944-.512 45.568 20.48 51.712 22.016 9.216 49.664-10.24 48.128-34.304 2.56-23.04-24.064-43.008-46.08-35.328z" fill="#FFD140"/></svg>