<svg class="icon" viewBox="0 0 1024 1024" xmlns="http://www.w3.org/2000/svg" width="200" height="200"><defs><style/></defs><path d="M359.629 527.477v267.352H215.128v-668.35H500.53c151.757 4.856 228.791 62.668 231.22 173.407-2.429 86.689-48.187 140.902-137.275 162.582v3.628c65.039 7.226 104.77 56.612 119.223 148.128 0 7.227 1.17 14.453 3.598 21.65 4.799 81.92 16.823 134.905 36.133 158.984H598.045c-14.424-57.812-22.908-117.965-25.278-180.634-7.226-57.812-27.706-86.718-61.41-86.718H359.628zm0-289.002v177.006h119.223c65.038 0 98.713-31.276 101.142-93.916-2.429-55.384-36.104-83.09-101.142-83.09H359.629z" fill="#1296db"/></svg>