<svg class="icon" viewBox="0 0 1144 1024" xmlns="http://www.w3.org/2000/svg" width="223.438" height="200"><defs><style/></defs><path d="M643.007 724.478C334.667 882.743 10.894 653.18 10.894 653.18s319.74 523.292 865.334 286.037c73.294-38.47 92.214-26.974 92.214-26.974 136.99 10.54 127.222 87.268 164.134 103.054 31.423-189.688-84.592-306.05-84.592-306.05S1179.674 304.067 717.13 0c-7.3 0 167.654 214.314 90.18 524.02-90.18 0-552.742-433.31-552.742-433.31s227.033 324.896 319.865 391.733C534.99 495.884 104.9 141.713 104.9 141.713s421.025 536.301 538.107 582.765z" fill="#fd6f32"/></svg>