<svg xmlns="http://www.w3.org/2000/svg" xmlns:xlink="http://www.w3.org/1999/xlink" viewBox="0 0 1300 514"><style>.st0{opacity:.5}.st1{fill:#85b9c9}.st2{fill:#4c677b}.st3{opacity:.3;fill:#729eaf}.st4{opacity:.5;fill:#263147}.st5{fill:gray}.st6{fill:#263147}.st7{fill:#e3925d}.st8{fill:#f5c16e}.st9{fill:none;stroke:#515254;stroke-width:2.5204;stroke-miterlimit:10}.st10{fill:#5f8395}.st11{fill:#394c61}.st12{fill:#4c677b}.st12,.st13{clip-path:url(#SVGID_2_)}.st14{opacity:.5}.st14,.st15{fill:#4c677b}.st15,.st16{clip-path:url(#SVGID_4_)}.st17{fill:#ff725c}.st18{fill:#c75140}.st19{opacity:.5}.st19,.st20{fill:#729eaf}.st21{fill:#4c677b}.st21,.st22{clip-path:url(#SVGID_6_)}.st23{opacity:.5;fill:none;stroke:#85b9c9;stroke-linecap:round;stroke-linejoin:round;stroke-miterlimit:10;stroke-dasharray:1,4}.st24{display:none}.st25,.st26{display:inline;fill:#2b5285}.st26{fill:none}</style><g class="st0" id="Layer_4"><circle class="st1" cx="682.2" cy="204.9" r="1.6"/><circle class="st1" cx="737.7" cy="257.6" r="1.6"/><circle class="st1" cx="842.3" cy="294.4" r="1.6"/><circle class="st1" cx="786.2" cy="338.7" r="1.6"/><circle class="st1" cx="775.5" cy="281.1" r="1.1"/><circle class="st1" cx="777.1" cy="242.1" r="1.6"/><circle class="st1" cx="517.3" cy="221.1" r="1.6"/><circle class="st1" cx="477" cy="275.9" r="1.6"/><circle class="st1" cx="592.3" cy="277.5" r="1.6"/><circle class="st1" cx="623.5" cy="352.9" r="1.6"/><circle class="st1" cx="589.6" cy="379.5" r="1.6"/><circle class="st1" cx="301.3" cy="280.7" r="1.6"/><circle class="st1" cx="658.8" cy="266" r="1.6"/><circle class="st1" cx="761.7" cy="197.2" r="1.1"/><circle class="st1" cx="554.7" cy="345.3" r="1.1"/><circle class="st1" cx="500.6" cy="376.8" r="1.1"/><circle class="st1" cx="701.5" cy="284.5" r="1.1"/><circle class="st1" cx="478.1" cy="201.6" r="1.1"/><circle class="st1" cx="442.7" cy="224.8" r="1.6"/><circle class="st1" cx="627.9" cy="232.5" r="1.1"/><circle class="st1" cx="654.7" cy="304.5" r="1.1"/><circle class="st1" cx="689.4" cy="371.3" r="1.1"/><circle class="st1" cx="480.4" cy="335.7" r="1.1"/><circle class="st1" cx="221.7" cy="359.8" r="1.1"/><circle class="st1" cx="418.3" cy="296.2" r="1.1"/><circle class="st1" cx="724.3" cy="330.6" r="1.1"/><circle class="st1" cx="908.5" cy="236.9" r="1.6"/><circle class="st1" cx="970.3" cy="316.1" r="1.6"/><circle class="st1" cx="896.5" cy="337.1" r="1.6"/><circle class="st1" cx="1053.2" cy="216.8" r="1.6"/><circle class="st1" cx="929.3" cy="279.1" r="1.1"/><circle class="st1" cx="978.5" cy="217.9" r="1.1"/><circle class="st1" cx="1019.2" cy="356.6" r="1.1"/><circle class="st1" cx="826.2" cy="351.4" r="1.1"/><circle class="st1" cx="244.5" cy="251" r="1.1"/><circle class="st1" cx="823.6" cy="206.5" r="1.1"/><circle class="st1" cx="892" cy="286.7" r="1.1"/><circle class="st1" cx="403.4" cy="217.9" r="1.1"/><circle class="st1" cx="411.9" cy="161.8" r="1.1"/><circle class="st1" cx="338.4" cy="257" r="1.1"/><circle class="st1" cx="352.9" cy="373" r="1.1"/><circle class="st1" cx="341.1" cy="219.5" r="1.6"/><circle class="st1" cx="392.5" cy="254.1" r="1.6"/><circle class="st1" cx="193" cy="262.8" r="1.6"/><circle class="st1" cx="416.7" cy="358.2" r="1.6"/><circle class="st1" cx="381.9" cy="330" r="1.6"/><circle class="st1" cx="338.4" cy="300.3" r="1.6"/><circle class="st1" cx="533.1" cy="295" r="1.1"/><circle class="st1" cx="277.6" cy="215.2" r="1.1"/><circle class="st1" cx="560.5" cy="204.9" r="1.1"/><g><circle class="st1" cx="726" cy="1.5" r="1.6"/><circle class="st1" cx="781.5" cy="54.3" r="1.6"/><circle class="st1" cx="886.1" cy="91" r="1.6"/><circle class="st1" cx="930.9" cy="127.2" r="1.6"/><circle class="st1" cx="830" cy="135.3" r="1.6"/><circle class="st1" cx="819.3" cy="77.7" r="1.1"/><circle class="st1" cx="820.9" cy="38.7" r="1.6"/><circle class="st1" cx="888.1" cy="36.1" r="1.6"/><circle class="st1" cx="561.1" cy="17.8" r="1.6"/><circle class="st1" cx="599.6" cy="49.6" r="1.6"/><circle class="st1" cx="694.8" cy="140.3" r="1.6"/><circle class="st1" cx="633.4" cy="176.1" r="1.6"/><circle class="st1" cx="356.4" cy="183.7" r="1.6"/><circle class="st1" cx="724.4" cy="40.3" r="1.6"/><circle class="st1" cx="776.2" cy="19.4" r="1.1"/><circle class="st1" cx="818.2" cy="-26" r="1.1"/><circle class="st1" cx="598.5" cy="141.9" r="1.1"/><circle class="st1" cx="544.4" cy="173.4" r="1.1"/><circle class="st1" cx="745.3" cy="81.1" r="1.1"/><circle class="st1" cx="521.9" cy="-1.7" r="1.1"/><circle class="st1" cx="486.5" cy="21.4" r="1.6"/><circle class="st1" cx="484.9" cy="-45" r="1.6"/><circle class="st1" cx="671.7" cy="29.2" r="1.1"/><circle class="st1" cx="644.1" cy="115.6" r="1.1"/><circle class="st1" cx="733.2" cy="167.9" r="1.1"/><circle class="st1" cx="524.2" cy="132.3" r="1.1"/><circle class="st1" cx="252.8" cy="139.8" r="1.1"/><circle class="st1" cx="462.1" cy="92.8" r="1.1"/><circle class="st1" cx="768" cy="127.2" r="1.1"/><circle class="st1" cx="952.3" cy="33.6" r="1.6"/><circle class="st1" cx="944.9" cy="-.3" r="1.6"/><circle class="st1" cx="1014.1" cy="112.7" r="1.6"/><circle class="st1" cx="959.6" cy="170.7" r="1.6"/><circle class="st1" cx="1097" cy="13.4" r="1.6"/><circle class="st1" cx="1098.6" cy="86.6" r="1.6"/><circle class="st1" cx="984.6" cy="59" r="1.1"/><circle class="st1" cx="1022.3" cy="14.5" r="1.1"/><circle class="st1" cx="1054.8" cy="59.4" r="1.1"/><circle class="st1" cx="1063" cy="153.2" r="1.1"/><circle class="st1" cx="853.1" cy="173.4" r="1.1"/><circle class="st1" cx="288.3" cy="47.6" r="1.1"/><circle class="st1" cx="238.4" cy="14.5" r="1.1"/><circle class="st1" cx="867.4" cy="3.1" r="1.1"/><circle class="st1" cx="917.5" cy="63.2" r="1.1"/><circle class="st1" cx="447.2" cy="14.5" r="1.1"/><circle class="st1" cx="382.2" cy="53.7" r="1.1"/><circle class="st1" cx="384.9" cy="16.2" r="1.6"/><circle class="st1" cx="413.5" cy="-7.3" r="1.6"/><circle class="st1" cx="436.3" cy="50.7" r="1.6"/><circle class="st1" cx="335.8" cy="-37.9" r="1.6"/><circle class="st1" cx="236.8" cy="59.4" r="1.6"/><circle class="st1" cx="460.5" cy="154.8" r="1.6"/><circle class="st1" cx="424.1" cy="117.2" r="1.6"/><circle class="st1" cx="576.9" cy="91.7" r="1.1"/><circle class="st1" cx="321.4" cy="11.8" r="1.1"/><circle class="st1" cx="235.2" cy="-27.6" r="1.1"/><circle class="st1" cx="604.2" cy="1.5" r="1.1"/></g><g><circle class="st1" cx="220.6" cy="201.6" r="1.6"/><circle class="st1" cx="119.8" cy="329.8" r="1.6"/><circle class="st1" cx="83" cy="434.4" r="1.6"/><circle class="st1" cx="38.8" cy="378.3" r="1.6"/><circle class="st1" cx="96.3" cy="367.6" r="1.1"/><circle class="st1" cx="-28.2" cy="336.8" r="1.1"/><circle class="st1" cx="135.4" cy="369.2" r="1.6"/><circle class="st1" cx="156.3" cy="109.4" r="1.6"/><circle class="st1" cx="229.8" cy="105.1" r="1.6"/><circle class="st1" cx="99.9" cy="184.3" r="1.6"/><circle class="st1" cx="33.7" cy="243.1" r="1.6"/><circle class="st1" cx="-2.1" cy="181.7" r="1.6"/><circle class="st1" cx="133.8" cy="272.7" r="1.6"/><circle class="st1" cx="154.7" cy="324.5" r="1.1"/><circle class="st1" cx="32.1" cy="146.7" r="1.1"/><circle class="st1" cx=".7" cy="92.7" r="1.1"/><circle class="st1" cx="-25.9" cy="41.9" r="1.1"/><circle class="st1" cx="88" cy="301.9" r="1.1"/><circle class="st1" cx="175.8" cy="70.2" r="1.1"/><circle class="st1" cx="152.7" cy="34.8" r="1.6"/><circle class="st1" cx="144.9" cy="220" r="1.1"/><circle class="st1" cx="58.5" cy="192.4" r="1.1"/><circle class="st1" cx="6.1" cy="281.5" r="1.1"/><circle class="st1" cx="-29.3" cy="136.9" r="1.1"/><circle class="st1" cx="41.7" cy="72.4" r="1.1"/><circle class="st1" cx="-25.9" cy="465.7" r="1.1"/><circle class="st1" cx="81.3" cy="10.4" r="1.1"/><circle class="st1" cx="46.9" cy="316.3" r="1.1"/><circle class="st1" cx="176.9" cy="519.5" r="1.6"/><circle class="st1" cx="3.4" cy="507.9" r="1.6"/><circle class="st1" cx="115.1" cy="532.9" r="1.1"/><circle class="st1" cx=".7" cy="401.3" r="1.1"/><circle class="st1" cx="121.9" cy="428.6" r="1.1"/><circle class="st1" cx="110.8" cy="465.8" r="1.1"/><circle class="st1" cx="35.3" cy="440.2" r="1.1"/><circle class="st1" cx="62.9" cy="491.5" r="1.1"/><circle class="st1" cx="159.5" cy="-4.5" r="1.1"/><circle class="st1" cx="123.4" cy="-15.4" r="1.6"/><circle class="st1" cx="19.2" cy="8.8" r="1.6"/><circle class="st1" cx="56.9" cy="-27.6" r="1.6"/><circle class="st1" cx="82.4" cy="125.2" r="1.1"/><circle class="st1" cx="172.6" cy="152.5" r="1.1"/></g><g><circle class="st1" cx="1339.3" cy="227.3" r="1.6"/><circle class="st1" cx="1238.5" cy="355.5" r="1.6"/><circle class="st1" cx="1201.8" cy="460.1" r="1.6"/><circle class="st1" cx="1135.2" cy="485.6" r="1.6"/><circle class="st1" cx="1157.5" cy="404" r="1.6"/><circle class="st1" cx="1074.2" cy="506.3" r="1.6"/><circle class="st1" cx="1100.2" cy="363.2" r="1.6"/><circle class="st1" cx="996.2" cy="267" r="1.6"/><circle class="st1" cx="1215.1" cy="393.3" r="1.1"/><circle class="st1" cx="1254.1" cy="394.9" r="1.6"/><circle class="st1" cx="1002.6" cy="479.3" r="1.6"/><circle class="st1" cx="1275" cy="135.1" r="1.6"/><circle class="st1" cx="1218.6" cy="210" r="1.6"/><circle class="st1" cx="1200.4" cy="262.2" r="1.6"/><circle class="st1" cx="1116.7" cy="207.4" r="1.6"/><circle class="st1" cx="1252.5" cy="298.4" r="1.6"/><circle class="st1" cx="1273.4" cy="350.2" r="1.1"/><circle class="st1" cx="1150.9" cy="172.4" r="1.1"/><circle class="st1" cx="1119.4" cy="118.4" r="1.1"/><circle class="st1" cx="1211.7" cy="319.3" r="1.1"/><circle class="st1" cx="1294.5" cy="95.9" r="1.1"/><circle class="st1" cx="1271.4" cy="60.5" r="1.6"/><circle class="st1" cx="1263.6" cy="245.7" r="1.1"/><circle class="st1" cx="1177.2" cy="218.1" r="1.1"/><circle class="st1" cx="1124.9" cy="307.1" r="1.1"/><circle class="st1" cx="1051.6" cy="303.1" r="1.1"/><circle class="st1" cx="1160.5" cy="98.1" r="1.1"/><circle class="st1" cx="1200" cy="36.1" r="1.1"/><circle class="st1" cx="1165.6" cy="342" r="1.1"/><circle class="st1" cx="1082.3" cy="461.7" r="1.1"/><circle class="st1" cx="1295.6" cy="545.2" r="1.6"/><circle class="st1" cx="1122.1" cy="533.6" r="1.6"/><circle class="st1" cx="1111.3" cy="406.5" r="1.1"/><circle class="st1" cx="1289.7" cy="441.3" r="1.1"/><circle class="st1" cx="1229.6" cy="491.5" r="1.1"/><circle class="st1" cx="1278.3" cy="21.2" r="1.1"/><circle class="st1" cx="1239.1" cy="-43.8" r="1.1"/><circle class="st1" cx="1276.6" cy="-41.1" r="1.6"/><circle class="st1" cx="1242.1" cy="10.3" r="1.6"/><circle class="st1" cx="1138" cy="34.5" r="1.6"/><circle class="st1" cx="1175.6" cy="-1.9" r="1.6"/><circle class="st1" cx="1201.1" cy="150.9" r="1.1"/><circle class="st1" cx="1291.3" cy="178.2" r="1.1"/></g><g><circle class="st1" cx="664.5" cy="408.2" r="1.6"/><circle class="st1" cx="720" cy="461" r="1.6"/><circle class="st1" cx="824.6" cy="497.8" r="1.6"/><circle class="st1" cx="768.5" cy="542" r="1.6"/><circle class="st1" cx="757.8" cy="484.5" r="1.1"/><circle class="st1" cx="759.4" cy="445.4" r="1.6"/><circle class="st1" cx="499.6" cy="424.5" r="1.6"/><circle class="st1" cx="574.5" cy="480.9" r="1.6"/><circle class="st1" cx="633.3" cy="547.1" r="1.6"/><circle class="st1" cx="662.9" cy="447" r="1.6"/><circle class="st1" cx="872.2" cy="394.3" r="1.1"/><circle class="st1" cx="536.9" cy="548.7" r="1.1"/><circle class="st1" cx="683.8" cy="487.8" r="1.1"/><circle class="st1" cx="460.4" cy="405" r="1.1"/><circle class="st1" cx="425" cy="428.1" r="1.6"/><circle class="st1" cx="610.2" cy="435.9" r="1.1"/><circle class="st1" cx="582.6" cy="522.3" r="1.1"/><circle class="st1" cx="462.6" cy="539.1" r="1.1"/><circle class="st1" cx="400.6" cy="499.5" r="1.1"/><circle class="st1" cx="706.5" cy="533.9" r="1.1"/><circle class="st1" cx="890.8" cy="440.3" r="1.6"/><circle class="st1" cx="952.5" cy="519.5" r="1.6"/><circle class="st1" cx="1035.4" cy="420.2" r="1.6"/><circle class="st1" cx="923.1" cy="465.7" r="1.1"/><circle class="st1" cx="960.8" cy="421.3" r="1.1"/><circle class="st1" cx="226.8" cy="454.4" r="1.1"/><circle class="st1" cx="782.5" cy="402.3" r="1.1"/><circle class="st1" cx="856" cy="470" r="1.1"/><circle class="st1" cx="385.7" cy="421.3" r="1.1"/><circle class="st1" cx="320.7" cy="460.4" r="1.1"/><circle class="st1" cx="277.8" cy="471.1" r="1.1"/><circle class="st1" cx="323.4" cy="422.9" r="1.6"/><circle class="st1" cx="243.4" cy="500.7" r="1.6"/><circle class="st1" cx="374.8" cy="457.4" r="1.6"/><circle class="st1" cx="327.9" cy="510" r="1.6"/><circle class="st1" cx="175.3" cy="466.1" r="1.6"/><circle class="st1" cx="362.6" cy="523.9" r="1.6"/><circle class="st1" cx="515.4" cy="498.4" r="1.1"/><circle class="st1" cx="259.8" cy="418.5" r="1.1"/><circle class="st1" cx="542.7" cy="408.2" r="1.1"/></g><g><circle class="st2" cx="342.3" cy="118.4" r="35.8"/><path class="st3" d="M351.3 84.5c-8.5-.1-18.7 8-16.1 17.4 1.4 5 5.4 6.5 9.3 9.1 3 2 4.9 4.6 6.5 7.8 4.4 8.8 11.7 16.4 22.5 13.5.7-.2 1.4-.4 2-.7 1.6-4.1 2.5-8.5 2.5-13.1 0-16.2-10.7-29.9-25.5-34.3-.2.1-.6.3-1.2.3z"/><path class="st3" d="M358 143c-3.3-1.8-6.1-4.5-7.9-7.7-2.4-4.1-3.1-9-5.6-13.1-5.1-8.1-15.7-12.4-17.1-22.8-1-7.7 3.4-12.7 9.2-16.5-9.7 1.5-18.1 7-23.6 14.7-1.7 4.5-3.4 9.6.1 13.7 2.9 3.4 7.6 5 11.6 6.5 6.5 2.5 12.6 5.1 16.2 11.4 1.8 3.1 2.5 6.4 2.7 9.8v.5c.3 4.3 0 9.9 3.7 12.9.4.4.9.7 1.4 1 6.3-1.2 11.9-4 16.6-7.9-2.5-.3-5-1.2-7.3-2.5z"/><path class="st3" d="M316 131.7c2.7 1 5.6 1.2 8.3 2.2 3.9 1.4 6.4 4.3 7.9 8.1 1.2 3.1 1.6 7.4 2.5 11.4 2.4.5 4.9.8 7.5.8h1.1c-3-3.7-3-8.9-3.5-13.9 0-.1-.1-.1-.1-.2-1.7-5.8-4.1-10.1-9.7-12.7-3.7-1.7-7.7-2.6-11.5-3.9-5.2-1.8-9.5-4.5-11.9-8.8-.1 1.3-.2 2.5-.2 3.8 0 3 .4 5.8 1 8.6 2.8 1.6 5.6 3.5 8.6 4.6z"/><path class="st4" d="M326.6 124.5c-7.2-18.4-6.1-36.1 2.5-39.5-13.3 5.2-22.7 18.2-22.7 33.3 0 19.8 16 35.8 35.8 35.8 4.6 0 9-.9 13.1-2.5-8.6 3.5-21.4-8.7-28.7-27.1z"/><path class="st5" d="M329.2 85s-.1 0 0 0zM355.3 151.7s.1 0 0 0z"/><circle class="st6" cx="306.4" cy="117.1" r="5.4"/><circle class="st7" cx="308.7" cy="113.2" r="5.4"/><g><path class="st8" d="M313.9 111.7c-.9-2.9-3.9-4.5-6.7-3.7 1-.3 2.6 1.8 3.4 4.6.9 2.9.7 5.5-.3 5.8 2.8-.8 4.5-3.9 3.6-6.7z"/><path class="st8" d="M310.6 112.7c-.9-2.9-2.4-5-3.4-4.6-1 .3-1.2 2.9-.3 5.8.9 2.9 2.4 5 3.4 4.6s1.2-3 .3-5.8z"/></g></g><g><circle class="st2" cx="1296.4" cy="351.3" r="25"/><path class="st3" d="M1274.3 340.8c-1.1 5.9 3.1 13.8 9.9 13.2 3.6-.3 5.2-2.9 7.4-5.2 1.7-1.8 3.8-2.8 6.2-3.5 6.6-1.9 12.7-6 12.1-13.8 0-.5-.1-1-.2-1.5-2.6-1.6-5.5-2.8-8.7-3.4-11.1-2-21.9 3.6-26.8 13.2.1.3.2.6.1 1z"/><path class="st3" d="M1315.3 343.5c-1.7 2-3.8 3.6-6.3 4.5-3.1 1.1-6.6 1-9.7 2.2-6.2 2.5-10.5 9.2-17.8 8.9-5.4-.3-8.3-4-10.2-8.4-.2 6.9 2.5 13.3 7.1 18.1 2.9 1.7 6.2 3.5 9.4 1.7 2.7-1.5 4.4-4.6 5.9-7.2 2.5-4.2 5.1-8 9.9-9.7 2.3-.8 4.7-.9 7.1-.7h.4c3 .3 6.8 1.3 9.3-.9.3-.3.6-.5.9-.9 0-4.4-1.2-8.7-3.4-12.4-.5 1.8-1.4 3.4-2.6 4.8z"/><path class="st3" d="M1302.3 371c1-1.7 1.5-3.7 2.5-5.4 1.5-2.5 3.8-3.9 6.6-4.4 2.3-.4 5.3-.2 8.1-.3.7-1.6 1.2-3.3 1.5-5 0-.3.1-.5.1-.8-3 1.6-6.5 1-10 .7h-.2c-4.2.4-7.5 1.6-10 5-1.7 2.3-2.8 5-4.2 7.4-1.9 3.3-4.3 5.9-7.5 7.1.8.2 1.7.5 2.6.6 2 .4 4 .5 6 .4 1.7-1.7 3.3-3.4 4.5-5.3z"/><g><path class="st4" d="M1285.5 355.6c-5-12.8-4.3-25.2 1.7-27.6-9.3 3.7-15.9 12.7-15.9 23.3 0 13.8 11.2 25 25 25 3.2 0 6.3-.6 9.1-1.7-5.9 2.3-14.9-6.2-19.9-19z"/><path class="st5" d="M1287.3 328zM1305.5 374.6s.1 0 0 0z"/></g></g><g><circle class="st2" cx="-8.5" cy="359" r="25"/><path class="st3" d="M-30.6 348.5c-1.1 5.9 3.1 13.8 9.9 13.2 3.6-.3 5.2-2.9 7.4-5.2 1.7-1.8 3.8-2.8 6.2-3.5 6.6-1.9 12.7-6 12.1-13.8 0-.5-.1-1-.2-1.5-2.6-1.6-5.5-2.8-8.7-3.4-11.1-2-21.9 3.6-26.8 13.2.1.3.2.6.1 1z"/><path class="st3" d="M10.5 351.3c-1.7 2-3.8 3.6-6.3 4.5-3.1 1.1-6.6 1-9.7 2.2-6.2 2.5-10.5 9.2-17.8 8.9-5.4-.3-8.3-4-10.2-8.4-.2 6.9 2.5 13.3 7.1 18.1 2.9 1.7 6.2 3.5 9.4 1.7 2.7-1.5 4.4-4.6 6-7.2 2.5-4.2 5.1-8 9.9-9.7 2.3-.8 4.7-.9 7.1-.7h.4c3 .3 6.8 1.3 9.3-.9.3-.3.6-.5.9-.9 0-4.4-1.2-8.7-3.4-12.4-.7 1.7-1.6 3.3-2.7 4.8z"/><path class="st3" d="M-2.6 378.7c1-1.7 1.5-3.7 2.5-5.4 1.5-2.5 3.8-3.9 6.6-4.4 2.3-.4 5.3-.2 8.1-.3.7-1.6 1.2-3.3 1.5-5 0-.3.1-.5.1-.8-3 1.6-6.5 1-10 .7H6c-4.2.4-7.5 1.6-10 5-1.7 2.3-2.8 5-4.2 7.4-1.9 3.3-4.3 5.9-7.5 7.1.8.2 1.7.5 2.6.6 2 .4 4 .5 6 .4 1.7-1.7 3.4-3.4 4.5-5.3z"/><g><path class="st4" d="M-19.4 363.3c-5-12.8-4.3-25.2 1.7-27.6-9.3 3.7-15.9 12.7-15.9 23.3 0 13.8 11.2 25 25 25 3.2 0 6.3-.6 9.1-1.7-5.9 2.3-14.8-6.2-19.9-19z"/><path class="st5" d="M-17.6 335.7zM.7 382.3z"/></g></g><g><path class="st2" d="M1122.4 346.5c.1 2.8 3.9 4.9 8.4 4.6 4.5-.2 8-2.7 7.9-5.5-.1-2.8-3.9-5.7-8.4-5.4s-8.1 3.5-7.9 6.3z"/><path class="st10" d="M1109.5 350.9c-.2-4.3 9.1-7.1 20.8-7.7s21.3 1.4 21.5 5.5c.2 3.2-9.2 6.2-20.9 6.8-11.6.6-21.2-1.5-21.4-4.6z"/><ellipse transform="matrix(.9986 -.0524 .0524 .9986 -16.774 59.728)" class="st11" cx="1130.7" cy="349.8" rx="21.2" ry="5.7"/><ellipse transform="matrix(.9986 -.0524 .0524 .9986 -16.818 59.732)" class="st1" cx="1130.8" cy="350.6" rx="6.8" ry="1.6"/></g><g><defs><circle id="SVGID_1_" cx="529.5" cy="283.2" r="23.4"/></defs><use xlink:href="#SVGID_1_" overflow="visible" fill="#4c677b"/><clipPath id="SVGID_2_"><use xlink:href="#SVGID_1_" overflow="visible"/></clipPath><circle class="st12" cx="529.5" cy="283.2" r="23.4"/><g class="st13"><path class="st4" d="M505.8 279.5l-.3-1.1c.1 0 14.7-4 17.4-18.7l1.1.2c-2.8 15.4-18 19.6-18.2 19.6z"/><path class="st14" d="M546.8 271.6c-1.6 0-3-.4-4.2-1.2-4.4-2.8-5.2-9.5-5.2-9.8l1.2-.1c0 .1.8 6.4 4.7 9 1.8 1.2 4.1 1.3 6.7.5l.4 1.1c-1.4.3-2.5.5-3.6.5z"/><path class="st4" d="M552.8 281.1c-3 0-13.3-.4-19.1-5.9-6.8-6.4-4.4-16-4.3-16.4l1.1.3c0 .1-2.3 9.3 4 15.2 6.4 6 18.9 5.6 19 5.6v1.2h-.7zM506.3 289l-.8-.9c.3-.3 8.4-7.5 21.3-6.2 4.1.4 7.8 1.2 11 2 7 1.6 12.1 2.7 15.5-1.1l.9.8c-3.9 4.2-9.5 3-16.7 1.4-3.2-.7-6.9-1.5-10.9-1.9-12.3-1.3-20.3 5.8-20.3 5.9zM514.1 301.7c-.7 0-1.1-.1-1.2-.1l.3-1.1s4.8 1 13-4.8c9.4-6.6 19.3-5.4 25.9-3.9l-.3 1.1c-6.4-1.5-15.9-2.7-25 3.7-6.3 4.5-10.7 5.1-12.7 5.1z"/><path class="st4" d="M523.3 307.2l-.4-1.1s2.3-.8 4.9-3.7c4.6-5 10.9-6.1 19.9-3.5l-.3 1.1c-8.6-2.5-14.4-1.6-18.7 3.2-2.9 3-5.3 3.9-5.4 4z"/></g><g class="st0"><path class="st6" d="M521 285.7c-3.6-12.4-2.6-23.6 2.1-24.9-12.4 3.6-19.6 16.5-16 29 3.6 12.4 16.5 19.6 29 16-4.8 1.3-11.5-7.7-15.1-20.1z"/></g></g><g><defs><circle id="SVGID_3_" cx="1090.5" cy="222.3" r="44.7"/></defs><use xlink:href="#SVGID_3_" overflow="visible" fill="#4c677b"/><clipPath id="SVGID_4_"><use xlink:href="#SVGID_3_" overflow="visible"/></clipPath><circle class="st15" cx="1090.5" cy="222.3" r="44.7"/><g class="st16"><path class="st10" d="M1135.4 231.8l.5 2.2c-.3.1-28.4 6.2-35.2 34.1l-2.2-.5c7.1-29.3 36.6-35.8 36.9-35.8z"/><path class="st14" d="M1056.3 242.8c3 .2 5.7 1.1 8 2.8 8.1 5.8 9 18.7 9 19.3l-2.2.1c0-.1-.8-12.4-8.1-17.6-3.4-2.4-7.7-3-12.8-1.6l-.6-2.2c2.4-.7 4.6-.9 6.7-.8z"/><path class="st10" d="M1045.8 223.9c5.7.3 25.3 2.1 35.8 13.2 12.3 13 6.8 30.9 6.6 31.7l-2.1-.7c.1-.2 5.3-17.5-6.1-29.5-11.5-12.1-35.6-12.6-35.8-12.6v-2.2c.2.1.7.1 1.6.1zM1135.5 213.6l1.4 1.7c-.7.6-16.7 13.6-41.3 9.7-7.7-1.2-14.7-3.2-20.9-4.9-13.2-3.7-22.8-6.3-29.8.5l-1.6-1.6c7.9-7.7 18.5-4.8 32-1 6.1 1.7 13 3.6 20.6 4.8 23.6 3.7 39.5-9 39.6-9.2zM1121.8 188.6c1.4.1 2.2.3 2.3.3l-.6 2.2c-.1 0-9-2.3-25.4 7.9-18.7 11.7-37.4 8.3-49.9 4.7l.6-2.2c12.1 3.4 30.2 6.7 48.1-4.5 12.7-7.9 21.1-8.6 24.9-8.4z"/><path class="st10" d="M1104.8 177.2l.6 2.1s-4.4 1.4-9.7 6.6c-9.3 9.1-21.5 10.6-38.4 4.7l.7-2.1c16.2 5.7 27.3 4.4 36.1-4.1 5.8-5.7 10.5-7.2 10.7-7.2z"/></g><g class="st0"><path class="st6" d="M1074.2 227c-6.8-23.8-5.1-45.1 4-47.7-23.8 6.8-37.5 31.6-30.7 55.4 6.8 23.8 31.6 37.5 55.4 30.7-9.1 2.6-21.9-14.6-28.7-38.4z"/></g></g><g><circle class="st17" cx="984" cy="332.8" r="6.1"/><path class="st18" d="M981.3 333.6c-.9-3.2-.4-6.2 1.1-6.6-3.2.9-5.1 4.2-4.2 7.5.9 3.2 4.2 5.1 7.5 4.2-1.6.4-3.5-1.9-4.4-5.1z"/><circle class="st2" cx="942.2" cy="361.1" r="27.6"/><g class="st0"><path class="st19" d="M934.3 352c6.2 1.9 12.3 4 18.8 4.6 5.3.5 11 .4 16.3-.9-1-4.9-3.3-9.3-6.5-12.9-5.6 1.3-11.7 1.3-17.6 1.1-5.5-.2-10.6-1.1-16-2.1-1.8-.3-3.8-.7-5.8-.9-2.8 2.6-5 5.7-6.6 9.2 5.7-.9 11.6.1 17.4 1.9zM967.6 372.1c1.1-2.4 1.8-5.1 2.1-7.8-4.1.9-8.3 1.2-12.6 1.1-6.7-.2-13.5-1.3-19.9-3.4-7.5-2.4-15.1-5.3-22.6-2.8 0 .6-.1 1.3-.1 1.9 0 4.7 1.2 9.2 3.3 13.1 15.8-6.3 33.2-6.1 49.8-2.1zM947.7 382.6c-6.5 0-13.2.5-19.5 2.3 4.1 2.4 8.9 3.8 14.1 3.8 5.9 0 11.3-1.8 15.7-4.9-3.4-.7-6.8-1.2-10.3-1.2z"/></g><g class="st0"><path class="st6" d="M932.2 363.9c-4.2-14.7-3.1-27.8 2.4-29.4-14.7 4.2-23.2 19.5-19 34.2 4.2 14.7 19.5 23.2 34.2 19-5.5 1.5-13.4-9.1-17.6-23.8z"/></g><ellipse transform="rotate(-40.194 946.061 358.476)" class="st11" cx="946.1" cy="358.5" rx="6.9" ry="5.4"/></g><g><path class="st10" d="M316.8 374.1c4.3-10.5-22.6-31.3-60-46.6s-71.2-19.2-75.5-8.7l20.9 8.5c3-7.2 26.4-4.5 52.3 6.1s44.5 25 41.5 32.3l20.8 8.4z"/><path class="st2" d="M256.6 327.4c-.9 1.9-1.5 4-1.7 6.1-.1-.1-.3-.1-.4-.2-25.9-10.6-49.3-13.3-52.3-6.1l-20.9-8.5c4.3-10.4 38-6.5 75.3 8.7z"/><circle class="st2" cx="248.9" cy="346.4" r="43.4"/><path class="st11" d="M231.2 351.5c-6.6-23.1-4-44 5.7-46.8-23.1 6.6-36.4 30.6-29.8 53.7 6.6 23.1 30.6 36.4 53.7 29.8-9.7 2.8-23-13.7-29.6-36.7z"/><path class="st11" d="M275.3 380.9s-24.8 1.9-50.9-8.4l1.7-15.7 31.8 11.1 24.5 6.2c-.1 0-3.4 4-7.1 6.8z"/><path class="st10" d="M181.3 318.7c-4.3 10.5 22.6 31.3 60 46.6s71.2 19.2 75.5 8.7l-20.9-8.5c-3 7.2-26.4 4.5-52.3-6.1s-44.5-25-41.5-32.3l-20.8-8.4z"/><path class="st2" d="M224.4 350.2l-26.2-8.1c-12.5-9.1-19.1-17.7-16.8-23.4l20.9 8.5c-2.3 5.3 7 14.4 22.1 23z"/></g><g><path class="st11" d="M865.5 141.6c-8.5-3.3-24.9 18.6-36.7 48.9-11.8 30.3-14.5 57.6-6.1 60.9l6.6-16.9c-5.9-2.3-4-21.2 4.2-42.1 8.2-21 19.6-36.2 25.4-33.9l6.6-16.9z"/><circle class="st10" cx="843.9" cy="196.5" r="35"/><path class="st2" d="M829.7 200.6c-5.3-18.6-3.2-35.4 4.6-37.7-18.6 5.3-29.3 24.7-24 43.2 5.3 18.6 24.7 29.3 43.2 24-7.8 2.3-18.5-10.9-23.8-29.5z"/><path class="st11" d="M822.7 251.4c8.5 3.3 24.9-18.6 36.7-48.9 11.8-30.3 14.5-57.6 6.1-60.9l-6.6 16.9c5.9 2.3 4 21.2-4.2 42.1s-19.6 36.2-25.4 33.9l-6.6 16.9z"/><path class="st2" d="M841.6 161.6c0 .1 4.9 15-6.9 54.8l1.9 8 5-.2c5.8-10.6 19.3-44.3 14.3-60.6-3.7-1.4-7.8-2.1-12-2.1-.8.1-1.5.1-2.3.1z"/></g><g><path class="st20" d="M660 156.5l7.7-4.6 15 12.2-7.7 4.6z"/><path class="st1" d="M664.9 157.3c2.1-.2 4.7-1.5 5-3.5l5.5 4.4c-1.4 1.9-5.7 2.9-9.4 3.3l-5.6-4.5c1.6.4 3.1.4 4.5.3zM681.3 165l-6.3 3.8-4.7-3.8c3.7-.6 7.3-.6 11 0z"/><path class="st10" d="M673.8 167.7l-.8-.6 6-6 2.7 2.1-7.8 4.7zM688.3 163c-.8-1.3-2.1-2-2.9-1.5l-8.2 4.9 2.9 4.8 8.2-4.9c.8-.5.8-2 0-3.3z"/><path class="st2" d="M678.5 166.8l8.2-4.9c.2-.1.4-.1.6-.1-.6-.4-1.3-.6-1.7-.3l-8.2 4.9 2.9 4.8.7-.4-2.5-4z"/><path class="st10" d="M686.8 163.9c-1-1.6-2.5-2.4-3.5-1.8l-9.9 6 3.5 5.8 9.9-6c.9-.6 1-2.4 0-4z"/><path class="st2" d="M674 168.7l10.4-6.3c.2-.1.5-.2.8-.2-.7-.4-1.4-.5-1.9-.2l-9.9 6 3.5 5.8.2-.1-3.1-5z"/><ellipse transform="rotate(-30.963 675.137 170.931)" class="st2" cx="675.1" cy="170.9" rx="2.1" ry="3.4"/><path class="st20" d="M678.5 171.7l7.7-4.6 15.1 12.2-7.8 4.6z"/><path class="st1" d="M682.9 169.1l3.3-2 3.3 2.6c-1.4.2-2.8.7-4 1.9-.9.9-.5 2.5.7 2.9 3.7 1.3 7.6 1.7 11.5 1.9l2.9 2.3c-4.2-1-8.9-1-13.2.2l-6-4.8c1-1.2 1.5-2.9 1.5-5z"/><path class="st11" d="M673.4 168c-1 .6-1 2.4 0 4l.8-.4.9-3.5c-.7-.3-1.3-.3-1.7-.1z"/><path class="st2" d="M670.9 169.5c1.6-1 3.7-.4 4.6 1.2 1 1.6.4 3.7-1.2 4.6"/><ellipse transform="rotate(-30.963 672.664 172.415)" class="st11" cx="672.6" cy="172.4" rx="2.1" ry="3.4"/></g><g><path class="st2" d="M127.9 139.8l2.4.7 2.9-10-2.4-.7c-1-.3-2.1.3-2.4 1.3l-1.8 6.3c-.4 1.1.2 2.1 1.3 2.4z"/><path class="st20" d="M132.7 131.9l7.8 2.2 1.5-5.2c.6-2.2-.6-4.4-2.8-5-2.2-.6-4.4.6-5 2.8l-1.5 5.2z"/><path class="st11" d="M140.2 124.3c-.9.2-1.6.9-1.8 1.8l-.6 2.3c-.2.6.2 1.3.8 1.4l2.9.8.5-1.8c.5-1.7-.3-3.6-1.8-4.5z"/><path class="st2" d="M136.5 127.1c.3-.9.6-1.6 1-2.1s-.1-1.4-.8-1.1c-1.2.4-2.2 1.4-2.5 2.7l-1.5 5.2 2.3.6 1.5-5.3zM138.8 135.1c-.8 0-1.5-.6-1.5-1.5 0-.8.6-1.6 1.5-1.6l6.1-.2 2.4-3.5c.5-.7 1.4-.9 2.1-.4.7.5.9 1.4.4 2.1l-2.9 4.2c-.3.4-.7.6-1.2.7l-6.9.2c.1 0 .1 0 0 0z"/><path class="st20" d="M149.8 130.1c.4-.5.3-1.2 0-1.7-.6-.1-1.2.1-1.6.6l-2.4 3.5-6.1.2c-.8 0-1.5.7-1.5 1.6 0 .3.1.6.3.8h.4l6.9-.3c.5 0 .9-.3 1.2-.7l2.8-4z"/><path class="st2" d="M128.2 156c-.6 0-1.3-.3-1.6-.9-.5-.9-.2-2 .7-2.5l5.1-2.9 2-7.1c.3-1 1.3-1.5 2.3-1.3 1 .3 1.5 1.3 1.3 2.3l-2.4 8.6-6.4 3.6c-.4.1-.7.2-1 .2z"/><path class="st2" d="M122.5 150.5c-.9 0-1.7-.7-1.8-1.6-.1-1 .6-1.9 1.6-2l4.5-.5 4.1-5.5c.6-.8 1.8-1 2.6-.4s1 1.8.4 2.6l-5 6.7-6 .7h-.4z"/><path class="st20" d="M129.1 155.7l6.4-3.6 2.4-8.6c.1-.3.1-.6 0-1-1-.3-2 .3-2.2 1.3l-2 7.1-5.1 2.9c-.7.4-1.1 1.3-.9 2.1.2 0 .3.1.5.1.3 0 .6-.1.9-.3zM133.7 143c.3-.3.4-.7.4-1.1-.8-.6-1.9-.4-2.5.4l-4.1 5.5-4.5.5c-.9.1-1.6.9-1.6 1.8.3.2.7.3 1.1.3h.2l6-.7 5-6.7z"/><path transform="rotate(-164.112 135.346 137.299)" class="st20" d="M130.3 130h10v14.6h-10z"/><path transform="rotate(-164.112 131.823 136.296)" class="st2" d="M130.5 129h2.7v14.6h-2.7z"/><path class="st2" d="M124.7 140c-.4 0-.8-.2-1.1-.5-.6-.6-.5-1.6.1-2.2l5.1-4.6c.2-.1.3-.3.5-.3l4.5-1.5c.8-.3 1.7.2 1.9 1 .3.8-.2 1.7-1 1.9l-4.2 1.4-4.8 4.4c-.2.2-.6.4-1 .4z"/><path class="st20" d="M134.8 132.1l-4.5 1.5c-.2.1-.4.2-.5.3l-5.1 4.6c-.4.3-.5.8-.5 1.3.2.1.4.1.5.1.4 0 .7-.1 1-.4l4.8-4.4 4.2-1.4c.7-.2 1.1-.9 1-1.6-.1-.1-.5-.1-.9 0z"/></g><g><circle class="st17" cx="126.3" cy="423.5" r="8.1"/><path class="st18" d="M122.7 424.5c-1.2-4.3-.6-8.2 1.4-8.8-4.3 1.2-6.8 5.7-5.6 10s5.7 6.8 10 5.6c-2 .6-4.6-2.5-5.8-6.8z"/></g><g><circle class="st17" cx="670.5" cy="69.9" r="8.1"/><path class="st18" d="M666.9 70.9c-1.2-4.3-.6-8.2 1.4-8.8-4.3 1.2-6.8 5.7-5.6 10 1.2 4.3 5.7 6.8 10 5.6-2 .5-4.6-2.5-5.8-6.8z"/></g><g><circle class="st8" cx="1159.1" cy="441.9" r="8.1"/><path class="st7" d="M1155.5 442.9c-1.2-4.3-.6-8.2 1.4-8.8-4.3 1.2-6.8 5.7-5.6 10s5.7 6.8 10 5.6c-2 .6-4.6-2.5-5.8-6.8z"/></g><g><circle class="st8" cx="732" cy="372.4" r="12.6"/><path class="st7" d="M726.5 374c-1.9-6.7-.9-12.8 2.2-13.7-6.7 1.9-10.6 8.8-8.7 15.5 1.9 6.7 8.8 10.6 15.5 8.7-3.2.9-7.2-3.8-9-10.5z"/></g><g><circle class="st8" cx="1216.3" cy="96.7" r="10"/><path class="st7" d="M1211.9 98c-1.5-5.3-.7-10.2 1.7-10.8-5.3 1.5-8.4 7-6.9 12.3 1.5 5.3 7 8.4 12.3 6.9-2.4.6-5.6-3.1-7.1-8.4z"/></g><g><circle class="st8" cx="101.5" cy="69" r="6"/><path class="st7" d="M98.9 69.8c-.9-3.2-.4-6.1 1-6.5-3.2.9-5 4.2-4.1 7.4.9 3.2 4.2 5 7.4 4.1-1.6.4-3.5-1.8-4.3-5z"/></g><g><circle class="st8" cx="97.4" cy="221.1" r="6"/><path class="st7" d="M94.8 221.9c-.9-3.2-.4-6.1 1-6.5-3.2.9-5 4.2-4.1 7.4.9 3.2 4.2 5 7.4 4.1-1.5.4-3.4-1.9-4.3-5z"/></g><g><defs><circle id="SVGID_5_" cx="82.4" cy="236.9" r="20.2"/></defs><use xlink:href="#SVGID_5_" overflow="visible" fill="#4c677b"/><clipPath id="SVGID_6_"><use xlink:href="#SVGID_5_" overflow="visible"/></clipPath><circle class="st21" cx="82.4" cy="236.9" r="20.2"/><g class="st22"><path class="st10" d="M73.8 255.8h-1c0-.1 0-13.1-11.6-18.8l.4-.9c12.3 5.9 12.3 19.6 12.2 19.7z"/><path class="st14" d="M76.7 219.9c-.4 1.3-1 2.4-2 3.3-3.4 3-9.1 2.1-9.4 2.1l.2-1c.1 0 5.5.8 8.5-1.8 1.4-1.3 2.1-3.1 2-5.5h1c0 .9-.1 1.9-.3 2.9z"/><path class="st10" d="M86 217c-.7 2.5-3.4 10.9-9.3 14.5-6.9 4.2-14.3 0-14.6-.2l.5-.9c.1 0 7.2 4 13.6.2 6.5-3.9 9-14.5 9-14.6l1 .2c0 .2-.1.5-.2.8zM81.8 257.6l-.9.5c-.2-.4-4.3-8.7-.2-19.1 1.3-3.3 2.8-6.2 4.2-8.7 2.9-5.5 5-9.4 2.7-13.2l.9-.5c2.6 4.2.3 8.6-2.7 14.2-1.3 2.5-2.9 5.4-4.1 8.6-4 9.9.1 18.1.1 18.2zM94.2 254c-.2.6-.3.9-.4 1l-.9-.5s1.9-3.7-1-12c-3.3-9.4 0-17.3 2.8-22.5l.9.5c-2.7 5-5.9 12.6-2.7 21.6 2.2 6.4 1.8 10.2 1.3 11.9z"/><path class="st10" d="M100.9 247.6l-1 .1s-.2-2.1-1.9-4.9c-3.1-5-2.6-10.5 1.7-17.4l.9.5c-4.1 6.6-4.6 11.6-1.7 16.3 1.8 3.1 2 5.3 2 5.4z"/></g><g class="st0"><path class="st6" d="M75 239.1c-3.1-10.7-2.3-20.4 1.8-21.5-10.7 3.1-16.9 14.3-13.8 25 3.1 10.7 14.3 16.9 25 13.8-4.1 1.1-9.9-6.6-13-17.3z"/></g></g><path class="st23" d="M382.2 111.7l276.7-39.9M110.8 72.4L297.7 111M109.7 226.4L308 140.1M88 264.4l35 147.8M271.9 300.3l57.2-143.9M299.7 336l201.5-43.2M560.5 275.9L804.7 209M884.5 200.5l152.6 17.4M865.5 232.7l62.7 97.9M1123.7 179.3l82.6-72.6M683.8 69.9l518.5 24.8M541.6 256L662.9 81.1M680.6 80l133.1 89.1M1131 256l138.8 79.4M971.9 375.9l173.1 61.3M556.9 296.9l156.8 69.3M751.7 372.4l155.2-7.5M13 331.7L62.9 256M92.5 73l-108 40.8M138.2 418.5l75-38.6M1231.1 98.6l76.9 17.7"/></g><g id="overlay" class="st24"><path class="st25" d="M-3537.3-60.2h1300v1323.3h-1300z"/><path class="st26" d="M-3565.3 800.9c96-28.1 340.1-17.2 497.1 20.4 156.9 37.6 373.5 15.4 490.6-37.3 137.2-61.8 296.3-42.2 413.3-1.7M-3577.3 957.2c144-39.4 386-45.6 537.4-23.9 274.2 39.2 601.1 12.7 843.6-38.4M-3585.3 1024.4c56 16.5 368.5 62.6 574.8 30.5 206.2-32.1 618.2-31.7 863.2 2.1M-3577.3 1146.8s202.3 73.3 448.6 40.8c210.7-27.8 522.8-39.6 629.6-39.2 106.8.4 399.8 13.6 399.8 13.6"/></g></svg>