<?xml version="1.0" standalone="no"?><!DOCTYPE svg PUBLIC "-//W3C//DTD SVG 1.1//EN" "http://www.w3.org/Graphics/SVG/1.1/DTD/svg11.dtd"><svg t="1535262127261" class="icon" style="" viewBox="0 0 1088 1024" version="1.1" xmlns="http://www.w3.org/2000/svg" p-id="20631" xmlns:xlink="http://www.w3.org/1999/xlink" width="212.5" height="200"><defs><style type="text/css"></style></defs><path d="M767.616 635.84H313.088a2111.808 2111.808 0 0 1 132.8 263.04h186.368c56.192-86.848 102.144-173.632 135.36-263.04z m53.632-99.584V342.208H262.016v194.048h559.232z m227.264 464.768H27.072v-99.584h306.432c-38.272-81.728-76.608-153.216-117.44-211.968l79.168-51.072H157.312V240.064h776.32v398.336h-145.6l79.168 51.072c-38.272 81.728-76.608 153.216-114.88 211.968h298.752v99.584h-2.56z m-22.976-878.464H57.728V23.04h967.808v99.584z" p-id="20632"></path></svg>