<?xml version="1.0" standalone="no"?><!DOCTYPE svg PUBLIC "-//W3C//DTD SVG 1.1//EN" "http://www.w3.org/Graphics/SVG/1.1/DTD/svg11.dtd"><svg t="1535261874550" class="icon" style="" viewBox="0 0 1024 1024" version="1.1" xmlns="http://www.w3.org/2000/svg" p-id="19256" xmlns:xlink="http://www.w3.org/1999/xlink" width="200" height="200"><defs><style type="text/css"></style></defs><path d="M585.152 857.152q-24-137.728-80-284.576h-1.152l-1.152 0.576q-9.152 3.424-24.576 9.44t-57.728 28-78.272 46.848-74.848 65.44-58.848 84.576l-8.576-6.272q105.152 85.728 238.848 85.728 75.424 0 146.272-29.728z m-105.728-346.88q-12-28-30.272-63.424-177.728 53.152-384.576 53.152Q64 504 64 512q0 70.848 25.152 135.136T160 762.272q28.576-50.848 70.56-95.136t81.44-71.136 74.56-46.272 56.864-27.424l21.152-7.424q2.272-0.576 7.424-2.016t7.424-2.56z m-61.152-121.12q-68.576-121.728-139.424-216Q200 210.304 145.12 279.424t-73.152 155.424q172.576 0 346.272-45.728z m390.88 182.272q-120-34.272-233.728-16.576 49.728 136.576 73.152 268 63.424-42.848 105.728-108.288t54.848-143.136zM349.152 148q-0.576 0-1.152 0.576 0.576-0.576 1.152-0.576z m337.12 82.848q-105.728-93.728-247.424-93.728-43.424 0-88.576 10.848 74.848 97.152 140.576 218.272 39.424-14.848 74.272-34.56t55.136-35.136 37.44-32.576 21.44-23.136z m127.456 277.152q-1.728-132.576-85.152-234.272l-0.576 0.576q-5.152 6.848-10.848 14.016t-24.864 25.44-40.576 34.56-57.152 37.152-75.136 36.864q14.272 30.272 25.152 54.272 1.152 2.848 3.712 9.728t4.288 9.728q20.576-2.848 42.56-4t42.016-1.152 39.424 0.864 36.576 2.272 32.288 3.136 27.424 3.712 20.864 3.424 14.272 2.56z m64 4q0 119.424-58.848 220.288t-159.712 159.712-220.288 58.848-220.288-58.848-159.712-159.712T0.032 512 58.88 291.712t159.712-159.712 220.288-58.848 220.288 58.848 159.712 159.712T877.728 512z" fill="" p-id="19257"></path></svg>