<?xml version="1.0" standalone="no"?><!DOCTYPE svg PUBLIC "-//W3C//DTD SVG 1.1//EN" "http://www.w3.org/Graphics/SVG/1.1/DTD/svg11.dtd"><svg t="1534740103441" class="icon" style="" viewBox="0 0 1024 1024" version="1.1" xmlns="http://www.w3.org/2000/svg" p-id="15423" xmlns:xlink="http://www.w3.org/1999/xlink" width="200" height="200"><defs><style type="text/css"></style></defs><path d="M909.42976 64.7424c13.00992 0 24.76032 4.84352 35.26144 14.6176 10.49088 9.68704 15.77984 21.07904 15.77984 33.99168v797.2864c0 13.00992-5.28896 24.30976-15.77984 34.00192-10.58816 9.76896-22.33856 14.6176-35.26144 14.6176h-228.44928v-345.1392h116.70016l17.03936-136.16128h-133.65248v-88.8832c0-44.40064 22.69184-66.64192 68.08064-66.64192h70.5024V205.55776c-24.30976-4.75136-59.1104-7.17312-104.48896-7.17312-51.84 0-93.55776 15.78496-125.21984 47.36-31.74912 31.66208-47.5392 75.88352-47.5392 132.57216v99.64544h-116.6848v136.16128h116.6848v345.1392H112.14336c-13.0048 0-24.30464-4.84864-33.99168-14.6176-9.77408-9.69216-14.6176-20.992-14.6176-34.00192V113.3568c0-12.91264 4.84352-24.30464 14.6176-33.99168 9.68704-9.68704 21.07904-14.6176 33.99168-14.6176h797.2864z" p-id="15424"></path></svg>