<?xml version="1.0" standalone="no"?><!DOCTYPE svg PUBLIC "-//W3C//DTD SVG 1.1//EN" "http://www.w3.org/Graphics/SVG/1.1/DTD/svg11.dtd"><svg t="1535262019779" class="icon" style="" viewBox="0 0 1024 1024" version="1.1" xmlns="http://www.w3.org/2000/svg" p-id="19961" xmlns:xlink="http://www.w3.org/1999/xlink" width="200" height="200"><defs><style type="text/css"></style></defs><path d="M311.637 726.357c-6.855-6.855-16.668-15.985-24.519-24.149 0.939 23.154 24.52 24.15 24.52 24.15z m0-319.488C373.675 219.591 522.866 173.34 522.866 173.34s-84.167-27.079-193.963-34.332c-87.154-5.746-204.544 12.743-204.544 12.743s-30.435 324.01 156.33 543.431c1.85 2.19 4.097 4.58 6.458 7.026 0-0.17-0.057-0.256-0.057-0.427-1.65-61.383-11.008-187.59 24.547-294.912z m587.72 281.572c-8.648-90.596-34.22-183.154-34.22-183.154S814.536 638.663 655.73 701.781c-115.57 45.967-253.582 50.802-318.89 49.152 218.765 185.344 549.432 162.703 549.432 162.703s22.016-131.584 13.084-225.195z m-587.72 37.916s-0.881 23.922 24.576 24.576h0.626c-1.223-1.052-2.503-1.99-3.726-3.043-9.245-7.936-12.715-12.715-21.476-21.533z m-3.328-8.846s285.07 44.317 454.343-124.131C931.925 424.932 886.244 151.75 886.244 151.75s-299.52-39.339-453.206 113.607C279.353 418.304 308.31 717.511 308.31 717.511z" p-id="19962"></path></svg>