<?xml version="1.0" standalone="no"?><!DOCTYPE svg PUBLIC "-//W3C//DTD SVG 1.1//EN" "http://www.w3.org/Graphics/SVG/1.1/DTD/svg11.dtd"><svg t="1626927066682" class="icon" viewBox="0 0 1024 1024" version="1.1" xmlns="http://www.w3.org/2000/svg" p-id="55561" xmlns:xlink="http://www.w3.org/1999/xlink" width="200" height="200"><defs><style type="text/css">@font-face { font-family: feedback-iconfont; src: url("//at.alicdn.com/t/font_1031158_1uhr8ri0pk5.eot?#iefix") format("embedded-opentype"), url("//at.alicdn.com/t/font_1031158_1uhr8ri0pk5.woff2") format("woff2"), url("//at.alicdn.com/t/font_1031158_1uhr8ri0pk5.woff") format("woff"), url("//at.alicdn.com/t/font_1031158_1uhr8ri0pk5.ttf") format("truetype"), url("//at.alicdn.com/t/font_1031158_1uhr8ri0pk5.svg#iconfont") format("svg"); }
</style></defs><path d="M556.4416 585.3184a74.61376 74.61376 0 0 1-43.5712 13.9264c-15.2576 0-30.5152-4.6592-43.52-13.9264L62.976 295.0144v481.1776c0 35.328 28.672 64 64 64h768c35.328 0 64-28.672 64-64V297.8304l-402.5344 287.488z" p-id="55562"></path><path d="M506.5728 533.248c3.7888 2.7136 8.9088 2.7136 12.6976 0l428.032-305.7152c-11.5712-16.4864-30.6688-27.3408-52.3264-27.3408h-768c-20.8384 0-39.2192 10.1376-50.8928 25.5488l430.4896 307.5072z" p-id="55563"></path><path d="M706.4064 645.0688c61.7472 0 61.8496-96 0-96-61.7472 0-61.8496 96 0 96z" p-id="55564"></path></svg>