<?xml version="1.0" standalone="no"?><!DOCTYPE svg PUBLIC "-//W3C//DTD SVG 1.1//EN" "http://www.w3.org/Graphics/SVG/1.1/DTD/svg11.dtd"><svg t="1535293080502" class="icon" style="" viewBox="0 0 1024 1024" version="1.1" xmlns="http://www.w3.org/2000/svg" p-id="1900" xmlns:xlink="http://www.w3.org/1999/xlink" width="200" height="200"><defs><style type="text/css"></style></defs><path d="M441.292 676.95c-26.848 140.702-59.61 275.588-156.694 346.05-29.992-212.66 43.988-372.376 78.346-541.942-58.586-98.584 7.038-296.996 130.57-248.12 152.002 60.132-131.618 366.558 58.76 404.834 198.81 39.95 279.978-344.952 156.718-470.108-178.128-180.744-518.488-4.116-476.644 254.656 10.18 63.252 75.532 82.44 26.126 169.768-114.002-25.3-148.01-115.2-143.644-235.066 7.06-196.214 176.282-333.574 346.048-352.586 214.68-24.028 416.16 78.796 443.98 280.752 31.34 227.958-96.882 474.824-326.458 457.058-62.23-4.84-88.354-35.682-137.108-65.298z" p-id="1901"></path></svg>