<?xml version="1.0" standalone="no"?><!DOCTYPE svg PUBLIC "-//W3C//DTD SVG 1.1//EN" "http://www.w3.org/Graphics/SVG/1.1/DTD/svg11.dtd"><svg t="1534739907390" class="icon" style="" viewBox="0 0 1024 1024" version="1.1" xmlns="http://www.w3.org/2000/svg" p-id="11981" xmlns:xlink="http://www.w3.org/1999/xlink" width="200" height="200"><defs><style type="text/css"></style></defs><path d="M575.660998 241.808021c5.313-20.025999 20.844999-24.930999 24.521999-8.174l4.087 21.251999c4.087 18.391 12.262 8.583 12.262-14.713-0.409-17.574-2.044-22.887999-9.81-29.017999-11.856-9.809-25.747999-9.809-34.334999-0.409-9.805 10.626-15.936 29.834999-13.074 40.869999C562.582999 265.10402 570.344998 261.01702 575.660998 241.808021z" p-id="11982"></path><path d="M962.283988 624.332011c-9.805-40.457999-41.679999-106.262997-67.022998-140.180996-17.57-23.295999-17.979-23.295999-13.892-44.957999 4.904-27.791999-1.631-60.895998-17.574-86.235998-9.809-15.121-13.078-26.564999-16.349-54.764999C832.324991 164.956023 738.732994 52.972026 608.356997 11.285027 570.344998-0.959973 490.652001-3.820973 448.964002 5.579027 303.876006 37.867026 202.518008 157.207023 190.666009 308.426019c-1.226 18.8-4.086 33.921999-6.13 33.921999-6.131 0-19.617999 26.156999-19.617999 38.008999 0 6.13-2.86 15.939-6.539 21.251999-4.904 7.766-6.13 17.166-4.904 39.644999l1.635 29.833999-25.747999 33.922999c-62.939998 82.557998-87.461998 170.428995-68.661998 243.993994 8.583 32.282999 13.896 37.600999 30.651999 30.651999 13.079-5.313 46.999999-40.460999 54.356999-56.399999 4.495-9.809 11.035-12.262 11.035-4.087 0 9.8 24.930999 58.030998 43.322999 84.190998 10.217 14.305 17.982 26.564999 17.165 26.974999-0.409 0.817-8.583 5.317-17.574 9.809-33.513999 17.165-48.226999 42.095999-48.634999 84.601998-0.41 14.713 2.043 24.108999 7.765 32.282999 4.496 6.543 10.218 15.117 12.67 19.203999 14.305 24.521999 40.460999 36.783999 95.226997 44.956999 40.869999 5.722 69.070998 3.274 149.583996-12.669 81.331998-15.94 115.249997-15.94 199.854995 0.813 119.744997 23.708999 192.497995 15.936 230.915994-24.520999 28.608999-31.064999 37.190999-56.403999 27.373999-80.509998-3.27-7.36-4.896-14.722-3.674-15.535 0.821-1.23-1.222-7.761-4.499-14.717-7.763-14.304-27.375999-30.238999-48.631999-39.238999l-14.718-6.131 21.668999-31.873999c11.845-17.583 26.564999-44.956999 33.104999-61.305998l11.443-29.429999 15.122 23.299999c15.938 24.521999 38.009999 47.408999 49.855999 51.495999 17.17 6.13 31.474999-29.426999 34.739999-85.014998C970.456988 666.43201 969.239988 651.71901 962.283988 624.332011zM552.777999 181.729022c15.522-32.286999 47.812999-44.956999 72.335998-29.016999 17.983 11.852 31.061999 40.052999 33.513999 70.704998 6.544 94.817997-67.022998 139.366996-106.262997 64.165998C538.878999 262.65202 539.286999 208.704022 552.777999 181.729022zM397.060003 159.660023c13.487-11.444 41.278999-12.67 56.399999-2.861 18.392 12.261 31.469999 40.052999 33.513999 72.748998 2.044 36.782999-4.087 60.078998-22.068999 79.695998-16.348 18.392-33.104999 23.295999-51.904999 15.122-29.426999-12.67-44.957999-42.504999-44.957999-88.278998C368.042004 201.756022 377.851004 176.008023 397.060003 159.660023zM446.512002 348.479018c44.139999-8.583 138.548996-5.313 183.505995 5.722 53.130999 13.487 111.166997 43.321999 111.166997 57.625998 0 7.766-35.970999 30.651999-58.035998 36.782999-13.079 4.087-12.674 2.861 4.087-19.616999 14.718-19.617999 8.587-20.026999-16.349-1.227-90.729998 68.252998-200.261995 69.887998-288.540992 3.678-12.261-8.992-22.887999-15.53-23.704999-14.304-1.226 0.817 2.044 8.583 6.948 16.756 4.904 8.175 7.766 15.94 6.539 17.166-2.86 2.861-36.782999-11.852-51.903999-22.886999-6.948-4.904-12.261-12.261-12.261-16.757C307.963005 394.254017 382.347003 360.740018 446.512002 348.479018zM600.183998 518.090013c-6.539 1.631-22.478999 2.861-34.738999 2.861l-22.478999 0 24.521999-2.861c13.486-1.635 29.017999-2.86 34.737999-2.86C611.213997 514.820014 610.809997 515.229014 600.183998 518.090013zM540.921999 522.995013c0 6.13-80.513998 1.626-125.061997-6.948-35.148999-6.541-71.114998-17.575-76.835998-22.887999-6.54-5.722 2.044-4.495 26.974999 4.087 33.920999 11.852 93.999998 20.843999 136.914996 20.843999C528.661 518.090013 540.921999 519.721013 540.921999 522.995013zM304.693006 979.930001c-67.435998 0-119.339997-18.809-132.418996-47.417999-4.496-9.399-3.678-13.486 5.722-30.650999 9.809-18.801 10.217-20.018999 2.861-22.062999-10.217-3.273-5.722-11.035 12.67-24.520999 16.757-11.452 33.512999-13.087 41.278999-3.687 3.269 3.678 12.261 11.034 20.025999 15.939 7.766 5.313 21.661999 16.348 31.061999 24.930999 8.991 8.991 29.833999 26.564999 45.772999 39.643999 21.252999 17.166 29.426999 26.564999 29.426999 33.103999C361.094004 977.470001 352.920004 979.930001 304.693006 979.930001zM826.193992 850.772005c22.891999 11.852 31.878999 31.068999 14.305 31.068999-5.717 0-5.717 1.227 0.818 8.173 4.087 4.496 8.173 16.758 9.399 27.791999 1.631 18.393 0.817 20.434999-13.078 32.695999-22.887999 20.020999-53.130999 27.382999-111.983997 26.564999-37.591999 0-52.309999-1.63-56.395999-6.131-8.587-8.174 1.223-20.020999 30.238999-36.369999 36.369999-20.846999 50.675999-31.881999 55.587999-41.281999 2.456-4.905 10.217-10.217 17.162-12.261 8.173-2.044 16.756-8.992 24.112999-19.616999C809.028992 843.007005 810.663992 842.599005 826.193992 850.772005zM812.707992 716.301008c-32.695999 126.280997-145.088996 215.381994-279.959993 221.511994-94.817997 4.501-172.471995-24.520999-237.045994-88.683998-49.043999-49.043999-77.243998-107.079997-83.782998-174.113995-2.861-31.465999 3.27-84.596998 12.67-107.074997l5.721-13.491 17.166 10.635c9.809 5.729 19.616999 11.859 22.478999 13.494 3.27 2.044 2.452 16.349-3.27 55.991999-9.809 65.801998-7.765 91.139998 9.4 110.349997 15.531 17.979 42.504999 27.791999 76.426998 28.195999 56.400999 0.813 61.714998-6.543 61.714998-85.827998l0-51.899999 33.920999 3.671c123.427997 13.078 242.359994-11.844 329.416991-69.888998 12.262-8.173 23.699999-13.078 25.334999-11.447C818.020992 572.840012 823.741992 672.158009 812.707992 716.301008z" p-id="11983"></path><path d="M435.478002 270.82602c12.669 8.583 18.392 7.766 29.833999-4.086 7.766-7.357 10.217-14.305 10.217-28.608999 0-30.652999-25.747999-49.452999-42.503999-31.061999C417.085003 224.643021 418.312002 258.56502 435.478002 270.82602zM456.729001 220.964021c2.452 0.817 4.496 5.722 4.496 11.443 0 11.444-11.852 15.531-15.94 5.313C442.425002 229.956021 449.782002 218.513021 456.729001 220.964021z" p-id="11984"></path></svg>