<?xml version="1.0" standalone="no"?><!DOCTYPE svg PUBLIC "-//W3C//DTD SVG 1.1//EN" "http://www.w3.org/Graphics/SVG/1.1/DTD/svg11.dtd"><svg t="1534740082658" class="icon" style="" viewBox="0 0 1292 1024" version="1.1" xmlns="http://www.w3.org/2000/svg" p-id="14753" xmlns:xlink="http://www.w3.org/1999/xlink" width="252.34375" height="200"><defs><style type="text/css"></style></defs><path d="M1231.614637 134.021065c-19.952233 41.935595-54.365259 71.775941-89.007095 99.954774-21.335654 17.333239-26.577163 35.233222-27.939463 61.380927-15.77029 299.10749-146.624977 529.938071-422.010148 658.173763-228.982501 106.618426-460.105255 89.841372-681.755276-33.909644-4.460035-2.467628-10.430216-3.87921-10.732949-14.15806 89.989218 6.346838 177.260877-5.142945 259.667683-42.882516 33.835721-15.467557 67.238463-32.043962 100.877055-61.169717-16.829857-3.323025-28.949747-5.442158-40.89011-8.21252-83.86767-19.096836-143.95318-67.87209-181.390018-145.164112-8.969353-18.50193-8.641978-28.178833 16.576406-26.013939 23.479428 2.017048 47.286229 0.429459 72.455331-3.323025-115.735625-46.103458-183.558433-124.831703-189.377248-254.640904 36.454715 10.782232 67.139898 27.069985 107.903282 26.235708-52.633343-44.670755-88.380508-94.554858-100.672886-158.695585-12.017806-62.644661-4.56212-121.79733 29.879068-180.724709 47.919857 53.47114 96.490943 100.975619 153.126701 139.60931 104.073355 70.994467 218.978223 111.532561 343.809926 125.651899 21.314533 2.407785 31.818672 1.056046 28.847663-26.302591-11.690432-107.737835 29.674899-193.105091 121.480516-248.857291 93.139756-56.544235 191.619586-55.576192 279.169337 9.233364 41.516697 30.745025 74.771592 32.068603 116.393894 13.313223 27.031263-12.169173 54.340618-23.620234 89.362631-38.756896-21.416617 58.107183-53.108564 99.803408-104.678821 134.730376 48.194429 0.302733 86.159291-20.029677 126.672743-27.777536l2.231778 2.305701z" fill="" p-id="14754"></path></svg>