<?xml version="1.0" standalone="no"?><!DOCTYPE svg PUBLIC "-//W3C//DTD SVG 1.1//EN" "http://www.w3.org/Graphics/SVG/1.1/DTD/svg11.dtd"><svg t="1534739955195" class="icon" style="" viewBox="0 0 1024 1024" version="1.1" xmlns="http://www.w3.org/2000/svg" p-id="13223" xmlns:xlink="http://www.w3.org/1999/xlink" width="200" height="200"><defs><style type="text/css"></style></defs><path d="M840.926428 629.41313c0 22.37152-6.089695 45.313022-18.255783 68.826552-12.172227 23.51967-30.095435 46.053895-53.777811 67.593468-23.682375 21.546735-51.3976 40.872896-83.135442 57.971319-31.743982 17.098423-68.911486 30.751375-111.502513 40.950667-42.60126 10.19213-87.083357 15.294334-133.459594 15.294334-46.378284 0-91.607394-5.511527-135.680169-16.527418-44.079938-11.023054-83.627652-26.311249-118.65747-45.884027-35.029818-19.565615-63.237253-44.404326-84.61412-74.500784-21.385053-30.096459-32.069393-62.906725-32.069393-98.429777 0-37.820374 11.425214-78.116125 34.289967-120.878045 22.857591-42.753733 55.336306-85.185124 97.442286-127.292128 55.581899-55.581899 111.750153-94.39795 168.489412-116.437919 56.737212-22.032806 97.272417-20.883633 121.617895 3.453658 21.37789 21.053502 24.668843 55.428404 9.867742 103.116519-1.316995 4.609994-1.478677 7.893784-0.493234 9.867742 0.98749 1.973958 2.629897 3.130294 4.934382 3.453658 2.296299 0.331551 4.686742 0.246617 7.15291-0.246617 2.468215-0.493234 4.688789-1.064238 6.661723-1.727341l2.960425-0.986467c45.715181-19.402909 86.171592-29.108968 121.371278-29.108968 35.192523 0 60.3546 10.037611 75.487252 30.096459 14.802124 20.721951 14.802124 50.000787 0 87.821161-0.663102 4.278443-1.402953 7.570419-2.220574 9.867742-0.823761 2.304486-0.083911 4.363378 2.220574 6.167466 2.298346 1.812275 4.27128 3.045359 5.919826 3.700275 1.642406 0.662079 4.441149 1.64957 8.388041 2.960425 18.749016 5.92085 35.685757 13.652951 50.817386 23.189142 15.125489 9.544377 28.285207 22.942525 39.470967 40.210817C835.33099 589.202313 840.926428 608.367815 840.926428 629.41313zM688.965457 627.440196c-2.960425-31.576159-17.599843-59.529815-43.910069-83.874269-26.320459-24.338315-60.609403-42.261523-102.869902-53.778834-42.269709-11.510148-87.412862-14.963807-135.432529-10.360975-73.352635 7.570419-134.122697 30.836309-182.304046 69.813019-48.189535 38.977733-69.982888 82.479503-65.372893 130.49917 2.960425 31.575136 17.591657 59.536978 43.911092 83.874269 26.310226 24.345478 60.601216 42.269709 102.868879 53.778834 42.261523 11.517311 87.406722 14.97097 135.434575 10.360975 73.344448-7.563256 134.113487-30.836309 182.301999-69.814042C671.77596 718.961632 693.568289 675.467025 688.965457 627.440196zM535.032576 706.380082c-14.802124 33.550117-40.790008 58.219983-77.955466 74.006528-37.172621 15.788591-74.005504 17.761526-110.517069 5.92085-35.199687-11.178597-59.452044-31.985482-72.77242-62.412468-13.3214-30.419823-12.258185-61.256132 3.206018-92.507904 15.45704-30.590715 40.372499-53.446259 74.747401-68.580958 34.366715-15.124466 68.989257-18.254759 103.857393-9.373485 36.509519 9.543354 62.573127 29.193903 78.199013 58.95881C549.416168 642.163525 549.832653 673.494091 535.032576 706.380082zM402.806065 713.287399c6.907317-11.177574 8.710382-22.526039 5.426593-34.043351-3.291976-11.509125-10.692526-19.735483-22.200628-24.668843-11.186783-4.601808-23.190165-4.76349-36.017308-0.49221-12.827143 4.278443-22.694885 11.840676-29.602202 22.694885-7.238868 11.186783-9.375531 22.449291-6.414083 33.796734 2.960425 11.347442 10.029424 19.657712 21.213137 24.915459 11.178597 5.265934 23.435759 5.674233 36.757159 1.234107C385.290133 732.283032 395.567197 724.474183 402.806065 713.287399zM449.182302 653.588739c2.629897-4.27128 3.208065-8.634658 1.727341-13.074783-1.478677-4.440126-4.363378-7.477298-8.634658-9.126868-4.608971-1.641383-9.295714-1.557472-14.060227 0.246617-4.7727 1.811252-8.31027 4.856611-10.606569 9.126868-5.598508 10.199293-3.453658 17.599843 6.414083 22.201651 4.600785 1.64957 9.373485 1.564635 14.307867-0.245593C443.262476 660.912541 446.877817 657.867182 449.182302 653.588739zM893.718795 241.123686c28.614711 31.576159 47.118134 68.171636 55.504128 109.777219 8.388041 41.61377 6.167466 81.33033-6.659677 119.151727-2.962471 8.880251-8.55791 15.464203-16.777105 19.735483-8.224312 4.278443-16.775059 4.933359-25.654286 1.973958-8.882298-2.960425-15.465227-8.549723-19.73446-16.775059-4.279467-8.218172-5.104251-16.775059-2.468215-25.65531 9.205663-26.966165 10.854209-55.258535 4.934382-84.86176s-19.080567-55.581899-39.470967-77.954443c-20.398586-22.695908-44.735877-38.398542-73.02006-47.117111-28.290323-8.711406-56.737212-10.114358-85.35397-4.193509-9.211802 1.972934-17.761526 0.416486-25.654286-4.687766-7.894807-5.095042-12.82919-12.249999-14.802124-21.461801-1.974981-9.204639-0.415462-17.676591 4.686742-25.409716 5.096065-7.723915 12.249999-12.580526 21.461801-14.554484 40.458457-8.5487 80.583317-6.6607 120.384811 5.674233C830.889841 187.098235 865.102037 209.223139 893.718795 241.123686zM754.584967 289.227264c19.402909 6.090718 36.017308 16.859993 49.831942 32.317033 13.814634 15.464203 22.772656 33.302477 26.88737 53.531194 4.109598 20.228717 3.038196 39.554878-3.206018 57.972343-2.636037 7.569396-7.486508 13.158694-14.556531 16.775059-7.075139 3.623527-14.391778 4.278443-21.955034 1.973958-7.568373-2.628874-13.158694-7.478322-16.775059-14.554484-3.623527-7.068999-4.279467-14.385639-1.972934-21.956058 6.575766-20.721951 2.62785-38.97671-11.841699-54.765301-14.477736-15.788591-32.070416-21.539572-52.792367-17.268292-7.892761 1.64957-15.293311 0.331551-22.200628-3.946892-6.907317-4.270257-11.024078-10.360975-12.335956-18.254759-1.648546-7.893784-0.329505-15.2094 3.946892-21.955034 4.27128-6.737448 10.360975-10.93198 18.255783-12.58155C715.608258 282.243199 735.174895 283.145755 754.584967 289.227264z" p-id="13224"></path></svg>