<?xml version="1.0" standalone="no"?><!DOCTYPE svg PUBLIC "-//W3C//DTD SVG 1.1//EN" "http://www.w3.org/Graphics/SVG/1.1/DTD/svg11.dtd"><svg t="1535545144307" class="icon" style="" viewBox="0 0 1305 1024" version="1.1" xmlns="http://www.w3.org/2000/svg" p-id="1901" xmlns:xlink="http://www.w3.org/1999/xlink" width="254.8828125" height="200"><defs><style type="text/css"></style></defs><path d="M1142.79825 912.362096 1177.5418 1023.541456 1050.877751 956.735076C1004.670594 967.88123 958.287072 978.992112 912.326823 978.992112 692.613551 978.992112 519.601254 834.409562 519.601254 656.38855 519.601254 478.579174 692.613551 333.643898 912.326823 333.643898 1119.800489 333.643898 1304.523303 478.579174 1304.523303 656.38855 1304.523303 756.633392 1235.459474 845.414626 1142.79825 912.362096ZM785.027867 511.770728C762.030106 511.770728 738.855982 534.098309 738.855982 556.214254 738.855982 578.718198 762.030106 600.728325 785.027867 600.728325 819.94778 600.728325 842.769178 578.718198 842.769178 556.214254 842.769178 534.098309 819.94778 511.770728 785.027867 511.770728ZM1038.990872 511.770728C1016.169474 511.770728 993.101168 534.098309 993.101168 556.214254 993.101168 578.718198 1016.169474 600.728325 1038.990872 600.728325 1073.593331 600.728325 1096.767455 578.718198 1096.767455 556.214254 1096.767455 534.098309 1073.593331 511.770728 1038.990872 511.770728ZM490.571871 661.714719C490.571871 693.989184 495.792222 725.134925 504.822018 754.86976 490.571871 755.963212 476.215907 756.633392 461.718852 756.633392 404.083359 756.633392 357.735111 745.310875 299.958527 734.341084L138.586201 812.258345 184.758086 678.539768C69.134374 600.728325 0.035273 500.412938 0.035273 378.334332 0.035273 166.76904 207.896938 0.141091 461.718852 0.141091 688.768833 0.141091 887.635975 133.260032 927.599876 312.374496 912.891185 310.8225 898.076677 309.799594 883.121077 309.799594 663.760532 309.799594 490.571871 467.43302 490.571871 661.714719ZM311.704316 189.237711C277.101857 189.237711 242.181943 211.247839 242.181943 244.721573 242.181943 278.054218 277.101857 300.381799 311.704316 300.381799 346.342048 300.381799 369.339809 278.054218 369.339809 244.721573 369.339809 211.247839 346.342048 189.237711 311.704316 189.237711ZM634.836967 189.237711C600.234508 189.237711 565.561503 211.247839 565.561503 244.721573 565.561503 278.054218 600.234508 300.381799 634.836967 300.381799 669.61579 300.381799 692.613551 278.054218 692.613551 244.721573 692.613551 211.247839 669.61579 189.237711 634.836967 189.237711Z" p-id="1902"></path></svg>