<svg class="icon" viewBox="0 0 1024 1024" xmlns="http://www.w3.org/2000/svg" width="200" height="200"><defs><style/></defs><path d="M560.161 519.468c0-268.34-218.313-486.652-486.652-486.652H55.212v152.991h18.296c183.982 0 333.662 149.679 333.662 333.663 0 183.98-149.68 333.663-333.662 333.663H55.212v152.988h18.296c268.342 0 486.653-218.311 486.653-486.653zM91.807 969.159V889.28c195.7-9.562 351.958-171.783 351.958-369.811S287.507 159.222 91.807 149.658v-79.88c239.705 9.642 431.76 207.662 431.76 449.689S331.511 959.514 91.807 969.159z" fill="#E0A13A"/><path d="M950.418 633.846c-7.871-23.058-18.369-44.023-31.217-62.34-12.682-18.025-26.542-33.855-41.202-47.051-12.866-11.576-25.935-21.595-38.929-29.843 10.369-7.265 21.188-16.081 32.235-26.27 12.985-12.005 24.819-26.097 35.165-41.873 10.471-15.938 19.056-34.331 25.519-54.679 6.494-20.49 9.789-43.852 9.789-69.436 0-38.269-8-74.441-23.78-107.532-15.651-32.737-37.222-61.494-64.125-85.486-26.83-23.879-58.382-42.624-93.781-55.717C724.753 40.555 687.248 33.93 648.61 33.93H404.835l30.737 31.15c35.856 36.335 67.358 76.811 93.63 120.299l5.338 8.836h127.812c14.954 0 29.55 2.797 43.358 8.307 13.642 5.468 25.686 13.357 35.773 23.43 10.266 10.283 18.47 22.292 24.383 35.684 5.808 13.169 8.749 27.794 8.749 43.471 0 15.139-2.62 29.876-7.778 43.778-5.074 13.628-12.529 25.612-22.145 35.614-9.822 10.203-21.821 18.582-35.671 24.912-13.527 6.192-29.229 9.333-46.67 9.333h-47.798l2.54 20.542a656.251 656.251 0 0 1 4.944 80.183c0 12.987-.421 26.119-1.278 40.145l-1.189 19.417h42.781c38.413 0 69.509 12.217 95.052 37.347 25.457 25.056 37.834 56.305 37.834 95.532 0 17.56-3.442 34.575-10.23 50.564-6.855 16.137-16.253 30.453-27.922 42.537-11.605 12.002-25.656 21.769-41.763 29.016-15.877 7.145-33.698 10.762-52.971 10.762h-127.85l-5.339 8.831c-26.285 43.498-57.796 83.972-93.657 120.301l-30.743 31.152H648.61c43.245 0 84.232-7.091 121.815-21.069 37.749-14.021 71.199-34.207 99.424-59.993 28.241-25.796 50.951-57.131 67.505-93.14 16.609-36.156 25.036-76.18 25.036-118.958.002-28.42-4.025-54.679-11.972-78.067zm-46.311 181.739c-14.496 31.536-34.325 58.925-58.937 81.403-24.732 22.597-54.165 40.329-87.49 52.707-33.497 12.463-70.196 18.781-109.065 18.781h-158.16a686.513 686.513 0 0 0 64.6-87.094h107.3c24.482 0 47.354-4.702 67.987-13.982 20.359-9.167 38.212-21.601 53.063-36.958 14.802-15.329 26.675-33.386 35.291-53.665 8.717-20.546 13.14-42.369 13.14-64.868 0-48.853-16.404-89.769-48.761-121.617-32.28-31.756-72.896-47.857-120.72-47.857h-4.13c.271-7.825.409-15.503.409-22.967 0-21.301-1.006-42.792-2.996-64.13h6.717c22.737 0 43.563-4.257 61.895-12.648 18.038-8.245 33.789-19.286 46.816-32.82 13.118-13.642 23.235-29.864 30.077-48.235 6.683-18.012 10.071-37.029 10.071-56.529 0-20.792-3.991-40.383-11.861-58.241-7.745-17.542-18.5-33.276-31.985-46.789-13.628-13.603-29.791-24.207-48.068-31.532-18.168-7.246-37.325-10.921-56.944-10.921H555.1a686.227 686.227 0 0 0-64.582-87.094h158.099c34.289 0 67.527 5.861 98.786 17.418 31.101 11.501 58.737 27.897 82.13 48.718 23.25 20.732 41.905 45.61 55.444 73.932 13.409 28.114 20.208 58.989 20.208 91.762 0 21.826-2.718 41.467-8.075 58.367-5.448 17.151-12.586 32.513-21.229 45.667-8.72 13.294-18.618 25.095-29.401 35.066-11.196 10.33-21.997 18.98-32.097 25.707l-1.593 1.189c-3.663 3.061-14.806 12.376-14.806 26.407 0 12.165 6.412 22.458 17.625 28.358 12.509 7.554 25.263 17.153 37.911 28.533 12.62 11.357 24.65 25.122 35.735 40.885 10.851 15.468 19.776 33.341 26.521 53.104 6.652 19.566 10.023 41.862 10.023 66.267.002 37.465-7.298 72.346-21.692 103.676z" fill="#E0A13A"/></svg>