<svg xmlns="http://www.w3.org/2000/svg" viewBox="0 0 32 32"><title>eslint</title><path d="M29.832 16.7l-6.354 10.717A1.256 1.256 0 0 1 22.36 28H9.647a1.262 1.262 0 0 1-1.118-.59l-6.356-10.7a1.256 1.256 0 0 1 0-1.272L8.527 4.676A1.344 1.344 0 0 1 9.647 4h12.709a1.344 1.344 0 0 1 1.118.678l6.354 10.786a1.2 1.2 0 0 1 0 1.238zm-5.262 4.2v-9.614L16 6.466l-8.56 4.82V20.9L16 25.719z" fill="#4b32c3"/><path fill="#8080f2" d="M21.802 19.188l-5.747 3.235-5.742-3.235v-6.47l5.742-3.236 5.747 3.236v6.47z"/></svg>