<?xml version="1.0" standalone="no"?><!DOCTYPE svg PUBLIC "-//W3C//DTD SVG 1.1//EN" "http://www.w3.org/Graphics/SVG/1.1/DTD/svg11.dtd"><svg t="1589015537313" class="icon" viewBox="0 0 1024 1024" version="1.1" xmlns="http://www.w3.org/2000/svg" p-id="3457" xmlns:xlink="http://www.w3.org/1999/xlink" width="200" height="200"><defs><style type="text/css"></style></defs><path d="M901.926 227.285L798.23 169.65c-6.427-4.482-22.436-2.04-30.19-2.04H556.704V46.846c0-21.936 0.973-30.191-20.492-30.191H486.62c-21.464 0-20.491 8.256-20.491 30.19V167.61H164.218c-21.494 0-30.191 8.255-30.191 30.191v120.764c0 21.936 8.697 30.192 30.19 30.192H466.13v90.573H253.772c-3.854 0-27.664-1.762-30.19 0l-102.674 62.8c-10.673 7.37-17.071 13.503-17.071 26.711 0 13.15 6.398 19.283 17.07 26.712l103.694 64.923c2.267-1.276 30.754 0.604 30.191 0H466.13V982.77c0 21.936-0.973 30.191 20.49 30.191h49.592c21.465 0 20.492-8.256 20.492-30.191V620.477h301.912c21.492 0 30.19-8.256 30.19-30.19V469.521c0-21.936-8.698-30.191-30.19-30.191H556.704v-90.573l213.11 0.062a38.14 38.14 0 0 0 21.789-6.84l110.323-61.33c10.673-7.371 17.07-13.504 17.07-26.654 0-13.208-6.397-19.34-17.07-26.711z" p-id="3458"></path></svg>