<?xml version="1.0" standalone="no"?><!DOCTYPE svg PUBLIC "-//W3C//DTD SVG 1.1//EN" "http://www.w3.org/Graphics/SVG/1.1/DTD/svg11.dtd"><svg t="1602830259966" class="icon" viewBox="0 0 1024 1024" version="1.1" xmlns="http://www.w3.org/2000/svg" p-id="11597" xmlns:xlink="http://www.w3.org/1999/xlink" width="200" height="200"><defs><style type="text/css"></style></defs><path d="M716.8 512 307.2 512 307.2 460.8C307.2 432.5376 330.1376 409.6 358.4 409.6L665.6 409.6C693.8624 409.6 716.8 432.5376 716.8 460.8L716.8 512ZM641.3824 921.6 399.616 921.6 338.1248 614.4 702.8736 614.4 641.3824 921.6ZM716.8 307.2 563.2 307.2 563.2 153.6C563.2 125.3376 586.1376 102.4 614.4 102.4 642.6624 102.4 665.6 79.4624 665.6 51.2 665.6 22.9376 642.6624 0 614.4 0L563.2 0C506.6752 0 460.8 45.824 460.8 102.4L460.8 307.2 307.2 307.2C250.6752 307.2 204.8 353.024 204.8 409.6L204.8 512C235.8272 640.6144 215.7568 548.8128 307.1488 983.2448 312.1152 1006.9504 333.056 1024 357.2736 1024L682.9056 1024C707.4816 1024 728.6272 1006.4384 733.2352 982.272 815.5136 548.7104 799.0272 639.5904 819.2 512L819.2 409.6C819.2 353.024 773.3248 307.2 716.8 307.2L716.8 307.2Z" p-id="11598"></path></svg>