<?xml version="1.0" standalone="no"?><!DOCTYPE svg PUBLIC "-//W3C//DTD SVG 1.1//EN" "http://www.w3.org/Graphics/SVG/1.1/DTD/svg11.dtd"><svg t="1602830041277" class="icon" viewBox="0 0 1024 1024" version="1.1" xmlns="http://www.w3.org/2000/svg" p-id="10856" xmlns:xlink="http://www.w3.org/1999/xlink" width="200" height="200"><defs><style type="text/css"></style></defs><path d="M875.52 240.64h-179.2V184.32c0-51.2-40.96-92.16-92.16-92.16H414.72c-51.2 0-92.16 40.96-92.16 92.16v51.2H143.36c-40.96 5.12-76.8 40.96-76.8 81.92v153.6c0 35.84 20.48 61.44 51.2 71.68h5.12c5.12 0 5.12 5.12 10.24 5.12H896c5.12 0 5.12 0 10.24-5.12h5.12c5.12 0 10.24-5.12 10.24-5.12 5.12 0 5.12-5.12 10.24-10.24 15.36-15.36 25.6-35.84 25.6-56.32v-153.6c0-40.96-35.84-76.8-81.92-76.8zM404.48 184.32c0-5.12 5.12-10.24 10.24-10.24h194.56c5.12 0 10.24 5.12 10.24 10.24v40.96c0 5.12-5.12 10.24-10.24 10.24H414.72c-5.12 0-10.24-5.12-10.24-10.24v-40.96zM593.92 599.04c0 5.12 5.12 5.12 0 0v97.28c0 5.12-5.12 10.24-15.36 10.24H440.32c-10.24 0-15.36-5.12-15.36-10.24v-97.28-5.12H143.36c-20.48 0-40.96-5.12-56.32-15.36V870.4c0 35.84 15.36 61.44 40.96 61.44h762.88c20.48 0 40.96-25.6 40.96-61.44v-291.84c-15.36 10.24-35.84 15.36-56.32 15.36h-281.6z" p-id="10857"></path></svg>