<?xml version="1.0" standalone="no"?><!DOCTYPE svg PUBLIC "-//W3C//DTD SVG 1.1//EN" "http://www.w3.org/Graphics/SVG/1.1/DTD/svg11.dtd"><svg t="1602829998942" class="icon" viewBox="0 0 1024 1024" version="1.1" xmlns="http://www.w3.org/2000/svg" p-id="8913" xmlns:xlink="http://www.w3.org/1999/xlink" width="200" height="200"><defs><style type="text/css"></style></defs><path d="M550.6816 482.4192h61.44v-59.1616h-77.3632a2.4448 2.4448 0 0 0-2.2784 2.2784V450.56c0 20.48 6.8224 31.8592 18.2016 31.8592z m62.592-155.8784h-56.896c-14.7968 0-22.7584 10.24-22.7584 31.8592v25.0368h79.6416V326.528zM324.2496 568.896v94.4256l86.4768-13.6448v-84.1984H326.528c-1.1392 1.1392-2.2784 2.2784-2.2784 3.4176z m407.3344-106.9568v-38.6816h-79.6544v59.1616h61.44c11.392 0 17.0752-6.8224 18.2144-20.48z m0-112.64c0-13.6576-7.9744-21.6192-22.7584-22.7584h-56.896v56.896h79.6544v-34.1376z" p-id="8914"></path><path d="M512 0C228.6976 0 0 228.6976 0 512s228.6976 512 512 512 512-228.6976 512-512S795.3024 0 512 0z m-18.2016 347.0208c0-27.3024 14.784-46.6432 45.504-56.8832 10.24-1.152 18.2144-2.2784 22.7584-2.2784h50.0608v-25.0368c0-1.1392 1.152-2.2656 2.2784-2.2656h34.1376c1.1392 0 2.2784 1.1264 2.2784 2.2656v25.0368h50.048c36.416 0 59.1744 15.9232 68.2752 47.7824v124.032c0 30.72-14.7968 51.2-45.5168 61.44-5.6832 1.1264-11.3664 2.2656-15.9232 2.2656H550.6816c-27.3024 0-46.6432-17.0624-56.8832-52.3392v-124.0192zM450.56 683.8016v96.7168c0 3.4048-1.1392 4.544-2.2784 4.544h-34.1248c-1.152 0-2.2784-1.1392-2.2784-4.544v-88.7552c-4.5568 0-52.352 7.9744-144.512 22.7584-1.1264-3.4048-3.4048-15.9232-6.8096-38.6816 17.0624-3.4176 25.024-5.6832 25.024-6.8224v-358.4h-15.9232a2.4448 2.4448 0 0 1-2.2784-2.2784v-34.1376c0-1.1392 1.1392-2.2784 2.2784-2.2784h196.8384c1.1264 0 2.2656 1.152 2.2656 2.2784v34.1376a2.4448 2.4448 0 0 1-2.2656 2.2784H450.56v332.224c3.4176 0 10.24-1.1392 22.7584-4.544l6.8224 38.6816c-3.4048 3.4176-12.5184 5.6832-29.568 6.8224H450.56z m334.5024-103.5392c0 3.4176-1.1264 4.5568-2.2656 4.5568H601.8816c-3.4048 1.1392-11.3792 15.9232-25.024 43.2384h121.728c33.0112 0 56.896 12.5056 68.2752 38.6816 3.4176 9.1008 4.5568 15.9232 4.5568 20.48v36.4032c0 28.4544-15.936 48.9344-47.7952 59.1744-4.544 1.1264-9.088 2.2656-13.6448 2.2656h-124.032a2.4448 2.4448 0 0 1-2.2656-2.2656v-34.1376c0-3.4176 1.1392-4.5568 2.2784-4.5568h124.0192c13.6448 0 20.48-7.9616 20.48-22.7456v-29.5936c-1.152-14.784-9.1008-22.7456-22.7584-22.7456H516.5568l-4.5568-1.152c27.3024-47.7824 43.2384-75.0848 45.5168-81.92h-75.0976c-1.1392 0-2.2784-1.1264-2.2784-4.544v-34.1248c0-1.152 1.1392-2.2784 2.2784-2.2784h300.3776c1.1264 0 2.2656 1.1392 2.2656 2.2784v32.9856z" p-id="8915"></path><path d="M324.2624 312.8832v84.1984c0 1.152 1.152 2.2784 2.2784 2.2784h84.1984v-88.7424h-84.1984a2.4448 2.4448 0 0 0-2.2784 2.2656z m0 128.576v84.1984h86.4768V439.168h-84.1984c-1.1392 0-2.2784 0-2.2784 2.2784z" p-id="8916"></path></svg>