<?xml version="1.0" standalone="no"?><!DOCTYPE svg PUBLIC "-//W3C//DTD SVG 1.1//EN" "http://www.w3.org/Graphics/SVG/1.1/DTD/svg11.dtd"><svg t="1602831087288" class="icon" viewBox="0 0 1024 1024" version="1.1" xmlns="http://www.w3.org/2000/svg" p-id="42203" xmlns:xlink="http://www.w3.org/1999/xlink" width="200" height="200"><defs><style type="text/css"></style></defs><path d="M166.018327 464.672582c0-15.639273 1.098473-31.241309 2.923055-46.08H58.442473C41.257891 418.592582 27.350109 433.040291 27.350109 450.988218 27.350109 468.992 41.257891 483.439709 58.442473 483.439709h107.9296c-0.372364-6.255709-0.372364-12.4928-0.372364-18.748509" p-id="42204"></path><path d="M165.199127 729.385891a29.4912 29.4912 0 0 0 0 43.231418c12.567273 11.729455 33.140364 11.729455 45.689018 0l59.019637-55.686982c-13.312-14.298764-27.405964-30.049745-40.3456-47.997672l-64.363055 60.453236zM256.223418 247.156364a320.698182 320.698182 0 0 1 42.226037-43.398982l-76.148364-74.267927a30.868945 30.868945 0 0 0-43.343127 0 29.547055 29.547055 0 0 0 0 42.337745l77.265454 75.329164z" p-id="42205"></path><path d="M594.292364 966.227782H429.912436C412.783709 966.227782 399.099345 978.497164 399.099345 993.149673c0 14.987636 13.702982 27.275636 30.813091 27.275636h164.398546c17.128727 0 30.813091-12.288 30.813091-27.275636S611.048727 966.227782 594.292364 966.227782" p-id="42206"></path><path d="M512.837818 147.195345h0.670255c9.402182 0 18.469236 0.763345 27.517672 1.54531V40.122182c0-17.724509-12.753455-31.967418-28.523054-31.967418-15.788218 0-28.541673 14.242909-28.541673 31.967418v108.618473a219.880727 219.880727 0 0 1 27.517673-1.54531h1.359127zM768.763345 247.156364l77.265455-75.329164c11.915636-11.4688 11.915636-30.496582 0-42.337745a30.850327 30.850327 0 0 0-43.324509 0l-76.166982 74.267927c15.1552 13.256145 29.230545 27.610764 42.226036 43.380363M781.163055 668.932655c-13.330618 18.320291-27.0336 33.698909-40.364219 47.997672l59.019637 55.668364c12.585891 11.729455 33.140364 11.729455 45.707636 0a29.4912 29.4912 0 0 0 0-43.2128l-64.363054-60.453236z" p-id="42207"></path><path d="M595.521164 893.877527h-166.036946c-17.314909 0-31.148218 12.381091-31.148218 28.299637 0 15.5648 13.851927 27.927273 31.148218 27.927272h166.036946c17.296291 0 31.1296-12.716218 31.1296-27.927272 0-15.918545-14.224291-28.299636-31.1296-28.299637" p-id="42208"></path><path d="M951.184291 418.592582H840.685382c1.824582 15.229673 2.923055 30.459345 2.923054 46.08 0 6.255709 0 12.4928-0.372363 18.748509h107.948218c17.184582 0 31.092364-14.447709 31.092364-32.414255C981.904291 433.040291 968.368873 418.592582 951.184291 418.592582" p-id="42209"></path><path d="M797.882182 459.459491c0-63.711418-21.355055-122.600727-57.828073-170.002618a283.8528 283.8528 0 0 0-125.188654-92.9792l0.372363-1.489455-21.373673-6.274327c-16.570182-4.840727-33.885091-8.154764-51.181381-9.997964l-2.569309-0.372363c-8.471273-0.744727-17.314909-1.489455-26.884655-1.489455h-1.470836c-9.216 0-18.059636 0.744727-26.884655 1.489455l-2.569309 0.372363c-17.314909 1.8432-34.629818 5.175855-51.2 9.997964l-20.610327 5.920582 0.372363 1.489454a289.661673 289.661673 0 0 0-125.952 93.332946c-36.082036 47.401891-57.809455 106.309818-57.809454 169.984 0 45.931055 8.098909 83.3536 20.628945 114.464582 18.785745 46.657164 47.122618 78.140509 70.339491 102.213818 11.412945 11.859782 21.7088 22.230109 28.355491 30.738618 6.981818 8.899491 10.295855 15.5648 11.412946 20.759273 5.157236 26.288873 5.510982 59.261673 5.510981 67.397818v2.606545c0 37.757673 30.943418 68.142545 69.2224 68.142546h53.769309V599.095855L409.041455 521.681455a23.794036 23.794036 0 0 1 0-34.071273 24.129164 24.129164 0 0 1 33.88509 0l67.3792 67.397818 67.397819-67.397818a24.129164 24.129164 0 0 1 33.866472 0 23.812655 23.812655 0 0 1 0 34.071273l-77.321309 77.4144V865.373091h58.1632c38.2976 0 69.241018-30.738618 69.241018-68.142546v-2.234181c0-8.136145 0.372364-41.481309 5.510982-67.397819 0.744727-3.723636 2.215564-7.7824 5.5296-12.976872 5.5296-8.880873 15.825455-19.995927 28.727855-32.954182 19.139491-20.014545 43.436218-45.186327 62.966691-80.747055 19.511855-35.188364 33.512727-81.491782 33.512727-141.498181" p-id="42210"></path></svg>