<?xml version="1.0" standalone="no"?><!DOCTYPE svg PUBLIC "-//W3C//DTD SVG 1.1//EN" "http://www.w3.org/Graphics/SVG/1.1/DTD/svg11.dtd"><svg t="1602830579954" class="icon" viewBox="0 0 1024 1024" version="1.1" xmlns="http://www.w3.org/2000/svg" p-id="18808" xmlns:xlink="http://www.w3.org/1999/xlink" width="200" height="200"><defs><style type="text/css"></style></defs><path d="M998.144 718.592c-6.4 1.28-12.416 2.176-17.92 2.944l0.384-0.64c-2.048 0.384-4.096 0.896-6.016 1.28-5.888 0.64-11.136 0.896-15.616 0.896-18.56-0.128-32.512-6.144-41.728-17.92-9.216-11.776-12.544-28.16-10.112-49.024 1.024-9.088 2.176-16.512 3.328-22.144 1.152-5.632 2.432-10.88 3.84-15.616L975.744 396.8c3.712-12.544 6.784-24.704 9.344-36.48 2.56-11.776 4.352-22.528 5.504-32.64 5.504-46.08-5.248-82.304-32.256-108.544-27.008-26.24-67.072-39.68-120.064-40.064-12.032-0.128-23.808 0.512-35.456 1.792-33.408 1.152-65.408 7.68-96.128 19.712-29.056 11.392-56.192 27.136-81.152 47.36-11.136-22.016-26.752-39.04-46.592-50.688-22.784-13.44-51.456-20.224-85.888-20.48-13.952-0.128-27.648 0.768-41.216 2.56-28.672 2.304-56.704 8.704-84.096 19.584-30.72 12.16-58.24 28.672-82.688 49.28-8.32-20.48-26.88-40.832-45.696-52.992-21.248-13.696-47.232-20.608-78.208-20.736-10.752-0.128-20.736 0.896-29.952 2.688-12.928 1.536-24.448 4.864-34.56 9.984C81.92 194.56 70.4 205.44 62.208 219.776l-44.8 80.384c4.48-1.28 9.216-2.176 14.08-2.816 4.864-0.64 12.544-0.896 22.912-0.768 21.76 0.128 38.016 4.992 48.896 14.464 10.88 9.472 15.232 22.784 13.184 39.808-0.512 4.864-1.664 10.752-3.456 18.048-1.792 7.168-4.096 15.36-6.912 24.576L23.552 693.632c-20.096 73.344 28.416 140.032 102.4 140.544l2.048 0c7.68 0 15.232-2.048 21.888-5.76 5.76-1.28 11.264-3.584 16.128-6.912 9.344-6.144 16.512-15.616 19.712-26.624l89.728-320.256c13.056-46.464 33.28-82.944 60.8-109.184 19.968-19.2 41.728-31.232 65.28-36.352 3.712-0.384 7.552-0.512 11.392-0.512 13.952 0.128 23.68 2.816 29.056 8.064 5.504 5.248 7.552 13.824 6.144 25.6-0.64 4.864-1.152 8.832-1.792 12.16-0.64 3.328-1.28 6.656-2.176 10.112l-86.272 311.296c-20.352 73.344 28.288 140.16 102.4 140.8l1.792 0c6.912 0 13.824-1.664 19.968-4.736 11.904-0.512 23.168-5.76 31.488-14.208 1.024-1.024 1.92-2.048 2.816-3.2 0.512-0.64 0.896-1.28 1.408-1.92 3.456-4.48 6.144-9.6 7.808-15.232l92.288-330.624c12.16-43.008 31.872-76.8 58.88-101.376 20.096-18.176 41.728-29.568 65.152-34.176 1.28 0 2.56-0.128 3.968-0.128 12.16 0.128 21.248 2.816 27.136 8.064 5.888 5.248 8.32 12.928 7.04 23.04-0.896 7.04-1.536 11.904-2.048 14.72-0.512 2.816-1.152 5.376-1.92 7.552l-61.696 221.952c-4.608 16.64-8.32 31.488-11.264 44.8-2.944 13.312-4.864 24.832-6.016 34.432-5.76 48 4.992 87.424 32.384 118.016 27.264 30.592 65.28 46.08 114.048 46.464 14.08 0.128 26.752-1.664 38.272-5.248 16.256-1.408 30.592-5.376 43.008-12.032 15.872-8.576 28.928-22.016 39.04-40.192l42.112-74.24 0.768-1.28C1003.776 717.44 1000.832 718.08 998.144 718.592zM161.92 819.072c0.128 0.128 0.256 0.128 0.384 0.256C162.048 819.328 161.92 819.2 161.92 819.072 161.92 819.072 161.92 819.072 161.92 819.072zM991.616 720.64C991.616 720.64 991.616 720.64 991.616 720.64 991.616 720.64 991.616 720.64 991.616 720.64zM163.712 820.224c0.128 0.128 0.384 0.256 0.512 0.256C163.968 820.352 163.84 820.352 163.712 820.224zM618.624 432.896c-5.504 10.88-10.624 21.632-15.616 32.256C607.744 454.912 612.864 444.032 618.624 432.896z" p-id="18809"></path></svg>