<?xml version="1.0" standalone="no"?><!DOCTYPE svg PUBLIC "-//W3C//DTD SVG 1.1//EN" "http://www.w3.org/Graphics/SVG/1.1/DTD/svg11.dtd"><svg t="1603868657396" class="icon" viewBox="0 0 1024 1024" version="1.1" xmlns="http://www.w3.org/2000/svg" p-id="12478" xmlns:xlink="http://www.w3.org/1999/xlink" width="200" height="200"><defs><style type="text/css"></style></defs><path d="M739.772099 677.79914 283.575032 677.79914c-24.220634 0-43.892673 19.618826-43.892673 43.784202 0 24.167422 19.672038 43.754526 43.892673 43.754526L739.772099 765.337869c24.249287 0 43.892673-19.587104 43.892673-43.754526C783.663748 697.416943 764.021386 677.79914 739.772099 677.79914zM739.772099 467.723587 283.575032 467.723587c-24.220634 0-43.892673 19.588127-43.892673 43.754526 0 24.165376 19.672038 43.782156 43.892673 43.782156L739.772099 555.26027c24.249287 0 43.892673-19.61678 43.892673-43.782156C783.663748 487.311715 764.021386 467.723587 739.772099 467.723587zM283.950586 345.156064l208.746278 0c24.219611 0 43.890626-19.588127 43.890626-43.783179 0-24.165376-19.671015-43.753503-43.890626-43.753503L283.950586 257.619382c-24.248264 0-43.921325 19.588127-43.921325 43.753503C240.02926 325.567937 259.702322 345.156064 283.950586 345.156064zM912.18282 785.039583c0 70.238714-56.899918 127.177518-127.129422 127.177518L238.320339 912.217101c-70.227458 0-127.158075-56.939827-127.158075-127.177518L111.162264 267.903609c0-70.208015 56.930617-156.816558 127.158075-156.816558l326.256622 0L564.576961 66.579371 214.998167 66.579371c-81.934081 0-148.337443 66.413596-148.337443 148.356886l0 593.430614c0 81.944314 66.403363 148.358933 148.337443 148.358933l593.350796 0c81.932034 0 148.337443-66.414619 148.337443-148.358933L956.686407 458.770681l-44.503587 0L912.18282 785.039583zM823.239092 333.535399c73.703629 0 133.447315-59.747779 133.447315-133.463688 0-73.713862-59.743686-133.49234-133.447315-133.49234-73.734328 0-133.473921 59.778478-133.473921 133.49234C689.766195 273.78762 749.505787 333.535399 823.239092 333.535399z" p-id="12479"></path></svg>