<?xml version="1.0" standalone="no"?><!DOCTYPE svg PUBLIC "-//W3C//DTD SVG 1.1//EN" "http://www.w3.org/Graphics/SVG/1.1/DTD/svg11.dtd"><svg t="1603947041026" class="icon" viewBox="0 0 1024 1024" version="1.1" xmlns="http://www.w3.org/2000/svg" p-id="9309" xmlns:xlink="http://www.w3.org/1999/xlink" width="200" height="200"><defs><style type="text/css"></style></defs><path d="M257.92 377.28a131.2 131.2 0 1 0-92.8-38.4 131.84 131.84 0 0 0 92.8 38.4zM493.76 275.2h352a29.44 29.44 0 1 0 0-58.56h-352a29.44 29.44 0 1 0 0 58.56zM257.92 646.72a131.2 131.2 0 1 0 94.08 38.4 131.2 131.2 0 0 0-94.08-38.4zM844.48 748.8h-352a29.44 29.44 0 1 0 0 58.56h352a29.44 29.44 0 1 0 0-58.56zM742.4 380.8a129.92 129.92 0 0 0-92.8 38.4 131.84 131.84 0 1 0 92.8-38.4zM156.16 541.44h352a29.44 29.44 0 0 0 0-58.88h-352a29.44 29.44 0 0 0 0 58.88z" p-id="9310"></path></svg>