<?xml version="1.0" standalone="no"?><!DOCTYPE svg PUBLIC "-//W3C//DTD SVG 1.1//EN" "http://www.w3.org/Graphics/SVG/1.1/DTD/svg11.dtd"><svg t="1604036866100" class="icon" viewBox="0 0 1024 1024" version="1.1" xmlns="http://www.w3.org/2000/svg" p-id="6650" xmlns:xlink="http://www.w3.org/1999/xlink" width="200" height="200"><defs><style type="text/css"></style></defs><path d="M884.363636 1007.918545 884.363636 84.084364c0-31.278545-22.877091-60.346182-53.946182-60.346182L180.712727 23.738182c-31.045818 0-64.814545 29.067636-64.814545 60.346182l0 923.810909c415.674182-208.174545 393.169455-207.662545 391.098182-209.454545C507.485091 796.625455 508.253091 797.277091 884.363636 1007.918545zM503.086545 710.120727c-1.442909 2.676364-21.550545 21.829818-317.090909 162.676364L185.995636 131.188364c0-20.852364 16.802909-37.748364 37.492364-37.748364l554.077091-0.535273c20.689455 0 37.492364 16.919273 37.492364 37.748364L815.057455 872.261818C531.618909 724.48 503.668364 712.378182 503.086545 710.120727z" p-id="6651"></path></svg>