<?xml version="1.0" standalone="no"?><!DOCTYPE svg PUBLIC "-//W3C//DTD SVG 1.1//EN" "http://www.w3.org/Graphics/SVG/1.1/DTD/svg11.dtd"><svg t="1626532964306" class="icon" viewBox="0 0 1024 1024" version="1.1" xmlns="http://www.w3.org/2000/svg" p-id="4501" xmlns:xlink="http://www.w3.org/1999/xlink" width="200" height="200"><defs><style type="text/css"></style></defs><path d="M286.72 245.76a40.96 40.96 0 0 0-81.92 0v204.8a40.96 40.96 0 0 1-81.92 0v-204.8a122.88 122.88 0 0 1 122.88-122.88H819.2a81.92 81.92 0 0 1 81.92 81.92v635.2c0 15.488-5.888 30.378667-16.533333 41.706667a61.653333 61.653333 0 0 1-86.826667 2.986666l-162.133333-149.845333a61.44 61.44 0 0 0-83.413334 0l-162.133333 149.824a61.653333 61.653333 0 0 1-86.826667-2.986667 60.928 60.928 0 0 1-16.533333-41.685333V245.76z m273.493333 105.472a50.432 50.432 0 0 1-45.141333 45.141333l-59.904 5.994667a27.861333 27.861333 0 0 0 0 55.424l59.904 5.994667a50.432 50.432 0 0 1 45.141333 45.141333l5.994667 59.904a27.861333 27.861333 0 0 0 55.424 0l5.994667-59.904a50.432 50.432 0 0 1 45.141333-45.141333l59.904-5.994667a27.861333 27.861333 0 0 0 0-55.424l-59.904-5.994667a50.432 50.432 0 0 1-45.141333-45.141333l-5.994667-59.904a27.861333 27.861333 0 0 0-55.424 0l-5.994667 59.904z" p-id="4502"></path></svg>