<?xml version="1.0" standalone="no"?><!DOCTYPE svg PUBLIC "-//W3C//DTD SVG 1.1//EN" "http://www.w3.org/Graphics/SVG/1.1/DTD/svg11.dtd"><svg t="1604037282493" class="icon" viewBox="0 0 1024 1024" version="1.1" xmlns="http://www.w3.org/2000/svg" p-id="13488" xmlns:xlink="http://www.w3.org/1999/xlink" width="200" height="200"><defs><style type="text/css"></style></defs><path d="M678.172444 170.666667c94.094222 0 170.666667 76.572444 170.666667 170.666666v539.534223c0 13.084444 0 25.486222-32.028444 28.615111-110.648889-79.758222-248.035556-169.073778-308.849778-169.073778-59.278222 0-195.470222 89.258667-305.379556 169.073778C170.666667 906.353778 170.666667 893.895111 170.666667 880.867556V341.333333c0-94.094222 76.572444-170.666667 170.666666-170.666666h336.839111m0-56.888889H341.333333a227.555556 227.555556 0 0 0-227.555555 227.555555v539.534223C113.777778 943.729778 157.297778 967.111111 220.103111 967.111111c0 0 231.196444-169.813333 287.857778-169.813333 58.652444 0 291.441778 169.813333 291.441778 169.813333 62.862222 0 106.325333-23.381333 106.325333-86.243555V341.333333a227.555556 227.555556 0 0 0-227.555556-227.555555z" p-id="13489"></path></svg>