<?xml version="1.0" standalone="no"?><!DOCTYPE svg PUBLIC "-//W3C//DTD SVG 1.1//EN" "http://www.w3.org/Graphics/SVG/1.1/DTD/svg11.dtd"><svg t="1618822257367" class="icon" viewBox="0 0 1027 1024" version="1.1" xmlns="http://www.w3.org/2000/svg" p-id="3227" xmlns:xlink="http://www.w3.org/1999/xlink" width="200.5859375" height="200"><defs><style type="text/css"></style></defs><path d="M662.844276 683.715942a44.905706 44.905706 0 0 0 17.709293-3.794848 63.247474 63.247474 0 0 0 15.179393-10.752071 49.333029 49.333029 0 0 0 10.119596-15.179393 34.786111 34.786111 0 0 0 4.427323-17.709293 63.247474 63.247474 0 0 0 0-10.752071 70.204696 70.204696 0 0 0-4.427323-10.119595 63.247474 63.247474 0 0 0-5.692272-8.222172 37.948484 37.948484 0 0 1-4.427324-8.222171l-116.375351-120.1702-35.418585-246.665148a51.862928 51.862928 0 0 0-6.324748-16.444343 99.298534 99.298534 0 0 0-10.75207-13.281969 44.273232 44.273232 0 0 0-15.179394-8.222172 36.05106 36.05106 0 0 0-18.341767 0 41.743333 41.743333 0 0 0-17.076818 3.794849 51.862928 51.862928 0 0 0-13.914444 10.119595 50.597979 50.597979 0 0 0-9.487121 13.28197 43.008282 43.008282 0 0 0-4.427323 17.709292L442.743068 525.597258a89.178938 89.178938 0 0 0 0 11.384545 34.153636 34.153636 0 0 0 0 12.01702l7.589697 10.119596A30.991262 30.991262 0 0 0 461.71731 569.238015l175.827977 109.418129 5.692272 4.427324H656.519529z" p-id="3228"></path><path d="M984.141442 316.24812a522.424132 522.424132 0 0 0-110.050604-163.178482A505.979789 505.979789 0 0 0 711.544831 40.489135 494.595244 494.595244 0 0 0 512.315289 0.010752 490.167921 490.167921 0 0 0 316.248121 40.489135 505.979789 505.979789 0 0 0 40.489135 316.24812 490.167921 490.167921 0 0 0 0.010752 512.315289a494.595244 494.595244 0 0 0 40.478383 199.229542 505.979789 505.979789 0 0 0 109.41813 162.546007A522.424132 522.424132 0 0 0 316.248121 984.141442a500.287517 500.287517 0 0 0 199.229542 39.845909 505.979789 505.979789 0 0 0 199.229542-39.845909 519.261759 519.261759 0 0 0 272.596611-272.596611 505.979789 505.979789 0 0 0 39.845908-199.229542 500.287517 500.287517 0 0 0-43.008282-196.067169z m-104.990806 350.391004a408.57868 408.57868 0 0 1-212.511511 212.511512 387.074539 387.074539 0 0 1-154.323836 31.623737 382.647216 382.647216 0 0 1-154.323836-31.623737 413.638478 413.638478 0 0 1-126.494947-86.016564 406.048781 406.048781 0 0 1-85.38409-126.494948 387.074539 387.074539 0 0 1 0-309.280146 406.048781 406.048781 0 0 1 85.38409-126.494947 401.621458 401.621458 0 0 1 126.494947-85.38409 373.160095 373.160095 0 0 1 154.323836-32.256211 379.484842 379.484842 0 0 1 154.323836 32.256211 406.048781 406.048781 0 0 1 126.494947 85.38409 418.698276 418.698276 0 0 1 86.016564 126.494947 394.031761 394.031761 0 0 1 0 309.280146z" p-id="3229"></path></svg>