<?xml version="1.0" standalone="no"?><!DOCTYPE svg PUBLIC "-//W3C//DTD SVG 1.1//EN" "http://www.w3.org/Graphics/SVG/1.1/DTD/svg11.dtd"><svg t="1618825442231" class="icon" viewBox="0 0 1024 1024" version="1.1" xmlns="http://www.w3.org/2000/svg" p-id="123630" xmlns:xlink="http://www.w3.org/1999/xlink" width="200" height="200"><defs><style type="text/css"></style></defs><path d="M261.916444 475.704889h312.263112v63.544889H261.916444z" p-id="123631"></path><path d="M272.782222 962.104889a31.744 31.744 0 0 1-31.744-31.800889V246.158222a31.744 31.744 0 1 1 63.488 0v684.145778a31.744 31.744 0 0 1-31.744 31.800889z" p-id="123632"></path><path d="M391.736889 318.236444H174.08a125.155556 125.155556 0 0 1 0-250.311111h217.656889a125.155556 125.155556 0 1 1 0 250.311111z" p-id="123633"></path><path d="M859.648 632.604444h-217.713778a125.155556 125.155556 0 0 1 0-250.311111h217.713778a125.155556 125.155556 0 0 1 0 250.311111z" p-id="123634"></path><path d="M261.916444 803.84h312.263112v63.544889H261.916444z" p-id="123635"></path><path d="M859.648 954.083556h-217.713778a125.155556 125.155556 0 0 1 0-250.311112h217.713778a125.155556 125.155556 0 0 1 0 250.311112z" p-id="123636"></path></svg>