<?xml version="1.0" standalone="no"?><!DOCTYPE svg PUBLIC "-//W3C//DTD SVG 1.1//EN" "http://www.w3.org/Graphics/SVG/1.1/DTD/svg11.dtd"><svg t="1604037331834" class="icon" viewBox="0 0 1024 1024" version="1.1" xmlns="http://www.w3.org/2000/svg" p-id="15735" xmlns:xlink="http://www.w3.org/1999/xlink" width="200" height="200"><defs><style type="text/css"></style></defs><path d="M816 808H672c-4.8 0-8 1.6-11.2 4.8l-80 80c-36.8 36.8-97.6 36.8-136 0l-80-80c-3.2-3.2-6.4-4.8-11.2-4.8h-144c-70.4 0-128-57.6-128-128V232c0-70.4 57.6-128 128-128h608c70.4 0 128 57.6 128 128v448C944 750.4 886.4 808 816 808z m0-64c35.2 0 64-28.8 64-64V232c0-35.2-28.8-64-64-64H208c-35.2 0-64 28.8-64 64v448c0 35.2 28.8 64 64 64h144c20.8 0 41.6 8 56 24l80 80c12.8 12.8 32 12.8 44.8 0l80-80c14.4-14.4 35.2-24 56-24H816zM320 408c27.2 0 48 20.8 48 48v32c0 27.2-20.8 48-48 48s-48-20.8-48-48v-32c0-27.2 20.8-48 48-48z m192 0c27.2 0 48 20.8 48 48v32c0 27.2-20.8 48-48 48s-48-20.8-48-48v-32c0-27.2 20.8-48 48-48z m192 0c27.2 0 48 20.8 48 48v32c0 27.2-20.8 48-48 48s-48-20.8-48-48v-32c0-27.2 20.8-48 48-48z" p-id="15736"></path></svg>