<?xml version="1.0" standalone="no"?><!DOCTYPE svg PUBLIC "-//W3C//DTD SVG 1.1//EN" "http://www.w3.org/Graphics/SVG/1.1/DTD/svg11.dtd"><svg t="1628307676237" class="icon" viewBox="0 0 1024 1024" version="1.1" xmlns="http://www.w3.org/2000/svg" p-id="7778" xmlns:xlink="http://www.w3.org/1999/xlink" width="200" height="200"><defs><style type="text/css"></style></defs><path d="M960.853333 523.946667c-20.48 0-37.546667 17.066667-37.546666 37.546666V853.333333c0 27.306667-22.186667 49.493333-49.493334 49.493334H155.306667c-27.306667 0-49.493333-22.186667-49.493334-49.493334V175.786667c0-27.306667 22.186667-49.493333 49.493334-49.493334h315.733333c20.48 0 37.546667-17.066667 37.546667-37.546666S491.52 51.2 471.04 51.2H155.306667c-68.266667 0-122.88 54.613333-122.88 122.88V853.333333c0 68.266667 54.613333 122.88 122.88 122.88h720.213333c68.266667 0 122.88-54.613333 122.88-122.88V561.493333c0-20.48-17.066667-37.546667-37.546667-37.546666z m0 0" p-id="7779"></path><path d="M213.333333 706.56C327.68 597.333333 443.733333 430.08 648.533333 440.32c13.653333 0 25.6 11.946667 25.6 27.306667v71.68c0 22.186667 25.6 34.133333 42.666667 20.48l266.24-215.04c13.653333-10.24 13.653333-30.72 0-40.96l-264.533333-238.933334c-17.066667-13.653333-44.373333-1.706667-44.373334 20.48v71.68c0 13.653333-8.533333 23.893333-22.186666 25.6-353.28 81.92-442.026667 494.933333-438.613334 523.946667z m0 0" p-id="7780"></path></svg>