<?xml version="1.0" standalone="no"?><!DOCTYPE svg PUBLIC "-//W3C//DTD SVG 1.1//EN" "http://www.w3.org/Graphics/SVG/1.1/DTD/svg11.dtd"><svg t="1604037589157" class="icon" viewBox="0 0 1031 1024" version="1.1" xmlns="http://www.w3.org/2000/svg" p-id="4858" xmlns:xlink="http://www.w3.org/1999/xlink" width="201.3671875" height="200"><defs><style type="text/css"></style></defs><path d="M515.584 957.952c-21.504 0-36.864-14.336-40.96-18.432-17.408-17.408-347.136-342.016-392.192-391.168C29.696 495.616 0 424.448 0 349.184s29.696-146.432 82.944-200.192c53.248-53.248 124.416-82.944 200.192-82.944s146.432 29.184 200.192 82.944c11.776 11.776 22.528 25.088 32.256 38.912 9.728-13.824 20.48-27.136 32.256-38.912 53.248-53.248 124.416-82.944 200.192-82.944s146.432 29.184 200.192 82.944c53.248 53.248 82.944 124.416 82.944 200.192s-29.184 146.432-82.944 200.192c-44.544 48.128-374.272 373.248-391.68 390.656-4.096 3.584-19.456 17.92-40.96 17.92z" p-id="4859"></path></svg>