<?xml version="1.0" standalone="no"?><!DOCTYPE svg PUBLIC "-//W3C//DTD SVG 1.1//EN" "http://www.w3.org/Graphics/SVG/1.1/DTD/svg11.dtd"><svg t="1604037577244" class="icon" viewBox="0 0 1024 1024" version="1.1" xmlns="http://www.w3.org/2000/svg" p-id="4716" xmlns:xlink="http://www.w3.org/1999/xlink" width="200" height="200"><defs><style type="text/css"></style></defs><path d="M800.436 471.085h-56.363v199.156H544.915v56.363h199.158v199.157h56.363V726.604h199.156v-56.363H800.436V471.085z" p-id="4717"></path><path d="M514.191 905.997s-266.877-186.039-372.53-350.613c-38.966-60.753-73.855-118.5-73.855-198.288 0-137.777 102.88-249.507 229.809-249.507 93.806 0 161.095 61.108 196.819 148.589v-0.431h0.097c2.66 9.12 10.42 15.771 19.661 15.771 9.272 0 17.032-6.652 19.674-15.771h0.272c35.809-87.222 102.989-148.156 196.663-148.156 126.898 0 229.809 111.734 229.809 249.507 0 55.217-16.719 99.873-39.934 142.277l48.291 35.613c25.793-47.207 47.647-103.554 47.647-174.401 0-173.272-129.843-314.225-289.433-314.225-88.535 0-158.111 44.099-212.289 116.812-54.15-72.736-123.709-116.812-212.291-116.812-159.594 0-289.433 140.952-289.433 314.225 0 103.368 46.503 175.884 83.887 234.145 108.642 169.232 369.072 352.005 380.641 360.886 11.149 8.555 24.18 12.838 37.182 12.838 13.031 0 26.042-4.281 37.176-12.838 2.873-2.203 21.042-15.093 48.392-35.812l-44.02-44.604C530.411 894.693 514.196 906 514.196 906z" p-id="4718"></path></svg>