<?xml version="1.0" standalone="no"?><!DOCTYPE svg PUBLIC "-//W3C//DTD SVG 1.1//EN" "http://www.w3.org/Graphics/SVG/1.1/DTD/svg11.dtd"><svg t="1628307709709" class="icon" viewBox="0 0 1024 1024" version="1.1" xmlns="http://www.w3.org/2000/svg" p-id="9932" xmlns:xlink="http://www.w3.org/1999/xlink" width="200" height="200"><defs><style type="text/css"></style></defs><path d="M1003.40224 211.21536c-185.79456-93.45024-310.49728-13.64992-441.18016 215.54688l116.4288 68.05504c8.34048 4.85888 13.39392 13.83936 12.288 23.30624a22.62016 22.62016 0 0 1-2.85696 8.704 22.3232 22.3232 0 0 1-14.26944 10.68544L341.504 665.87648c-12.59008 3.21536-25.8304-4.54144-29.41952-17.11616L254.86848 292.60288c-2.62656-9.216 0.58368-19.02592 8.04352-24.6528 7.53664-5.66784 17.69984-5.78048 26.0608-0.87552l118.62016 69.30432c133.18144-233.472 318.54592-386.34496 595.81952-151.03488v25.9072l-0.01024-0.03584z m-149.87776 755.70176H179.11808c-82.7648 0-149.8624-67.11296-149.8624-149.86752V217.58976c0-82.7648 67.09248-149.8624 149.8624-149.8624h149.86752v70.25152H179.11808c-41.4208 0-74.93632 33.55648-74.93632 74.93632v608.83456c0 41.40544 33.51552 74.93632 74.93632 74.93632h674.4064c41.34912 0 74.93632-33.51552 74.93632-74.93632V442.39872h74.93632v374.66624c0 82.7648-67.11808 149.8624-149.88288 149.8624l0.01024-0.01024z" p-id="9933"></path></svg>