<?xml version="1.0" standalone="no"?><!DOCTYPE svg PUBLIC "-//W3C//DTD SVG 1.1//EN" "http://www.w3.org/Graphics/SVG/1.1/DTD/svg11.dtd"><svg t="1604302063421" class="icon" viewBox="0 0 1024 1024" version="1.1" xmlns="http://www.w3.org/2000/svg" p-id="3649" xmlns:xlink="http://www.w3.org/1999/xlink" width="200" height="200"><defs><style type="text/css"></style></defs><path d="M654.821053 132.042105s0 2.694737 0 0l-37.726316 51.2c-26.947368-10.778947-56.589474-16.168421-86.231579-16.168421-110.484211 0-220.968421 70.063158-220.968421 185.936842v202.105263l-53.894737 102.4-83.536842 110.484211c-8.084211 0-18.863158-2.694737-21.557895-10.778947-5.389474-5.389474-5.389474-16.168421-2.694737-21.557895L247.915789 538.947368v-191.326315c0-137.431579 126.652632-247.915789 282.947369-247.91579 45.810526 0 88.926316 10.778947 129.347368 26.947369-2.694737 2.694737-2.694737 5.389474-5.389473 5.389473z m78.147368 153.6l43.11579-59.28421c24.252632 35.031579 37.726316 78.147368 37.726315 121.263158V538.947368l99.705263 196.71579c2.694737 8.084211 2.694737 16.168421-2.694736 21.557895-5.389474 5.389474-13.473684 10.778947-21.557895 10.778947h-172.463158c-40.421053 99.705263-110.484211 145.515789-185.936842 145.515789-70.063158 0-134.736842-40.421053-175.157895-123.957894l64.673684-86.231579h404.210527l-75.452632-148.210527v-202.105263c-2.694737-24.252632-8.084211-45.810526-16.168421-67.368421z m-202.105263 563.2c61.978947 0 91.621053-45.810526 107.789474-80.842105h-218.273685c13.473684 32.336842 48.505263 80.842105 110.484211 80.842105zM743.747368 97.010526c10.778947-16.168421 32.336842-18.863158 48.505264-8.08421 16.168421 10.778947 18.863158 32.336842 8.08421 48.505263L237.136842 881.178947c-10.778947 16.168421-32.336842 18.863158-48.505263 8.084211-16.168421-10.778947-18.863158-32.336842-8.084211-48.505263L743.747368 97.010526z" p-id="3650"></path></svg>