<?xml version="1.0" standalone="no"?><!DOCTYPE svg PUBLIC "-//W3C//DTD SVG 1.1//EN" "http://www.w3.org/Graphics/SVG/1.1/DTD/svg11.dtd"><svg t="1604302078041" class="icon" viewBox="0 0 1024 1024" version="1.1" xmlns="http://www.w3.org/2000/svg" p-id="3790" xmlns:xlink="http://www.w3.org/1999/xlink" width="200" height="200"><defs><style type="text/css"></style></defs><path d="M310.84088853 151.552L245.76 86.47111147C136.53333333 169.7564448 64.62577813 298.09777813 58.25422187 443.73333333h91.02222293a384.34133333 384.34133333 0 0 1 161.56444373-292.18133333z m563.88266667 292.18133333h91.02222293c-6.82666667-145.6355552-78.73422187-273.97688853-187.50577813-357.26222186l-64.62577813 65.08088853a386.61688853 386.61688853 0 0 1 161.10933333 292.18133333zM785.06666667 466.48888853c0-139.71911147-74.63822187-256.68266667-204.8-287.63022186V147.91111147c0-37.77422187-30.4924448-68.26666667-68.26666667-68.26666667s-68.26666667 30.4924448-68.26666667 68.26666667v30.9475552C313.1164448 209.80622187 238.93333333 326.31466667 238.93333333 466.48888853v227.55555627l-91.02222186 91.02222187v45.51111146h728.17777706v-45.51111146l-91.02222186-91.02222187v-227.55555627z m-273.06666667 500.62222294c6.3715552 0 12.288-0.45511147 18.2044448-1.8204448 29.58222187-6.3715552 53.70311147-26.3964448 65.536-53.70311147 4.55111147-10.92266667 6.82666667-22.7555552 6.82666667-35.49866667h-182.0444448c0.45511147 50.06222187 40.96 91.02222187 91.47733333 91.02222294z" p-id="3791"></path></svg>