<?xml version="1.0" standalone="no"?><!DOCTYPE svg PUBLIC "-//W3C//DTD SVG 1.1//EN" "http://www.w3.org/Graphics/SVG/1.1/DTD/svg11.dtd"><svg t="1603949429530" class="icon" viewBox="0 0 1024 1024" version="1.1" xmlns="http://www.w3.org/2000/svg" p-id="10197" xmlns:xlink="http://www.w3.org/1999/xlink" width="200" height="200"><defs><style type="text/css"></style></defs><path d="M166.4 512c0-72.96 59.306667-132.266667 132.266667-132.266667h170.666666V298.666667h-170.666666C180.906667 298.666667 85.333333 394.24 85.333333 512s95.573333 213.333333 213.333334 213.333333h170.666666v-81.066666h-170.666666c-72.96 0-132.266667-59.306667-132.266667-132.266667z m174.933333 42.666667h341.333334v-85.333334H341.333333v85.333334z m384-256h-170.666666v81.066666h170.666666c72.96 0 132.266667 59.306667 132.266667 132.266667s-59.306667 132.266667-132.266667 132.266667h-170.666666V725.333333h170.666666c117.76 0 213.333333-95.573333 213.333334-213.333333s-95.573333-213.333333-213.333334-213.333333z" p-id="10198"></path></svg>