<?xml version="1.0" standalone="no"?><!DOCTYPE svg PUBLIC "-//W3C//DTD SVG 1.1//EN" "http://www.w3.org/Graphics/SVG/1.1/DTD/svg11.dtd"><svg t="1603946332190" class="icon" viewBox="0 0 1024 1024" version="1.1" xmlns="http://www.w3.org/2000/svg" p-id="11564" xmlns:xlink="http://www.w3.org/1999/xlink" width="200" height="200"><defs><style type="text/css"></style></defs><path d="M873.6 0a41.6 41.6 0 0 1 41.6 41.6V320H832V83.2H147.2V896l108.8-0.064v83.2L105.6 979.2a41.6 41.6 0 0 1-41.152-35.456L64 937.6v-896A41.6 41.6 0 0 1 99.456 0.448L105.6 0h768z" p-id="11565"></path><path d="M201.6 256v64h209.792V256zM201.6 416v64h323.84v-64z" p-id="11566"></path><path d="M578.944 761.088a31.936 31.936 0 1 0 40-49.92c-42.304-33.92-29.184-74.56-22.656-88.832l181.184-166.464c46.528-20.16 71.104 4.864 76.416 11.136 41.6 46.848 16.96 82.688 9.664 91.328l-94.72 80.96a32 32 0 0 0 41.6 48.64l96.384-82.368a25.152 25.152 0 0 0 2.56-2.432c26.88-28.544 59.904-102.592-6.464-177.344-20.16-25.216-78.848-63.168-157.056-25.792a32.128 32.128 0 0 0-7.872 5.312L548.8 579.2a32 32 0 0 0-6.208 7.68c-19.648 34.56-37.312 115.328 36.352 174.272z" p-id="11567"></path><path d="M451.328 992.32c19.52 0 41.28-4.416 64.832-15.616a32.128 32.128 0 0 0 7.872-5.312l189.184-173.824a31.808 31.808 0 0 0 6.144-7.68c19.648-34.56 37.312-115.264-36.352-174.272a32 32 0 0 0-40 49.92c42.368 33.92 29.248 74.56 22.656 88.832l-181.12 166.4c-46.528 20.16-71.168-4.864-76.48-11.072-41.6-46.848-16.896-82.688-9.6-91.392l94.72-80.96a32 32 0 1 0-41.6-48.64L355.2 771.072a29.568 29.568 0 0 0-2.56 2.432c-26.88 28.544-59.904 102.592 6.528 177.344 14.08 17.728 47.04 41.472 92.224 41.472z" p-id="11568"></path></svg>