<?xml version="1.0" standalone="no"?><!DOCTYPE svg PUBLIC "-//W3C//DTD SVG 1.1//EN" "http://www.w3.org/Graphics/SVG/1.1/DTD/svg11.dtd"><svg t="1603868461224" class="icon" viewBox="0 0 1228 1024" version="1.1" xmlns="http://www.w3.org/2000/svg" p-id="6625" xmlns:xlink="http://www.w3.org/1999/xlink" width="239.84375" height="200"><defs><style type="text/css"></style></defs><path d="M1146.931 1024H490.496c-47.462 0-81.715-39.578-81.715-84.48v-512c-2.663-50.125 34.304-92.365 81.715-100.25H614.4c23.706 2.612 39.526 23.757 39.526 44.852 0 18.432-13.158 34.304-31.641 34.304H490.496V939.57h656.384V409.088H941.26c-23.756 0-42.188-2.662-42.188-26.42 0-26.367 15.82-50.175 42.189-55.398h205.619c44.851 0 81.715 34.304 81.715 79.156V939.57c2.663 47.463-34.253 84.429-81.715 84.429zM738.355 696.73H614.4a41.677 41.677 0 0 1-42.189-42.19c0-23.756 18.432-42.24 42.189-42.24h123.904V81.819H81.92v533.094h205.62c23.756 0 42.188 18.483 42.188 42.24s-18.432 42.24-42.189 42.24H81.92C34.406 691.456-2.56 649.216 0.154 599.04V84.429C-2.56 36.966 34.406 0 81.869 0h656.435c47.462 0 81.715 39.578 81.715 84.48v512c0 50.125-34.304 92.365-81.715 100.25z" p-id="6626"></path></svg>