<?xml version="1.0" standalone="no"?><!DOCTYPE svg PUBLIC "-//W3C//DTD SVG 1.1//EN" "http://www.w3.org/Graphics/SVG/1.1/DTD/svg11.dtd"><svg t="1604414476588" class="icon" viewBox="0 0 1024 1024" version="1.1" xmlns="http://www.w3.org/2000/svg" p-id="4257" xmlns:xlink="http://www.w3.org/1999/xlink" width="200" height="200"><defs><style type="text/css"></style></defs><path d="M556.942155 590.390308c-83.194679 1.216296-156.902245 26.636893-221.730847 77.113196C270.382706 718.223067 227.933959 783.538187 209.202993 864.908421c-4.865186-14.717187-10.581779-29.191115-14.352298-44.151562-35.759116-143.644613-4.257038-269.896187 100.830978-375.227462 58.382231-58.50386 130.386982-91.465495 212.243734-102.412163 13.987409-1.946074 28.218078-2.310963 42.448747-2.797482 5.351704-0.12163 6.81126-1.581185 6.81126-6.93289-0.243259-47.678822-0.12163-95.236014-0.12163-142.914835 0-3.892149 0-7.784297 0.851408-11.433187 2.432593-9.852001 8.392446-16.541632 18.366077-18.974225 9.608742-2.432593 17.636299 0.851408 24.08267 7.905927 16.298373 17.757928 32.475116 35.637487 48.651859 53.517045 66.653047 73.342677 133.306093 146.685355 199.95914 220.028032 11.676446 12.892743 11.798076 29.677634 0 42.692006-81.613493 89.884309-163.105357 179.768619-244.96211 269.531298-4.743556 5.108445-11.189928 9.730372-17.757928 11.919705-13.257632 4.378667-30.042523-8.878964-29.312745-22.014966 0.486519-9.243853 0-18.609336 0-27.974819 0-38.921487 0-77.842974 0-116.764461C556.942155 596.228531 556.942155 593.917567 556.942155 590.390308z" p-id="4258"></path></svg>