<?xml version="1.0" standalone="no"?><!DOCTYPE svg PUBLIC "-//W3C//DTD SVG 1.1//EN" "http://www.w3.org/Graphics/SVG/1.1/DTD/svg11.dtd"><svg t="1604326288416" class="icon" viewBox="0 0 1024 1024" version="1.1" xmlns="http://www.w3.org/2000/svg" p-id="4527" xmlns:xlink="http://www.w3.org/1999/xlink" width="200" height="200"><defs><style type="text/css"></style></defs><path d="M881.664 973.824H142.336c-49.664 0-94.72-25.6-119.296-69.12-24.576-43.52-24.576-94.72 0-137.216l369.664-640c24.576-42.496 69.12-69.12 119.296-69.12s94.72 25.6 119.296 69.12l369.664 640c24.576 42.496 24.576 94.72 0 137.216s-70.144 69.12-119.296 69.12zM459.264 165.376l-369.664 640c-11.264 18.432-11.264 41.984 0 60.416 11.264 18.944 30.72 30.72 52.736 30.72h738.816c22.016 0 41.984-11.264 52.736-30.72 11.264-18.944 11.264-41.984 0-60.416l-369.664-640c-11.264-18.944-30.72-30.72-52.736-30.72s-41.472 12.288-52.224 30.72z" p-id="4528"></path><path d="M512 644.096c-16.896 0-30.72-12.8-31.744-29.696l-12.8-221.696c-1.536-25.6 18.944-47.104 44.544-47.104s46.08 21.504 44.544 47.104l-12.8 221.696c-1.024 16.896-14.848 29.696-31.744 29.696zM460.8 751.104c0 28.16 23.04 51.2 51.2 51.2s51.2-23.04 51.2-51.2-23.04-51.2-51.2-51.2-51.2 22.528-51.2 51.2z" p-id="4529"></path></svg>