<?xml version="1.0" standalone="no"?><!DOCTYPE svg PUBLIC "-//W3C//DTD SVG 1.1//EN" "http://www.w3.org/Graphics/SVG/1.1/DTD/svg11.dtd"><svg t="1619320834796" class="icon" viewBox="0 0 1125 1024" version="1.1" xmlns="http://www.w3.org/2000/svg" p-id="4643" xmlns:xlink="http://www.w3.org/1999/xlink" width="219.7265625" height="200"><defs><style type="text/css"></style></defs><path d="M938.138307 1023.996742H186.481911a184.271947 184.271947 0 0 1-161.232135-93.090148 184.225402 184.225402 0 0 1 0-186.180294l375.804925-651.631033a184.271947 184.271947 0 0 1 161.278681-93.090147 184.318492 184.318492 0 0 1 161.27868 93.090147l375.804925 651.631033a184.318492 184.318492 0 0 1 0 186.180294 184.318492 184.318492 0 0 1-161.27868 93.090148z m-375.804925-277.548275a75.5892 75.5892 0 0 0-77.776819 74.937569 75.5892 75.5892 0 0 0 77.776819 74.937569 75.5892 75.5892 0 0 0 77.776818-74.937569 75.5892 75.5892 0 0 0-77.776818-74.937569zM490.747058 195.68061l11.450088 462.006402h120.272471L633.96625 195.68061h-143.172647z" p-id="4644"></path></svg>