<?xml version="1.0" standalone="no"?><!DOCTYPE svg PUBLIC "-//W3C//DTD SVG 1.1//EN" "http://www.w3.org/Graphics/SVG/1.1/DTD/svg11.dtd"><svg t="1606738981124" class="icon" viewBox="0 0 1024 1024" version="1.1" xmlns="http://www.w3.org/2000/svg" p-id="9939" xmlns:xlink="http://www.w3.org/1999/xlink" width="200" height="200"><defs><style type="text/css"></style></defs><path d="M879.12 431.64l-305.92-306C554.73 107.17 530.18 97 504.06 97h-309.3C140.86 97 97 140.86 97 194.76v309.41c0 26.13 10.18 50.69 28.66 69.16l306.03 305.82c31.87 31.85 73.73 47.77 115.59 47.77 41.88 0 83.76-15.94 115.63-47.82l216.2-216.21c63.75-63.75 63.75-167.49 0.01-231.25z m-45.27 186l-216.2 216.21c-38.79 38.79-101.92 38.8-140.72 0.03L170.9 528.06c-6.38-6.38-9.9-14.86-9.9-23.89V194.76c0-18.62 15.15-33.76 33.76-33.76h309.3c9.02 0 17.5 3.51 23.88 9.89l305.92 306c38.79 38.81 38.79 101.95-0.01 140.75z" p-id="9940"></path><path d="M362.37 260.98c-48.52 0-88 39.48-88 88s39.48 88 88 88 88-39.48 88-88-39.48-88-88-88z m0 128c-22.06 0-40-17.94-40-40s17.94-40 40-40 40 17.94 40 40-17.95 40-40 40z" p-id="9941"></path></svg>