<svg viewBox="0 0 1300 514" xmlns="http://www.w3.org/2000/svg" xmlns:xlink="http://www.w3.org/1999/xlink"><defs><circle id="a" cx="529.5" cy="283.2" r="23.4"/><clipPath id="b"><use xlink:href="#a"/></clipPath><clipPath id="c"><use xlink:href="#e"/></clipPath><clipPath id="d"><use xlink:href="#f"/></clipPath><circle id="e" cx="1090.5" cy="222.3" r="44.7"/><circle id="f" cx="82.4" cy="236.9" r="20.2"/></defs><g opacity=".5"><g fill="#85b9c9"><circle cx="682.2" cy="204.9" r="1.6"/><circle cx="737.7" cy="257.6" r="1.6"/><circle cx="842.3" cy="294.4" r="1.6"/><circle cx="786.2" cy="338.7" r="1.6"/><circle cx="775.5" cy="281.1" r="1.1"/><circle cx="777.1" cy="242.1" r="1.6"/><circle cx="517.3" cy="221.1" r="1.6"/><circle cx="477" cy="275.9" r="1.6"/><circle cx="592.3" cy="277.5" r="1.6"/><circle cx="623.5" cy="352.9" r="1.6"/><circle cx="589.6" cy="379.5" r="1.6"/><circle cx="301.3" cy="280.7" r="1.6"/><circle cx="658.8" cy="266" r="1.6"/><circle cx="761.7" cy="197.2" r="1.1"/><circle cx="554.7" cy="345.3" r="1.1"/><circle cx="500.6" cy="376.8" r="1.1"/><circle cx="701.5" cy="284.5" r="1.1"/><circle cx="478.1" cy="201.6" r="1.1"/><circle cx="442.7" cy="224.8" r="1.6"/><circle cx="627.9" cy="232.5" r="1.1"/><circle cx="654.7" cy="304.5" r="1.1"/><circle cx="689.4" cy="371.3" r="1.1"/><circle cx="480.4" cy="335.7" r="1.1"/><circle cx="221.7" cy="359.8" r="1.1"/><circle cx="418.3" cy="296.2" r="1.1"/><circle cx="724.3" cy="330.6" r="1.1"/><circle cx="908.5" cy="236.9" r="1.6"/><circle cx="970.3" cy="316.1" r="1.6"/><circle cx="896.5" cy="337.1" r="1.6"/><circle cx="1053.2" cy="216.8" r="1.6"/><circle cx="929.3" cy="279.1" r="1.1"/><circle cx="978.5" cy="217.9" r="1.1"/><circle cx="1019.2" cy="356.6" r="1.1"/><circle cx="826.2" cy="351.4" r="1.1"/><circle cx="244.5" cy="251" r="1.1"/><circle cx="823.6" cy="206.5" r="1.1"/><circle cx="892" cy="286.7" r="1.1"/><circle cx="403.4" cy="217.9" r="1.1"/><circle cx="411.9" cy="161.8" r="1.1"/><circle cx="338.4" cy="257" r="1.1"/><circle cx="352.9" cy="373" r="1.1"/><circle cx="341.1" cy="219.5" r="1.6"/><circle cx="392.5" cy="254.1" r="1.6"/><circle cx="193" cy="262.8" r="1.6"/><circle cx="416.7" cy="358.2" r="1.6"/><circle cx="381.9" cy="330" r="1.6"/><circle cx="338.4" cy="300.3" r="1.6"/><circle cx="533.1" cy="295" r="1.1"/><circle cx="277.6" cy="215.2" r="1.1"/><circle cx="560.5" cy="204.9" r="1.1"/><circle cx="726" cy="1.5" r="1.6"/><circle cx="781.5" cy="54.3" r="1.6"/><circle cx="886.1" cy="91" r="1.6"/><circle cx="930.9" cy="127.2" r="1.6"/><circle cx="830" cy="135.3" r="1.6"/><circle cx="819.3" cy="77.7" r="1.1"/><circle cx="820.9" cy="38.7" r="1.6"/><circle cx="888.1" cy="36.1" r="1.6"/><circle cx="561.1" cy="17.8" r="1.6"/><circle cx="599.6" cy="49.6" r="1.6"/><circle cx="694.8" cy="140.3" r="1.6"/><circle cx="633.4" cy="176.1" r="1.6"/><circle cx="356.4" cy="183.7" r="1.6"/><circle cx="724.4" cy="40.3" r="1.6"/><circle cx="776.2" cy="19.4" r="1.1"/><circle cx="818.2" cy="-26" r="1.1"/><circle cx="598.5" cy="141.9" r="1.1"/><circle cx="544.4" cy="173.4" r="1.1"/><circle cx="745.3" cy="81.1" r="1.1"/><circle cx="521.9" cy="-1.7" r="1.1"/><circle cx="486.5" cy="21.4" r="1.6"/><circle cx="484.9" cy="-45" r="1.6"/><circle cx="671.7" cy="29.2" r="1.1"/><circle cx="644.1" cy="115.6" r="1.1"/><circle cx="733.2" cy="167.9" r="1.1"/><circle cx="524.2" cy="132.3" r="1.1"/><circle cx="252.8" cy="139.8" r="1.1"/><circle cx="462.1" cy="92.8" r="1.1"/><circle cx="768" cy="127.2" r="1.1"/><circle cx="952.3" cy="33.6" r="1.6"/><circle cx="944.9" cy="-.3" r="1.6"/><circle cx="1014.1" cy="112.7" r="1.6"/><circle cx="959.6" cy="170.7" r="1.6"/><circle cx="1097" cy="13.4" r="1.6"/><circle cx="1098.6" cy="86.6" r="1.6"/><circle cx="984.6" cy="59" r="1.1"/><circle cx="1022.3" cy="14.5" r="1.1"/><circle cx="1054.8" cy="59.4" r="1.1"/><circle cx="1063" cy="153.2" r="1.1"/><circle cx="853.1" cy="173.4" r="1.1"/><circle cx="288.3" cy="47.6" r="1.1"/><circle cx="238.4" cy="14.5" r="1.1"/><circle cx="867.4" cy="3.1" r="1.1"/><circle cx="917.5" cy="63.2" r="1.1"/><circle cx="447.2" cy="14.5" r="1.1"/><circle cx="382.2" cy="53.7" r="1.1"/><circle cx="384.9" cy="16.2" r="1.6"/><circle cx="413.5" cy="-7.3" r="1.6"/><circle cx="436.3" cy="50.7" r="1.6"/><circle cx="335.8" cy="-37.9" r="1.6"/><circle cx="236.8" cy="59.4" r="1.6"/><circle cx="460.5" cy="154.8" r="1.6"/><circle cx="424.1" cy="117.2" r="1.6"/><circle cx="576.9" cy="91.7" r="1.1"/><circle cx="321.4" cy="11.8" r="1.1"/><circle cx="235.2" cy="-27.6" r="1.1"/><circle cx="604.2" cy="1.5" r="1.1"/><circle cx="220.6" cy="201.6" r="1.6"/><circle cx="119.8" cy="329.8" r="1.6"/><circle cx="83" cy="434.4" r="1.6"/><circle cx="38.8" cy="378.3" r="1.6"/><circle cx="96.3" cy="367.6" r="1.1"/><circle cx="-28.2" cy="336.8" r="1.1"/><circle cx="135.4" cy="369.2" r="1.6"/><circle cx="156.3" cy="109.4" r="1.6"/><circle cx="229.8" cy="105.1" r="1.6"/><circle cx="99.9" cy="184.3" r="1.6"/><circle cx="33.7" cy="243.1" r="1.6"/><circle cx="-2.1" cy="181.7" r="1.6"/><circle cx="133.8" cy="272.7" r="1.6"/><circle cx="154.7" cy="324.5" r="1.1"/><circle cx="32.1" cy="146.7" r="1.1"/><circle cx=".7" cy="92.7" r="1.1"/><circle cx="-25.9" cy="41.9" r="1.1"/><circle cx="88" cy="301.9" r="1.1"/><circle cx="175.8" cy="70.2" r="1.1"/><circle cx="152.7" cy="34.8" r="1.6"/><circle cx="144.9" cy="220" r="1.1"/><circle cx="58.5" cy="192.4" r="1.1"/><circle cx="6.1" cy="281.5" r="1.1"/><circle cx="-29.3" cy="136.9" r="1.1"/><circle cx="41.7" cy="72.4" r="1.1"/><circle cx="-25.9" cy="465.7" r="1.1"/><circle cx="81.3" cy="10.4" r="1.1"/><circle cx="46.9" cy="316.3" r="1.1"/><circle cx="176.9" cy="519.5" r="1.6"/><circle cx="3.4" cy="507.9" r="1.6"/><circle cx="115.1" cy="532.9" r="1.1"/><circle cx=".7" cy="401.3" r="1.1"/><circle cx="121.9" cy="428.6" r="1.1"/><circle cx="110.8" cy="465.8" r="1.1"/><circle cx="35.3" cy="440.2" r="1.1"/><circle cx="62.9" cy="491.5" r="1.1"/><circle cx="159.5" cy="-4.5" r="1.1"/><circle cx="123.4" cy="-15.4" r="1.6"/><circle cx="19.2" cy="8.8" r="1.6"/><circle cx="56.9" cy="-27.6" r="1.6"/><circle cx="82.4" cy="125.2" r="1.1"/><circle cx="172.6" cy="152.5" r="1.1"/><circle cx="1339.3" cy="227.3" r="1.6"/><circle cx="1238.5" cy="355.5" r="1.6"/><circle cx="1201.8" cy="460.1" r="1.6"/><circle cx="1135.2" cy="485.6" r="1.6"/><circle cx="1157.5" cy="404" r="1.6"/><circle cx="1074.2" cy="506.3" r="1.6"/><circle cx="1100.2" cy="363.2" r="1.6"/><circle cx="996.2" cy="267" r="1.6"/><circle cx="1215.1" cy="393.3" r="1.1"/><circle cx="1254.1" cy="394.9" r="1.6"/><circle cx="1002.6" cy="479.3" r="1.6"/><circle cx="1275" cy="135.1" r="1.6"/><circle cx="1218.6" cy="210" r="1.6"/><circle cx="1200.4" cy="262.2" r="1.6"/><circle cx="1116.7" cy="207.4" r="1.6"/><circle cx="1252.5" cy="298.4" r="1.6"/><circle cx="1273.4" cy="350.2" r="1.1"/><circle cx="1150.9" cy="172.4" r="1.1"/><circle cx="1119.4" cy="118.4" r="1.1"/><circle cx="1211.7" cy="319.3" r="1.1"/><circle cx="1294.5" cy="95.9" r="1.1"/><circle cx="1271.4" cy="60.5" r="1.6"/><circle cx="1263.6" cy="245.7" r="1.1"/><circle cx="1177.2" cy="218.1" r="1.1"/><circle cx="1124.9" cy="307.1" r="1.1"/><circle cx="1051.6" cy="303.1" r="1.1"/><circle cx="1160.5" cy="98.1" r="1.1"/><circle cx="1200" cy="36.1" r="1.1"/><circle cx="1165.6" cy="342" r="1.1"/><circle cx="1082.3" cy="461.7" r="1.1"/><circle cx="1295.6" cy="545.2" r="1.6"/><circle cx="1122.1" cy="533.6" r="1.6"/><circle cx="1111.3" cy="406.5" r="1.1"/><circle cx="1289.7" cy="441.3" r="1.1"/><circle cx="1229.6" cy="491.5" r="1.1"/><circle cx="1278.3" cy="21.2" r="1.1"/><circle cx="1239.1" cy="-43.8" r="1.1"/><circle cx="1276.6" cy="-41.1" r="1.6"/><circle cx="1242.1" cy="10.3" r="1.6"/><circle cx="1138" cy="34.5" r="1.6"/><circle cx="1175.6" cy="-1.9" r="1.6"/><circle cx="1201.1" cy="150.9" r="1.1"/><circle cx="1291.3" cy="178.2" r="1.1"/><circle cx="664.5" cy="408.2" r="1.6"/><circle cx="720" cy="461" r="1.6"/><circle cx="824.6" cy="497.8" r="1.6"/><circle cx="768.5" cy="542" r="1.6"/><circle cx="757.8" cy="484.5" r="1.1"/><circle cx="759.4" cy="445.4" r="1.6"/><circle cx="499.6" cy="424.5" r="1.6"/><circle cx="574.5" cy="480.9" r="1.6"/><circle cx="633.3" cy="547.1" r="1.6"/><circle cx="662.9" cy="447" r="1.6"/><circle cx="872.2" cy="394.3" r="1.1"/><circle cx="536.9" cy="548.7" r="1.1"/><circle cx="683.8" cy="487.8" r="1.1"/><circle cx="460.4" cy="405" r="1.1"/><circle cx="425" cy="428.1" r="1.6"/><circle cx="610.2" cy="435.9" r="1.1"/><circle cx="582.6" cy="522.3" r="1.1"/><circle cx="462.6" cy="539.1" r="1.1"/><circle cx="400.6" cy="499.5" r="1.1"/><circle cx="706.5" cy="533.9" r="1.1"/><circle cx="890.8" cy="440.3" r="1.6"/><circle cx="952.5" cy="519.5" r="1.6"/><circle cx="1035.4" cy="420.2" r="1.6"/><circle cx="923.1" cy="465.7" r="1.1"/><circle cx="960.8" cy="421.3" r="1.1"/><circle cx="226.8" cy="454.4" r="1.1"/><circle cx="782.5" cy="402.3" r="1.1"/><circle cx="856" cy="470" r="1.1"/><circle cx="385.7" cy="421.3" r="1.1"/><circle cx="320.7" cy="460.4" r="1.1"/><circle cx="277.8" cy="471.1" r="1.1"/><circle cx="323.4" cy="422.9" r="1.6"/><circle cx="243.4" cy="500.7" r="1.6"/><circle cx="374.8" cy="457.4" r="1.6"/><circle cx="327.9" cy="510" r="1.6"/><circle cx="175.3" cy="466.1" r="1.6"/><circle cx="362.6" cy="523.9" r="1.6"/><circle cx="515.4" cy="498.4" r="1.1"/><circle cx="259.8" cy="418.5" r="1.1"/><circle cx="542.7" cy="408.2" r="1.1"/></g><circle cx="342.3" cy="118.4" fill="#4c677b" r="35.8"/><path d="m351.3 84.5c-8.5-.1-18.7 8-16.1 17.4 1.4 5 5.4 6.5 9.3 9.1 3 2 4.9 4.6 6.5 7.8 4.4 8.8 11.7 16.4 22.5 13.5.7-.2 1.4-.4 2-.7 1.6-4.1 2.5-8.5 2.5-13.1 0-16.2-10.7-29.9-25.5-34.3-.2.1-.6.3-1.2.3z" fill="#729eaf" opacity=".3"/><path d="m358 143c-3.3-1.8-6.1-4.5-7.9-7.7-2.4-4.1-3.1-9-5.6-13.1-5.1-8.1-15.7-12.4-17.1-22.8-1-7.7 3.4-12.7 9.2-16.5-9.7 1.5-18.1 7-23.6 14.7-1.7 4.5-3.4 9.6.1 13.7 2.9 3.4 7.6 5 11.6 6.5 6.5 2.5 12.6 5.1 16.2 11.4 1.8 3.1 2.5 6.4 2.7 9.8v.5c.3 4.3 0 9.9 3.7 12.9.4.4.9.7 1.4 1 6.3-1.2 11.9-4 16.6-7.9-2.5-.3-5-1.2-7.3-2.5z" fill="#729eaf" opacity=".3"/><path d="m316 131.7c2.7 1 5.6 1.2 8.3 2.2 3.9 1.4 6.4 4.3 7.9 8.1 1.2 3.1 1.6 7.4 2.5 11.4 2.4.5 4.9.8 7.5.8h1.1c-3-3.7-3-8.9-3.5-13.9 0-.1-.1-.1-.1-.2-1.7-5.8-4.1-10.1-9.7-12.7-3.7-1.7-7.7-2.6-11.5-3.9-5.2-1.8-9.5-4.5-11.9-8.8-.1 1.3-.2 2.5-.2 3.8 0 3 .4 5.8 1 8.6 2.8 1.6 5.6 3.5 8.6 4.6z" fill="#729eaf" opacity=".3"/><path d="m326.6 124.5c-7.2-18.4-6.1-36.1 2.5-39.5-13.3 5.2-22.7 18.2-22.7 33.3 0 19.8 16 35.8 35.8 35.8 4.6 0 9-.9 13.1-2.5-8.6 3.5-21.4-8.7-28.7-27.1z" fill="#263147" opacity=".5"/><path d="m329.2 85s-.1 0 0 0zm26.1 66.7s.1 0 0 0z" fill="#808080"/><circle cx="306.4" cy="117.1" fill="#263147" r="5.4"/><circle cx="308.7" cy="113.2" fill="#e3925d" r="5.4"/><path d="m313.9 111.7c-.9-2.9-3.9-4.5-6.7-3.7 1-.3 2.6 1.8 3.4 4.6.9 2.9.7 5.5-.3 5.8 2.8-.8 4.5-3.9 3.6-6.7z" fill="#f5c16e"/><path d="m310.6 112.7c-.9-2.9-2.4-5-3.4-4.6-1 .3-1.2 2.9-.3 5.8s2.4 5 3.4 4.6 1.2-3 .3-5.8z" fill="#f5c16e"/><circle cx="1296.4" cy="351.3" fill="#4c677b" r="25"/><path d="m1274.3 340.8c-1.1 5.9 3.1 13.8 9.9 13.2 3.6-.3 5.2-2.9 7.4-5.2 1.7-1.8 3.8-2.8 6.2-3.5 6.6-1.9 12.7-6 12.1-13.8 0-.5-.1-1-.2-1.5-2.6-1.6-5.5-2.8-8.7-3.4-11.1-2-21.9 3.6-26.8 13.2.1.3.2.6.1 1z" fill="#729eaf" opacity=".3"/><path d="m1315.3 343.5c-1.7 2-3.8 3.6-6.3 4.5-3.1 1.1-6.6 1-9.7 2.2-6.2 2.5-10.5 9.2-17.8 8.9-5.4-.3-8.3-4-10.2-8.4-.2 6.9 2.5 13.3 7.1 18.1 2.9 1.7 6.2 3.5 9.4 1.7 2.7-1.5 4.4-4.6 5.9-7.2 2.5-4.2 5.1-8 9.9-9.7 2.3-.8 4.7-.9 7.1-.7h.4c3 .3 6.8 1.3 9.3-.9.3-.3.6-.5.9-.9 0-4.4-1.2-8.7-3.4-12.4-.5 1.8-1.4 3.4-2.6 4.8z" fill="#729eaf" opacity=".3"/><path d="m1302.3 371c1-1.7 1.5-3.7 2.5-5.4 1.5-2.5 3.8-3.9 6.6-4.4 2.3-.4 5.3-.2 8.1-.3.7-1.6 1.2-3.3 1.5-5 0-.3.1-.5.1-.8-3 1.6-6.5 1-10 .7h-.2c-4.2.4-7.5 1.6-10 5-1.7 2.3-2.8 5-4.2 7.4-1.9 3.3-4.3 5.9-7.5 7.1.8.2 1.7.5 2.6.6 2 .4 4 .5 6 .4 1.7-1.7 3.3-3.4 4.5-5.3z" fill="#729eaf" opacity=".3"/><path d="m1285.5 355.6c-5-12.8-4.3-25.2 1.7-27.6-9.3 3.7-15.9 12.7-15.9 23.3 0 13.8 11.2 25 25 25 3.2 0 6.3-.6 9.1-1.7-5.9 2.3-14.9-6.2-19.9-19z" fill="#263147" opacity=".5"/><path d="m1305.5 374.6s.1 0 0 0z" fill="#808080"/><circle cx="-8.5" cy="359" fill="#4c677b" r="25"/><path d="m-30.6 348.5c-1.1 5.9 3.1 13.8 9.9 13.2 3.6-.3 5.2-2.9 7.4-5.2 1.7-1.8 3.8-2.8 6.2-3.5 6.6-1.9 12.7-6 12.1-13.8 0-.5-.1-1-.2-1.5-2.6-1.6-5.5-2.8-8.7-3.4-11.1-2-21.9 3.6-26.8 13.2.1.3.2.6.1 1z" fill="#729eaf" opacity=".3"/><path d="m10.5 351.3c-1.7 2-3.8 3.6-6.3 4.5-3.1 1.1-6.6 1-9.7 2.2-6.2 2.5-10.5 9.2-17.8 8.9-5.4-.3-8.3-4-10.2-8.4-.2 6.9 2.5 13.3 7.1 18.1 2.9 1.7 6.2 3.5 9.4 1.7 2.7-1.5 4.4-4.6 6-7.2 2.5-4.2 5.1-8 9.9-9.7 2.3-.8 4.7-.9 7.1-.7h.4c3 .3 6.8 1.3 9.3-.9.3-.3.6-.5.9-.9 0-4.4-1.2-8.7-3.4-12.4-.7 1.7-1.6 3.3-2.7 4.8z" fill="#729eaf" opacity=".3"/><path d="m-2.6 378.7c1-1.7 1.5-3.7 2.5-5.4 1.5-2.5 3.8-3.9 6.6-4.4 2.3-.4 5.3-.2 8.1-.3.7-1.6 1.2-3.3 1.5-5 0-.3.1-.5.1-.8-3 1.6-6.5 1-10 .7h-.2c-4.2.4-7.5 1.6-10 5-1.7 2.3-2.8 5-4.2 7.4-1.9 3.3-4.3 5.9-7.5 7.1.8.2 1.7.5 2.6.6 2 .4 4 .5 6 .4 1.7-1.7 3.4-3.4 4.5-5.3z" fill="#729eaf" opacity=".3"/><path d="m-19.4 363.3c-5-12.8-4.3-25.2 1.7-27.6-9.3 3.7-15.9 12.7-15.9 23.3 0 13.8 11.2 25 25 25 3.2 0 6.3-.6 9.1-1.7-5.9 2.3-14.8-6.2-19.9-19z" fill="#263147" opacity=".5"/><path d="m1122.4 346.5c.1 2.8 3.9 4.9 8.4 4.6 4.5-.2 8-2.7 7.9-5.5s-3.9-5.7-8.4-5.4-8.1 3.5-7.9 6.3z" fill="#4c677b"/><path d="m1109.5 350.9c-.2-4.3 9.1-7.1 20.8-7.7s21.3 1.4 21.5 5.5c.2 3.2-9.2 6.2-20.9 6.8-11.6.6-21.2-1.5-21.4-4.6z" fill="#5f8395"/><ellipse cx="1130.7" cy="349.8" fill="#394c61" rx="21.2" ry="5.7" transform="matrix(.9986 -.0524 .0524 .9986 -16.774 59.728)"/><ellipse cx="1130.8" cy="350.6" fill="#85b9c9" rx="6.8" ry="1.6" transform="matrix(.9986 -.0524 .0524 .9986 -16.818 59.732)"/><use fill="#4c677b" xlink:href="#a"/><circle clip-path="url(#b)" cx="529.5" cy="283.2" fill="#4c677b" r="23.4"/><g clip-path="url(#b)"><path d="m505.8 279.5-.3-1.1c.1 0 14.7-4 17.4-18.7l1.1.2c-2.8 15.4-18 19.6-18.2 19.6z" fill="#263147" opacity=".5"/><path d="m546.8 271.6c-1.6 0-3-.4-4.2-1.2-4.4-2.8-5.2-9.5-5.2-9.8l1.2-.1c0 .1.8 6.4 4.7 9 1.8 1.2 4.1 1.3 6.7.5l.4 1.1c-1.4.3-2.5.5-3.6.5z" fill="#4c677b" opacity=".5"/><g fill="#263147"><path d="m552.8 281.1c-3 0-13.3-.4-19.1-5.9-6.8-6.4-4.4-16-4.3-16.4l1.1.3c0 .1-2.3 9.3 4 15.2 6.4 6 18.9 5.6 19 5.6v1.2zm-46.5 7.9-.8-.9c.3-.3 8.4-7.5 21.3-6.2 4.1.4 7.8 1.2 11 2 7 1.6 12.1 2.7 15.5-1.1l.9.8c-3.9 4.2-9.5 3-16.7 1.4-3.2-.7-6.9-1.5-10.9-1.9-12.3-1.3-20.3 5.8-20.3 5.9zm7.8 12.7c-.7 0-1.1-.1-1.2-.1l.3-1.1s4.8 1 13-4.8c9.4-6.6 19.3-5.4 25.9-3.9l-.3 1.1c-6.4-1.5-15.9-2.7-25 3.7-6.3 4.5-10.7 5.1-12.7 5.1z" opacity=".5"/><path d="m523.3 307.2-.4-1.1s2.3-.8 4.9-3.7c4.6-5 10.9-6.1 19.9-3.5l-.3 1.1c-8.6-2.5-14.4-1.6-18.7 3.2-2.9 3-5.3 3.9-5.4 4z" opacity=".5"/></g></g><path d="m521 285.7c-3.6-12.4-2.6-23.6 2.1-24.9-12.4 3.6-19.6 16.5-16 29 3.6 12.4 16.5 19.6 29 16-4.8 1.3-11.5-7.7-15.1-20.1z" fill="#263147" opacity=".5"/><use fill="#4c677b" xlink:href="#e"/><circle clip-path="url(#c)" cx="1090.5" cy="222.3" fill="#4c677b" r="44.7"/><g clip-path="url(#c)"><path d="m1135.4 231.8.5 2.2c-.3.1-28.4 6.2-35.2 34.1l-2.2-.5c7.1-29.3 36.6-35.8 36.9-35.8z" fill="#5f8395"/><path d="m1056.3 242.8c3 .2 5.7 1.1 8 2.8 8.1 5.8 9 18.7 9 19.3l-2.2.1c0-.1-.8-12.4-8.1-17.6-3.4-2.4-7.7-3-12.8-1.6l-.6-2.2c2.4-.7 4.6-.9 6.7-.8z" fill="#4c677b" opacity=".5"/><g fill="#5f8395"><path d="m1045.8 223.9c5.7.3 25.3 2.1 35.8 13.2 12.3 13 6.8 30.9 6.6 31.7l-2.1-.7c.1-.2 5.3-17.5-6.1-29.5-11.5-12.1-35.6-12.6-35.8-12.6v-2.2c.2.1.7.1 1.6.1zm89.7-10.3 1.4 1.7c-.7.6-16.7 13.6-41.3 9.7-7.7-1.2-14.7-3.2-20.9-4.9-13.2-3.7-22.8-6.3-29.8.5l-1.6-1.6c7.9-7.7 18.5-4.8 32-1 6.1 1.7 13 3.6 20.6 4.8 23.6 3.7 39.5-9 39.6-9.2zm-13.7-25c1.4.1 2.2.3 2.3.3l-.6 2.2c-.1 0-9-2.3-25.4 7.9-18.7 11.7-37.4 8.3-49.9 4.7l.6-2.2c12.1 3.4 30.2 6.7 48.1-4.5 12.7-7.9 21.1-8.6 24.9-8.4z"/><path d="m1104.8 177.2.6 2.1s-4.4 1.4-9.7 6.6c-9.3 9.1-21.5 10.6-38.4 4.7l.7-2.1c16.2 5.7 27.3 4.4 36.1-4.1 5.8-5.7 10.5-7.2 10.7-7.2z"/></g></g><path d="m1074.2 227c-6.8-23.8-5.1-45.1 4-47.7-23.8 6.8-37.5 31.6-30.7 55.4s31.6 37.5 55.4 30.7c-9.1 2.6-21.9-14.6-28.7-38.4z" fill="#263147" opacity=".5"/><circle cx="984" cy="332.8" fill="#ff725c" r="6.1"/><path d="m981.3 333.6c-.9-3.2-.4-6.2 1.1-6.6-3.2.9-5.1 4.2-4.2 7.5.9 3.2 4.2 5.1 7.5 4.2-1.6.4-3.5-1.9-4.4-5.1z" fill="#c75140"/><circle cx="942.2" cy="361.1" fill="#4c677b" r="27.6"/><path d="m934.3 352c6.2 1.9 12.3 4 18.8 4.6 5.3.5 11 .4 16.3-.9-1-4.9-3.3-9.3-6.5-12.9-5.6 1.3-11.7 1.3-17.6 1.1-5.5-.2-10.6-1.1-16-2.1-1.8-.3-3.8-.7-5.8-.9-2.8 2.6-5 5.7-6.6 9.2 5.7-.9 11.6.1 17.4 1.9zm33.3 20.1c1.1-2.4 1.8-5.1 2.1-7.8-4.1.9-8.3 1.2-12.6 1.1-6.7-.2-13.5-1.3-19.9-3.4-7.5-2.4-15.1-5.3-22.6-2.8 0 .6-.1 1.3-.1 1.9 0 4.7 1.2 9.2 3.3 13.1 15.8-6.3 33.2-6.1 49.8-2.1zm-19.9 10.5c-6.5 0-13.2.5-19.5 2.3 4.1 2.4 8.9 3.8 14.1 3.8 5.9 0 11.3-1.8 15.7-4.9-3.4-.7-6.8-1.2-10.3-1.2z" fill="#729eaf" opacity=".25"/><path d="m932.2 363.9c-4.2-14.7-3.1-27.8 2.4-29.4-14.7 4.2-23.2 19.5-19 34.2s19.5 23.2 34.2 19c-5.5 1.5-13.4-9.1-17.6-23.8z" fill="#263147" opacity=".5"/><ellipse cx="946.1" cy="358.5" fill="#394c61" rx="6.9" ry="5.4" transform="matrix(.76386362 -.6453777 .6453777 .76386362 -7.952993 695.215898)"/><path d="m316.8 374.1c4.3-10.5-22.6-31.3-60-46.6s-71.2-19.2-75.5-8.7l20.9 8.5c3-7.2 26.4-4.5 52.3 6.1s44.5 25 41.5 32.3z" fill="#5f8395"/><path d="m256.6 327.4c-.9 1.9-1.5 4-1.7 6.1-.1-.1-.3-.1-.4-.2-25.9-10.6-49.3-13.3-52.3-6.1l-20.9-8.5c4.3-10.4 38-6.5 75.3 8.7z" fill="#4c677b"/><circle cx="248.9" cy="346.4" fill="#4c677b" r="43.4"/><path d="m231.2 351.5c-6.6-23.1-4-44 5.7-46.8-23.1 6.6-36.4 30.6-29.8 53.7s30.6 36.4 53.7 29.8c-9.7 2.8-23-13.7-29.6-36.7z" fill="#394c61"/><path d="m275.3 380.9s-24.8 1.9-50.9-8.4l1.7-15.7 31.8 11.1 24.5 6.2c-.1 0-3.4 4-7.1 6.8z" fill="#394c61"/><path d="m181.3 318.7c-4.3 10.5 22.6 31.3 60 46.6s71.2 19.2 75.5 8.7l-20.9-8.5c-3 7.2-26.4 4.5-52.3-6.1s-44.5-25-41.5-32.3z" fill="#5f8395"/><path d="m224.4 350.2-26.2-8.1c-12.5-9.1-19.1-17.7-16.8-23.4l20.9 8.5c-2.3 5.3 7 14.4 22.1 23z" fill="#4c677b"/><path d="m865.5 141.6c-8.5-3.3-24.9 18.6-36.7 48.9s-14.5 57.6-6.1 60.9l6.6-16.9c-5.9-2.3-4-21.2 4.2-42.1 8.2-21 19.6-36.2 25.4-33.9z" fill="#394c61"/><circle cx="843.9" cy="196.5" fill="#5f8395" r="35"/><path d="m829.7 200.6c-5.3-18.6-3.2-35.4 4.6-37.7-18.6 5.3-29.3 24.7-24 43.2 5.3 18.6 24.7 29.3 43.2 24-7.8 2.3-18.5-10.9-23.8-29.5z" fill="#4c677b"/><path d="m822.7 251.4c8.5 3.3 24.9-18.6 36.7-48.9s14.5-57.6 6.1-60.9l-6.6 16.9c5.9 2.3 4 21.2-4.2 42.1s-19.6 36.2-25.4 33.9z" fill="#394c61"/><path d="m841.6 161.6c0 .1 4.9 15-6.9 54.8l1.9 8 5-.2c5.8-10.6 19.3-44.3 14.3-60.6-3.7-1.4-7.8-2.1-12-2.1-.8.1-1.5.1-2.3.1z" fill="#4c677b"/><path d="m660 156.5 7.7-4.6 15 12.2-7.7 4.6z" fill="#729eaf"/><path d="m664.9 157.3c2.1-.2 4.7-1.5 5-3.5l5.5 4.4c-1.4 1.9-5.7 2.9-9.4 3.3l-5.6-4.5c1.6.4 3.1.4 4.5.3zm16.4 7.7-6.3 3.8-4.7-3.8c3.7-.6 7.3-.6 11 0z" fill="#85b9c9"/><path d="m673.8 167.7-.8-.6 6-6 2.7 2.1-7.8 4.7zm14.5-4.7c-.8-1.3-2.1-2-2.9-1.5l-8.2 4.9 2.9 4.8 8.2-4.9c.8-.5.8-2 0-3.3z" fill="#5f8395"/><path d="m678.5 166.8 8.2-4.9c.2-.1.4-.1.6-.1-.6-.4-1.3-.6-1.7-.3l-8.2 4.9 2.9 4.8.7-.4z" fill="#4c677b"/><path d="m686.8 163.9c-1-1.6-2.5-2.4-3.5-1.8l-9.9 6 3.5 5.8 9.9-6c.9-.6 1-2.4 0-4z" fill="#5f8395"/><path d="m674 168.7 10.4-6.3c.2-.1.5-.2.8-.2-.7-.4-1.4-.5-1.9-.2l-9.9 6 3.5 5.8.2-.1z" fill="#4c677b"/><ellipse cx="675.1" cy="170.9" fill="#4c677b" rx="2.1" ry="3.4" transform="matrix(.85749972 -.51448443 .51448443 .85749972 8.265874 371.705192)"/><path d="m678.5 171.7 7.7-4.6 15.1 12.2-7.8 4.6z" fill="#729eaf"/><path d="m682.9 169.1 3.3-2 3.3 2.6c-1.4.2-2.8.7-4 1.9-.9.9-.5 2.5.7 2.9 3.7 1.3 7.6 1.7 11.5 1.9l2.9 2.3c-4.2-1-8.9-1-13.2.2l-6-4.8c1-1.2 1.5-2.9 1.5-5z" fill="#85b9c9"/><path d="m673.4 168c-1 .6-1 2.4 0 4l.8-.4.9-3.5c-.7-.3-1.3-.3-1.7-.1z" fill="#394c61"/><path d="m670.9 169.5c1.6-1 3.7-.4 4.6 1.2 1 1.6.4 3.7-1.2 4.6" fill="#4c677b"/><ellipse cx="672.6" cy="172.4" fill="#394c61" rx="2.1" ry="3.4" transform="matrix(.85749972 -.51448443 .51448443 .85749972 7.149975 370.644343)"/><path d="m127.9 139.8 2.4.7 2.9-10-2.4-.7c-1-.3-2.1.3-2.4 1.3l-1.8 6.3c-.4 1.1.2 2.1 1.3 2.4z" fill="#4c677b"/><path d="m132.7 131.9 7.8 2.2 1.5-5.2c.6-2.2-.6-4.4-2.8-5s-4.4.6-5 2.8z" fill="#729eaf"/><path d="m140.2 124.3c-.9.2-1.6.9-1.8 1.8l-.6 2.3c-.2.6.2 1.3.8 1.4l2.9.8.5-1.8c.5-1.7-.3-3.6-1.8-4.5z" fill="#394c61"/><path d="m136.5 127.1c.3-.9.6-1.6 1-2.1s-.1-1.4-.8-1.1c-1.2.4-2.2 1.4-2.5 2.7l-1.5 5.2 2.3.6zm2.3 8c-.8 0-1.5-.6-1.5-1.5 0-.8.6-1.6 1.5-1.6l6.1-.2 2.4-3.5c.5-.7 1.4-.9 2.1-.4s.9 1.4.4 2.1l-2.9 4.2c-.3.4-.7.6-1.2.7l-6.9.2c.1 0 .1 0 0 0z" fill="#4c677b"/><path d="m149.8 130.1c.4-.5.3-1.2 0-1.7-.6-.1-1.2.1-1.6.6l-2.4 3.5-6.1.2c-.8 0-1.5.7-1.5 1.6 0 .3.1.6.3.8h.4l6.9-.3c.5 0 .9-.3 1.2-.7z" fill="#729eaf"/><path d="m128.2 156c-.6 0-1.3-.3-1.6-.9-.5-.9-.2-2 .7-2.5l5.1-2.9 2-7.1c.3-1 1.3-1.5 2.3-1.3 1 .3 1.5 1.3 1.3 2.3l-2.4 8.6-6.4 3.6c-.4.1-.7.2-1 .2z" fill="#4c677b"/><path d="m122.5 150.5c-.9 0-1.7-.7-1.8-1.6-.1-1 .6-1.9 1.6-2l4.5-.5 4.1-5.5c.6-.8 1.8-1 2.6-.4s1 1.8.4 2.6l-5 6.7-6 .7z" fill="#4c677b"/><path d="m129.1 155.7 6.4-3.6 2.4-8.6c.1-.3.1-.6 0-1-1-.3-2 .3-2.2 1.3l-2 7.1-5.1 2.9c-.7.4-1.1 1.3-.9 2.1.2 0 .3.1.5.1.3 0 .6-.1.9-.3zm4.6-12.7c.3-.3.4-.7.4-1.1-.8-.6-1.9-.4-2.5.4l-4.1 5.5-4.5.5c-.9.1-1.6.9-1.6 1.8.3.2.7.3 1.1.3h.2l6-.7z" fill="#729eaf"/><path d="m130.3 130h10v14.6h-10z" fill="#729eaf" transform="matrix(-.96179867 -.27375779 .27375779 -.96179867 227.934932 306.405016)"/><path d="m130.5 129h2.7v14.6h-2.7z" fill="#4c677b" transform="matrix(-.96179867 -.27375779 .27375779 -.96179867 221.298094 303.472884)"/><path d="m124.7 140c-.4 0-.8-.2-1.1-.5-.6-.6-.5-1.6.1-2.2l5.1-4.6c.2-.1.3-.3.5-.3l4.5-1.5c.8-.3 1.7.2 1.9 1 .3.8-.2 1.7-1 1.9l-4.2 1.4-4.8 4.4c-.2.2-.6.4-1 .4z" fill="#4c677b"/><path d="m134.8 132.1-4.5 1.5c-.2.1-.4.2-.5.3l-5.1 4.6c-.4.3-.5.8-.5 1.3.2.1.4.1.5.1.4 0 .7-.1 1-.4l4.8-4.4 4.2-1.4c.7-.2 1.1-.9 1-1.6-.1-.1-.5-.1-.9 0z" fill="#729eaf"/><circle cx="126.3" cy="423.5" fill="#ff725c" r="8.1"/><path d="m122.7 424.5c-1.2-4.3-.6-8.2 1.4-8.8-4.3 1.2-6.8 5.7-5.6 10s5.7 6.8 10 5.6c-2 .6-4.6-2.5-5.8-6.8z" fill="#c75140"/><circle cx="670.5" cy="69.9" fill="#ff725c" r="8.1"/><path d="m666.9 70.9c-1.2-4.3-.6-8.2 1.4-8.8-4.3 1.2-6.8 5.7-5.6 10s5.7 6.8 10 5.6c-2 .5-4.6-2.5-5.8-6.8z" fill="#c75140"/><circle cx="1159.1" cy="441.9" fill="#f5c16e" r="8.1"/><path d="m1155.5 442.9c-1.2-4.3-.6-8.2 1.4-8.8-4.3 1.2-6.8 5.7-5.6 10s5.7 6.8 10 5.6c-2 .6-4.6-2.5-5.8-6.8z" fill="#e3925d"/><circle cx="732" cy="372.4" fill="#f5c16e" r="12.6"/><path d="m726.5 374c-1.9-6.7-.9-12.8 2.2-13.7-6.7 1.9-10.6 8.8-8.7 15.5s8.8 10.6 15.5 8.7c-3.2.9-7.2-3.8-9-10.5z" fill="#e3925d"/><circle cx="1216.3" cy="96.7" fill="#f5c16e" r="10"/><path d="m1211.9 98c-1.5-5.3-.7-10.2 1.7-10.8-5.3 1.5-8.4 7-6.9 12.3s7 8.4 12.3 6.9c-2.4.6-5.6-3.1-7.1-8.4z" fill="#e3925d"/><circle cx="101.5" cy="69" fill="#f5c16e" r="6"/><path d="m98.9 69.8c-.9-3.2-.4-6.1 1-6.5-3.2.9-5 4.2-4.1 7.4s4.2 5 7.4 4.1c-1.6.4-3.5-1.8-4.3-5z" fill="#e3925d"/><circle cx="97.4" cy="221.1" fill="#f5c16e" r="6"/><path d="m94.8 221.9c-.9-3.2-.4-6.1 1-6.5-3.2.9-5 4.2-4.1 7.4s4.2 5 7.4 4.1c-1.5.4-3.4-1.9-4.3-5z" fill="#e3925d"/><use fill="#4c677b" xlink:href="#f"/><circle clip-path="url(#d)" cx="82.4" cy="236.9" fill="#4c677b" r="20.2"/><g clip-path="url(#d)"><path d="m73.8 255.8h-1c0-.1 0-13.1-11.6-18.8l.4-.9c12.3 5.9 12.3 19.6 12.2 19.7z" fill="#5f8395"/><path d="m76.7 219.9c-.4 1.3-1 2.4-2 3.3-3.4 3-9.1 2.1-9.4 2.1l.2-1c.1 0 5.5.8 8.5-1.8 1.4-1.3 2.1-3.1 2-5.5h1c0 .9-.1 1.9-.3 2.9z" fill="#4c677b" opacity=".5"/><g fill="#5f8395"><path d="m86 217c-.7 2.5-3.4 10.9-9.3 14.5-6.9 4.2-14.3 0-14.6-.2l.5-.9c.1 0 7.2 4 13.6.2 6.5-3.9 9-14.5 9-14.6l1 .2c0 .2-.1.5-.2.8zm-4.2 40.6-.9.5c-.2-.4-4.3-8.7-.2-19.1 1.3-3.3 2.8-6.2 4.2-8.7 2.9-5.5 5-9.4 2.7-13.2l.9-.5c2.6 4.2.3 8.6-2.7 14.2-1.3 2.5-2.9 5.4-4.1 8.6-4 9.9.1 18.1.1 18.2zm12.4-3.6c-.2.6-.3.9-.4 1l-.9-.5s1.9-3.7-1-12c-3.3-9.4 0-17.3 2.8-22.5l.9.5c-2.7 5-5.9 12.6-2.7 21.6 2.2 6.4 1.8 10.2 1.3 11.9z"/><path d="m100.9 247.6-1 .1s-.2-2.1-1.9-4.9c-3.1-5-2.6-10.5 1.7-17.4l.9.5c-4.1 6.6-4.6 11.6-1.7 16.3 1.8 3.1 2 5.3 2 5.4z"/></g></g><path d="m75 239.1c-3.1-10.7-2.3-20.4 1.8-21.5-10.7 3.1-16.9 14.3-13.8 25s14.3 16.9 25 13.8c-4.1 1.1-9.9-6.6-13-17.3z" fill="#263147" opacity=".5"/><path d="m382.2 111.7 276.7-39.9m-548.1.6 186.9 38.6m-188 115.4 198.3-86.3m-220 124.3 35 147.8m148.9-111.9 57.2-143.9m-29.4 179.6 201.5-43.2m59.3-16.9 244.2-66.9m79.8-8.5 152.6 17.4m-171.6 14.8 62.7 97.9m195.5-151.3 82.6-72.6m-522.5-36.8 518.5 24.8m-660.7 161.3 121.3-174.9m17.7-1.1 133.1 89.1m317.3 86.9 138.8 79.4m-297.9 40.5 173.1 61.3m-588.1-140.3 156.8 69.3m38 6.2 155.2-7.5m-893.9-33.2 49.9-75.7m29.6-183-108 40.8m153.7 304.7 75-38.6m1017.9-281.3 76.9 17.7" style="opacity:.5;fill:none;stroke:#85b9c9;stroke-linecap:round;stroke-linejoin:round;stroke-miterlimit:10;stroke-dasharray:1 4"/></g></svg>