<svg width="256" height="219" viewBox="0 0 256 219" xmlns="http://www.w3.org/2000/svg" preserveAspectRatio="xMidYMid"><path d="M152.402 212.46c2.646-3.325 5.776-6.954 9.481-11.228l1.845-2.129c2.308-2.664 4.226-4.722 6.068-6.718 3.664-3.952 6.834-7.362 12.624-15.244 5.681-7.739 9.351-13.563 8.752-23.548-.291-5.139-.496-8.666-3.848-12.806-2.014-2.482-5.753-6.091-9.718-9.909-4.29-4.139-8.023-8.077-13.08-13.347-5.061-5.249-11.604-18.675-11.604-18.675-1.948-4.444-5.588-13.672-6.602-22.252L131.453.36H89.087L68.361 96.514 50.008.36H0l45.115 218.448h42.123l21.058-94.559 18.624 94.559h19.555l5.927-6.348" fill="#2788B5"/><path d="M240.568 13.433c4.424-5.129 8.07-9.286 11.063-13.059h-67.19c-4 5.105-12.115 14.946-16.751 23.674-6.122 11.556-11.159 20.225-11.659 41.499l.226 6.852c0 10.142 7.252 25.033 7.252 25.033 1.134 2.64 4.972 8.228 7.427 11.628h-.062a180.858 180.858 0 0 0 1.343 1.767c7.241 8.297 18.198 17.569 23.037 23.523 5.656 6.979 5.807 13.532 6.112 18.627.818 13.772-4.753 22.072-10.711 30.204-9.012 12.289-12.258 14.566-19.195 22.599-4.424 5.122-8.067 9.272-11.063 13.028h69.423c4.071-5.225 9.868-14.874 14.521-23.657 6.122-11.556 11.166-20.226 11.659-41.479l-.226-6.858c0-10.159-7.252-25.054-7.252-25.054-1.133-2.64-4.975-8.194-7.434-11.628h.062c-.788-1.055-1.336-1.76-1.336-1.76-7.241-8.303-18.205-17.562-23.037-23.523-5.656-6.996-5.807-13.539-6.112-18.631-.818-13.758 4.753-22.071 10.718-30.203 9.008-12.258 12.251-14.559 19.185-22.582" fill="#FA930D"/></svg>