<?xml version="1.0" standalone="no"?><!DOCTYPE svg PUBLIC "-//W3C//DTD SVG 1.1//EN" "http://www.w3.org/Graphics/SVG/1.1/DTD/svg11.dtd"><svg t="1581560697597" class="icon" viewBox="0 0 1024 1024" version="1.1" xmlns="http://www.w3.org/2000/svg" p-id="10274" xmlns:xlink="http://www.w3.org/1999/xlink" width="200" height="200"><defs><style type="text/css"></style></defs><path d="M896 460.8L492.307692 683.323077c-27.569231 13.784615-59.076923-5.907692-59.076923-35.446154V165.415385c0-19.692308-19.692308-35.446154-37.415384-29.538462-196.923077 55.138462-338.707692 246.153846-315.076923 464.738462 21.661538 198.892308 181.169231 360.369231 382.030769 382.030769C724.676923 1010.215385 945.230769 807.384615 945.230769 551.384615c0-23.630769-1.969231-47.261538-5.907692-70.892307-3.938462-19.692308-25.6-29.538462-43.323077-19.692308zM545.476923 551.384615l387.938462-206.76923c23.630769-11.815385 31.507692-43.323077 15.753846-64.984616C860.553846 157.538462 722.707692 68.923077 565.169231 43.323077 537.6 37.415385 512 59.076923 512 86.646154V531.692308c0 17.723077 17.723077 27.569231 33.476923 19.692307z" p-id="10275"></path></svg>