<?xml version="1.0" standalone="no"?><!DOCTYPE svg PUBLIC "-//W3C//DTD SVG 1.1//EN" "http://www.w3.org/Graphics/SVG/1.1/DTD/svg11.dtd"><svg t="1606287288836" class="icon" viewBox="0 0 1024 1024" version="1.1" xmlns="http://www.w3.org/2000/svg" p-id="7858" xmlns:xlink="http://www.w3.org/1999/xlink" width="200" height="200"><defs><style type="text/css"></style></defs><path d="M431.45 221.71c3.6-1.02 8.18-2.66 13.62-5.16 14.11-6.48 22.43-21.42 15.88-37.85-6.56-16.43-20.3-19.22-35.95-16.43l-15.42 4.29C260.65 210.73 152 348.63 152 511.89c0 198.9 161.23 360.13 360.13 360.13 168.96 0 310.76-116.37 349.61-273.33 0.49-1.97 1.19-4.52 1.19-9.49 0-12.6-7.57-26.51-22.13-29.9-14.56-3.4-31.69 5.08-36.57 19.99l-7.82 25.08c-38.9 118.43-152.84 207.94-284.29 207.94-163.8 0-299.12-136.63-299.12-300.43 0.01-135.82 93.86-255.04 218.45-290.17z" p-id="7859"></path><path d="M870.34 474.41c-17.97-173.82-159.6-310.95-335.38-321.94l-12.54-0.5c-5.68 0-10.29 4.61-10.29 10.29v349.63h349.58l3.02-0.45a10.29 10.29 0 0 0 7.26-10.14c-0.2-6.85-0.39-11.65-0.58-14.41l-1.07-12.48z" p-id="7860"></path></svg>