<?xml version="1.0" standalone="no"?><!DOCTYPE svg PUBLIC "-//W3C//DTD SVG 1.1//EN" "http://www.w3.org/Graphics/SVG/1.1/DTD/svg11.dtd"><svg t="1606288942073" class="icon" viewBox="0 0 1024 1024" version="1.1" xmlns="http://www.w3.org/2000/svg" p-id="13488" xmlns:xlink="http://www.w3.org/1999/xlink" width="200" height="200"><defs><style type="text/css"></style></defs><path d="M326.417603 972.998401c-53.347577-79.141374 18.034331-150.606 18.034331-150.605999-0.586993 5.368642-0.75442 10.736287-0.75442 16.022211 1.593551 80.438937 48.22908 118.437002 104.596331 119.693705 30.365166-0.081721 65.258846-12.245128 98.474265-42.778717 18.788751-18.201759 21.809422-29.525038 22.395418-45.419687 2.18154-33.256279-32.880564-85.724862-34.641542-153.831968-0.75442-56.78582 32.713137-117.473298 119.444556-170.904588 89.834808-56.534678 139.491008-157.81734 139.32358-251.762094-0.085707-60.645621-20.215871-116.969022-60.646617-158.155185-40.595184-40.931035-102.499501-69.114661-194.68228-69.284082-2.432681 0-5.117501 0.083714-8.303606 0.083714-147.292331 3.607664-222.448333 67.606817-268.83272 141.293843-45.629967 73.689019-56.701109 158.825891-58.798936 191.705459-0.585996 9.353017-0.585996 13.924385-0.585996 13.924385 0.083714-2.767536-71.12977-72.679471-19.209314-201.517905C229.621599 109.756276 334.803926 2.64355 528.314213 0.085298c2.934964 0 6.206776-0.083714 9.646015-0.083713C644.401251-0.166839 727.024718 34.181705 781.29215 89.584255c54.355131 55.318836 79.51709 129.173289 79.433376 203.826012-0.083714 115.795036-59.384932 236.539149-170.189035 307.039074-76.245278 49.487775-87.736982 83.586175-88.493395 115.627608-1.844692 42.021307 32.378282 90.714799 34.558825 153.831969 0.587989 31.245157-13.000544 65.970413-43.533137 93.442471-43.868989 40.553327-95.538305 60.645621-144.775936 60.645621h-0.334855c-46.217957 0-90.171656-18.119042-121.54039-50.998609" p-id="13489"></path><path d="M508.183052 398.175022c17.277918 12.957691 32.544713 17.447338 46.802956 17.531052 24.24011 0.251141 49.405058-14.678806 68.949227-39.968327 19.459458-24.870953 31.705582-58.883646 31.705582-89.121248-1.593551-43.575991-19.376741-77.211972-83.20747-88.324971-14.176523-2.138687-27.260781-3.061531-39.507902-3.061531C402.159602 198.501809 364.245251 342.520334 364.245251 342.520334h0.083713s-3.858805-55.234126 25.751941-101.199944c0 0 51.417178-90.505514 142.84454-90.085949 14.595092 0 46.470095 3.690381 46.470095 3.69038 83.20747 11.239566 122.799086 72.430323 121.120824 131.691678-1.092265 81.152497-58.968356 170.399316-145.530356 173.041281h-0.334855c-46.803953-1.426123-46.468101-61.482758-46.468101-61.482758M431.853064 711.211587c0-29.985464 26.254223-85.515578 26.254223-85.515578 0.166431 0.083714-2.767536 16.021215-2.767536 42.73686 0 42.191724 7.715616 108.415272 45.797395 166.835503l-37.998065 23.52655c-44.707123-68.903383-31.286017-147.583336-31.286017-147.583335" p-id="13490"></path></svg>