<?xml version="1.0" standalone="no"?><!DOCTYPE svg PUBLIC "-//W3C//DTD SVG 1.1//EN" "http://www.w3.org/Graphics/SVG/1.1/DTD/svg11.dtd"><svg t="1579614370396" class="icon" viewBox="0 0 1024 1024" version="1.1" xmlns="http://www.w3.org/2000/svg" p-id="24824" xmlns:xlink="http://www.w3.org/1999/xlink" width="200" height="200"><defs><style type="text/css"></style></defs><path d="M384 810.666667c-213.333333 64-213.333333-106.666667-298.666667-128m597.333334 256v-165.12a143.786667 143.786667 0 0 0-40.106667-111.36c133.973333-14.933333 274.773333-65.706667 274.773333-298.666667A232.106667 232.106667 0 0 0 853.333333 203.52 216.32 216.32 0 0 0 849.493333 42.666667S799.146667 27.733333 682.666667 105.813333a570.88 570.88 0 0 0-298.666667 0C267.52 27.733333 217.173333 42.666667 217.173333 42.666667A216.32 216.32 0 0 0 213.333333 203.52a232.106667 232.106667 0 0 0-64 161.28c0 231.253333 140.8 282.026667 274.773334 298.666667A143.786667 143.786667 0 0 0 384 773.546667V938.666667" p-id="24825"></path></svg>