<?xml version="1.0" standalone="no"?><!DOCTYPE svg PUBLIC "-//W3C//DTD SVG 1.1//EN" "http://www.w3.org/Graphics/SVG/1.1/DTD/svg11.dtd"><svg t="1606289151086" class="icon" viewBox="0 0 1024 1024" version="1.1" xmlns="http://www.w3.org/2000/svg" p-id="19502" xmlns:xlink="http://www.w3.org/1999/xlink" width="200" height="200"><defs><style type="text/css"></style></defs><path d="M745.05210597 311.43385866c22.776315 122.989878-50.112342 218.643729-50.112342 218.643729C758.72011897 325.09075066 508.18065197 65.46522466 407.96708897 42.66666666 530.93472497 356.98648966 394.29907597 448.03614366 394.29907597 448.03614366c13.668013-159.434207-91.116382-186.759112-91.116382-186.759112 59.220644 127.549589-50.045614 163.982797-95.64273 309.760112C148.36380497 921.80129466 558.28187297 1085.82857666 776.93672297 807.95308266c159.434207-218.677093-31.884617-496.519223-31.884617-496.519224z m0 0" p-id="19503"></path><path d="M553.73328297 475.41665566c127.538468 195.878535 95.64273 314.308702 27.324905 359.861332-54.660932 36.477692-104.773274 36.477692-150.314783-13.656892-31.895738-41.00404-27.336027-77.437247-9.119423-109.332986 22.776315-50.101221 145.777314-141.239845 132.109301-236.882575z m0 0" p-id="19504"></path></svg>