<?xml version="1.0" standalone="no"?><!DOCTYPE svg PUBLIC "-//W3C//DTD SVG 1.1//EN" "http://www.w3.org/Graphics/SVG/1.1/DTD/svg11.dtd"><svg t="1579613083464" class="icon" viewBox="0 0 1024 1024" version="1.1" xmlns="http://www.w3.org/2000/svg" p-id="5227" xmlns:xlink="http://www.w3.org/1999/xlink" width="200" height="200"><defs><style type="text/css"></style></defs><path d="M158.316636 352.256c-5.460992 5.460992-9.216 12.971008-11.264 22.528-2.048 9.556992-3.072 18.091008-3.072 25.6 0 7.508992-0.683008 11.264-2.048 11.264-1.364992 1.364992-7.168 6.484992-17.408 15.36-10.24 8.875008-16.724992 14.676992-19.456 17.408-10.923008 9.556992-20.48 8.192-28.672-4.096 0 0-71.68-77.824-71.68-77.824-6.827008-8.192-6.144-16.384 2.048-24.576 1.364992-1.364992 7.508992-6.144 18.432-14.336 10.923008-8.192 17.748992-13.652992 20.48-16.384 4.096-4.096 13.312-6.144 27.648-6.144 14.336 0 26.964992-4.779008 37.888-14.336 9.556992-9.556992 15.700992-22.528 18.432-38.912 2.731008-16.384 6.144-26.624 10.24-30.72 1.364992 0 4.436992-2.388992 9.216-7.168 4.779008-4.779008 13.652992-12.288 26.624-22.528 12.971008-10.24 26.964992-20.820992 41.984-31.744 91.476992-61.44 154.964992-94.208 190.464-98.304 83.284992 0 133.803008 0.683008 151.552 2.048 8.192 0 5.460992 2.731008-8.192 8.192-81.92 35.499008-133.803008 61.44-155.648 77.824-54.612992 38.228992-66.900992 77.140992-36.864 116.736 23.211008 31.403008 36.180992 47.787008 38.912 49.152 5.460992 5.460992 4.779008 10.24-2.048 14.336-1.364992 1.364992-14.336 13.312-38.912 35.84-24.576 22.528-37.547008 34.475008-38.912 35.84-9.556992 5.460992-15.700992 6.827008-18.432 4.096-28.672-32.768-52.907008-53.248-72.704-61.44-19.796992-8.192-42.667008-4.096-68.608 12.288 0 0 0 0 0 0m292.864 26.624c0 0 419.84 487.424 419.84 487.424 12.288 15.019008 11.604992 27.988992-2.048 38.912 0 0-49.152 43.008-49.152 43.008-15.019008 9.556992-27.988992 8.192-38.912-4.096 0 0-423.936-483.328-423.936-483.328-5.460992-5.460992-5.460992-12.288 0-20.48 0 0 73.728-63.488 73.728-63.488 8.192-5.460992 15.019008-4.779008 20.48 2.048 0 0 0 0 0 0m567.296-206.848c10.923008 70.996992 5.460992 127.659008-16.384 169.984-34.132992 60.075008-86.699008 81.236992-157.696 63.488-38.228992-8.192-72.363008 2.731008-102.4 32.768 0 0-83.968 79.872-83.968 79.872 0 0-69.632-79.872-69.632-79.872 0 0 69.632-71.68 69.632-71.68 16.384-16.384 26.964992-34.475008 31.744-54.272 4.779008-19.796992 6.827008-41.984 6.144-66.56-0.683008-24.576 1.024-44.372992 5.12-59.392 8.192-38.228992 55.979008-76.459008 143.36-114.688 8.192-4.096 14.336-3.072 18.432 3.072 4.096 6.144 4.779008 11.264 2.048 15.36-8.192 8.192-23.892992 35.499008-47.104 81.92-9.556992 6.827008-13.652992 18.772992-12.288 35.84 1.364992 17.067008 15.019008 35.156992 40.96 54.272 39.595008 27.307008 72.363008 19.796992 98.304-22.528 4.096-8.192 12.971008-22.187008 26.624-41.984 13.652992-19.796992 21.163008-31.060992 22.528-33.792 2.731008-6.827008 7.168-9.899008 13.312-9.216 6.144 0.683008 9.899008 6.484992 11.264 17.408 0 0 0 0 0 0m-878.592 700.416c0 0 260.096-253.952 260.096-253.952 0 0 77.824 88.064 77.824 88.064 0 0-251.904 247.808-251.904 247.808-13.652992 13.652992-26.624 15.019008-38.912 4.096 0 0-47.104-47.104-47.104-47.104-15.019008-12.288-15.019008-25.259008 0-38.912 0 0 0 0 0 0" p-id="5228"></path></svg>