<?xml version="1.0" standalone="no"?><!DOCTYPE svg PUBLIC "-//W3C//DTD SVG 1.1//EN" "http://www.w3.org/Graphics/SVG/1.1/DTD/svg11.dtd"><svg t="1606357158903" class="icon" viewBox="0 0 1024 1024" version="1.1" xmlns="http://www.w3.org/2000/svg" p-id="1936" xmlns:xlink="http://www.w3.org/1999/xlink" width="200" height="200"><defs><style type="text/css"></style></defs><path d="M396.101818 408.994909c30.254545-51.944727 16.756364-119.156364-31.045818-154.437818a110.778182 110.778182 0 0 0-152.017455 19.269818 118.923636 118.923636 0 0 0 6.283637 157.556364c41.611636 42.821818 108.218182 45.614545 153.041454 6.376727l15.639273 16.337455a17.221818 17.221818 0 0 0 24.343273 0l1.489454-1.722182a17.92 17.92 0 0 0 0-25.088l-17.780363-18.292364z m-27.136-27.461818l-18.385454-18.944a16.896 16.896 0 0 0-24.343273 0l-1.489455 1.722182a17.687273 17.687273 0 0 0 0 24.855272l21.178182 21.783273a74.007273 74.007273 0 0 1-46.778182 16.989091 76.520727 76.520727 0 0 1-72.843636-56.413091 79.592727 79.592727 0 0 1 31.837091-87.924363 74.472727 74.472727 0 0 1 90.903273 6.376727 80.058182 80.058182 0 0 1 19.921454 91.554909z" p-id="1937"></path><path d="M761.623273 332.520727V175.476364A81.92 81.92 0 0 0 680.168727 93.090909H121.483636c-20.014545 0.139636-39.191273 8.285091-53.248 22.714182-14.056727 14.429091-21.876364 33.978182-21.690181 54.225454v393.029819a75.589818 75.589818 0 0 0 74.938181 75.776h85.317819v97.373091a28.532364 28.532364 0 0 0 28.113454 28.439272h11.962182l122.181818-124.276363h58.786909v144.104727c-0.325818 18.804364 5.725091 37.236364 17.082182 52.130909 11.822545 10.472727 26.065455 17.826909 41.425455 21.410909h242.641454L822.830545 977.454545h9.216a25.181091 25.181091 0 0 0 22.528-27.322181V856.901818h65.489455c31.744 0 57.390545-32.581818 57.390545-72.843636V405.317818c-0.930909-40.261818-26.530909-72.610909-58.274909-72.797091h-157.556363zM427.845818 585.541818h-81.454545l-85.550546 87.133091v-88.064H121.250909a20.573091 20.573091 0 0 1-14.754909-6.050909 21.038545 21.038545 0 0 1-6.144-14.894545V170.030545a21.550545 21.550545 0 0 1 5.585455-15.96509 21.038545 21.038545 0 0 1 15.36-6.795637h557.940363c15.080727 0 27.322182 12.288 27.461818 27.508364V332.334545H490.589091c-34.443636 0.232727-62.836364 35.700364-62.836364 79.406546v173.893818z m393.867637 136.517818a18.478545 18.478545 0 0 1-25.460364-7.726545l-26.996364-50.967273H648.378182l-26.298182 49.617455a18.292364 18.292364 0 0 1-25.227636 7.959272 18.850909 18.850909 0 0 1-7.912728-25.739636l102.679273-195.258182a18.804364 18.804364 0 0 1 25.413818-7.959272c1.396364 0.884364 2.699636 1.954909 3.816728 3.16509v1.163637l1.396363 1.396363c0 1.117091 2.001455 2.234182 2.885818 3.584l103.330909 195.025455a19.223273 19.223273 0 0 1-6.74909 25.739636z" p-id="1938"></path><path d="M698.181818 605.090909h46.545455l-23.272728-46.545454z" p-id="1939"></path></svg>