<?xml version="1.0" standalone="no"?><!DOCTYPE svg PUBLIC "-//W3C//DTD SVG 1.1//EN" "http://www.w3.org/Graphics/SVG/1.1/DTD/svg11.dtd"><svg t="1585976712082" class="icon" viewBox="0 0 1024 1024" version="1.1" xmlns="http://www.w3.org/2000/svg" p-id="20240" xmlns:xlink="http://www.w3.org/1999/xlink" width="200" height="200"><defs><style type="text/css"></style></defs><path d="M843.935 552.99c-61.178 0-111.232-51.722-111.232-115.125 0 63.403-50.055 115.126-111.233 115.126-61.178 0-111.232-51.723-111.232-115.126 0 63.403-50.055 115.126-111.232 115.126s-111.234-51.723-111.234-115.125c0 63.403-50.055 115.126-111.232 115.126S65.306 501.268 65.306 437.866l78.42-215.791h733.022l78.42 215.79c0 63.403-50.056 115.126-111.233 115.126z m27.807 330.362c0 23.914-18.91 43.38-41.712 43.38H190.443c-22.802 0-41.712-19.465-41.712-43.38V593.035c8.9 1.668 18.353 2.78 27.809 2.78l13.903-0.556 11.68-1.668 2.78-0.556 5.005-1.113c7.786-1.668 15.016-3.893 22.246-7.23v212.454h556.164V585.248c7.23 2.78 14.46 5.005 22.247 6.674l5.005 1.113 2.78 0.556 11.68 1.668 13.903 0.556c9.454 0 18.91-1.112 27.808-2.78v290.317h0.001zM204.347 92.488h611.78c22.802 0 41.712 19.466 41.712 43.381 0 23.36-18.91 42.825-41.712 42.825h-611.78c-22.802 0-41.712-19.466-41.712-42.825 0-23.915 18.91-43.38 41.712-43.38z" p-id="20241"></path></svg>