<?xml version="1.0" standalone="no"?><!DOCTYPE svg PUBLIC "-//W3C//DTD SVG 1.1//EN" "http://www.w3.org/Graphics/SVG/1.1/DTD/svg11.dtd"><svg t="1587539974402" class="icon" viewBox="0 0 1024 1024" version="1.1" xmlns="http://www.w3.org/2000/svg" p-id="3876" xmlns:xlink="http://www.w3.org/1999/xlink" width="200" height="200"><defs><style type="text/css"></style></defs><path d="M768.141938 0c51.2 0 94.350222 2.673778 129.536 7.992889 35.185778 5.347556 61.041778 11.719111 77.568 19.2 16.526222 7.452444 29.070222 15.985778 37.575111 25.6 8.533333 9.585778 12.288 19.712 11.207111 30.378667l-3.185778 31.971555c-12.8 64-28.273778 127.146667-46.364444 189.525333a1938.574222 1938.574222 0 0 1-60.017778 175.928889c-21.845333 54.897778-45.568 99.413333-71.168 133.546667-25.6 34.133333-50.631111 51.2-75.150222 51.2-24.519111 0-49.578667-17.066667-75.178667-51.2-25.6-34.133333-49.294222-78.648889-71.168-133.546667a1938.631111 1938.631111 0 0 1-59.960889-175.928889 2283.975111 2283.975111 0 0 1-46.364444-189.525333l-3.214222-31.971555c-1.080889-10.666667 2.645333-20.792889 11.178666-30.407112 8.533333-9.585778 21.048889-18.119111 37.603556-25.6 16.497778-7.452444 42.382222-13.824 77.568-19.171555 35.157333-5.319111 78.364444-7.992889 129.536-7.992889z m-46.364445 567.751111c20.252444 30.919111 35.697778 46.364444 46.364445 46.364445s25.856-15.445333 45.568-46.364445c19.740444-30.919111 40.248889-73.557333 61.582222-127.943111a1459.370667 1459.370667 0 0 0-215.893333 0c22.385778 54.385778 43.178667 97.024 62.350222 127.943111z m172.714667-177.493333a1741.596444 1741.596444 0 0 0 44.771556-147.171556c-114.062222-17.066667-228.181333-17.066667-342.243556 0a2019.811556 2019.811556 0 0 0 44.771556 147.143111c84.224-8.533333 168.448-8.533333 252.700444 0z m76.771556-284.728889c2.133333-11.690667 2.645333-18.631111 1.592888-20.764445-1.080889-2.133333-4.551111-5.063111-10.410666-8.817777-5.859556-3.697778-26.112-8.533333-60.757334-14.364445-34.645333-5.859556-79.160889-9.329778-133.546666-10.410666-54.385778 1.080889-98.901333 4.551111-133.546667 10.410666-34.645333 5.859556-54.897778 10.666667-60.785778 14.392889-5.859556 3.697778-9.329778 6.656-10.382222 8.789333-1.080889 2.133333-0.540444 9.073778 1.592889 20.764445a2252.8 2252.8 0 0 0 19.2 86.385778c19.2-2.133333 38.912-4.266667 59.164444-6.4a1151.431111 1151.431111 0 0 1 61.582223-4.778667 1233.408 1233.408 0 0 1 187.932444 4.778667c20.252444 2.133333 39.964444 4.266667 59.164445 6.4a2252.8 2252.8 0 0 0 19.2-86.357334zM136.419271 329.472c36.238222-36.266667 68.494222-64.796444 96.739556-85.589333 28.273778-20.764444 50.915556-34.901333 67.982222-42.382223 17.066667-7.452444 32.256-9.841778 45.568-7.196444 13.340444 2.673778 23.210667 6.940444 29.582222 12.8 6.4 5.859556 13.340444 14.136889 20.792889 24.803556 78.904889 119.409778 141.824 235.633778 188.728889 348.643555 46.933333 113.009778 53.845333 186.055111 20.792889 219.107556s-105.813333 26.112-218.311111-20.764445c-112.469333-46.933333-228.408889-109.852444-347.875556-188.757333-11.690667-7.452444-20.48-14.392889-26.368-20.764445-5.859556-6.4-10.126222-16.270222-12.8-29.582222-2.645333-13.368889-0.256-28.529778 7.196445-45.596444 7.480889-17.066667 21.873778-39.708444 43.207111-67.982222 21.333333-28.245333 49.578667-60.501333 84.764444-96.739556z m433.408 433.408c8.533333-4.266667 8.817778-25.059556 0.796445-62.378667-7.992889-37.319111-23.722667-82.631111-47.189334-135.964444a1136.583111 1136.583111 0 0 0-151.921778 151.950222c53.304889 23.466667 98.616889 39.196444 135.936 47.189333 37.319111 7.992889 58.112 7.736889 62.378667-0.796444z m-68.778667-246.300444a1731.470222 1731.470222 0 0 0-71.964444-137.528889 1193.870222 1193.870222 0 0 0-243.086222 243.086222 1731.498667 1731.498667 0 0 0 137.528889 71.964444 1269.845333 1269.845333 0 0 1 177.521777-177.521777zM142.790827 594.944a1243.420444 1243.420444 0 0 1 259.128889-259.100444 2470.087111 2470.087111 0 0 0-48.014223-75.150223c-6.4-9.614222-10.666667-14.933333-12.8-15.985777h-4.778666c-2.133333 0-7.736889 1.848889-16.782223 5.575111a205.653333 205.653333 0 0 0-31.203555 16.782222c-11.719111 7.480889-27.733333 19.740444-47.985778 36.807111-20.252444 17.066667-42.666667 37.319111-67.157333 60.785778-38.4 39.424-67.697778 73.557333-87.978667 102.343111-20.252444 28.785778-31.175111 46.648889-32.768 53.589333-1.621333 6.912-1.877333 11.463111-0.796444 13.596445 1.052444 2.104889 6.371556 6.371556 15.985777 12.8a2469.916444 2469.916444 0 0 0 75.150223 47.957333z" p-id="3877"></path></svg>