<?xml version="1.0" standalone="no"?><!DOCTYPE svg PUBLIC "-//W3C//DTD SVG 1.1//EN" "http://www.w3.org/Graphics/SVG/1.1/DTD/svg11.dtd"><svg t="1594352704379" class="icon" viewBox="0 0 1024 1024" version="1.1" xmlns="http://www.w3.org/2000/svg" p-id="2076" xmlns:xlink="http://www.w3.org/1999/xlink" width="200" height="200"><defs><style type="text/css"></style></defs><path d="M1023.7952 1024L1024 1000.7552C1024 448 576 0 23.2448 0L0 0.2048v162.7136A861.184 861.184 0 0 1 861.184 1024h162.6112z m-394.1376 0l0.512-22.528A607.6416 607.6416 0 0 0 22.528 393.8304L0 394.3424v157.0816A472.576 472.576 0 0 1 472.576 1024H629.76zM0 905.8304a118.1696 118.1696 0 1 0 236.3392 0 118.1696 118.1696 0 0 0-236.3392 0z" p-id="2077"></path></svg>