<?xml version="1.0" standalone="no"?><!DOCTYPE svg PUBLIC "-//W3C//DTD SVG 1.1//EN" "http://www.w3.org/Graphics/SVG/1.1/DTD/svg11.dtd"><svg t="1579613803428" class="icon" viewBox="0 0 1024 1024" version="1.1" xmlns="http://www.w3.org/2000/svg" p-id="10535" xmlns:xlink="http://www.w3.org/1999/xlink" width="200" height="200"><defs><style type="text/css"></style></defs><path d="M109.4 699.4c-20.5 0-37.1 16.6-37.1 37.2v222.9c0 20.5 16.6 37.2 37.1 37.2s37.1-16.6 37.1-37.2v-223c0-20.5-16.6-37.1-37.1-37.1zM375.2 461.6c-20.5 0-37.1 16.6-37.1 37.2v460.7c0 20.5 16.6 37.2 37.1 37.2s37.1-16.6 37.1-37.2V498.7c0.1-20.5-16.5-37.1-37.1-37.1zM906.9 461.6c-20.5 0-37.1 16.6-37.1 37.2v460.7c0 20.5 16.6 37.2 37.1 37.2s37.1-16.6 37.1-37.2V498.7c0.1-20.5-16.5-37.1-37.1-37.1zM641.1 639.9c-20.5 0-37.1 16.6-37.1 37.2v282.4c0 20.5 16.6 37.2 37.1 37.2s37.1-16.6 37.1-37.2V677.1c0-20.5-16.6-37.2-37.1-37.2z" p-id="10536"></path><path d="M987.1 27.5H759.8c-20.5 0-37.1 16.6-37.1 37.1s16.6 37.1 37.1 37.1H914c-0.9 0.8-1.8 1.4-2.7 2.3L669.8 360.4 437.1 127.7c-14.5-14.5-38-14.5-52.5 0L11.1 501.1c-14.5 14.5-14.5 38 0 52.5 7.3 7.2 16.8 10.9 26.3 10.9s19-3.6 26.3-10.9l347.1-347.1L644.3 440c7.1 7.1 16.9 11 26.8 10.9 10.1-0.2 19.6-4.4 26.5-11.7L950 171.5v104.2c0 20.5 16.6 37.1 37.1 37.1s37.1-16.6 37.1-37.1v-211c0-20.6-16.6-37.2-37.1-37.2z" p-id="10537"></path></svg>