<?xml version="1.0" encoding="iso-8859-1"?>
<!-- Generator: Adobe Illustrator 19.0.0, SVG Export Plug-In . SVG Version: 6.00 Build 0)  -->
<svg version="1.1" id="Capa_1" xmlns="http://www.w3.org/2000/svg" xmlns:xlink="http://www.w3.org/1999/xlink" x="0px" y="0px"
	 viewBox="0 0 512 512" style="enable-background:new 0 0 512 512;" xml:space="preserve">
<path style="fill:#FF7058;" d="M256,117.333c-102.4,0-184.533,83.2-184.533,184.533v132.267H441.6v-131.2
	C440.533,200.533,358.4,117.333,256,117.333z"/>
<path style="fill:#F1543F;" d="M129.067,316.8c-7.467,0-14.933-6.4-14.933-14.933C114.133,224,178.133,160,256,160
	c7.467,0,14.933,6.4,14.933,14.933c0,8.533-6.4,14.933-14.933,14.933c-61.867,0-113.067,50.133-113.067,113.067
	C142.933,310.4,136.533,316.8,129.067,316.8z"/>
<path style="fill:#40596B;" d="M459.733,491.733H52.267c-16,0-28.8-12.8-28.8-28.8l0,0c0-16,12.8-28.8,28.8-28.8h406.4
	c16,0,28.8,12.8,28.8,28.8l0,0C487.467,478.933,474.667,491.733,459.733,491.733z"/>
<g>
	<path style="fill:#FFD15C;" d="M0,276.267c0-6.4,4.267-10.667,10.667-10.667H48c6.4,0,10.667,4.267,10.667,10.667
		c0,6.4-4.267,10.667-10.667,10.667H10.667C4.267,286.933,0,282.667,0,276.267z"/>
	<path style="fill:#FFD15C;" d="M453.333,276.267c0-6.4,4.267-10.667,10.667-10.667h37.333c6.4,0,10.667,4.267,10.667,10.667
		c0,6.4-4.267,10.667-10.667,10.667H464C457.6,286.933,453.333,282.667,453.333,276.267z"/>
	<path style="fill:#FFD15C;" d="M74.667,94.933c4.267-4.267,10.667-4.267,14.933,0l26.667,26.667c4.267,4.267,4.267,10.667,0,14.933
		s-10.667,4.267-14.933,0l-26.667-25.6C70.4,106.667,70.4,99.2,74.667,94.933z"/>
	<path style="fill:#FFD15C;" d="M256,20.267c6.4,0,10.667,4.267,10.667,10.667v37.333c0,6.4-4.267,10.667-10.667,10.667
		c-6.4,0-10.667-4.267-10.667-10.667V30.933C245.333,25.6,249.6,20.267,256,20.267z"/>
	<path style="fill:#FFD15C;" d="M437.333,94.933c4.267,4.267,4.267,10.667,0,14.933l-26.667,26.667
		c-4.267,4.267-10.667,4.267-14.933,0c-4.267-4.267-4.267-10.667,0-14.933L422.4,94.933C425.6,91.733,433.067,91.733,437.333,94.933
		z"/>
</g>
<rect x="71.467" y="419.2" style="fill:#F1543F;" width="370.133" height="16"/>
<g>
</g>
<g>
</g>
<g>
</g>
<g>
</g>
<g>
</g>
<g>
</g>
<g>
</g>
<g>
</g>
<g>
</g>
<g>
</g>
<g>
</g>
<g>
</g>
<g>
</g>
<g>
</g>
<g>
</g>
</svg>
