<?xml version="1.0" encoding="iso-8859-1"?>
<!-- Generator: Adobe Illustrator 19.0.0, SVG Export Plug-In . SVG Version: 6.00 Build 0)  -->
<svg version="1.1" id="Layer_1" xmlns="http://www.w3.org/2000/svg" xmlns:xlink="http://www.w3.org/1999/xlink" x="0px" y="0px"
	 viewBox="0 0 512 512" style="enable-background:new 0 0 512 512;" xml:space="preserve">
<circle style="fill:#504B5A;" cx="70.621" cy="132.414" r="70.621"/>
<circle style="fill:#625D6B;" cx="70.621" cy="132.414" r="35.31"/>
<circle style="fill:#504B5A;" cx="441.379" cy="132.414" r="70.621"/>
<circle style="fill:#625D6B;" cx="441.379" cy="132.414" r="35.31"/>
<ellipse style="fill:#EDEDEE;" cx="256" cy="264.828" rx="238.345" ry="185.379"/>
<path style="fill:#DCDBDE;" d="M326.621,432.552c-13.495,0-26.66-1.331-39.373-3.844c-4.531-0.896-4.58-7.249-0.067-8.232
	c38.333-8.346,65.923-32.419,65.923-67.372c0-35.31-47.464-88.276-97.103-88.276c-40.455,0-79.362,35.151-92.392,67.277
	c-1.647,4.063-7.377,4.171-9.471,0.319c-13.876-25.522-21.724-54.51-21.724-85.251c0-73.894,45.302-137.672,110.833-167.454
	C117.544,84.875,17.655,165.774,17.655,264.828c0,102.382,106.711,185.379,238.345,185.379c40.899,0,79.384-8.023,113.018-22.14
	C355.367,430.972,341.191,432.552,326.621,432.552z"/>
<g>
	<path style="fill:#504B5A;" d="M185.379,238.345c0,26.483-17.655,97.103-61.793,97.103c-26.483,0-52.966-26.483-44.138-61.793
		s44.138-70.621,70.621-70.621C169.57,203.034,185.379,218.844,185.379,238.345z"/>
	<path style="fill:#504B5A;" d="M326.621,238.345c0,26.483,17.655,97.103,61.793,97.103c26.483,0,52.966-26.483,44.138-61.793
		c-8.828-35.31-44.138-70.621-70.621-70.621C342.43,203.034,326.621,218.844,326.621,238.345z"/>
	<path style="fill:#504B5A;" d="M341.69,346.862c-3.448-3.448-9.035-3.448-12.483,0l-8.293,8.289c-3.914,3.905-9.517,5.775-14.983,5
		l-41.103-5.874v-23.66c1.009-0.359,2.046-0.606,3.016-1.09l14.44-7.22c5.533-2.766,9.027-8.42,9.027-14.606v-0.06
		c0-9.02-7.311-16.331-16.331-16.331h-37.959c-9.02,0-16.331,7.311-16.331,16.331v0.059c0,6.186,3.495,11.84,9.027,14.606
		l14.44,7.22c0.969,0.484,2.007,0.732,3.016,1.09v23.659l-41.095,5.87c-5.543,0.806-11.078-1.09-14.991-4.991l-8.294-8.293
		c-3.448-3.448-9.035-3.448-12.483,0c-3.448,3.448-3.448,9.035,0,12.483l8.294,8.298c7.828,7.815,19.069,11.556,29.965,9.983
		L256,370.849l47.439,6.781c1.638,0.233,3.285,0.345,4.922,0.345c9.293,0,18.388-3.694,25.035-10.336l8.294-8.293
		C345.139,355.897,345.139,350.311,341.69,346.862z"/>
</g>
<g>
	<path style="fill:#8D8A94;" d="M150.069,260.414c-7.31,0-13.241-5.927-13.241-13.241v-8.828c0-7.315,5.931-13.241,13.241-13.241
		c7.31,0,13.241,5.927,13.241,13.241v8.828C163.31,254.487,157.379,260.414,150.069,260.414z"/>
	<path style="fill:#8D8A94;" d="M361.931,260.414c-7.31,0-13.241-5.927-13.241-13.241v-8.828c0-7.315,5.931-13.241,13.241-13.241
		s13.241,5.927,13.241,13.241v8.828C375.172,254.487,369.241,260.414,361.931,260.414z"/>
</g>
<g>
</g>
<g>
</g>
<g>
</g>
<g>
</g>
<g>
</g>
<g>
</g>
<g>
</g>
<g>
</g>
<g>
</g>
<g>
</g>
<g>
</g>
<g>
</g>
<g>
</g>
<g>
</g>
<g>
</g>
</svg>
