<?xml version="1.0" encoding="iso-8859-1"?>
<!-- Generator: Adobe Illustrator 19.0.0, SVG Export Plug-In . SVG Version: 6.00 Build 0)  -->
<svg version="1.1" id="Layer_1" xmlns="http://www.w3.org/2000/svg" xmlns:xlink="http://www.w3.org/1999/xlink" x="0px" y="0px"
	 viewBox="0 0 512 512" style="enable-background:new 0 0 512 512;" xml:space="preserve">
<path style="fill:#E55639;" d="M481,459.5V497c0,8.399-6.599,15-15,15H46c-8.401,0-15-6.601-15-15v-30c0-41.4,33.6-75,75-75h60.3
	l89.399,78.6l0.3-0.3l87.9-78.3h69.6C450.7,392,481,422.3,481,459.5z"/>
<path style="fill:#CF4529;" d="M481,459.5V497c0,8.399-6.599,15-15,15H256v-41.7l87.9-78.3h69.6C450.7,392,481,422.3,481,459.5z"/>
<polygon points="255.985,512 256.015,512 256,511.996 "/>
<path style="fill:#C35844;" d="M343.9,392l-75.3,113.399C266.201,508.7,261.099,512,256,512c-4.799,0-9.901-3.3-12.299-6.301
	L166.3,392H343.9z"/>
<rect x="121" y="392" style="fill:#E6EEFF;" width="30" height="120"/>
<rect x="361" y="392" style="fill:#DAE2F2;" width="30" height="120"/>
<path style="fill:#B04936;" d="M343.9,392l-75.3,113.399C266.201,508.7,261.099,512,256,512V392H343.9z"/>
<path style="fill:#FFEACC;" d="M346,302H166c-8.291,0-15,6.709-15,15c0,57.891,47.109,105,105,105s105-47.109,105-105
	C361,308.709,354.291,302,346,302z"/>
<path style="fill:#FFDBB2;" d="M346,302h-90v120c57.891,0,105-47.109,105-105C361,308.709,354.291,302,346,302z"/>
<path style="fill:#5C5F66;" d="M346,332H166c-24.814,0-45-20.186-45-45V135C121,60.557,181.557,0,256,0s135,60.557,135,135v152
	C391,311.814,370.814,332,346,332z"/>
<path style="fill:#53565C;" d="M346,332c24.814,0,45-20.186,45-45V135C391,60.557,330.443,0,256,0v332H346z"/>
<g>
</g>
<g>
</g>
<g>
</g>
<g>
</g>
<g>
</g>
<g>
</g>
<g>
</g>
<g>
</g>
<g>
</g>
<g>
</g>
<g>
</g>
<g>
</g>
<g>
</g>
<g>
</g>
<g>
</g>
</svg>
