<?xml version="1.0" standalone="no"?><!DOCTYPE svg PUBLIC "-//W3C//DTD SVG 1.1//EN" "http://www.w3.org/Graphics/SVG/1.1/DTD/svg11.dtd"><svg t="1506349015721" class="icon" style="" viewBox="0 0 1024 1024" version="1.1" xmlns="http://www.w3.org/2000/svg" p-id="8655" xmlns:xlink="http://www.w3.org/1999/xlink" width="200" height="200"><defs><style type="text/css"></style></defs><path d="M 512.426 1023.15 c 278.507 0 505.024 -222.592 511.424 -499.563 c -5.91 241.685 -189.675 435.605 -415.51 435.606 c -229.547 0 -415.659 -200.427 -415.659 -447.616 c 0 -52.971 -42.944 -95.936 -95.915 -95.936 c -52.95 0 -95.915 42.965 -95.915 95.936 c -0.003 282.539 229.035 511.573 511.574 511.573 Z M 512.427 0 c -278.507 0 -505.024 222.592 -511.403 499.563 c 5.888 -241.664 189.653 -435.627 415.488 -435.627 c 229.547 0 415.659 200.448 415.659 447.637 c 0 52.95 42.965 95.915 95.936 95.915 c 52.928 0 95.894 -42.944 95.893 -95.915 c 0 -282.539 -229.035 -511.573 -511.573 -511.573 Z" p-id="8656"></path></svg>