<?xml version="1.0" standalone="no"?><!DOCTYPE svg PUBLIC "-//W3C//DTD SVG 1.1//EN" "http://www.w3.org/Graphics/SVG/1.1/DTD/svg11.dtd"><svg t="1506392170277" class="icon" style="" viewBox="0 0 1024 1024" version="1.1" xmlns="http://www.w3.org/2000/svg" p-id="8779" xmlns:xlink="http://www.w3.org/1999/xlink" width="200" height="200"><defs><style type="text/css"></style></defs><path d="M122.505 845.060c0 0 0 0 0 0 0 40.876 33.137 74.014 74.014 74.014 40.876 0 74.014-33.137 74.014-74.014 0 0 0 0 0 0 0 0 0 0 0 0 0-40.876-33.137-74.014-74.014-74.014-40.876 0-74.014 33.138-74.014 74.014s0 0 0 0z" p-id="8780"></path><path d="M448.163 178.94c0 40.876 33.138 74.014 74.014 74.014s74.014-33.138 74.014-74.014c0 0 0 0 0 0 0-40.876-33.138-74.014-74.014-74.014-40.876 0-74.014 33.137-74.014 74.014 0 0 0 0 0 0z" p-id="8781"></path><path d="M773.821 845.060c0 0 0 0 0 0 0 40.876 33.137 74.014 74.014 74.014 40.876 0 74.014-33.137 74.014-74.014 0 0 0 0 0 0 0 0 0 0 0 0 0-40.876-33.137-74.014-74.014-74.014-40.876 0-74.014 33.138-74.014 74.014s0 0 0 0z" p-id="8782"></path></svg>