<?xml version="1.0" encoding="iso-8859-1"?>
<!-- Generator: Adobe Illustrator 19.0.0, SVG Export Plug-In . SVG Version: 6.00 Build 0)  -->
<svg version="1.1" id="Layer_1" xmlns="http://www.w3.org/2000/svg" xmlns:xlink="http://www.w3.org/1999/xlink" x="0px" y="0px"
	 viewBox="0 0 512 512" style="enable-background:new 0 0 512 512;" xml:space="preserve">
<g>
	<polygon style="fill:#FF4F19;" points="0,65.698 0,373.031 177,373.031 177,446.302 323.541,373.031 512,373.031 512,65.698 	"/>
	<polygon style="fill:#FF4F19;" points="255.91,65.698 255.91,406.847 323.541,373.031 512,373.031 512,65.698 	"/>
	<path style="fill:#FF4F19;" d="M135.01,218.07c0-7.891,1.48-15.754,4.44-23.587c2.96-7.831,7.276-14.829,12.95-20.998
		c5.672-6.165,12.58-11.161,20.72-14.985c8.14-3.821,17.39-5.735,27.75-5.735c12.332,0,23.033,2.653,32.098,7.955
		c9.065,5.304,15.817,12.21,20.258,20.72l-23.311,16.28c-1.48-3.452-3.362-6.319-5.643-8.603c-2.283-2.281-4.781-4.131-7.492-5.55
		c-2.714-1.416-5.489-2.405-8.325-2.96c-2.838-0.555-5.614-0.832-8.325-0.832c-5.799,0-10.854,1.174-15.17,3.515
		c-4.318,2.344-7.894,5.365-10.73,9.065c-2.838,3.7-4.934,7.895-6.29,12.58c-1.358,4.689-2.035,9.435-2.035,14.245
		c0,5.18,0.801,10.175,2.405,14.985c1.602,4.81,3.914,9.065,6.938,12.765c3.021,3.7,6.66,6.631,10.915,8.787
		c4.255,2.16,9.033,3.238,14.337,3.238c2.711,0,5.519-0.338,8.417-1.018c2.896-0.676,5.671-1.726,8.325-3.145
		c2.651-1.417,5.087-3.267,7.308-5.55c2.22-2.281,4.006-5.088,5.365-8.417l24.791,14.615c-1.975,4.81-4.903,9.128-8.789,12.95
		c-3.885,3.824-8.356,7.03-13.412,9.62c-5.059,2.59-10.424,4.565-16.095,5.92c-5.674,1.355-11.224,2.035-16.65,2.035
		c-9.499,0-18.223-1.942-26.178-5.827c-7.955-3.885-14.8-9.033-20.535-15.448c-5.735-6.411-10.175-13.69-13.32-21.83
		C136.582,234.72,135.01,226.458,135.01,218.07z"/>
	<path style="fill:#FF4F19;" d="M257.295,218.07c0-7.891,1.479-15.754,4.439-23.587c2.96-7.831,7.276-14.829,12.95-20.998
		c5.672-6.165,12.58-11.161,20.721-14.985c8.14-3.821,17.39-5.735,27.75-5.735c12.331,0,23.032,2.653,32.097,7.955
		c9.065,5.304,15.817,12.21,20.258,20.72l-23.31,16.28c-1.48-3.452-3.362-6.319-5.643-8.603c-2.284-2.281-4.781-4.131-7.493-5.55
		c-2.714-1.416-5.489-2.405-8.324-2.96c-2.839-0.555-5.614-0.832-8.325-0.832c-5.799,0-10.855,1.174-15.17,3.515
		c-4.319,2.344-7.895,5.365-10.73,9.065c-2.839,3.7-4.935,7.895-6.29,12.58c-1.358,4.689-2.035,9.435-2.035,14.245
		c0,5.18,0.801,10.175,2.405,14.985c1.602,4.81,3.914,9.065,6.938,12.765c3.021,3.7,6.66,6.631,10.915,8.787
		c4.255,2.16,9.033,3.238,14.338,3.238c2.711,0,5.518-0.338,8.417-1.018c2.897-0.676,5.672-1.726,8.325-3.145
		c2.65-1.417,5.088-3.267,7.308-5.55c2.22-2.281,4.006-5.088,5.365-8.417l24.79,14.615c-1.975,4.81-4.903,9.128-8.788,12.95
		c-3.885,3.824-8.356,7.03-13.412,9.62c-5.059,2.59-10.424,4.565-16.096,5.92c-5.674,1.355-11.224,2.035-16.649,2.035
		c-9.499,0-18.223-1.942-26.178-5.827c-7.955-3.885-14.8-9.033-20.535-15.448c-5.734-6.411-10.175-13.69-13.319-21.83
		C258.867,234.72,257.295,226.458,257.295,218.07z"/>
	<polygon style="fill:#FF4F19;" points="0,65.698 0,373.031 177,373.031 177,446.302 323.541,373.031 512,373.031 512,65.698 	"/>
</g>
<polygon style="fill:#DC3910;" points="255.91,65.698 255.91,406.847 323.541,373.031 512,373.031 512,65.698 "/>
<path style="fill:#FFFFFF;" d="M135.01,218.07c0-7.891,1.48-15.754,4.44-23.587c2.96-7.831,7.276-14.829,12.95-20.998
	c5.672-6.165,12.58-11.161,20.72-14.985c8.14-3.821,17.39-5.735,27.75-5.735c12.332,0,23.033,2.653,32.098,7.955
	c9.065,5.304,15.817,12.21,20.258,20.72l-23.311,16.28c-1.48-3.452-3.362-6.319-5.643-8.603c-2.283-2.281-4.781-4.131-7.492-5.55
	c-2.714-1.416-5.489-2.405-8.325-2.96c-2.838-0.555-5.614-0.832-8.325-0.832c-5.799,0-10.854,1.174-15.17,3.515
	c-4.318,2.344-7.894,5.365-10.73,9.065c-2.838,3.7-4.934,7.895-6.29,12.58c-1.358,4.689-2.035,9.435-2.035,14.245
	c0,5.18,0.801,10.175,2.405,14.985c1.602,4.81,3.914,9.065,6.938,12.765c3.021,3.7,6.66,6.631,10.915,8.787
	c4.255,2.16,9.033,3.238,14.337,3.238c2.711,0,5.519-0.338,8.417-1.018c2.896-0.676,5.671-1.726,8.325-3.145
	c2.651-1.417,5.087-3.267,7.308-5.55c2.22-2.281,4.006-5.088,5.365-8.417l24.791,14.615c-1.975,4.81-4.903,9.128-8.789,12.95
	c-3.885,3.824-8.356,7.03-13.412,9.62c-5.059,2.59-10.424,4.565-16.095,5.92c-5.674,1.355-11.224,2.035-16.65,2.035
	c-9.499,0-18.223-1.942-26.178-5.827c-7.955-3.885-14.8-9.033-20.535-15.448c-5.735-6.411-10.175-13.69-13.32-21.83
	C136.582,234.72,135.01,226.458,135.01,218.07z"/>
<path style="fill:#FFF1AB;" d="M257.295,218.07c0-7.891,1.479-15.754,4.439-23.587c2.96-7.831,7.276-14.829,12.95-20.998
	c5.672-6.165,12.58-11.161,20.721-14.985c8.14-3.821,17.39-5.735,27.75-5.735c12.331,0,23.032,2.653,32.097,7.955
	c9.065,5.304,15.817,12.21,20.258,20.72l-23.31,16.28c-1.48-3.452-3.362-6.319-5.643-8.603c-2.284-2.281-4.781-4.131-7.493-5.55
	c-2.714-1.416-5.489-2.405-8.324-2.96c-2.839-0.555-5.614-0.832-8.325-0.832c-5.799,0-10.855,1.174-15.17,3.515
	c-4.319,2.344-7.895,5.365-10.73,9.065c-2.839,3.7-4.935,7.895-6.29,12.58c-1.358,4.689-2.035,9.435-2.035,14.245
	c0,5.18,0.801,10.175,2.405,14.985c1.602,4.81,3.914,9.065,6.938,12.765c3.021,3.7,6.66,6.631,10.915,8.787
	c4.255,2.16,9.033,3.238,14.338,3.238c2.711,0,5.518-0.338,8.417-1.018c2.897-0.676,5.672-1.726,8.325-3.145
	c2.65-1.417,5.088-3.267,7.308-5.55c2.22-2.281,4.006-5.088,5.365-8.417l24.79,14.615c-1.975,4.81-4.903,9.128-8.788,12.95
	c-3.885,3.824-8.356,7.03-13.412,9.62c-5.059,2.59-10.424,4.565-16.096,5.92c-5.674,1.355-11.224,2.035-16.649,2.035
	c-9.499,0-18.223-1.942-26.178-5.827c-7.955-3.885-14.8-9.033-20.535-15.448c-5.734-6.411-10.175-13.69-13.319-21.83
	C258.867,234.72,257.295,226.458,257.295,218.07z"/>
<g>
</g>
<g>
</g>
<g>
</g>
<g>
</g>
<g>
</g>
<g>
</g>
<g>
</g>
<g>
</g>
<g>
</g>
<g>
</g>
<g>
</g>
<g>
</g>
<g>
</g>
<g>
</g>
<g>
</g>
</svg>
