<svg xmlns="http://www.w3.org/2000/svg" viewBox="0 0 512 512"><g fill="#ff4f19"><path d="M0 65.698v307.333h177v73.271l146.541-73.271H512V65.698z"/><path d="M255.91 65.698v341.149l67.631-33.816H512V65.698zM135.01 218.07c0-7.891 1.48-15.754 4.44-23.587a64.344 64.344 0 0 1 12.95-20.998c5.672-6.165 12.58-11.161 20.72-14.985 8.14-3.821 17.39-5.735 27.75-5.735 12.332 0 23.033 2.653 32.098 7.955 9.065 5.304 15.817 12.21 20.258 20.72l-23.311 16.28c-1.48-3.452-3.362-6.319-5.643-8.603-2.283-2.281-4.781-4.131-7.492-5.55-2.714-1.416-5.489-2.405-8.325-2.96a43.329 43.329 0 0 0-8.325-.832c-5.799 0-10.854 1.174-15.17 3.515-4.318 2.344-7.894 5.365-10.73 9.065-2.838 3.7-4.934 7.895-6.29 12.58a50.95 50.95 0 0 0-2.035 14.245c0 5.18.801 10.175 2.405 14.985 1.602 4.81 3.914 9.065 6.938 12.765a33.484 33.484 0 0 0 10.915 8.787c4.255 2.16 9.033 3.238 14.337 3.238 2.711 0 5.519-.338 8.417-1.018a33.966 33.966 0 0 0 8.325-3.145c2.651-1.417 5.087-3.267 7.308-5.55 2.22-2.281 4.006-5.088 5.365-8.417l24.791 14.615c-1.975 4.81-4.903 9.128-8.789 12.95-3.885 3.824-8.356 7.03-13.412 9.62-5.059 2.59-10.424 4.565-16.095 5.92-5.674 1.355-11.224 2.035-16.65 2.035-9.499 0-18.223-1.942-26.178-5.827-7.955-3.885-14.8-9.033-20.535-15.448-5.735-6.411-10.175-13.69-13.32-21.83-3.145-8.14-4.717-16.402-4.717-24.79z"/><path d="M257.295 218.07c0-7.891 1.479-15.754 4.439-23.587a64.344 64.344 0 0 1 12.95-20.998c5.672-6.165 12.58-11.161 20.721-14.985 8.14-3.821 17.39-5.735 27.75-5.735 12.331 0 23.032 2.653 32.097 7.955 9.065 5.304 15.817 12.21 20.258 20.72l-23.31 16.28c-1.48-3.452-3.362-6.319-5.643-8.603-2.284-2.281-4.781-4.131-7.493-5.55-2.714-1.416-5.489-2.405-8.324-2.96-2.839-.555-5.614-.832-8.325-.832-5.799 0-10.855 1.174-15.17 3.515-4.319 2.344-7.895 5.365-10.73 9.065-2.839 3.7-4.935 7.895-6.29 12.58a50.95 50.95 0 0 0-2.035 14.245c0 5.18.801 10.175 2.405 14.985 1.602 4.81 3.914 9.065 6.938 12.765a33.484 33.484 0 0 0 10.915 8.787c4.255 2.16 9.033 3.238 14.338 3.238 2.711 0 5.518-.338 8.417-1.018a33.935 33.935 0 0 0 8.325-3.145c2.65-1.417 5.088-3.267 7.308-5.55 2.22-2.281 4.006-5.088 5.365-8.417l24.79 14.615c-1.975 4.81-4.903 9.128-8.788 12.95-3.885 3.824-8.356 7.03-13.412 9.62-5.059 2.59-10.424 4.565-16.096 5.92-5.674 1.355-11.224 2.035-16.649 2.035-9.499 0-18.223-1.942-26.178-5.827-7.955-3.885-14.8-9.033-20.535-15.448-5.734-6.411-10.175-13.69-13.319-21.83-3.147-8.14-4.719-16.402-4.719-24.79z"/><path d="M0 65.698v307.333h177v73.271l146.541-73.271H512V65.698z"/></g><path fill="#dc3910" d="M255.91 65.698v341.149l67.631-33.816H512V65.698z"/><path d="M135.01 218.07c0-7.891 1.48-15.754 4.44-23.587a64.344 64.344 0 0 1 12.95-20.998c5.672-6.165 12.58-11.161 20.72-14.985 8.14-3.821 17.39-5.735 27.75-5.735 12.332 0 23.033 2.653 32.098 7.955 9.065 5.304 15.817 12.21 20.258 20.72l-23.311 16.28c-1.48-3.452-3.362-6.319-5.643-8.603-2.283-2.281-4.781-4.131-7.492-5.55-2.714-1.416-5.489-2.405-8.325-2.96a43.329 43.329 0 0 0-8.325-.832c-5.799 0-10.854 1.174-15.17 3.515-4.318 2.344-7.894 5.365-10.73 9.065-2.838 3.7-4.934 7.895-6.29 12.58a50.95 50.95 0 0 0-2.035 14.245c0 5.18.801 10.175 2.405 14.985 1.602 4.81 3.914 9.065 6.938 12.765a33.484 33.484 0 0 0 10.915 8.787c4.255 2.16 9.033 3.238 14.337 3.238 2.711 0 5.519-.338 8.417-1.018a33.966 33.966 0 0 0 8.325-3.145c2.651-1.417 5.087-3.267 7.308-5.55 2.22-2.281 4.006-5.088 5.365-8.417l24.791 14.615c-1.975 4.81-4.903 9.128-8.789 12.95-3.885 3.824-8.356 7.03-13.412 9.62-5.059 2.59-10.424 4.565-16.095 5.92-5.674 1.355-11.224 2.035-16.65 2.035-9.499 0-18.223-1.942-26.178-5.827-7.955-3.885-14.8-9.033-20.535-15.448-5.735-6.411-10.175-13.69-13.32-21.83-3.145-8.14-4.717-16.402-4.717-24.79z" fill="#fff"/><path d="M257.295 218.07c0-7.891 1.479-15.754 4.439-23.587a64.344 64.344 0 0 1 12.95-20.998c5.672-6.165 12.58-11.161 20.721-14.985 8.14-3.821 17.39-5.735 27.75-5.735 12.331 0 23.032 2.653 32.097 7.955 9.065 5.304 15.817 12.21 20.258 20.72l-23.31 16.28c-1.48-3.452-3.362-6.319-5.643-8.603-2.284-2.281-4.781-4.131-7.493-5.55-2.714-1.416-5.489-2.405-8.324-2.96-2.839-.555-5.614-.832-8.325-.832-5.799 0-10.855 1.174-15.17 3.515-4.319 2.344-7.895 5.365-10.73 9.065-2.839 3.7-4.935 7.895-6.29 12.58a50.95 50.95 0 0 0-2.035 14.245c0 5.18.801 10.175 2.405 14.985 1.602 4.81 3.914 9.065 6.938 12.765a33.484 33.484 0 0 0 10.915 8.787c4.255 2.16 9.033 3.238 14.338 3.238 2.711 0 5.518-.338 8.417-1.018a33.935 33.935 0 0 0 8.325-3.145c2.65-1.417 5.088-3.267 7.308-5.55 2.22-2.281 4.006-5.088 5.365-8.417l24.79 14.615c-1.975 4.81-4.903 9.128-8.788 12.95-3.885 3.824-8.356 7.03-13.412 9.62-5.059 2.59-10.424 4.565-16.096 5.92-5.674 1.355-11.224 2.035-16.649 2.035-9.499 0-18.223-1.942-26.178-5.827-7.955-3.885-14.8-9.033-20.535-15.448-5.734-6.411-10.175-13.69-13.319-21.83-3.147-8.14-4.719-16.402-4.719-24.79z" fill="#fff1ab"/></svg>