<?xml version="1.0" standalone="no"?><!DOCTYPE svg PUBLIC "-//W3C//DTD SVG 1.1//EN" "http://www.w3.org/Graphics/SVG/1.1/DTD/svg11.dtd"><svg t="1602072935742" class="icon" viewBox="0 0 1024 1024" version="1.1" xmlns="http://www.w3.org/2000/svg" p-id="19479" xmlns:xlink="http://www.w3.org/1999/xlink" width="200" height="200"><defs><style type="text/css"></style></defs><path d="M316.735285 445.651494a279.964694 279.964694 0 0 0 89.588702 56.845623 290.424288 290.424288 0 0 0 211.295181 0 278.941472 278.941472 0 0 0 89.588702-56.845623 263.308926 263.308926 0 0 0 59.915286-84.699978 247.903762 247.903762 0 0 0 0-199.869211 263.138389 263.138389 0 0 0-59.858441-84.699978 279.964694 279.964694 0 0 0-89.588702-56.845623 295.881468 295.881468 0 0 0-211.352026 0 279.964694 279.964694 0 0 0-89.588702 56.845623 263.138389 263.138389 0 0 0-59.858441 84.699978 247.903762 247.903762 0 0 0 0 199.869211 262.228859 262.228859 0 0 0 59.858441 84.699978z m416.564726 136.429495H290.699989a221.129474 221.129474 0 1 0 0 441.5768h442.600022a221.186319 221.186319 0 1 0 0-441.633645z m0 0" p-id="19480"></path></svg>