<?xml version="1.0" standalone="no"?><!DOCTYPE svg PUBLIC "-//W3C//DTD SVG 1.1//EN" "http://www.w3.org/Graphics/SVG/1.1/DTD/svg11.dtd"><svg t="1534152292335" class="icon" style="" viewBox="0 0 1024 1024" version="1.1" xmlns="http://www.w3.org/2000/svg" p-id="1943" xmlns:xlink="http://www.w3.org/1999/xlink" width="200" height="200"><defs><style type="text/css"></style></defs><path d="M511.998465 64.094784c-247.38632 0-447.931822 200.546525-447.931822 447.932846s200.546525 447.932846 447.931822 447.932846c247.387343 0 447.932846-200.546525 447.932846-447.932846S759.385808 64.094784 511.998465 64.094784zM511.998465 924.126338c-227.596602 0-412.096662-184.501084-412.096662-412.098709 0-227.597625 184.501084-412.097686 412.096662-412.097686 227.598648 0 412.099732 184.501084 412.099732 412.097686C924.098197 739.626277 739.597113 924.126338 511.998465 924.126338z" p-id="1944"></path><path d="M405.623739 686.057221l0 60.810994c0 23.552415-18.897396 45.713134-42.072211 49.474808L252.197394 830.059939c54.0715 46.543036 147.818627 94.067422 259.801071 94.067422 111.983467 0 197.091844-40.315194 268.760117-98.546434l-120.188336-28.353768c-23.130813-4.26207-41.872666-26.745131-41.872666-50.358945l0-60.810994c24.444738-28.155247 31.724539-71.389934 40.235376-118.789477 13.420661 3.13234 17.383926-14.69877 24.733311-49.229215 7.330966-34.526351 30.30419-69.910233 9.535167-74.324776-2.764973-0.586354-5.362124-0.617054-7.822153-0.144286l7.909134-116.028597c3.306302-48.442292-17.636682-102.010325-48.188512-114.950032-50.602492-21.446451-66.23554-32.815383-97.704253-38.944987-31.483038-6.127558-62.36028 2.467191-95.081519 12.979616-32.720216 10.515494-62.382792 37.868469-86.838787 52.622498-24.452925 14.759145-37.186947 48.152696-34.44858 88.292905l7.90504 115.963105c-2.345418-0.403183-4.824889-0.349971-7.449669 0.209778-20.764929 4.41352 2.201132 39.798425 9.541307 74.324776 7.340175 34.530444 11.307533 52.361555 22.815635 49.910737C374.14991 614.755292 381.205607 657.921417 405.623739 686.057221z" p-id="1945"></path></svg>