<?xml version="1.0" standalone="no"?><!DOCTYPE svg PUBLIC "-//W3C//DTD SVG 1.1//EN" "http://www.w3.org/Graphics/SVG/1.1/DTD/svg11.dtd"><svg t="1601298380303" class="icon" viewBox="0 0 1024 1024" version="1.1" xmlns="http://www.w3.org/2000/svg" p-id="50404" xmlns:xlink="http://www.w3.org/1999/xlink" width="200" height="200"><defs><style type="text/css"></style></defs><path d="M537.6 0h-204.8c-15.36 0-25.6 10.24-25.6 25.6v286.72c-30.72 10.24-51.2 35.84-51.2 71.68C256 424.96 291.84 460.8 332.8 460.8S409.6 424.96 409.6 384c0-35.84-20.48-61.44-51.2-71.68V153.6h179.2c15.36 0 25.6-10.24 25.6-25.6v-102.4c0-15.36-10.24-25.6-25.6-25.6z" p-id="50405"></path><path d="M977.92 353.28c-20.48-46.08-40.96-81.92-71.68-107.52-30.72-25.6-71.68-40.96-112.64-40.96h-358.4c-15.36 0-25.6 10.24-25.6 25.6s10.24 25.6 25.6 25.6h358.4c143.36 0 179.2 215.04 179.2 409.6H153.6V256h76.8c15.36 0 25.6-10.24 25.6-25.6S245.76 204.8 230.4 204.8H153.6v-25.6c0-15.36-10.24-25.6-25.6-25.6h-102.4c-15.36 0-25.6 10.24-25.6 25.6v563.2c0 15.36 10.24 25.6 25.6 25.6h102.4c15.36 0 25.6-10.24 25.6-25.6V716.8h256v281.6c0 15.36 10.24 25.6 25.6 25.6h153.6c15.36 0 25.6-10.24 25.6-25.6V716.8h384c15.36 0 25.6-10.24 25.6-25.6 0-143.36-15.36-256-46.08-337.92z" p-id="50406"></path></svg>