<?xml version="1.0" standalone="no"?><!DOCTYPE svg PUBLIC "-//W3C//DTD SVG 1.1//EN" "http://www.w3.org/Graphics/SVG/1.1/DTD/svg11.dtd"><svg t="1601275362944" class="icon" viewBox="0 0 1024 1024" version="1.1" xmlns="http://www.w3.org/2000/svg" p-id="9288" xmlns:xlink="http://www.w3.org/1999/xlink" width="200" height="200"><defs><style type="text/css"></style></defs><path d="M750.933333 546.1312c0-37.649067-30.6176-68.266667-68.266666-68.266667s-68.266667 30.6176-68.266667 68.266667v34.133333c0 37.649067 30.6176 68.266667 68.266667 68.266667 14.574933 0 28.023467-4.676267 39.1168-12.475733 8.192 17.390933 25.7536 29.5424 46.216533 29.5424 28.228267 0 51.2-22.971733 51.2-51.2v-68.266667c0-75.281067-61.252267-136.533333-136.533333-136.533333s-136.533333 61.252267-136.533334 136.533333v51.2c0 75.281067 61.252267 136.533333 136.533334 136.533333h85.333333c28.228267 0 51.2-22.971733 51.2-51.2h-34.133333c0 9.403733-7.645867 17.066667-17.066667 17.066667h-85.333333c-56.4736 0-102.4-45.9264-102.4-102.4v-51.2c0-56.4736 45.9264-102.4 102.4-102.4s102.4 45.9264 102.4 102.4v68.266667c0 9.403733-7.645867 17.066667-17.066667 17.066666s-17.066667-7.662933-17.066667-17.066666v-68.266667z m-34.133333 34.133333c0 18.824533-15.3088 34.133333-34.133333 34.133334s-34.133333-15.3088-34.133334-34.133334v-34.133333c0-18.824533 15.3088-34.133333 34.133334-34.133333s34.133333 15.3088 34.133333 34.133333v34.133333zM525.9776 947.812267a436.593067 436.593067 0 0 1-32.426667 5.051733l3.925334 33.8944c11.690667-1.365333 23.466667-3.191467 35.037866-5.444267l-6.536533-33.501866zM460.782933 955.406933a447.786667 447.786667 0 0 1-32.8192 0.034134l-1.262933 34.116266a469.621333 469.621333 0 0 0 35.447467-0.0512l-1.365334-34.0992zM299.656533 930.728533l-11.52 32.136534a448.072533 448.072533 0 0 0 33.774934 10.666666l8.994133-32.9216a422.4 422.4 0 0 1-31.249067-9.8816zM362.871467 948.068267l-6.4512 33.518933c11.52 2.218667 23.296 4.010667 35.0208 5.341867l3.84-33.911467a420.469333 420.469333 0 0 1-32.4096-4.949333zM239.854933 903.9168l-16.315733 29.952a460.701867 460.701867 0 0 0 31.726933 15.7696l13.994667-31.1296a435.694933 435.694933 0 0 1-29.405867-14.592zM136.004267 824.437333l-24.6272 23.6544a466.6112 466.6112 0 0 0 25.4976 24.593067l22.7328-25.463467a422.9632 422.9632 0 0 1-23.6032-22.784zM184.917333 868.162133l-20.770133 27.101867a469.269333 469.269333 0 0 0 28.945067 20.445867l18.602666-28.6208a424.416 424.416 0 0 1-26.7776-18.926934zM589.175467 930.267733c-10.24 3.720533-20.753067 7.082667-31.266134 10.001067l9.130667 32.887467a454.158933 454.158933 0 0 0 33.774933-10.8032l-11.639466-32.085334zM703.726933 867.2576a427.2256 427.2256 0 0 1-26.709333 19.012267l18.705067 28.552533c9.915733-6.485333 19.626667-13.4144 28.8768-20.548267l-20.872534-27.016533zM751.479467 824.420267a436.738133 436.738133 0 0 1-22.528 21.794133l22.8352 25.361067a469.898667 469.898667 0 0 0 24.285866-23.483734l-24.593066-23.671466zM648.874667 903.165867a416.384 416.384 0 0 1-29.3376 14.711466l14.1312 31.0784c10.752-4.898133 21.418667-10.24 31.675733-15.889066l-16.469333-29.9008zM389.9904 37.237333c-11.690667 1.365333-23.466667 3.191467-35.037867 5.444267l6.536534 33.501867a436.593067 436.593067 0 0 1 32.426666-5.051734l-3.925333-33.8944zM425.3184 34.4896l1.365333 34.0992a429.504 429.504 0 0 1 32.8192-0.034133l1.262934-34.116267c-11.741867-0.426667-23.6544-0.392533-35.447467 0.0512zM320.426667 50.839467a454.158933 454.158933 0 0 0-33.774934 10.8032l11.639467 32.085333c10.24-3.720533 20.753067-7.082667 31.266133-10.001067l-9.130666-32.887466zM253.7984 75.04c-10.752 4.898133-21.418667 10.24-31.675733 15.889067l16.469333 29.9008a416.384 416.384 0 0 1 29.3376-14.711467l-14.1312-31.0784zM565.5552 50.464l-9.0112 32.904533a422.4 422.4 0 0 1 31.249067 9.8816l11.537066-32.119466a448.072533 448.072533 0 0 0-33.774933-10.666667zM496.0256 37.066667l-3.822933 33.928533c10.837333 1.2288 21.742933 2.884267 32.4096 4.949333l6.434133-33.536c-11.52-2.218667-23.296-4.010667-35.0208-5.341866zM191.744 109.173333c-9.915733 6.485333-19.626667 13.4144-28.8768 20.548267l20.872533 27.016533a427.2256 427.2256 0 0 1 26.709334-19.012266L191.744 109.173333zM694.3744 108.285867l-18.602667 28.6208a424.416 424.416 0 0 1 26.7776 18.926933l20.770134-27.101867a469.269333 469.269333 0 0 0-28.945067-20.445866zM750.592 151.310933l-22.7328 25.463467a422.9632 422.9632 0 0 1 23.6032 22.784l24.6272-23.6544a466.6112 466.6112 0 0 0-25.4976-24.593067zM135.68 152.4032a469.898667 469.898667 0 0 0-24.285867 23.483733l24.593067 23.671467c7.253333-7.5264 14.830933-14.848 22.528-21.777067L135.68 152.4032zM632.200533 74.357333l-13.994666 31.1296a435.694933 435.694933 0 0 1 29.405866 14.592l16.315734-29.952a460.701867 460.701867 0 0 0-31.726934-15.7696z" p-id="9289"></path><path d="M1024 255.997867v-34.133334H17.066667c-9.437867 0-17.066667 7.645867-17.066667 17.066667v477.866667c0 47.0528 38.280533 85.333333 85.333333 85.333333h716.8c47.0528 0 85.333333-38.280533 85.333334-85.333333v-324.266667h34.133333v-34.133333h-34.133333v-34.133334h85.333333v-34.133333h-85.333333v-34.133333h136.533333z m-223.402667 0L443.733333 441.563733 86.869333 255.997867h713.728z m52.736 460.8c0 28.228267-22.971733 51.2-51.2 51.2H85.333333c-28.228267 0-51.2-22.971733-51.2-51.2V267.04l401.732267 208.896c2.474667 1.28 5.1712 1.928533 7.867733 1.928533a17.12 17.12 0 0 0 7.867734-1.928533L853.333333 267.04v449.757867z" p-id="9290"></path><path d="M68.266667 699.7312h34.133333v34.133333H68.266667zM136.533333 699.7312h34.133334v34.133333H136.533333zM204.8 699.7312h34.133333v34.133333H204.8z" p-id="9291"></path></svg>