<?xml version="1.0" standalone="no"?><!DOCTYPE svg PUBLIC "-//W3C//DTD SVG 1.1//EN" "http://www.w3.org/Graphics/SVG/1.1/DTD/svg11.dtd"><svg t="1539135390500" class="icon" style="" viewBox="0 0 1024 1024" version="1.1" xmlns="http://www.w3.org/2000/svg" p-id="18420" xmlns:xlink="http://www.w3.org/1999/xlink" width="200" height="200"><defs><style type="text/css"></style></defs><path d="M864.80384 733.30688l-216.68864-219.4176c-9.64096-9.71776-26.22976-9.64096-35.79904 0-9.82528 9.93792-9.82528 26.04544 0 35.94752l216.68864 219.4176c23.20384 23.54176 23.20384 61.84448 0 85.38112-22.45632 22.71744-61.6192 22.64576-84.03968 0l-213.84704-216.576c-6.9888-10.38848-21.44768-14.64832-32.58368-8.63232-34.6368 18.68288-73.42592 28.58496-112.13824 28.58496-63.11424 0-122.78784-25.22112-167.9616-70.99904-60.01152-60.79488-82.72896-150.06208-61.80352-231.82336l120.05888 121.58976a60.13952 60.13952 0 0 0 43.04384 17.97632c16.256 0 31.57504-6.38976 43.04384-17.97632l83.58912-84.7104a61.5936 61.5936 0 0 0 17.74592-43.45856c0-16.40448-6.31296-31.87712-17.74592-43.45856l-120.1664-121.7024c19.3536-5.12 39.27552-7.99744 59.71456-7.99744 63.22688 0 124.8768 25.63072 169.0112 70.35904 56.30976 57.02144 80.67584 138.40384 65.2032 217.66144-2.65216 13.824 6.24128 27.2384 19.69152 29.89056 1.64352 0.37376 3.36384 0.5632 5.07904 0.5632 12.032 0 22.45632-8.63232 24.77568-20.58752 18.71872-95.91808-10.79808-194.41664-78.95552-263.51104-53.54496-54.2208-128.24064-85.30944-204.88192-85.30944-40.50432 0-79.6672 8.3712-116.28544 24.81152-12.66688 5.64224-18.42176 20.736-12.85632 33.55648 0.896 2.01728 2.39104 3.58912 3.7376 5.26848 0.63488 0.86016 0.9728 1.8688 1.75616 2.65216L410.60864 341.0944c1.9456 1.9456 2.99008 4.59776 2.99008 7.4752 0 2.87744-1.00864 5.49376-2.99008 7.4752L327.02464 440.7552c-3.88608 3.92192-10.6496 3.92192-14.53568 0L163.84512 290.24256c-0.78336-0.78336-1.792-1.08544-2.65216-1.75616-1.60768-1.26976-3.02592-2.72896-4.97152-3.58912-6.31296-2.80064-13.3376-2.65216-19.46624-0.18944-2.31936 0.86016-4.33664 2.39104-6.31296 3.96288-0.59904 0.4864-1.34656 0.71168-1.8688 1.23392-0.14848 0.14848-0.37376 0.18944-0.52224 0.3328-1.19296 1.23392-1.792 2.7648-2.72896 4.1472-0.8192 1.19296-1.90464 2.12992-2.50368 3.51232-0.11264 0.26112-0.14848 0.4864-0.26112 0.74752-47.52896 109.52192-23.50592 239.70304 60.04736 324.26496 54.81472 55.45472 127.11936 86.05184 203.7248 86.05184 40.32 0 80.4864-9.344 117.66784-26.15808l205.1072 207.72352c20.77696 21.00224 48.38912 32.58368 77.7984 32.58368 29.44512 0 57.05728-11.58144 77.83424-32.58368 42.84928-43.2896 42.84928-113.80224 0.06656-157.21984z" p-id="18421"></path></svg>