<?xml version="1.0" standalone="no"?><!DOCTYPE svg PUBLIC "-//W3C//DTD SVG 1.1//EN" "http://www.w3.org/Graphics/SVG/1.1/DTD/svg11.dtd"><svg t="1542373466843" class="icon" style="" viewBox="0 0 1024 1024" version="1.1" xmlns="http://www.w3.org/2000/svg" p-id="3477" xmlns:xlink="http://www.w3.org/1999/xlink" width="200" height="200"><defs><style type="text/css"></style></defs><path d="M179.2 110.933333C136.8576 110.933333 102.4 145.390933 102.4 187.733333s34.4576 76.8 76.8 76.8S256 230.075733 256 187.733333s-34.4576-76.8-76.8-76.8z m0 119.466667C155.682133 230.4 136.533333 211.268267 136.533333 187.733333s19.1488-42.666667 42.666667-42.666666S221.866667 164.1984 221.866667 187.733333s-19.1488 42.666667-42.666667 42.666667z" fill="" p-id="3478"></path><path d="M853.333333 162.133333m-17.066666 0a17.066667 17.066667 0 1 0 34.133333 0 17.066667 17.066667 0 1 0-34.133333 0Z" fill="" p-id="3479"></path><path d="M785.066667 162.133333m-17.066667 0a17.066667 17.066667 0 1 0 34.133333 0 17.066667 17.066667 0 1 0-34.133333 0Z" fill="" p-id="3480"></path><path d="M887.466667 213.333333m-17.066667 0a17.066667 17.066667 0 1 0 34.133333 0 17.066667 17.066667 0 1 0-34.133333 0Z" fill="" p-id="3481"></path><path d="M819.2 213.333333m-17.066667 0a17.066667 17.066667 0 1 0 34.133334 0 17.066667 17.066667 0 1 0-34.133334 0Z" fill="" p-id="3482"></path><path d="M716.8 162.133333m-17.066667 0a17.066667 17.066667 0 1 0 34.133334 0 17.066667 17.066667 0 1 0-34.133334 0Z" fill="" p-id="3483"></path><path d="M750.933333 213.333333m-17.066666 0a17.066667 17.066667 0 1 0 34.133333 0 17.066667 17.066667 0 1 0-34.133333 0Z" fill="" p-id="3484"></path><path d="M648.533333 162.133333m-17.066666 0a17.066667 17.066667 0 1 0 34.133333 0 17.066667 17.066667 0 1 0-34.133333 0Z" fill="" p-id="3485"></path><path d="M682.666667 213.333333m-17.066667 0a17.066667 17.066667 0 1 0 34.133333 0 17.066667 17.066667 0 1 0-34.133333 0Z" fill="" p-id="3486"></path><path d="M580.266667 162.133333m-17.066667 0a17.066667 17.066667 0 1 0 34.133333 0 17.066667 17.066667 0 1 0-34.133333 0Z" fill="" p-id="3487"></path><path d="M614.4 213.333333m-17.066667 0a17.066667 17.066667 0 1 0 34.133334 0 17.066667 17.066667 0 1 0-34.133334 0Z" fill="" p-id="3488"></path><path d="M1024 288.290133V87.176533A78.728533 78.728533 0 0 0 945.3568 8.533333H78.6432A78.728533 78.728533 0 0 0 0 87.176533v201.096534c0 25.070933 11.997867 47.172267 30.327467 61.576533C11.997867 364.270933 0 386.389333 0 411.4432v201.096533c0 25.070933 11.997867 47.172267 30.327467 61.576534C11.997867 688.5376 0 710.656 0 735.709867v201.096533A78.728533 78.728533 0 0 0 78.6432 1015.466667h866.696533a78.728533 78.728533 0 0 0 78.6432-78.6432V735.709867c0-25.070933-11.997867-47.172267-30.327466-61.576534C1012.002133 659.729067 1024 637.610667 1024 612.5568V411.4432c0-25.070933-11.997867-47.172267-30.327467-61.576533C1012.002133 335.4624 1024 313.344 1024 288.290133z m-34.133333 447.419734v201.096533a44.561067 44.561067 0 0 1-44.509867 44.509867H78.6432A44.544 44.544 0 0 1 34.133333 936.823467V735.709867A44.561067 44.561067 0 0 1 78.6432 691.2h866.696533A44.561067 44.561067 0 0 1 989.866667 735.709867z m0-324.266667v201.096533a44.561067 44.561067 0 0 1-44.509867 44.509867H78.6432A44.544 44.544 0 0 1 34.133333 612.5568V411.4432A44.561067 44.561067 0 0 1 78.6432 366.933333h866.696533A44.561067 44.561067 0 0 1 989.866667 411.4432zM78.6432 332.8A44.561067 44.561067 0 0 1 34.133333 288.290133V87.176533A44.561067 44.561067 0 0 1 78.6432 42.666667h866.696533A44.561067 44.561067 0 0 1 989.866667 87.176533v201.096534a44.561067 44.561067 0 0 1-44.509867 44.509866H78.6432z" fill="" p-id="3489"></path><path d="M179.2 588.8c42.3424 0 76.8-34.4576 76.8-76.8s-34.4576-76.8-76.8-76.8S102.4 469.6576 102.4 512s34.4576 76.8 76.8 76.8z m0-119.466667c23.517867 0 42.666667 19.131733 42.666667 42.666667s-19.1488 42.666667-42.666667 42.666667S136.533333 535.534933 136.533333 512s19.1488-42.666667 42.666667-42.666667z" fill="" p-id="3490"></path><path d="M853.333333 486.4m-17.066666 0a17.066667 17.066667 0 1 0 34.133333 0 17.066667 17.066667 0 1 0-34.133333 0Z" fill="" p-id="3491"></path><path d="M785.066667 486.4m-17.066667 0a17.066667 17.066667 0 1 0 34.133333 0 17.066667 17.066667 0 1 0-34.133333 0Z" fill="" p-id="3492"></path><path d="M887.466667 537.6m-17.066667 0a17.066667 17.066667 0 1 0 34.133333 0 17.066667 17.066667 0 1 0-34.133333 0Z" fill="" p-id="3493"></path><path d="M819.2 537.6m-17.066667 0a17.066667 17.066667 0 1 0 34.133334 0 17.066667 17.066667 0 1 0-34.133334 0Z" fill="" p-id="3494"></path><path d="M716.8 486.4m-17.066667 0a17.066667 17.066667 0 1 0 34.133334 0 17.066667 17.066667 0 1 0-34.133334 0Z" fill="" p-id="3495"></path><path d="M750.933333 537.6m-17.066666 0a17.066667 17.066667 0 1 0 34.133333 0 17.066667 17.066667 0 1 0-34.133333 0Z" fill="" p-id="3496"></path><path d="M648.533333 486.4m-17.066666 0a17.066667 17.066667 0 1 0 34.133333 0 17.066667 17.066667 0 1 0-34.133333 0Z" fill="" p-id="3497"></path><path d="M682.666667 537.6m-17.066667 0a17.066667 17.066667 0 1 0 34.133333 0 17.066667 17.066667 0 1 0-34.133333 0Z" fill="" p-id="3498"></path><path d="M580.266667 486.4m-17.066667 0a17.066667 17.066667 0 1 0 34.133333 0 17.066667 17.066667 0 1 0-34.133333 0Z" fill="" p-id="3499"></path><path d="M614.4 537.6m-17.066667 0a17.066667 17.066667 0 1 0 34.133334 0 17.066667 17.066667 0 1 0-34.133334 0Z" fill="" p-id="3500"></path><path d="M179.2 913.066667c42.3424 0 76.8-34.4576 76.8-76.8s-34.4576-76.8-76.8-76.8S102.4 793.924267 102.4 836.266667s34.4576 76.8 76.8 76.8z m0-119.466667c23.517867 0 42.666667 19.131733 42.666667 42.666667s-19.1488 42.666667-42.666667 42.666666S136.533333 859.8016 136.533333 836.266667s19.1488-42.666667 42.666667-42.666667z" fill="" p-id="3501"></path><path d="M853.333333 810.666667m-17.066666 0a17.066667 17.066667 0 1 0 34.133333 0 17.066667 17.066667 0 1 0-34.133333 0Z" fill="" p-id="3502"></path><path d="M785.066667 810.666667m-17.066667 0a17.066667 17.066667 0 1 0 34.133333 0 17.066667 17.066667 0 1 0-34.133333 0Z" fill="" p-id="3503"></path><path d="M887.466667 861.866667m-17.066667 0a17.066667 17.066667 0 1 0 34.133333 0 17.066667 17.066667 0 1 0-34.133333 0Z" fill="" p-id="3504"></path><path d="M819.2 861.866667m-17.066667 0a17.066667 17.066667 0 1 0 34.133334 0 17.066667 17.066667 0 1 0-34.133334 0Z" fill="" p-id="3505"></path><path d="M716.8 810.666667m-17.066667 0a17.066667 17.066667 0 1 0 34.133334 0 17.066667 17.066667 0 1 0-34.133334 0Z" fill="" p-id="3506"></path><path d="M750.933333 861.866667m-17.066666 0a17.066667 17.066667 0 1 0 34.133333 0 17.066667 17.066667 0 1 0-34.133333 0Z" fill="" p-id="3507"></path><path d="M648.533333 810.666667m-17.066666 0a17.066667 17.066667 0 1 0 34.133333 0 17.066667 17.066667 0 1 0-34.133333 0Z" fill="" p-id="3508"></path><path d="M682.666667 861.866667m-17.066667 0a17.066667 17.066667 0 1 0 34.133333 0 17.066667 17.066667 0 1 0-34.133333 0Z" fill="" p-id="3509"></path><path d="M580.266667 810.666667m-17.066667 0a17.066667 17.066667 0 1 0 34.133333 0 17.066667 17.066667 0 1 0-34.133333 0Z" fill="" p-id="3510"></path><path d="M614.4 861.866667m-17.066667 0a17.066667 17.066667 0 1 0 34.133334 0 17.066667 17.066667 0 1 0-34.133334 0Z" fill="" p-id="3511"></path></svg>