<?xml version="1.0" standalone="no"?><!DOCTYPE svg PUBLIC "-//W3C//DTD SVG 1.1//EN" "http://www.w3.org/Graphics/SVG/1.1/DTD/svg11.dtd"><svg t="1542373511620" class="icon" style="" viewBox="0 0 1024 1024" version="1.1" xmlns="http://www.w3.org/2000/svg" p-id="4332" xmlns:xlink="http://www.w3.org/1999/xlink" width="200" height="200"><defs><style type="text/css"></style></defs><path d="M976.992 946l-930 0c-17.12 0-31.008-13.888-31.008-31.008l0-806c0-17.12 13.872-30.992 31.008-30.992l930 0c17.12 0 31.008 13.872 31.008 30.992l0 806C1008 932.112 994.128 946 976.992 946zM946 170.992c0-17.12-13.888-30.992-30.992-30.992l-806 0c-17.12 0-30.992 13.872-30.992 30.992l0 93.008 868 0L946 170.992 946 170.992zM946 326l-868 0 0 527.008c0 17.12 13.888 31.008 30.992 31.008l806 0c17.12 0 30.992-13.872 30.992-31.008L946 326 946 326zM202 233.008l-62 0 0-62 62 0L202 233.008zM326 233.008 264 233.008l0-62 62 0L326 233.008zM450 233.008l-62 0 0-62 62 0L450 233.008z" p-id="4333"></path></svg>