<?xml version="1.0" standalone="no"?><!DOCTYPE svg PUBLIC "-//W3C//DTD SVG 1.1//EN" "http://www.w3.org/Graphics/SVG/1.1/DTD/svg11.dtd"><svg t="1542373622994" class="icon" style="" viewBox="0 0 1024 1024" version="1.1" xmlns="http://www.w3.org/2000/svg" p-id="6808" xmlns:xlink="http://www.w3.org/1999/xlink" width="200" height="200"><defs><style type="text/css"></style></defs><path d="M800 1024c-17.674 0-32-14.326-32-32v-32c0-196.724 58.964-265.026 110.99-325.286C922.458 584.364 960 540.878 960 416c0-194.094-172.262-352-384-352S192 221.906 192 416v32c0 2.974-0.414 5.932-1.232 8.792L138.424 640H224c17.672 0 32 14.326 32 32v128c0 14.356 17.644 32 32 32h128c17.672 0 32 14.326 32 32v128c0 17.674-14.328 32-32 32s-32-14.326-32-32v-96h-96c-49.346 0-96-46.654-96-96v-96H96a32.002 32.002 0 0 1-30.768-40.79L128 443.518V416c0-111.606 46.928-216.386 132.138-295.042C344.638 42.958 456.814 0 576 0s231.362 42.958 315.862 120.958C977.072 199.614 1024 304.396 1024 416c0 148.684-49.092 205.546-96.566 260.538C878.356 733.384 832 787.08 832 960v32c0 17.674-14.326 32-32 32zM576 160c-141.386 0-256 78.798-256 176v16c0 88.366 71.634 160 160 160h113.166C615.3 550.248 656.628 576 704 576c70.694 0 128-57.306 128-128V336c0-97.202-114.616-176-256-176z" p-id="6809"></path></svg>