<?xml version="1.0" standalone="no"?><!DOCTYPE svg PUBLIC "-//W3C//DTD SVG 1.1//EN" "http://www.w3.org/Graphics/SVG/1.1/DTD/svg11.dtd"><svg t="1539173279547" class="icon" style="" viewBox="0 0 1024 1024" version="1.1" xmlns="http://www.w3.org/2000/svg" p-id="28470" xmlns:xlink="http://www.w3.org/1999/xlink" width="200" height="200"><defs><style type="text/css"></style></defs><path d="M960 0 256 0c-35.376 0-64 28.624-64 64l0 96L64 160c-35.376 0-64 28.624-64 64l0 480c0 35.376 28.624 64 64 64l112 0c8.848 0 16 7.152 16 16l0 176c0 25.872 15.568 49.248 39.504 59.12C239.44 1022.432 247.744 1024 256 1024c16.624 0 32.992-6.496 45.248-18.752l226.496-226.496c0 0 8.256-10.752 26.752-10.752S800 768 800 768c35.376 0 64-28.624 64-64l0-128 96 0c35.376 0 64-28.624 64-64L1024 64C1024 28.624 995.376 0 960 0zM832 704c0 17.68-14.32 32-32 32 0 0-234.992 0-245.504 0C523.344 736 512 752 512 752S320 944 288 976c-34.256 34.256-64 6.256-64-16 0-16 0-192 0-192 0-17.68-14.32-32-32-32L64 736c-17.68 0-32-14.32-32-32L32 224c0-17.68 14.32-32 32-32l736 0c17.68 0 32 14.32 32 32L832 704zM992 512c0 17.68-14.32 32-32 32l-96 0L864 224c0-35.376-28.624-64-64-64L224 160 224 64c0-17.68 14.32-32 32-32l704 0c17.68 0 32 14.32 32 32L992 512z" p-id="28471"></path><path d="M208 384l208 0c8.848 0 16-7.152 16-16s-7.152-16-16-16L208 352c-8.848 0-16 7.152-16 16S199.152 384 208 384z" p-id="28472"></path><path d="M656 448 208 448c-8.848 0-16 7.152-16 16s7.152 16 16 16l448 0c8.848 0 16-7.152 16-16S664.848 448 656 448z" p-id="28473"></path><path d="M544 544 208 544c-8.848 0-16 7.152-16 16s7.152 16 16 16l336 0c8.848 0 16-7.152 16-16S552.848 544 544 544z" p-id="28474"></path></svg>