<?xml version="1.0" standalone="no"?><!DOCTYPE svg PUBLIC "-//W3C//DTD SVG 1.1//EN" "http://www.w3.org/Graphics/SVG/1.1/DTD/svg11.dtd"><svg t="1539135092435" class="icon" style="" viewBox="0 0 1068 1024" version="1.1" xmlns="http://www.w3.org/2000/svg" p-id="15311" xmlns:xlink="http://www.w3.org/1999/xlink" width="208.59375" height="200"><defs><style type="text/css"></style></defs><path d="M1068.100506 477.178841c-1.965215-18.669545-7.860861-38.383111-17.686938-54.043421a123.501499 123.501499 0 0 0-98.260765-56.008636h-284.956219L673.09223 345.448003a477.654792 477.654792 0 0 0 25.486386-153.225381c0-28.495622-1.965215-57.973852-7.860861-86.469473l-2.947823-14.739115C674.996032 37.953221 628.813472 0.61413 573.787444 0.61413a116.577186 116.577186 0 0 0-116.930311 116.93031c0 3.930431 0.982608 7.860861 0.982608 11.791292v0.982608c-3.930431 145.425933-111.034665 262.356243-254.495382 280.964376v1.965215H29.484217A28.956219 28.956219 0 0 0 0.005988 442.787573v550.260286A28.956219 28.956219 0 0 0 29.484217 1022.526089h182.703611a14.570229 14.570229 0 0 0 5.895646-0.982608h644.652033c20.634761-0.982608 40.286914-7.860861 57.973851-18.669546a122.089001 122.089001 0 0 0 38.383112-39.304306c9.826077-16.70433 13.81792-36.356483 17.686937-55.026028 5.895646-28.495622 12.773899-56.008636 18.669546-83.521651l23.582584-106.121626c7.860861-34.391268 15.721722-69.765143 23.582583-104.156411 5.895646-26.530407 11.791292-52.078206 17.686938-78.608613 4.851625-19.652153 9.826077-38.321698 7.799448-58.956459z m-884.346887 485.469594H58.962447V472.265803l124.791172-0.982608z m820.47739-451.078326c-1.965215 8.843469-3.930431 18.669545-5.895646 27.513014-3.930431 18.669545-8.843469 37.339091-12.7739 56.008637l-23.582583 106.121626c-7.860861 35.312463-16.70433 71.730359-24.565192 107.104234-5.895646 28.495622-12.773899 56.008636-18.669545 83.521651-3.930431 16.70433-5.895646 36.356483-16.70433 50.11299-14.739115 18.669545-33.40866 21.617368-56.008636 21.617368h-604.303707V464.404942l12.7739-2.947823c114.965095-29.47823 208.312822-117.912918 245.651913-229.930191l2.947823-8.843469c2.947823-10.747271 5.895646-20.634761 7.860861-30.460837 6.878254-34.391268 5.895646-68.782536 5.895646-69.765143v-12.7739l0.982608-3.93043c6.878254-26.530407 31.443445-46.18256 59.877654-44.217345 32.426053 0 58.956459 26.530407 58.956459 57.973852a441.252249 441.252249 0 0 1 6.878253 74.678181c0 48.147775-5.895646 73.695574-6.878253 76.643397l-1.965216 4.913039a406.277558 406.277558 0 0 1-33.347247 97.33957l-5.895646 11.791292a27.205949 27.205949 0 0 0-2.947823 12.773899 28.956219 28.956219 0 0 0 29.47823 29.47823h317.382272c24.565191-0.982608 46.18256 6.878254 59.877654 28.495622 2.947823 5.895646 5.895646 11.791292 6.878253 18.669545a29.017632 29.017632 0 0 1 1.965215 9.826077c1.044021 8.720643-1.903802 18.608132-3.869017 27.451601z" fill="" p-id="15312"></path></svg>