<?xml version="1.0" standalone="no"?><!DOCTYPE svg PUBLIC "-//W3C//DTD SVG 1.1//EN" "http://www.w3.org/Graphics/SVG/1.1/DTD/svg11.dtd"><svg t="1539135197745" class="icon" style="" viewBox="0 0 1024 1024" version="1.1" xmlns="http://www.w3.org/2000/svg" p-id="17087" xmlns:xlink="http://www.w3.org/1999/xlink" width="200" height="200"><defs><style type="text/css"></style></defs><path d="M695.984 103.984l-400.16 0c-53.008 0-96 42.992-96 96l0 288c0 1.04 0.128 2.048 0.16 3.088l0 423.184 297.904-133.328 294.096 133.328L791.984 487.984l0-64 0-224C791.984 146.976 748.992 103.984 695.984 103.984zM759.984 858.288l-262.096-118.112-265.904 112.768L231.984 474.272l0-66.288 0-208c0-35.344 28.656-64 64-64l399.632 0c35.344 0 64 28.656 64 64l0 208 0.368 0L759.984 858.288z" p-id="17088"></path><path d="M535.696 396.768 486.128 296.016 439.648 398.208 327.792 413.888 411.36 489.344 391.792 599.776 489.92 544.224 589.68 596.8 566.768 487.008 647.984 409.056Z" p-id="17089"></path></svg>