<?xml version="1.0" standalone="no"?><!DOCTYPE svg PUBLIC "-//W3C//DTD SVG 1.1//EN" "http://www.w3.org/Graphics/SVG/1.1/DTD/svg11.dtd"><svg t="1542373695782" class="icon" style="" viewBox="0 0 1113 1024" version="1.1" xmlns="http://www.w3.org/2000/svg" p-id="9616" xmlns:xlink="http://www.w3.org/1999/xlink" width="217.3828125" height="200"><defs><style type="text/css"></style></defs><path d="M1031.418585 274.730334C878.06259 82.744142 650.914983-36.372033 435.069716 10.027723 219.262849 56.45308-53.40132 327.709256 9.087952 638.811622 71.590024 949.913989 460.97678 1078.566114 605.436821 1002.790511c110.156222-57.894096-68.146842-119.128975 0-198.565357 68.134042-79.449183 223.154028-15.23192 369.150062-66.175653 113.612204-39.602992 210.098097-271.204976 56.780502-463.191168M264.85621 804.481152c-47.052553 0-85.324352-44.428567-85.324353-99.225079 0-54.783712 38.1438-99.289079 85.324353-99.289078 47.167752 0 85.324352 44.492566 85.324352 99.289078 0 54.783712-38.207799 99.225079-85.324352 99.225079m-14.143926-264.574611c-54.847712 0-99.429878-51.967727-99.429878-115.800992 0-63.846065 44.518166-115.800992 99.429878-115.800992 54.911712 0 99.353078 51.801328 99.353078 115.800992 0 63.999664-44.492566 115.800992-99.353078 115.800992m227.147607-198.654957c-54.847712 0-99.455478-51.814128-99.455478-115.800992 0-63.999664 44.582166-115.800992 99.455478-115.800992 54.886112 0 99.378678 51.801328 99.378678 115.800992 0 63.986864-44.543766 115.788192-99.378678 115.788192M633.993472 241.924106c0-54.847712 38.1182-99.314679 85.324352-99.314679s85.324352 44.492566 85.324352 99.314679-38.0926 99.250679-85.324352 99.250679c-47.231752 0-85.324352-44.402967-85.324352-99.250679M832.891627 605.979795c-47.052553 0-85.324352-44.428567-85.324352-99.314679s38.1438-99.250679 85.324352-99.250679c47.167752 0 85.324352 44.466967 85.324352 99.327479 0 54.847712-38.0926 99.301879-85.324352 99.301878" p-id="9617"></path></svg>