<?xml version="1.0" standalone="no"?><!DOCTYPE svg PUBLIC "-//W3C//DTD SVG 1.1//EN" "http://www.w3.org/Graphics/SVG/1.1/DTD/svg11.dtd"><svg t="1539173519494" class="icon" style="" viewBox="0 0 1024 1024" version="1.1" xmlns="http://www.w3.org/2000/svg" p-id="33124" xmlns:xlink="http://www.w3.org/1999/xlink" width="200" height="200"><defs><style type="text/css"></style></defs><path d="M957.515 97.685l-0.003-0.132a31.141 31.141 0 0 0-0.108-2.542c-0.02-0.243-0.045-0.483-0.07-0.725a29.92 29.92 0 0 0-0.293-2.114c-0.034-0.195-0.06-0.392-0.097-0.587a31.053 31.053 0 0 0-0.596-2.505c-0.071-0.255-0.157-0.505-0.235-0.757a31.018 31.018 0 0 0-0.6-1.753c-0.114-0.304-0.227-0.607-0.35-0.909a31.341 31.341 0 0 0-0.972-2.137c-0.14-0.275-0.295-0.542-0.441-0.814a31.12 31.12 0 0 0-1.483-2.462 30.218 30.218 0 0 0-1.217-1.692c-0.132-0.17-0.255-0.345-0.391-0.513a30.713 30.713 0 0 0-2.259-2.488 30.872 30.872 0 0 0-1.81-1.672c-0.073-0.063-0.135-0.132-0.209-0.194-0.021-0.018-0.045-0.032-0.066-0.05a31.16 31.16 0 0 0-1.826-1.408c-0.127-0.09-0.259-0.168-0.387-0.255-0.227-0.156-0.457-0.303-0.686-0.453-0.57-0.37-1.148-0.72-1.736-1.049-0.242-0.136-0.48-0.28-0.725-0.41-0.744-0.39-1.5-0.748-2.267-1.076-0.3-0.129-0.605-0.24-0.908-0.357-0.538-0.21-1.08-0.405-1.628-0.584-0.324-0.106-0.646-0.213-0.974-0.308-0.79-0.23-1.585-0.435-2.388-0.6-0.225-0.047-0.452-0.076-0.678-0.117a30.798 30.798 0 0 0-5.082-0.506c-0.13-0.002-0.26-0.013-0.39-0.013-0.878-0.003-1.757 0.04-2.635 0.111-0.226 0.019-0.449 0.045-0.673 0.069-0.704 0.072-1.406 0.17-2.106 0.291-0.21 0.037-0.422 0.068-0.632 0.109a30.72 30.72 0 0 0-2.55 0.606c-0.198 0.056-0.392 0.127-0.59 0.187a30.84 30.84 0 0 0-2.812 1.01c-0.57 0.237-1.132 0.129-1.691 0.402-0.253 0.123-0.51-0.004-0.76-0.004h-0.002L80.732 504.062c-10.295 5.38-16.717 16.25-16.635 27.864s6.652 22.3 17.022 27.534l223.288 112.745c15.274 7.715 33.911 1.602 41.622-13.676 7.71-15.276 1.577-33.9-13.7-41.61L162.9 531.41l640.413-334.594-394.77 473.228a30.98 30.98 0 0 0-7.192 19.849v236.62c0 17.112 13.872 30.985 30.985 30.985 17.111 0 30.984-13.872 30.984-30.984V701.12l416.435-499.195-94.86 641.01-223.433-110.893c-15.328-7.606-33.922-1.348-41.528 13.979-7.609 15.329-1.35 33.921 13.98 41.53l261.615 129.845a30.981 30.981 0 0 0 28.127-0.295 30.986 30.986 0 0 0 16.3-22.923L957.181 102.02c0.042-0.28 0.062-0.562 0.095-0.843 0.036-0.295 0.073-0.59 0.1-0.886 0.078-0.87 0.133-1.74 0.138-2.606z" fill="" p-id="33125"></path></svg>