<?xml version="1.0" standalone="no"?><!DOCTYPE svg PUBLIC "-//W3C//DTD SVG 1.1//EN" "http://www.w3.org/Graphics/SVG/1.1/DTD/svg11.dtd"><svg t="1539173240210" class="icon" style="" viewBox="0 0 1367 1024" version="1.1" xmlns="http://www.w3.org/2000/svg" p-id="26669" xmlns:xlink="http://www.w3.org/1999/xlink" width="266.9921875" height="200"><defs><style type="text/css"></style></defs><path d="M1122.986667 798.72 436.906667 798.72c-54.613333 0-98.986667-30.72-109.226667-71.68L215.04 262.826667c-10.24-37.546667-34.133333-68.266667-71.68-92.16L139.946667 170.666667 20.48 85.333333c-23.893333-17.066667-27.306667-47.786667-10.24-68.266667 17.066667-20.48 51.2-23.893333 75.093333-10.24l116.053333 81.92c61.44 37.546667 102.4 88.746667 116.053333 150.186667l112.64 457.386667c0 0 3.413333 0 6.826667 0l686.08 0c3.413333 0 3.413333 0 6.826667 0l133.12-532.48c6.826667-27.306667 34.133333-40.96 64.853333-37.546667C1351.68 136.533333 1372.16 163.84 1365.333333 187.733333l-133.12 535.893333C1221.973333 768 1177.6 798.72 1122.986667 798.72z" p-id="26670"></path><path d="M1082.026667 273.066667 477.866667 273.066667c-30.72 0-54.613333-6.826667-54.613333-34.133333s23.893333-34.133333 54.613333-34.133333l604.16 0c30.72 0 54.613333 6.826667 54.613333 34.133333S1109.333333 273.066667 1082.026667 273.066667z" p-id="26671"></path><path d="M1010.346667 512 549.546667 512c-30.72 0-54.613333-6.826667-54.613333-34.133333s23.893333-34.133333 54.613333-34.133333l460.8 0c30.72 0 54.613333 6.826667 54.613333 34.133333S1041.066667 512 1010.346667 512z" p-id="26672"></path><path d="M443.733333 942.08a2.6 2.4 0 1 0 177.493333 0 2.6 2.4 0 1 0-177.493333 0Z" p-id="26673"></path><path d="M976.213333 942.08a2.6 2.4 0 1 0 177.493333 0 2.6 2.4 0 1 0-177.493333 0Z" p-id="26674"></path></svg>