<?xml version="1.0" standalone="no"?><!DOCTYPE svg PUBLIC "-//W3C//DTD SVG 1.1//EN" "http://www.w3.org/Graphics/SVG/1.1/DTD/svg11.dtd"><svg t="1542374221468" class="icon" style="" viewBox="0 0 1152 1024" version="1.1" xmlns="http://www.w3.org/2000/svg" p-id="13481" xmlns:xlink="http://www.w3.org/1999/xlink" width="225" height="200"><defs><style type="text/css"></style></defs><path d="M1056 128H96C42.98 128 0 170.98 0 224v576c0 53.02 42.98 96 96 96h960c53.02 0 96-42.98 96-96V224c0-53.02-42.98-96-96-96z m16 672c0 8.822-7.178 16-16 16H96c-8.822 0-16-7.178-16-16V224c0-8.822 7.178-16 16-16h960c8.822 0 16 7.178 16 16v576zM340 540v-56c0-13.254-10.746-24-24-24h-56c-13.254 0-24 10.746-24 24v56c0 13.254 10.746 24 24 24h56c13.254 0 24-10.746 24-24z m192 0v-56c0-13.254-10.746-24-24-24h-56c-13.254 0-24 10.746-24 24v56c0 13.254 10.746 24 24 24h56c13.254 0 24-10.746 24-24z m192 0v-56c0-13.254-10.746-24-24-24h-56c-13.254 0-24 10.746-24 24v56c0 13.254 10.746 24 24 24h56c13.254 0 24-10.746 24-24z m192 0v-56c0-13.254-10.746-24-24-24h-56c-13.254 0-24 10.746-24 24v56c0 13.254 10.746 24 24 24h56c13.254 0 24-10.746 24-24z m-672 164v-56c0-13.254-10.746-24-24-24H164c-13.254 0-24 10.746-24 24v56c0 13.254 10.746 24 24 24h56c13.254 0 24-10.746 24-24z m768 0v-56c0-13.254-10.746-24-24-24h-56c-13.254 0-24 10.746-24 24v56c0 13.254 10.746 24 24 24h56c13.254 0 24-10.746 24-24zM244 376v-56c0-13.254-10.746-24-24-24H164c-13.254 0-24 10.746-24 24v56c0 13.254 10.746 24 24 24h56c13.254 0 24-10.746 24-24z m192 0v-56c0-13.254-10.746-24-24-24h-56c-13.254 0-24 10.746-24 24v56c0 13.254 10.746 24 24 24h56c13.254 0 24-10.746 24-24z m192 0v-56c0-13.254-10.746-24-24-24h-56c-13.254 0-24 10.746-24 24v56c0 13.254 10.746 24 24 24h56c13.254 0 24-10.746 24-24z m192 0v-56c0-13.254-10.746-24-24-24h-56c-13.254 0-24 10.746-24 24v56c0 13.254 10.746 24 24 24h56c13.254 0 24-10.746 24-24z m192 0v-56c0-13.254-10.746-24-24-24h-56c-13.254 0-24 10.746-24 24v56c0 13.254 10.746 24 24 24h56c13.254 0 24-10.746 24-24z m-196 316v-32c0-13.254-10.746-24-24-24H360c-13.254 0-24 10.746-24 24v32c0 13.254 10.746 24 24 24h432c13.254 0 24-10.746 24-24z" p-id="13482"></path></svg>